<?xml version="1.0" encoding="UTF-8"?>
<svg id="Calque_2" data-name="Calque 2" xmlns="http://www.w3.org/2000/svg" viewBox="0 0 1280 1280">
  <defs>
    <style>
      .cls-1 {
        fill: #fff;
        stroke-width: 0px;
      }
    </style>
  </defs>
  <path class="cls-1" d="m507.32,321.74l-10.79,17.08s-36.3,55.85-82.71,119.57c-46.41,63.72-104.96,135.87-139.35,160.03l-14.38,9.89,1.8,17.08,28.77,258.92,2.7,25.17h26.07c42.7,0,92.49,2.25,142.05,5.39l30.57,1.8v-237.34h57.54v241.84l26.07,2.7c81.36,7.19,142.95,14.38,142.95,14.38h4.5l314.66-62.93.9-22.48s2.58-47.99,7.19-104.29c4.61-56.3,12.14-122.49,19.78-146.54l6.29-19.78-15.28-11.69c-99.23-76.87-194.19-249.93-194.19-249.93l-8.99-17.98-20.68,2.7s-184.86,25.51-306.57.9l-18.88-4.5Zm316.46,56.94c11.8,21.91,70.01,125.98,153.73,208.57l-216.67,34.16c-70.91-68.1-143.17-175.76-182.5-238.24,111.37,11.46,221.27-1.24,245.43-4.5Zm-304.77,29.37c37.76,60.8,116.99,180.14,200.48,259.82-18.88,76.98-24.61,179.58-26.07,230.15-19.22-2.02-42.37-4.83-86.31-8.99v-247.23h-172.61v234.65c-30.68-1.69-60.46-3.15-89-3.6l-24.27-221.16c46.41-37.76,96.08-99.79,139.35-159.13,28.09-38.66,45.63-65.07,58.44-84.51Zm486.37,234.05c-6.74,34.28-11.91,74.73-15.28,115.08-3.71,45.51-4.61,70.46-5.39,85.41l-231.05,46.75c1.46-50.68,6.74-146.54,21.58-211.27l230.15-35.96Z"/>
</svg>