<?xml version="1.0" encoding="UTF-8"?>
<svg id="OBJECTS" xmlns="http://www.w3.org/2000/svg" version="1.1" viewBox="0 0 215.6 117.9">
    <!-- Generator: Adobe Illustrator 29.1.0, SVG Export Plug-In . SVG Version: 2.1.0 Build 142)  -->
    <defs>
        <style>
            .st0 {
            opacity: .6;
            }

            .st1 {
            fill: #28283b;
            }

            .st2 {
            opacity: .3;
            }

            .st3 {
            fill: #fff;
            }

            .st4 {
            fill: #371945;
            }

            .st5 {
            fill: #d05658;
            }

            .st6 {
            opacity: .2;
            }

            .st7 {
            fill: #76d1d6;
            }

            .st8 {
            opacity: .4;
            }

            .st9 {
            fill: #3e8e92;
            }

            .st10 {
            fill: #f8a87b;
            }
        </style>
    </defs>
    <path class="st9" d="M35.9,84.5l-8-1.8c-3.6-.8-6.5-3.6-7.5-7.2h0c-3-10.7-3-22,0-32.7h0c1-3.6,3.9-6.3,7.5-7.1l8-1.8"/>
    <g class="st0">
        <path class="st7" d="M35.4,38.8l-7.9,1.8c-2,.4-3.8,1.4-5.2,2.8-1.4,1.4-2.5,3.1-3.1,5.1-.4,1.5-.8,3.1-1.1,4.6.4-3.1,1-6.2,1.8-9.3.5-1.8,1.5-3.4,2.8-4.6,1.3-1.2,2.9-2.1,4.7-2.5l8-1.8v3.9Z"/>
    </g>
    <g class="st8">
        <path class="st7" d="M18.9,60.5s0,0,0,0c.3,3.7,1,7.4,2,11,1,3.6,3.9,6.4,7.5,7.2l7.5,1.7v-46.4c0,0-1.8.4-1.8.4v34.4c0,0-8-1.8-8-1.8-3.4-.8-6.1-3.2-7.3-6.4ZM34.1,64.5v-30.2s.5-.1.5-.1v30.4s-.5-.1-.5-.1Z"/>
    </g>
    <path class="st10" d="M62.3,25.3C61.3,14.6,50.4-3.3,12.2,3.9c-.5,0-.6.8-.2,1,4.7,2.9,27,16.5,26.5,30.7"/>
    <g class="st0">
        <path class="st3" d="M16.8,7.3c-2-1.3-3.6-2.3-4.6-2.9-.4-.3-.3-.9.2-1C50.6-3.9,61.5,14.1,62.5,24.7l-2.6,1.1c-2.9-9.9-13.9-22.3-43.1-18.6Z"/>
    </g>
    <path class="st1" d="M37.8,37.6c-.8-.3-1.4-1.2-1.4-2.1.2-4.7-2.9-14.8-25.2-28.6h-.2c-1-.7-1.5-1.9-1.3-3,.2-1.1,1.1-2,2.2-2.2C30.4-1.8,44.6,0,54.1,7.3c8.4,6.3,10,14.6,10.4,17.8.1,1.2-.8,2.3-2,2.4-1.2.1-2.3-.8-2.4-2-.3-2.7-1.6-9.4-8.6-14.7-7.7-5.8-19.6-7.7-34.7-5.4,20.1,13.3,24.2,23.8,23.9,30.4,0,1.2-1.1,2.1-2.3,2.1-.3,0-.5,0-.7-.2Z"/>
    <path class="st5" d="M62.4,92.3c-1,10.7-11.9,29.1-50,21.7-.5,0-.6-.8-.2-1,4.7-2.9,27-17,26.4-31.1"/>
    <path class="st10" d="M12.4,114c-.5-.1-.6-.8-.2-1,2.4-1.5,9.4-5.9,15.6-11.8,5.9-5.5,11-12.4,10.8-19.2,0,0,0-.1,0-.2h.1c0,0,23.6,10.5,23.6,10.5-.3,3-1.3,6.6-3.6,10.1-5.7,8.9-19,16.9-46.4,11.6Z"/>
    <g class="st8">
        <path class="st4" d="M27.8,101.2c5.9-5.5,11-12.4,10.8-19.2,0,0,0,0,.1,0l23.6,10.5c-.3,3-1.3,6.6-3.6,10.1-7.6,2.6-17.8,2.9-31-1.2Z"/>
    </g>
    <path class="st1" d="M11.5,116c-.9-.3-1.5-1.1-1.7-2.1-.2-1.1.3-2.2,1.3-2.8,6.1-3.7,25.9-16.9,25.4-29.2,0-1.2.9-2.2,2.1-2.3,1.2,0,2.2.9,2.3,2.1.5,12.5-14.5,24.6-23.9,30.8,14.9,2.3,26.7.5,34.4-5.3,7.4-5.6,8.7-13,8.9-15.2.1-1.2,1.2-2.1,2.4-2,1.2.1,2.1,1.2,2,2.4-.3,3.3-2,11.8-10.6,18.2-9.5,7.1-23.7,8.9-42,5.4-.2,0-.3,0-.5-.1ZM12.8,111.8s0,0,0,0c0,0,0,0,0,0Z"/>
    <path class="st3" d="M214.3,59.7s-24.3,41.3-92.1,45.7c-57.8,3.8-86.9-21.1-86.9-21.1-3.8-10.3-5.2-21.3-4.3-32.2.6-6.3,2-12.5,4.2-18.5,0,0,13-11,38.8-17,.9-.2,1.8-.4,2.7-.6,10-2.1,21.8-3.5,35.4-3.2,3.2,0,6.5.2,9.9.5.1,0,.3,0,.4,0,13.7,1,25.7,3.6,36,6.9.3.1.7.2,1,.3,39.7,13.3,54.8,39.1,54.8,39.1Z"/>
    <path class="st10" d="M166.2,96.4c5.1-24.2,5.1-49.2-.1-73.5,35.1,13.8,48.8,36.9,48.8,36.9,0,0-13.5,23-48.6,36.6Z"/>
    <g class="st0">
        <path class="st3" d="M213,62.3c1.4-1.8,2-2.9,2-2.9,0,0-13.6-23.2-48.8-36.9.3,1.6.6,3.1.9,4.7,29.6,12.3,43.1,31,45.8,35.1Z"/>
    </g>
    <path class="st1" d="M163.6,99.5l.7-3.4c5.1-24.1,5.1-48.5-.1-72.7l-.7-3.4,3.3,1.3c27.9,10.9,42.5,27.7,47.5,34.5,1.9,2.5,1.9,5.9,0,8.4-5,6.7-19.6,23.4-47.4,34.1l-3.3,1.3ZM168.6,26c4.3,22.4,4.4,45,0,67.3,24.8-10.4,37.9-25.4,42.5-31.5.9-1.2.9-2.7,0-3.9-4.6-6.2-17.7-21.3-42.5-31.9Z"/>
    <path class="st1" d="M56.6,98.1c-14.4-5.8-21.7-11.9-22-12.1l-.4-.3-.2-.5c-3.1-8.4-4.7-17.1-4.7-26,0-8.9,1.5-17.6,4.6-26l.2-.5.4-.3c.3-.3,7.7-6.4,22.3-12.1,13.4-5.2,35.7-11,65.9-8.8,15.8,1.1,30.6,4.4,44,9.6l1,.4.2,1c5.3,24.6,5.3,49.5.1,74.1v1.1s-1.2.5-1.2.5c-13.4,5.1-28.1,8.3-44,9.3-30.2,2-52.5-3.9-65.9-9.3-.1,0-.2,0-.3-.1ZM37.5,83.4c1.7,1.3,8.7,6.6,21.1,11.4,13,5.1,34.7,10.8,64.1,8.9,15.1-1,29.2-3.9,41.9-8.7,4.8-23.4,4.8-47.2-.1-70.7-12.8-4.9-26.9-7.9-41.9-9-52.9-3.8-81.6,17-85.1,19.7-2.8,7.8-4.2,15.9-4.2,24.1,0,8.3,1.4,16.4,4.3,24.2Z"/>
    <path class="st1" d="M25.7,84c-3.5-1.4-6.1-4.3-7.2-8-3.1-11-3.1-22.7,0-33.7,1.2-4.3,4.6-7.5,8.9-8.5l8-1.8c1-.2,2,.4,2.3,1.4.2,1-.4,2-1.4,2.3l-8,1.8c-3,.7-5.3,2.9-6.1,5.8-2.9,10.3-2.9,21.3,0,31.7.8,2.9,3.2,5.2,6.1,5.8l8,1.8c1,.2,1.7,1.3,1.4,2.3-.2,1-1.2,1.7-2.3,1.4l-8-1.8c-.6-.1-1.2-.3-1.8-.6Z"/>
    <path class="st10" d="M132.8,83.1c-13,0-23.5-10.6-23.5-23.6,0-13,10.5-23.5,23.4-23.4,13,0,23.5,10.6,23.5,23.6,0,13-10.5,23.5-23.4,23.4Z"/>
    <g class="st0">
        <path class="st3" d="M155.6,64.6c0-.5,0-1.1,0-1.6,0-13-10.5-23.5-23.5-23.6-11.4,0-20.9,8.1-23,18.9.8-12.2,11-21.9,23.4-21.8,13,0,23.5,10.6,23.5,23.6,0,1.5-.1,3.1-.4,4.5Z"/>
    </g>
    <g class="st8">
        <path class="st10" d="M132.8,83.1c-13,0-23.5-10.6-23.5-23.6,0-4.1,1-7.9,2.9-11.3-.4,1.7-.6,3.5-.6,5.3,0,13,10.5,23.6,23.5,23.6,8.9,0,16.6-4.9,20.6-12.2-2.4,10.4-11.7,18.2-22.8,18.2Z"/>
    </g>
    <path class="st1" d="M123.4,83.2c-3.2-1.3-6.1-3.2-8.6-5.7-4.8-4.8-7.4-11.2-7.5-18,0-6.8,2.6-13.2,7.4-17.9,4.8-4.8,11.1-7.4,17.9-7.4,6.8,0,13.1,2.7,17.9,7.5,4.8,4.8,7.4,11.2,7.5,18,0,6.8-2.6,13.2-7.4,17.9-4.8,4.8-11.1,7.4-17.9,7.4h0c-3.2,0-6.4-.6-9.3-1.8ZM140.6,39.5c-2.5-1-5.2-1.5-7.9-1.5-5.8,0-11.2,2.2-15.2,6.3-4.1,4.1-6.3,9.5-6.3,15.3,0,5.8,2.3,11.2,6.3,15.3,4.1,4.1,9.5,6.4,15.3,6.4h0c5.8,0,11.2-2.2,15.2-6.3,4.1-4.1,6.3-9.5,6.3-15.3,0-5.8-2.3-11.2-6.3-15.3-2.1-2.1-4.6-3.8-7.3-4.9Z"/>
    <path class="st7" d="M133,74.2c-8.2,0-14.9-6.8-14.9-15,0-8.3,6.7-14.9,14.9-14.9,8.2,0,14.9,6.8,14.9,15,0,8.3-6.7,14.9-14.9,14.9Z"/>
    <g class="st2">
        <path class="st3" d="M133,74.3c-8.2,0-14.9-6.8-14.9-15,0-1.8.3-3.5.9-5.1,0,.2,0,.3,0,.5,0,8.3,6.7,15,14.9,15,6.5,0,12-4.1,14-9.8-.3,8-6.8,14.4-14.9,14.4Z"/>
    </g>
    <g class="st8">
        <path class="st4" d="M146.8,65.6c0-.3,0-.5,0-.8,0-8.3-6.7-15-14.9-15-6.2,0-11.5,3.8-13.8,9.1.4-7.9,6.9-14.2,14.9-14.1,8.2,0,14.9,6.7,14.9,15,0,2-.4,4-1.1,5.8Z"/>
    </g>
    <path class="st1" d="M126.8,75c-2.1-.8-4.1-2.1-5.7-3.8-3.2-3.2-4.9-7.4-4.9-11.9,0-9.3,7.5-16.8,16.8-16.8,9.3,0,16.8,7.6,16.8,16.9,0,9.3-7.5,16.8-16.8,16.8-2.2,0-4.2-.4-6.2-1.2ZM137.8,47.2c-1.5-.6-3.1-.9-4.8-.9-7.2,0-13,5.8-13,13,0,3.5,1.4,6.8,3.8,9.2,2.5,2.5,5.7,3.8,9.2,3.9h0c7.2,0,13-5.8,13-13,0-5.5-3.4-10.2-8.3-12.2Z"/>
    <g class="st6">
        <path class="st3" d="M190.1,47.6c1.2-3.4-4.7-8.7-8.6-10.2-4.1-1.6-6.8-1.9-7.5,0-1.1,2.7,1.7,4.9,5.4,6.6,2.6,1.2,9.3,7.7,10.8,3.6Z"/>
    </g>
    <g class="st8">
        <path class="st4" d="M36.2,80.9s29.1,24.8,86.9,21.1c58.7-3.8,84.7-35.3,90.7-43.7.2.2.3.5.5.7-.5-.8-1.4-2-2.7-3.7-12.7,12.6-38.3,30.7-82,33.6-27.3,1.8-48.2-2.8-62.6-8.2-18.5-6.8-30.3-25.1-28.6-44.7,0-.1,0-.2,0-.3,0-.8.2-1.6.3-2.3,0-.3,0-.7,0-1,0-.1,0-.2,0-.3,0-.1,0-.2,0-.3,0,0,0,0,.1,0h0c-2.1,1.4-3.2,2.3-3.2,2.3-2,5.3-3.3,10.8-3.9,16.3-.7,10.3.7,20.8,4.4,30.7Z"/>
    </g>
    <path class="st10" d="M39.3,72.7c-17.5,0-34.7-14-34.7-14,0,0,0,0,.2-.1,1.9-1.5,18.1-13.7,34.5-13.6,15.8,0,28.4,11.5,30.6,13.6.2.2.3.3.3.3,0,0-13.6,13.8-30.9,13.8Z"/>
    <g class="st0">
        <path class="st3" d="M70.7,59.9s-.8.8-2.3,2.1c-4.4-3.8-15.6-12.1-29-12.2-13.2,0-26.2,7.8-31.8,11.7-1.6-1.1-2.5-1.8-2.5-1.8,0,0,0,0,.2-.1,1.9-1.5,18.1-13.7,34.5-13.6,15.8,0,28.4,11.5,30.6,13.6.2.2.4.3.4.3Z"/>
    </g>
    <g class="st8">
        <path class="st4" d="M39.3,72.7c-17.5,0-34.7-14-34.7-14,0,0,0,0,.2-.1h65.1c.2.3.3.4.3.4,0,0-13.6,13.8-30.9,13.8Z"/>
    </g>
    <path class="st1" d="M21.6,71.7c-10.5-4.2-18.4-10.5-18.8-10.8l-2.8-2.2,2.8-2.2c.7-.6,18.2-14.4,36.5-14.4,18.4,0,32.4,14.2,33,14.9l2,2-2,2c-.6.6-14.6,14.7-33,14.6-6.2,0-12.3-1.6-17.7-3.8ZM9.5,58.7c5.6,3.8,17.8,11.1,29.8,11.1,12.1,0,22.3-7.3,26.7-10.9-4.4-3.7-14.7-11.1-26.7-11.1-12.1,0-24.3,7.1-29.8,10.9ZM4.6,58.7h0s0,0,0,0Z"/>
</svg>