<?xml version="1.0" encoding="UTF-8"?>
<svg id="Calque_7" data-name="Calque 7" xmlns="http://www.w3.org/2000/svg" xmlns:xlink="http://www.w3.org/1999/xlink" viewBox="0 0 1914.13 658.34">
  <defs>
    <style>
      .cls-1 {
        fill: #f49511;
      }

      .cls-1, .cls-2, .cls-3, .cls-4, .cls-5, .cls-6, .cls-7, .cls-8, .cls-9, .cls-10, .cls-11, .cls-12, .cls-13, .cls-14, .cls-15, .cls-16, .cls-17, .cls-18, .cls-19, .cls-20, .cls-21, .cls-22, .cls-23, .cls-24, .cls-25, .cls-26, .cls-27, .cls-28, .cls-29, .cls-30, .cls-31, .cls-32, .cls-33, .cls-34, .cls-35, .cls-36, .cls-37, .cls-38, .cls-39, .cls-40, .cls-41, .cls-42, .cls-43, .cls-44, .cls-45, .cls-46, .cls-47, .cls-48, .cls-49, .cls-50, .cls-51, .cls-52, .cls-53, .cls-54, .cls-55, .cls-56, .cls-57, .cls-58, .cls-59, .cls-60, .cls-61, .cls-62, .cls-63, .cls-64, .cls-65, .cls-66, .cls-67, .cls-68, .cls-69, .cls-70, .cls-71, .cls-72, .cls-73, .cls-74, .cls-75, .cls-76, .cls-77, .cls-78, .cls-79, .cls-80, .cls-81, .cls-82, .cls-83, .cls-84, .cls-85, .cls-86, .cls-87, .cls-88, .cls-89, .cls-90, .cls-91, .cls-92, .cls-93, .cls-94, .cls-95, .cls-96, .cls-97, .cls-98, .cls-99, .cls-100, .cls-101, .cls-102, .cls-103, .cls-104, .cls-105, .cls-106, .cls-107, .cls-108, .cls-109, .cls-110, .cls-111, .cls-112, .cls-113, .cls-114, .cls-115, .cls-116, .cls-117, .cls-118, .cls-119, .cls-120, .cls-121, .cls-122, .cls-123, .cls-124, .cls-125, .cls-126, .cls-127, .cls-128, .cls-129, .cls-130, .cls-131, .cls-132, .cls-133, .cls-134, .cls-135, .cls-136, .cls-137, .cls-138, .cls-139, .cls-140, .cls-141, .cls-142, .cls-143, .cls-144, .cls-145, .cls-146, .cls-147 {
        stroke-width: 0px;
      }

      .cls-2 {
        fill: #f28b13;
      }

      .cls-3 {
        fill: #f49111;
      }

      .cls-4 {
        fill: #f69b10;
      }

      .cls-5 {
        fill: #e21b1b;
      }

      .cls-6 {
        fill: #62bfc2;
      }

      .cls-7 {
        fill: #e32a1a;
      }

      .cls-8 {
        fill: #f07a15;
      }

      .cls-9 {
        fill: #e4321a;
      }

      .cls-10 {
        fill: #f07d15;
      }

      .cls-11 {
        fill: #df0a1a;
      }

      .cls-12 {
        fill: #f18214;
      }

      .cls-13 {
        fill: #e94f19;
      }

      .cls-14 {
        fill: #e63619;
      }

      .cls-15 {
        fill: #f17f14;
      }

      .cls-16 {
        fill: #e42c1a;
      }

      .cls-148 {
        opacity: .5;
      }

      .cls-17 {
        fill: #f9b40b;
      }

      .cls-18 {
        fill: #e63b19;
      }

      .cls-19 {
        fill: #f07b15;
      }

      .cls-20 {
        fill: #df051a;
      }

      .cls-21 {
        fill: #ec6417;
      }

      .cls-22 {
        fill: #ef7416;
      }

      .cls-149 {
        opacity: .6;
      }

      .cls-23 {
        fill: #e00f1a;
      }

      .cls-24 {
        fill: #ec5d17;
      }

      .cls-25 {
        fill: #e74119;
      }

      .cls-26 {
        fill: #e3241a;
      }

      .cls-27 {
        fill: #e3261a;
      }

      .cls-28 {
        fill: #e42f1a;
      }

      .cls-29 {
        fill: #e21e1b;
      }

      .cls-30 {
        fill: #f69f0f;
      }

      .cls-31 {
        fill: #e0171a;
      }

      .cls-150 {
        opacity: .2;
      }

      .cls-151 {
        stroke-dasharray: 0 0 25.16 40.25;
      }

      .cls-151, .cls-52, .cls-152 {
        fill: none;
      }

      .cls-151, .cls-152 {
        stroke: #afcccd;
        stroke-linecap: round;
        stroke-miterlimit: 10;
        stroke-width: 4px;
      }

      .cls-32 {
        fill: #e94819;
      }

      .cls-33 {
        fill: #f7a50f;
      }

      .cls-34 {
        fill: #e0141a;
      }

      .cls-35 {
        fill: #e74419;
      }

      .cls-36 {
        fill: #e94e19;
      }

      .cls-37 {
        fill: #e00b1a;
      }

      .cls-38 {
        fill: #e63819;
      }

      .cls-39 {
        fill: #ed6a16;
      }

      .cls-40 {
        fill: #f28813;
      }

      .cls-41 {
        fill: #ee6f15;
      }

      .cls-42 {
        fill: #e63919;
      }

      .cls-43 {
        fill: #f18014;
      }

      .cls-44 {
        fill: #f9b50b;
      }

      .cls-45 {
        fill: #ef7616;
      }

      .cls-46 {
        fill: #e0171b;
      }

      .cls-47 {
        fill: #e74719;
      }

      .cls-153 {
        opacity: .35;
      }

      .cls-48 {
        fill: #f39766;
      }

      .cls-49 {
        fill: #e94c19;
      }

      .cls-50 {
        fill: #f28414;
      }

      .cls-51 {
        fill: #e2191b;
      }

      .cls-53 {
        fill: #e3271a;
      }

      .cls-54 {
        fill: #e63a19;
      }

      .cls-55 {
        fill: #e42d1a;
      }

      .cls-56 {
        fill: #ef7015;
      }

      .cls-57 {
        fill: #e94d19;
      }

      .cls-58 {
        fill: #f9af0d;
      }

      .cls-59 {
        fill: #ec6117;
      }

      .cls-60 {
        fill: #171722;
      }

      .cls-61 {
        fill: #f28513;
      }

      .cls-62 {
        fill: #281236;
      }

      .cls-63 {
        fill: #f7a90e;
      }

      .cls-64 {
        fill: #ec5e17;
      }

      .cls-65 {
        fill: #e00d1a;
      }

      .cls-66 {
        fill: #e5351a;
      }

      .cls-67 {
        fill: #df011a;
      }

      .cls-68 {
        fill: #ea5418;
      }

      .cls-69 {
        fill: #df081a;
      }

      .cls-70 {
        fill: #f9b10c;
      }

      .cls-71 {
        fill: #f9b70a;
      }

      .cls-72 {
        fill: #f48f12;
      }

      .cls-73 {
        fill: #e63719;
      }

      .cls-74 {
        fill: #fff;
      }

      .cls-154 {
        opacity: .3;
      }

      .cls-75 {
        fill: #fbbd08;
      }

      .cls-76 {
        fill: #ea5818;
      }

      .cls-77 {
        fill: #e4331a;
      }

      .cls-78 {
        fill: #fbba09;
      }

      .cls-79 {
        fill: #e74319;
      }

      .cls-80 {
        fill: #e4341a;
      }

      .cls-81 {
        fill: #e63c19;
      }

      .cls-82 {
        fill: #ed6b16;
      }

      .cls-83 {
        fill: #f7a40f;
      }

      .cls-84 {
        fill: #e3251a;
      }

      .cls-85 {
        fill: #e95218;
      }

      .cls-86 {
        fill: #f48e12;
      }

      .cls-87 {
        fill: #f49311;
      }

      .cls-88 {
        fill: #e32b1a;
      }

      .cls-89 {
        fill: #ec5c17;
      }

      .cls-90 {
        fill: #df001a;
      }

      .cls-91 {
        fill: #e0131a;
      }

      .cls-92 {
        fill: #e63e19;
      }

      .cls-155 {
        clip-path: url(#clippath);
      }

      .cls-93 {
        fill: #df0c1a;
      }

      .cls-94 {
        fill: #e94b19;
      }

      .cls-95 {
        fill: #f17e15;
      }

      .cls-96 {
        fill: #e74019;
      }

      .cls-97 {
        fill: #f69c10;
      }

      .cls-98 {
        fill: #ea5a18;
      }

      .cls-99 {
        fill: #e2211a;
      }

      .cls-100 {
        fill: #6ccace;
      }

      .cls-101 {
        fill: #f59810;
      }

      .cls-102 {
        fill: #ec5f17;
      }

      .cls-103 {
        fill: #de001b;
      }

      .cls-104 {
        fill: #ed6616;
      }

      .cls-105 {
        fill: #e0121a;
      }

      .cls-106 {
        fill: #e2181b;
      }

      .cls-107 {
        fill: #f69e0f;
      }

      .cls-108 {
        fill: #e74519;
      }

      .cls-109 {
        fill: #ed6716;
      }

      .cls-110 {
        fill: #e21f1b;
      }

      .cls-111 {
        fill: #ea5318;
      }

      .cls-112 {
        fill: #fbbb09;
      }

      .cls-113 {
        fill: #f9ae0d;
      }

      .cls-114 {
        fill: #f49710;
      }

      .cls-115 {
        fill: #1e1e2d;
      }

      .cls-116 {
        fill: #e21c1b;
      }

      .cls-117 {
        fill: #ea5918;
      }

      .cls-118 {
        fill: #ea5518;
      }

      .cls-119 {
        fill: #ef7215;
      }

      .cls-120 {
        fill: #e73f19;
      }

      .cls-121 {
        fill: #e4301a;
      }

      .cls-122 {
        fill: #ed6d16;
      }

      .cls-123 {
        fill: #c03f46;
      }

      .cls-124 {
        fill: #e0101a;
      }

      .cls-125 {
        fill: #f6a20e;
      }

      .cls-126 {
        fill: #f28c12;
      }

      .cls-127 {
        fill: #e2221a;
      }

      .cls-128 {
        fill: #e2201a;
      }

      .cls-129 {
        fill: #e94919;
      }

      .cls-130 {
        fill: #e63d19;
      }

      .cls-131 {
        fill: #377e81;
      }

      .cls-132 {
        fill: #ed6816;
      }

      .cls-133 {
        fill: #e0151a;
      }

      .cls-134 {
        fill: #e21a1b;
      }

      .cls-135 {
        fill: #ef7316;
      }

      .cls-136 {
        fill: #e3291a;
      }

      .cls-137 {
        fill: #ec6317;
      }

      .cls-138 {
        fill: #f7a80e;
      }

      .cls-139 {
        fill: #ea5718;
      }

      .cls-140 {
        fill: #f8ab0e;
      }

      .cls-141 {
        fill: #e42e1a;
      }

      .cls-142 {
        fill: #e74619;
      }

      .cls-143 {
        fill: #e3281a;
      }

      .cls-144 {
        fill: #ef7715;
      }

      .cls-145 {
        fill: #f28713;
      }

      .cls-146 {
        fill: #d64a31;
      }

      .cls-147 {
        fill: #e3231a;
      }
    </style>
    <clipPath id="clippath">
      <path class="cls-52" d="m195.89,555.8c23.7,8.16,18.46,24.94,33.49,30.11,15.03,5.17,23.6-9.89,23.6-9.89,0,0,2.35-17.2-12.68-22.37-15.03-5.17-20.72,10.31-44.42,2.15Z"/>
    </clipPath>
  </defs>
  <g>
    <path class="cls-152" d="m2,446.12s3.59,2.52,10.34,7.02"/>
    <path class="cls-151" d="m46.24,474.83c126.58,78.2,496.96,279.09,743.91,124.76,299.34-187.07,247.76-582.09,114.14-510.63-93.46,49.98-30.91,192.54,143.6,163.46C1197.56,227.47,1449.67,2,1692.32,2c80.06,0,141.3,3.67,187.43,8.58"/>
    <path class="cls-152" d="m1899.74,12.89c4.28.54,8.41,1.09,12.39,1.64"/>
  </g>
  <g>
    <g>
      <g class="cls-155">
        <polygon class="cls-103" points="195.89 555.8 194.24 562.34 191.91 560.2 195.89 555.8"/>
        <polygon class="cls-103" points="196.39 555.25 194.53 562.6 194.24 562.34 195.89 555.8 196.39 555.25"/>
        <polygon class="cls-103" points="196.88 554.71 194.82 562.87 194.53 562.6 196.39 555.25 196.88 554.71"/>
        <polygon class="cls-103" points="197.38 554.16 195.11 563.14 194.82 562.87 196.88 554.71 197.38 554.16"/>
        <polygon class="cls-103" points="197.87 553.61 195.4 563.4 195.11 563.14 197.38 554.16 197.87 553.61"/>
        <polygon class="cls-103" points="198.37 553.06 195.69 563.67 195.4 563.4 197.87 553.61 198.37 553.06"/>
        <polygon class="cls-103" points="198.87 552.52 195.98 563.93 195.69 563.67 198.37 553.06 198.87 552.52"/>
        <polygon class="cls-103" points="199.36 551.97 196.27 564.2 195.98 563.93 198.87 552.52 199.36 551.97"/>
        <polygon class="cls-103" points="199.86 551.42 196.56 564.46 196.27 564.2 199.36 551.97 199.86 551.42"/>
        <polygon class="cls-103" points="200.35 550.87 196.85 564.73 196.56 564.46 199.86 551.42 200.35 550.87"/>
        <polygon class="cls-103" points="200.85 550.33 197.14 564.99 196.85 564.73 200.35 550.87 200.85 550.33"/>
        <polygon class="cls-103" points="201.34 549.78 197.43 565.26 197.14 564.99 200.85 550.33 201.34 549.78"/>
        <polygon class="cls-103" points="201.84 549.23 197.72 565.53 197.43 565.26 201.34 549.78 201.84 549.23"/>
        <polygon class="cls-103" points="202.34 548.69 198.01 565.79 197.72 565.53 201.84 549.23 202.34 548.69"/>
        <polygon class="cls-103" points="202.83 548.14 198.3 566.06 198.01 565.79 202.34 548.69 202.83 548.14"/>
        <polygon class="cls-103" points="203.33 547.59 198.59 566.32 198.3 566.06 202.83 548.14 203.33 547.59"/>
        <polygon class="cls-103" points="203.82 547.04 198.89 566.59 198.59 566.32 203.33 547.59 203.82 547.04"/>
        <polygon class="cls-103" points="204.32 546.5 199.18 566.85 198.89 566.59 203.82 547.04 204.32 546.5"/>
        <polygon class="cls-103" points="204.82 545.95 199.47 567.12 199.18 566.85 204.32 546.5 204.82 545.95"/>
        <polygon class="cls-103" points="205.31 545.4 199.76 567.39 199.47 567.12 204.82 545.95 205.31 545.4"/>
        <polygon class="cls-103" points="205.81 544.85 200.05 567.65 199.76 567.39 205.31 545.4 205.81 544.85"/>
        <polygon class="cls-90" points="206.3 544.31 200.34 567.92 200.05 567.65 205.81 544.85 206.3 544.31"/>
        <polygon class="cls-90" points="206.8 543.76 200.63 568.18 200.34 567.92 206.3 544.31 206.8 543.76"/>
        <polygon class="cls-90" points="207.29 543.21 200.92 568.45 200.63 568.18 206.8 543.76 207.29 543.21"/>
        <polygon class="cls-90" points="207.4 543.09 207.67 543.16 201.21 568.71 200.92 568.45 207.29 543.21 207.4 543.09"/>
        <polygon class="cls-90" points="207.67 543.16 208 543.25 201.5 568.98 201.21 568.71 207.67 543.16"/>
        <polygon class="cls-90" points="208 543.25 208.34 543.33 201.79 569.25 201.5 568.98 208 543.25"/>
        <polygon class="cls-90" points="208.34 543.33 208.67 543.42 202.08 569.51 201.79 569.25 208.34 543.33"/>
        <polygon class="cls-90" points="208.67 543.42 209.01 543.5 202.37 569.78 202.08 569.51 208.67 543.42"/>
        <polygon class="cls-90" points="209.01 543.5 209.34 543.59 202.66 570.04 202.37 569.78 209.01 543.5"/>
        <polygon class="cls-90" points="209.34 543.59 209.68 543.68 202.95 570.31 202.66 570.04 209.34 543.59"/>
        <polygon class="cls-90" points="209.68 543.68 210.01 543.76 203.24 570.57 202.95 570.31 209.68 543.68"/>
        <polygon class="cls-67" points="210.01 543.76 210.35 543.85 203.53 570.84 203.24 570.57 210.01 543.76"/>
        <polygon class="cls-67" points="210.35 543.85 210.69 543.94 203.82 571.1 203.53 570.84 210.35 543.85"/>
        <polygon class="cls-20" points="210.69 543.94 211.02 544.02 204.11 571.37 203.82 571.1 210.69 543.94"/>
        <polygon class="cls-20" points="211.02 544.02 211.36 544.11 204.4 571.64 204.11 571.37 211.02 544.02"/>
        <polygon class="cls-69" points="211.36 544.11 211.69 544.2 204.69 571.9 204.4 571.64 211.36 544.11"/>
        <polygon class="cls-69" points="211.69 544.2 212.03 544.28 204.98 572.17 204.69 571.9 211.69 544.2"/>
        <polygon class="cls-11" points="212.03 544.28 212.36 544.37 205.27 572.43 204.98 572.17 212.03 544.28"/>
        <polygon class="cls-93" points="212.36 544.37 212.7 544.46 205.56 572.7 205.27 572.43 212.36 544.37"/>
        <polygon class="cls-37" points="212.7 544.46 213.04 544.54 205.85 572.96 205.56 572.7 212.7 544.46"/>
        <polygon class="cls-65" points="213.04 544.54 213.37 544.63 206.14 573.23 205.85 572.96 213.04 544.54"/>
        <polygon class="cls-65" points="213.37 544.63 213.71 544.71 206.43 573.5 206.14 573.23 213.37 544.63"/>
        <polygon class="cls-23" points="213.71 544.71 214.04 544.8 206.73 573.76 206.43 573.5 213.71 544.71"/>
        <polygon class="cls-124" points="214.04 544.8 214.38 544.89 207.02 574.03 206.73 573.76 214.04 544.8"/>
        <polygon class="cls-124" points="214.38 544.89 214.71 544.97 207.31 574.29 207.02 574.03 214.38 544.89"/>
        <polygon class="cls-105" points="214.71 544.97 215.05 545.06 207.6 574.56 207.31 574.29 214.71 544.97"/>
        <polygon class="cls-91" points="215.05 545.06 215.39 545.15 207.89 574.82 207.6 574.56 215.05 545.06"/>
        <polygon class="cls-91" points="215.39 545.15 215.72 545.23 208.18 575.09 207.89 574.82 215.39 545.15"/>
        <polygon class="cls-34" points="215.72 545.23 216.06 545.32 208.47 575.36 208.18 575.09 215.72 545.23"/>
        <polygon class="cls-133" points="216.06 545.32 216.39 545.41 208.76 575.62 208.47 575.36 216.06 545.32"/>
        <polygon class="cls-31" points="216.39 545.41 216.73 545.49 209.05 575.89 208.76 575.62 216.39 545.41"/>
        <polygon class="cls-46" points="216.73 545.49 217.06 545.58 209.34 576.15 209.05 575.89 216.73 545.49"/>
        <polygon class="cls-106" points="217.06 545.58 217.4 545.67 209.63 576.42 209.34 576.15 217.06 545.58"/>
        <polygon class="cls-51" points="217.4 545.67 217.74 545.75 209.92 576.68 209.63 576.42 217.4 545.67"/>
        <polygon class="cls-134" points="217.74 545.75 218.07 545.84 210.21 576.95 209.92 576.68 217.74 545.75"/>
        <polygon class="cls-134" points="218.07 545.84 218.41 545.92 210.5 577.22 210.21 576.95 218.07 545.84"/>
        <polygon class="cls-5" points="218.41 545.92 218.74 546.01 210.79 577.48 210.5 577.22 218.41 545.92"/>
        <polygon class="cls-116" points="218.74 546.01 219.08 546.1 211.08 577.75 210.79 577.48 218.74 546.01"/>
        <polygon class="cls-29" points="219.08 546.1 219.41 546.18 211.37 578.01 211.08 577.75 219.08 546.1"/>
        <polygon class="cls-110" points="219.41 546.18 219.75 546.27 211.66 578.28 211.37 578.01 219.41 546.18"/>
        <polygon class="cls-110" points="219.75 546.27 220.08 546.36 211.95 578.54 211.66 578.28 219.75 546.27"/>
        <polygon class="cls-128" points="220.08 546.36 220.42 546.44 212.24 578.81 211.95 578.54 220.08 546.36"/>
        <polygon class="cls-99" points="220.42 546.44 220.76 546.53 212.53 579.07 212.24 578.81 220.42 546.44"/>
        <polygon class="cls-127" points="220.76 546.53 221.09 546.62 212.82 579.34 212.53 579.07 220.76 546.53"/>
        <polygon class="cls-147" points="221.09 546.62 221.43 546.7 213.11 579.61 212.82 579.34 221.09 546.62"/>
        <polygon class="cls-26" points="221.43 546.7 221.76 546.79 213.4 579.87 213.11 579.61 221.43 546.7"/>
        <polygon class="cls-26" points="221.76 546.79 222.1 546.87 213.69 580.14 213.4 579.87 221.76 546.79"/>
        <polygon class="cls-84" points="222.1 546.87 222.43 546.96 213.98 580.4 213.69 580.14 222.1 546.87"/>
        <polygon class="cls-27" points="222.43 546.96 222.77 547.05 214.27 580.67 213.98 580.4 222.43 546.96"/>
        <polygon class="cls-53" points="222.77 547.05 223.11 547.13 214.56 580.93 214.27 580.67 222.77 547.05"/>
        <polygon class="cls-143" points="223.11 547.13 223.44 547.22 214.86 581.2 214.56 580.93 223.11 547.13"/>
        <polygon class="cls-136" points="223.44 547.22 223.78 547.31 215.15 581.47 214.86 581.2 223.44 547.22"/>
        <polygon class="cls-7" points="223.78 547.31 224.11 547.39 215.44 581.73 215.15 581.47 223.78 547.31"/>
        <polygon class="cls-88" points="224.11 547.39 224.45 547.48 215.73 582 215.44 581.73 224.11 547.39"/>
        <polygon class="cls-16" points="224.45 547.48 224.78 547.57 216.02 582.26 215.73 582 224.45 547.48"/>
        <polygon class="cls-55" points="224.78 547.57 225.12 547.65 216.31 582.53 216.02 582.26 224.78 547.57"/>
        <polygon class="cls-141" points="225.12 547.65 225.46 547.74 216.6 582.79 216.31 582.53 225.12 547.65"/>
        <polygon class="cls-28" points="225.46 547.74 225.79 547.83 216.89 583.06 216.6 582.79 225.46 547.74"/>
        <polygon class="cls-121" points="225.79 547.83 226.13 547.91 217.18 583.33 216.89 583.06 225.79 547.83"/>
        <polygon class="cls-9" points="226.13 547.91 226.46 548 217.47 583.59 217.18 583.33 226.13 547.91"/>
        <polygon class="cls-77" points="226.46 548 226.8 548.08 217.76 583.86 217.47 583.59 226.46 548"/>
        <polygon class="cls-80" points="226.8 548.08 227.13 548.17 218.05 584.12 217.76 583.86 226.8 548.08"/>
        <polygon class="cls-66" points="227.13 548.17 227.47 548.26 218.34 584.39 218.05 584.12 227.13 548.17"/>
        <polygon class="cls-14" points="227.47 548.26 227.8 548.34 218.63 584.65 218.34 584.39 227.47 548.26"/>
        <polygon class="cls-73" points="227.8 548.34 228.14 548.43 218.92 584.92 218.63 584.65 227.8 548.34"/>
        <polygon class="cls-38" points="228.14 548.43 228.48 548.52 219.21 585.18 218.92 584.92 228.14 548.43"/>
        <polygon class="cls-42" points="228.48 548.52 228.81 548.6 219.5 585.45 219.21 585.18 228.48 548.52"/>
        <polygon class="cls-54" points="228.81 548.6 229.15 548.69 219.84 585.54 219.51 585.46 219.5 585.45 228.81 548.6"/>
        <polygon class="cls-18" points="229.15 548.69 229.48 548.78 220.17 585.63 219.84 585.54 229.15 548.69"/>
        <polygon class="cls-81" points="229.48 548.78 229.82 548.86 220.51 585.71 220.17 585.63 229.48 548.78"/>
        <polygon class="cls-130" points="229.82 548.86 230.15 548.95 220.84 585.8 220.51 585.71 229.82 548.86"/>
        <polygon class="cls-92" points="230.15 548.95 230.49 549.04 221.18 585.89 220.84 585.8 230.15 548.95"/>
        <polygon class="cls-120" points="230.49 549.04 230.83 549.12 221.51 585.97 221.18 585.89 230.49 549.04"/>
        <polygon class="cls-96" points="230.83 549.12 231.16 549.21 221.85 586.06 221.51 585.97 230.83 549.12"/>
        <polygon class="cls-25" points="231.16 549.21 231.5 549.29 222.19 586.15 221.85 586.06 231.16 549.21"/>
        <polygon class="cls-79" points="231.5 549.29 231.83 549.38 222.52 586.23 222.19 586.15 231.5 549.29"/>
        <polygon class="cls-35" points="231.83 549.38 232.17 549.47 222.86 586.32 222.52 586.23 231.83 549.38"/>
        <polygon class="cls-108" points="232.17 549.47 232.5 549.55 223.19 586.4 222.86 586.32 232.17 549.47"/>
        <polygon class="cls-142" points="232.5 549.55 232.84 549.64 223.53 586.49 223.19 586.4 232.5 549.55"/>
        <polygon class="cls-47" points="232.84 549.64 233.18 549.73 223.86 586.58 223.53 586.49 232.84 549.64"/>
        <polygon class="cls-32" points="233.18 549.73 233.51 549.81 224.2 586.66 223.86 586.58 233.18 549.73"/>
        <polygon class="cls-129" points="233.51 549.81 233.85 549.9 224.53 586.75 224.2 586.66 233.51 549.81"/>
        <polygon class="cls-94" points="233.85 549.9 234.18 549.99 224.87 586.84 224.53 586.75 233.85 549.9"/>
        <polygon class="cls-49" points="234.18 549.99 234.52 550.07 225.21 586.92 224.87 586.84 234.18 549.99"/>
        <polygon class="cls-57" points="234.52 550.07 234.85 550.16 225.54 587.01 225.21 586.92 234.52 550.07"/>
        <polygon class="cls-36" points="234.85 550.16 235.19 550.25 225.88 587.1 225.54 587.01 234.85 550.16"/>
        <polygon class="cls-13" points="235.19 550.25 235.52 550.33 226.21 587.18 225.88 587.1 235.19 550.25"/>
        <polygon class="cls-85" points="235.52 550.33 235.86 550.42 226.55 587.27 226.21 587.18 235.52 550.33"/>
        <polygon class="cls-111" points="235.86 550.42 236.2 550.5 226.88 587.36 226.55 587.27 235.86 550.42"/>
        <polygon class="cls-68" points="236.2 550.5 236.53 550.59 227.22 587.44 226.88 587.36 236.2 550.5"/>
        <polygon class="cls-118" points="236.53 550.59 236.87 550.68 227.56 587.53 227.22 587.44 236.53 550.59"/>
        <polygon class="cls-139" points="236.87 550.68 237.2 550.76 227.89 587.61 227.56 587.53 236.87 550.68"/>
        <polygon class="cls-76" points="237.2 550.76 237.54 550.85 228.23 587.7 227.89 587.61 237.2 550.76"/>
        <polygon class="cls-117" points="237.54 550.85 237.87 550.94 228.56 587.79 228.23 587.7 237.54 550.85"/>
        <polygon class="cls-98" points="237.87 550.94 238.21 551.02 228.9 587.87 228.56 587.79 237.87 550.94"/>
        <polygon class="cls-89" points="238.21 551.02 238.55 551.11 229.23 587.96 228.9 587.87 238.21 551.02"/>
        <polygon class="cls-24" points="238.55 551.11 238.88 551.2 229.57 588.05 229.23 587.96 238.55 551.11"/>
        <polygon class="cls-64" points="238.88 551.2 239.22 551.28 229.91 588.13 229.57 588.05 238.88 551.2"/>
        <polygon class="cls-102" points="239.22 551.28 239.55 551.37 230.24 588.22 229.91 588.13 239.22 551.28"/>
        <polygon class="cls-59" points="239.55 551.37 239.89 551.45 230.58 588.31 230.24 588.22 239.55 551.37"/>
        <polygon class="cls-137" points="239.89 551.45 240.22 551.54 230.91 588.39 230.58 588.31 239.89 551.45"/>
        <polygon class="cls-21" points="240.22 551.54 240.56 551.63 231.25 588.48 230.91 588.39 240.22 551.54"/>
        <polygon class="cls-104" points="240.56 551.63 240.9 551.71 231.58 588.57 231.25 588.48 240.56 551.63"/>
        <polygon class="cls-109" points="240.9 551.71 241.23 551.8 231.92 588.65 231.58 588.57 240.9 551.71"/>
        <polygon class="cls-132" points="241.23 551.8 241.57 551.89 232.26 588.74 231.92 588.65 241.23 551.8"/>
        <polygon class="cls-39" points="241.57 551.89 241.9 551.97 232.59 588.82 232.26 588.74 241.57 551.89"/>
        <polygon class="cls-82" points="241.9 551.97 242.24 552.06 232.93 588.91 232.59 588.82 241.9 551.97"/>
        <polygon class="cls-122" points="242.24 552.06 242.57 552.15 233.26 589 232.93 588.91 242.24 552.06"/>
        <polygon class="cls-41" points="242.57 552.15 242.91 552.23 233.6 589.08 233.26 589 242.57 552.15"/>
        <polygon class="cls-56" points="242.91 552.23 243.24 552.32 233.93 589.17 233.6 589.08 242.91 552.23"/>
        <polygon class="cls-119" points="243.24 552.32 243.58 552.41 234.27 589.26 233.93 589.17 243.24 552.32"/>
        <polygon class="cls-135" points="243.58 552.41 243.92 552.49 234.6 589.34 234.27 589.26 243.58 552.41"/>
        <polygon class="cls-22" points="243.92 552.49 244.25 552.58 234.94 589.43 234.6 589.34 243.92 552.49"/>
        <polygon class="cls-45" points="244.25 552.58 244.59 552.66 235.28 589.52 234.94 589.43 244.25 552.58"/>
        <polygon class="cls-144" points="244.59 552.66 244.92 552.75 235.61 589.6 235.28 589.52 244.59 552.66"/>
        <polygon class="cls-8" points="244.92 552.75 245.26 552.84 235.95 589.69 235.61 589.6 244.92 552.75"/>
        <polygon class="cls-19" points="245.26 552.84 245.59 552.92 236.28 589.78 235.95 589.69 245.26 552.84"/>
        <polygon class="cls-10" points="245.59 552.92 245.93 553.01 236.62 589.86 236.28 589.78 245.59 552.92"/>
        <polygon class="cls-95" points="245.93 553.01 246.27 553.1 236.95 589.95 236.62 589.86 245.93 553.01"/>
        <polygon class="cls-15" points="246.27 553.1 246.6 553.18 237.29 590.03 236.95 589.95 246.27 553.1"/>
        <polygon class="cls-43" points="246.6 553.18 246.94 553.27 237.63 590.12 237.29 590.03 246.6 553.18"/>
        <polygon class="cls-12" points="246.94 553.27 247.27 553.36 237.96 590.21 237.63 590.12 246.94 553.27"/>
        <polygon class="cls-50" points="247.27 553.36 247.61 553.44 238.3 590.29 237.96 590.21 247.27 553.36"/>
        <polygon class="cls-61" points="247.61 553.44 247.94 553.53 238.63 590.38 238.3 590.29 247.61 553.44"/>
        <polygon class="cls-145" points="247.94 553.53 248.28 553.62 238.97 590.47 238.63 590.38 247.94 553.53"/>
        <polygon class="cls-40" points="248.28 553.62 248.62 553.7 239.3 590.55 238.97 590.47 248.28 553.62"/>
        <polygon class="cls-2" points="248.62 553.7 248.95 553.79 239.64 590.64 239.3 590.55 248.62 553.7"/>
        <polygon class="cls-126" points="248.95 553.79 249.29 553.87 239.98 590.73 239.64 590.64 248.95 553.79"/>
        <polygon class="cls-86" points="249.29 553.87 249.62 553.96 240.31 590.81 239.98 590.73 249.29 553.87"/>
        <polygon class="cls-72" points="249.62 553.96 249.96 554.05 240.65 590.9 240.31 590.81 249.62 553.96"/>
        <polygon class="cls-3" points="249.96 554.05 250.18 554.11 250.28 554.19 240.98 590.99 240.65 590.9 249.96 554.05"/>
        <polygon class="cls-87" points="250.57 554.46 241.32 591.07 240.98 590.99 250.28 554.19 250.57 554.46"/>
        <polygon class="cls-1" points="250.86 554.72 241.65 591.16 241.32 591.07 250.57 554.46 250.86 554.72"/>
        <polygon class="cls-114" points="251.15 554.99 241.99 591.24 241.65 591.16 250.86 554.72 251.15 554.99"/>
        <polygon class="cls-101" points="251.44 555.26 242.32 591.33 241.99 591.24 251.15 554.99 251.44 555.26"/>
        <polygon class="cls-4" points="251.73 555.52 242.66 591.42 242.32 591.33 251.44 555.26 251.73 555.52"/>
        <polygon class="cls-97" points="252.02 555.79 243 591.5 242.66 591.42 251.73 555.52 252.02 555.79"/>
        <polygon class="cls-107" points="252.31 556.05 243.33 591.59 243 591.5 252.02 555.79 252.31 556.05"/>
        <polygon class="cls-30" points="252.6 556.32 243.67 591.68 243.33 591.59 252.31 556.05 252.6 556.32"/>
        <polygon class="cls-125" points="252.89 556.58 244.08 591.45 243.84 591.72 243.67 591.68 252.6 556.32 252.89 556.58"/>
        <polygon class="cls-83" points="253.18 556.85 244.58 590.9 244.08 591.45 252.89 556.58 253.18 556.85"/>
        <polygon class="cls-33" points="253.47 557.11 245.07 590.35 244.58 590.9 253.18 556.85 253.47 557.11"/>
        <polygon class="cls-138" points="253.76 557.38 245.57 589.8 245.07 590.35 253.47 557.11 253.76 557.38"/>
        <polygon class="cls-63" points="254.05 557.65 246.07 589.26 245.57 589.8 253.76 557.38 254.05 557.65"/>
        <polygon class="cls-140" points="254.34 557.91 246.56 588.71 246.07 589.26 254.05 557.65 254.34 557.91"/>
        <polygon class="cls-113" points="254.63 558.18 247.06 588.16 246.56 588.71 254.34 557.91 254.63 558.18"/>
        <polygon class="cls-58" points="254.92 558.44 247.55 587.61 247.06 588.16 254.63 558.18 254.92 558.44"/>
        <polygon class="cls-70" points="255.22 558.71 248.05 587.07 247.55 587.61 254.92 558.44 255.22 558.71"/>
        <polygon class="cls-17" points="255.51 558.97 248.55 586.52 248.05 587.07 255.22 558.71 255.51 558.97"/>
        <polygon class="cls-44" points="255.8 559.24 249.04 585.97 248.55 586.52 255.51 558.97 255.8 559.24"/>
        <polygon class="cls-71" points="256.09 559.51 249.54 585.42 249.04 585.97 255.8 559.24 256.09 559.51"/>
        <polygon class="cls-78" points="256.38 559.77 250.03 584.88 249.54 585.42 256.09 559.51 256.38 559.77"/>
        <polygon class="cls-112" points="256.67 560.04 250.53 584.33 250.03 584.88 256.38 559.77 256.67 560.04"/>
        <polygon class="cls-75" points="256.96 560.3 251.02 583.78 250.53 584.33 256.67 560.04 256.96 560.3"/>
        <polygon class="cls-75" points="251.02 583.78 256.96 560.3 265.34 567.97 251.02 583.78"/>
      </g>
      <g class="cls-148">
        <path class="cls-74" d="m205.83,560.69c14.04.36,20.08-8.7,32.09-4.56,15.03,5.17,12.68,22.38,12.68,22.38,0,0-.78,1.37-2.29,3.15,3.06-2.79,4.67-5.63,4.67-5.63,0,0,2.35-17.2-12.68-22.38-15.03-5.17-20.72,10.31-44.42,2.15,4.09,1.41,7.32,3.07,9.94,4.89Z"/>
      </g>
      <g class="cls-154">
        <path class="cls-146" d="m245.56,583.81c-3.07.85-6.65.93-10.69-.47-12.43-4.28-11-16.5-23.54-25.21-4.24.32-9.22-.19-15.44-2.34,23.7,8.16,18.46,24.94,33.49,30.11,6.77,2.33,12.23.55,16.18-2.1Z"/>
      </g>
      <path class="cls-48" d="m214.42,562.52c13.8,4.75,14.28,17.74,23.03,20.75,8.75,3.01,14.46-7.87,14.46-7.87,0,0,2.09-12.13-6.66-15.14-8.75-3.01-17.02,7.01-30.82,2.26Z"/>
      <path class="cls-115" d="m222.07,583.03c-2.66-2.43-4.48-5.42-6.38-8.51-3.83-6.25-8.17-13.34-20.94-17.73-.65-.22-.99-.93-.77-1.58.06-.17.14-.31.25-.44.32-.36.83-.5,1.32-.34,12.79,4.4,20.43,1.74,27.18-.6,5.61-1.95,10.91-3.79,17.98-1.36,6.56,2.26,10.97,7.09,12.77,13.99,1.34,5.13.76,9.55.73,9.73-.02.16-.07.31-.15.45-.09.16-2.31,4.02-6.48,7.25-5.61,4.35-12.04,5.45-18.59,3.2-2.88-.99-5.09-2.39-6.91-4.06Zm-12.61-20.68c3.82,3.5,6.16,7.31,8.34,10.88,3.08,5.02,5.73,9.36,11.97,11.51,12.97,4.47,20.94-7.41,22.01-9.13.23-2.12,1.22-16.28-11.88-20.78-6.26-2.15-10.94-.53-16.36,1.36-5.04,1.75-10.55,3.67-18.15,2.99,1.53,1.02,2.87,2.08,4.07,3.18Z"/>
    </g>
    <path class="cls-131" d="m255.76,599.13l-5.17-3.44c-2.34-1.56-3.64-4.27-3.39-7.08h0c.74-8.35,3.74-16.33,8.68-23.08h0c1.66-2.27,4.42-3.43,7.2-3.03l6.13.88"/>
    <g class="cls-149">
      <path class="cls-100" d="m267.66,566.72l-6.08-.87c-1.53-.22-3.06,0-4.44.57-1.38.58-2.6,1.53-3.52,2.78-.71.97-1.38,1.96-2.01,2.97,1.09-2.12,2.35-4.15,3.76-6.08.83-1.13,1.93-1.99,3.18-2.52,1.24-.53,2.63-.72,4.02-.52l6.14.88-1.05,2.78Z"/>
    </g>
    <g class="cls-153">
      <path class="cls-100" d="m250.17,577.6s0,0,0,0c-.75,2.69-1.25,5.46-1.5,8.26-.25,2.8,1.05,5.52,3.4,7.08l4.82,3.21,12.33-32.77-1.31-.19-9.14,24.29-5.17-3.44c-2.16-1.44-3.44-3.87-3.42-6.45Zm9.72,6.9l8.01-21.31.41.06-8.08,21.48-.35-.23Z"/>
    </g>
    <path class="cls-48" d="m286.69,566.6c1.84-6.78-.69-20.29-25.72-24.72-.33-.06-.56.32-.35.59,2.21,2.89,12.72,16.38,9.13,24.95"/>
    <g class="cls-149">
      <path class="cls-74" d="m262.99,545.05c-.92-1.29-1.69-2.28-2.13-2.85-.2-.27.02-.64.35-.59,25.03,4.43,27.55,17.93,25.72,24.72l-1.83.09c.53-6.73-3.38-16.87-22.11-21.36Z"/>
    </g>
    <path class="cls-115" d="m268.78,568.48c-.44-.4-.6-1.05-.36-1.62,1.2-2.86,1.65-9.71-8.84-23.38l-.11-.14c-.46-.59-.5-1.39-.11-2.03.39-.64,1.11-.97,1.84-.84,12.17,2.15,20.45,6.59,24.63,13.19,3.68,5.83,2.78,11.25,2.23,13.32-.21.76-.99,1.21-1.75,1-.76-.21-1.21-1-1-1.76.46-1.7,1.19-6.16-1.88-11.02-3.37-5.33-10.26-9.24-20.02-11.37,9.25,12.79,9.32,20.16,7.65,24.15-.31.73-1.14,1.07-1.87.76-.15-.07-.29-.15-.41-.26Z"/>
    <path class="cls-123" d="m271.23,607.7c-3.09,6.3-14,15.1-35.65,1.7-.28-.18-.21-.61.12-.68,3.56-.69,20.45-4.16,23.39-12.98"/>
    <path class="cls-48" d="m235.58,609.4c-.28-.18-.2-.61.12-.68,1.82-.35,7.14-1.44,12.29-3.6,4.87-2.04,9.59-5.04,11.06-9.29.01-.03.02-.06.03-.09l.07.07,12.07,11.88c-.87,1.77-2.35,3.74-4.52,5.35-5.54,4.14-15.56,5.99-31.14-3.65Z"/>
    <g class="cls-153">
      <path class="cls-62" d="m248,605.13c4.87-2.04,9.59-5.04,11.06-9.29.04,0,.07-.02.11-.02l12.07,11.88c-.87,1.77-2.35,3.74-4.52,5.35-5.27-.19-11.59-2.33-18.72-7.92Z"/>
    </g>
    <path class="cls-115" d="m234.56,610.42c-.45-.41-.67-1.03-.55-1.65.13-.74.69-1.31,1.42-1.45,4.59-.88,19.75-4.36,22.31-12.03.25-.75,1.06-1.15,1.81-.9.75.25,1.15,1.07.9,1.82-2.6,7.8-14.58,11.69-21.78,13.36,8.6,4.84,16.28,6.48,22.33,4.73,5.84-1.69,8.32-5.96,8.95-7.23.35-.71,1.2-1,1.91-.65.71.35,1,1.21.65,1.92-.96,1.97-3.94,6.76-10.72,8.72-7.5,2.16-16.57,0-26.97-6.43-.1-.06-.19-.13-.27-.21Zm1.77-2.24s0,0,0,0c0,0,0,0,0,0Z"/>
    <path class="cls-74" d="m388.31,629.14s-28.14,22.68-77.16,7.74c-41.77-12.73-55.7-38.03-55.7-38.03.05-8.32,1.98-16.46,5.57-23.82,2.08-4.28,4.72-8.29,7.88-11.93,0,0,12.08-4.31,31.93-1.69.68.09,1.38.19,2.08.3,7.62,1.16,16.31,3.35,25.83,7.14,2.25.89,4.54,1.88,6.88,2.96.09.04.18.09.27.13,9.42,4.38,17.17,9.35,23.55,14.48.21.16.41.33.61.49,24.45,19.98,28.27,42.23,28.27,42.23Z"/>
    <path class="cls-48" d="m344.54,642.25c10.07-15.71,16.72-33.39,19.51-51.88,21.14,19.08,24.57,39.05,24.57,39.05,0,0-15.7,12.66-44.08,12.83Z"/>
    <g class="cls-149">
      <path class="cls-74" d="m386.69,630.67c1.44-.93,2.18-1.52,2.18-1.52,0,0-3.43-19.97-24.57-39.05-.18,1.19-.38,2.38-.59,3.57,17.59,16.54,22.16,33.38,22.98,37Z"/>
    </g>
    <path class="cls-115" d="m341.91,643.7l1.43-2.23c10.03-15.64,16.52-32.91,19.3-51.32l.4-2.63,1.97,1.78c16.76,15.12,22.59,30.89,24.32,36.97.65,2.29-.25,4.69-2.24,5.96-5.29,3.4-20.04,11.31-42.52,11.44l-2.64.02Zm23.13-50.46c-2.9,16.94-8.9,32.9-17.87,47.52,20.26-.7,33.49-7.81,38.37-10.94.92-.59,1.34-1.7,1.04-2.76-1.59-5.6-6.83-19.77-21.54-33.82Z"/>
    <path class="cls-115" d="m266.8,614.26c-8.64-7.9-12.14-14.17-12.29-14.44l-.18-.33v-.38c.04-6.72,1.26-13.32,3.63-19.6,2.36-6.28,5.79-12.03,10.17-17.09l.25-.28.35-.13c.29-.1,7.13-2.49,18.96-2.61,10.84-.11,28.12,1.78,48.84,11.37,10.86,5.03,20.45,11.26,28.48,18.52l.57.52-.12.77c-2.83,18.77-9.44,36.37-19.65,52.32l-.31.76h-.96c-10.79.08-22.07-1.66-33.51-5.15-21.83-6.65-36-16.78-44.05-24.1-.06-.06-.13-.12-.19-.18Zm-9.6-15.51c.82,1.36,4.42,6.96,11.82,13.66,7.82,7.09,21.6,16.9,42.85,23.37,10.89,3.32,21.62,5.01,31.89,5.03,9.65-15.25,15.96-32.03,18.77-49.9-7.7-6.84-16.85-12.74-27.19-17.53-36.31-16.81-62.07-9.78-65.3-8.78-4.04,4.73-7.2,10.08-9.4,15.92-2.2,5.84-3.35,11.96-3.43,18.21Z"/>
    <path class="cls-115" d="m248.7,596.03c-2.08-1.9-3.18-4.68-2.92-7.54.76-8.61,3.86-16.84,8.95-23.8,1.97-2.7,5.25-4.08,8.55-3.6l6.13.88c.78.11,1.33.84,1.22,1.62-.11.79-.83,1.33-1.61,1.22l-6.13-.88c-2.26-.32-4.5.62-5.85,2.46-4.78,6.54-7.69,14.27-8.41,22.36-.2,2.28.85,4.48,2.76,5.75l5.17,3.44c.66.44.84,1.33.41,1.99-.43.66-1.32.84-1.98.4l-5.17-3.44c-.39-.26-.76-.55-1.11-.87Z"/>
    <g class="cls-153">
      <ellipse class="cls-62" cx="328.82" cy="608.84" rx="19.65" ry="19.76" transform="translate(-133.79 94.25) rotate(-13.58)"/>
    </g>
    <ellipse class="cls-48" cx="330.77" cy="607.33" rx="17.67" ry="17.77" transform="translate(-133.37 94.65) rotate(-13.58)"/>
    <g class="cls-149">
      <path class="cls-74" d="m345.54,617c.17-.37.32-.74.47-1.12,3.45-9.17-1.16-19.43-10.29-22.91-8.05-3.08-16.93.14-21.28,7.22,3.82-8.43,13.56-12.53,22.32-9.19,9.13,3.49,13.74,13.75,10.29,22.92-.41,1.09-.92,2.12-1.51,3.08Z"/>
    </g>
    <g class="cls-153">
      <path class="cls-48" d="m324.53,623.93c-9.13-3.49-13.74-13.74-10.29-22.91,1.09-2.88,2.84-5.31,5.02-7.19-.72,1.09-1.33,2.28-1.82,3.56-3.45,9.17,1.16,19.43,10.29,22.92,6.26,2.39,13.03.97,17.77-3.11-4.45,6.74-13.1,9.73-20.97,6.73Z"/>
    </g>
    <path class="cls-115" d="m317.92,621.52c-1.91-1.75-3.46-3.89-4.56-6.32-2.1-4.68-2.27-9.89-.46-14.69,1.8-4.79,5.36-8.59,10.01-10.69,4.65-2.1,9.84-2.25,14.61-.43,4.77,1.82,8.56,5.4,10.66,10.08,2.1,4.68,2.27,9.89.46,14.69-1.8,4.79-5.36,8.59-10.01,10.69-4.65,2.1-9.84,2.25-14.62.43h0c-2.29-.87-4.35-2.15-6.11-3.76Zm23.78-26.25c-1.49-1.37-3.25-2.45-5.19-3.2-4.06-1.55-8.47-1.42-12.43.37s-6.98,5.01-8.51,9.09c-1.53,4.08-1.39,8.51.39,12.49,1.79,3.98,5.01,7.02,9.07,8.57h0c4.06,1.55,8.47,1.42,12.43-.37,3.95-1.79,6.98-5.01,8.51-9.09,1.53-4.08,1.39-8.51-.39-12.49-.93-2.07-2.25-3.89-3.88-5.38Z"/>
    <ellipse class="cls-100" cx="331.04" cy="607.21" rx="11.24" ry="11.3" transform="translate(-133.33 94.71) rotate(-13.58)"/>
    <g class="cls-154">
      <path class="cls-74" d="m327.07,617.77c-5.81-2.22-8.74-8.75-6.55-14.58.47-1.26,1.15-2.39,1.98-3.36-.05.12-.09.23-.14.35-2.19,5.83.74,12.36,6.55,14.58,4.55,1.74,9.52.32,12.51-3.18-2.32,5.6-8.66,8.36-14.35,6.19Z"/>
    </g>
    <g class="cls-153">
      <path class="cls-62" d="m339.07,615.34c.07-.18.15-.36.22-.54,2.19-5.83-.74-12.36-6.55-14.58-4.37-1.67-9.13-.42-12.15,2.78,2.38-5.47,8.65-8.15,14.27-6,5.81,2.22,8.74,8.74,6.55,14.58-.54,1.44-1.35,2.71-2.34,3.76Z"/>
    </g>
    <path class="cls-6" d="m328.14,613.59l.25-1.2,2.03.71c2.31.49,4.68-.81,5.48-3.1,1.39-4.01-.74-8.4-4.75-9.79-.78-.27-1.59-.41-2.4-.43-1.04-.02-2.12.29-3.14.89-.68.4-1.92.96-3.48,1.56-.23.45-.43.91-.6,1.4-.26.75-.43,1.52-.51,2.28,1.43-.1,2.87.05,4.24.46.63.21,1.22,2.23,1.22,2.23-.42-.14-.87.08-1.02.49-1.41,4.05-1.91,6.79-2.09,8.14-.04.34,1.87-.41,2.11-.16,1.27-1.87,1.59-2.62,2.67-3.49Z"/>
    <path class="cls-60" d="m332.61,607.52c.22-.62-.11-1.3-.73-1.51s-1.3.11-1.51.73.11,1.3.73,1.51,1.3-.11,1.51-.73Z"/>
    <path class="cls-60" d="m326,618.72c.41.2.84.37,1.28.53,4.87,1.69,9.28-.22,12.66-3.7l1.2-.97c.77-1.03,1.28-2.46,1.72-3.73.81-2.34-3.42-13.71-6.99-14.95-6.71-2.33-14.21.26-16.54,6.97-1.49,4.3-.56,8.87,2.08,12.2-.14.72,4.54,3.72,4.59,3.65Zm8.95-21.59c5.49,1.9,8.4,7.92,6.5,13.4s-7.92,8.4-13.41,6.5c-.1-.03-.19-.07-.28-.11.79-.7,1.55-1.28,1.95-1.6,3.52.87,7.2-1.08,8.41-4.57,1.81-5.23-.96-10.95-6.19-12.77-1.01-.35-2.07-.54-3.13-.56-.69-.01-1.38.08-2.07.26,2.46-1.25,5.41-1.54,8.22-.57Zm-13.92,11.13c.75-.07,1.5-.06,2.23.05,0,0,0,0,0,.02-.45,1.31-.82,2.51-1.11,3.59-.59-1.14-.97-2.37-1.11-3.66Zm2.42,8.45c.18-1.36.61-3.56,2.01-7.62.14-.42.6-.64,1.02-.49,0,0-.59-2.02-1.22-2.23-1.37-.41-2.8-.56-4.24-.46.09-.76.25-1.52.51-2.28.17-.49.37-.95.6-1.4,1.56-.6,2.8-1.16,3.48-1.56,1.02-.6,2.11-.91,3.14-.89.82.01,1.62.16,2.4.43,4.01,1.39,6.14,5.78,4.75,9.79-.79,2.29-3.17,3.58-5.48,3.1l-2.03-.71-.25,1.2c-1.07.86-2.62,1.79-3.89,3.66-.23-.25-.85-.2-.8-.54Z"/>
    <path class="cls-115" d="m322.51,616.62c-1.27-1.16-2.3-2.58-3.02-4.19-1.39-3.1-1.5-6.56-.31-9.74,2.47-6.56,9.8-9.87,16.33-7.38,6.54,2.5,9.85,9.87,7.38,16.43-2.47,6.56-9.8,9.87-16.33,7.38-1.52-.58-2.88-1.43-4.05-2.49Zm15.12-16.7c-.89-.81-1.94-1.47-3.12-1.93-5.06-1.93-10.74.63-12.65,5.71-.93,2.46-.84,5.14.24,7.55,1.08,2.4,3.03,4.24,5.48,5.18h0c5.06,1.93,10.74-.63,12.65-5.71,1.46-3.89.3-8.15-2.59-10.8Z"/>
    <g class="cls-150">
      <path class="cls-74" d="m374.42,614.17c1.74-2.05-.97-7.39-3.33-9.51-2.44-2.19-4.27-3.11-5.35-1.94-1.5,1.63-.14,3.93,2.02,6.06,1.53,1.51,4.5,7.92,6.65,5.39Z"/>
    </g>
    <g class="cls-150">
      <path class="cls-74" d="m378.2,622.23c1.43-1.85.81-5.36-.21-6.53-1.05-1.21-1.98-1.57-2.85-.5-1.21,1.49-.82,2.97.07,4.18.64.86,1.21,5.13,2.98,2.85Z"/>
    </g>
    <g class="cls-153">
      <path class="cls-62" d="m256.98,596.66s13.93,25.3,55.69,38.03c42.41,12.93,69.19-2.3,75.64-6.65.06.22.1.42.14.59-.16-.69-.44-1.82-.91-3.3-12.31,5.48-35.22,11.46-66.79,1.84-19.72-6.01-33.23-14.82-42.01-22.45-11.2-9.74-14.67-25.8-8.23-39.17.04-.07.07-.15.11-.22.26-.53.53-1.05.8-1.57.1-.23.2-.45.31-.68.04-.07.07-.15.11-.22.04-.08.08-.16.12-.23.03,0,.06-.01.09-.02h0c-1.86.44-2.84.79-2.84.79-2.79,3.22-5.17,6.72-7.13,10.44-3.29,7.1-5.06,14.88-5.1,22.84Z"/>
    </g>
    <path class="cls-48" d="m262.07,588.15c-8.15-3.11-13.74-12.66-13.74-12.66,0,0,.04-.01.11-.03,1.15-.36,10.84-3.19,18.5-.27,7.35,2.8,11.24,10.39,11.9,11.78.07.14.1.22.1.22,0,0-8.78,4.06-16.88.97Z"/>
    <g class="cls-149">
      <path class="cls-74" d="m278.98,587.72s-.54.25-1.46.57c-1.38-2.53-5.13-8.41-11.41-10.8-6.16-2.35-13.63-.98-16.92-.17-.54-.8-.84-1.29-.84-1.29,0,0,.04-.01.11-.03,1.15-.35,10.84-3.19,18.5-.27,7.35,2.8,11.24,10.39,11.9,11.78.07.14.1.22.1.22Z"/>
    </g>
    <g class="cls-153">
      <path class="cls-62" d="m262.07,588.15c-8.15-3.11-13.74-12.66-13.74-12.66,0,0,.04-.01.11-.03l30.4,11.51c.07.14.1.22.1.22,0,0-8.78,4.06-16.88.97Z"/>
    </g>
    <path class="cls-115" d="m253.98,584.61c-4.18-3.82-6.73-8.12-6.88-8.39l-.9-1.54,1.69-.55c.45-.15,11.04-3.53,19.56-.28,8.56,3.27,12.64,12.37,12.81,12.76l.57,1.29-1.27.59c-.38.18-9.42,4.28-17.98,1-2.88-1.1-5.45-2.93-7.58-4.89Zm-3.37-8.24c1.92,2.75,6.34,8.3,11.97,10.45,5.62,2.15,11.7.55,14.37-.39-1.4-2.48-4.9-7.75-10.51-9.89-5.64-2.15-12.58-.95-15.83-.17Zm-2.28-.87h0s0,0,0,0Z"/>
  </g>
</svg>