<?xml version="1.0" encoding="UTF-8"?>
<svg xmlns="http://www.w3.org/2000/svg" xmlns:xlink="http://www.w3.org/1999/xlink" viewBox="0 0 563.6 356.93">
  <defs>
    <style>
      .cls-1 {
        fill: #f49511;
      }

      .cls-1, .cls-2, .cls-3, .cls-4, .cls-5, .cls-6, .cls-7, .cls-8, .cls-9, .cls-10, .cls-11, .cls-12, .cls-13, .cls-14, .cls-15, .cls-16, .cls-17, .cls-18, .cls-19, .cls-20, .cls-21, .cls-22, .cls-23, .cls-24, .cls-25, .cls-26, .cls-27, .cls-28, .cls-29, .cls-30, .cls-31, .cls-32, .cls-33, .cls-34, .cls-35, .cls-36, .cls-37, .cls-38, .cls-39, .cls-40, .cls-41, .cls-42, .cls-43, .cls-44, .cls-45, .cls-46, .cls-47, .cls-48, .cls-49, .cls-50, .cls-51, .cls-52, .cls-53, .cls-54, .cls-55, .cls-56, .cls-57, .cls-58, .cls-59, .cls-60, .cls-61, .cls-62, .cls-63, .cls-64, .cls-65, .cls-66, .cls-67, .cls-68, .cls-69, .cls-70, .cls-71, .cls-72, .cls-73, .cls-74, .cls-75, .cls-76, .cls-77, .cls-78, .cls-79, .cls-80, .cls-81, .cls-82, .cls-83, .cls-84, .cls-85, .cls-86, .cls-87, .cls-88, .cls-89, .cls-90, .cls-91, .cls-92, .cls-93, .cls-94, .cls-95, .cls-96, .cls-97, .cls-98, .cls-99, .cls-100, .cls-101, .cls-102, .cls-103, .cls-104, .cls-105, .cls-106, .cls-107, .cls-108, .cls-109, .cls-110, .cls-111, .cls-112, .cls-113, .cls-114, .cls-115, .cls-116, .cls-117, .cls-118, .cls-119, .cls-120, .cls-121, .cls-122, .cls-123, .cls-124, .cls-125, .cls-126, .cls-127, .cls-128, .cls-129, .cls-130, .cls-131, .cls-132, .cls-133, .cls-134, .cls-135, .cls-136, .cls-137, .cls-138, .cls-139, .cls-140, .cls-141, .cls-142, .cls-143, .cls-144, .cls-145, .cls-146, .cls-147, .cls-148, .cls-149, .cls-150, .cls-151, .cls-152, .cls-153, .cls-154, .cls-155, .cls-156, .cls-157, .cls-158, .cls-159, .cls-160, .cls-161, .cls-162, .cls-163 {
        stroke-width: 0px;
      }

      .cls-2 {
        fill: #f28b13;
      }

      .cls-3 {
        fill: #f49111;
      }

      .cls-4 {
        fill: #f69b10;
      }

      .cls-5 {
        fill: #e21b1b;
      }

      .cls-6 {
        fill: #62bfc2;
      }

      .cls-7 {
        fill: #e32a1a;
      }

      .cls-8 {
        fill: #f07a15;
      }

      .cls-9 {
        fill: #e4321a;
      }

      .cls-10 {
        fill: url(#linear-gradient-3);
      }

      .cls-10, .cls-68, .cls-137, .cls-156 {
        mix-blend-mode: multiply;
        opacity: .24;
      }

      .cls-11 {
        fill: #f07d15;
      }

      .cls-12 {
        fill: #df0a1a;
      }

      .cls-13 {
        fill: #f18214;
      }

      .cls-14 {
        fill: #e94f19;
      }

      .cls-15 {
        fill: #e63619;
      }

      .cls-16 {
        fill: #f17f14;
      }

      .cls-17 {
        fill: #e42c1a;
      }

      .cls-164 {
        opacity: .5;
      }

      .cls-18 {
        fill: #f9b40b;
      }

      .cls-19 {
        fill: #e63b19;
      }

      .cls-20 {
        fill: #f07b15;
      }

      .cls-21 {
        fill: #df051a;
      }

      .cls-22 {
        fill: #ec6417;
      }

      .cls-23 {
        fill: #ef7416;
      }

      .cls-165 {
        opacity: .6;
      }

      .cls-24 {
        fill: #e00f1a;
      }

      .cls-25 {
        fill: #ec5d17;
      }

      .cls-26 {
        fill: #e74119;
      }

      .cls-27 {
        fill: #5f9599;
      }

      .cls-28 {
        fill: #e3241a;
      }

      .cls-29 {
        fill: #e3261a;
      }

      .cls-30 {
        fill: #e42f1a;
      }

      .cls-31 {
        fill: #e21e1b;
      }

      .cls-166 {
        isolation: isolate;
      }

      .cls-32 {
        fill: #f69f0f;
      }

      .cls-33 {
        fill: #e0171a;
      }

      .cls-34 {
        fill: #588c8c;
      }

      .cls-167 {
        opacity: .2;
      }

      .cls-35 {
        fill: #e94819;
      }

      .cls-36 {
        fill: #f7a50f;
      }

      .cls-37 {
        fill: #e0141a;
      }

      .cls-38 {
        fill: #e74419;
      }

      .cls-39 {
        fill: #e94e19;
      }

      .cls-40 {
        fill: #e00b1a;
      }

      .cls-41 {
        fill: #e63819;
      }

      .cls-42 {
        fill: #ed6a16;
      }

      .cls-43 {
        fill: #f28813;
      }

      .cls-44 {
        fill: #ee6f15;
      }

      .cls-45 {
        fill: #e63919;
      }

      .cls-46 {
        fill: #f18014;
      }

      .cls-47 {
        fill: #23a2bd;
      }

      .cls-48 {
        fill: #f9b50b;
      }

      .cls-49 {
        fill: #ef7616;
      }

      .cls-50 {
        fill: #f99d96;
      }

      .cls-51 {
        fill: #e0171b;
      }

      .cls-52 {
        fill: #4354dc;
      }

      .cls-53 {
        fill: #e74719;
      }

      .cls-168 {
        opacity: .35;
      }

      .cls-54 {
        fill: #f39766;
      }

      .cls-55 {
        fill: #e94c19;
      }

      .cls-56 {
        fill: #f28414;
      }

      .cls-57 {
        fill: #e2191b;
      }

      .cls-58, .cls-169, .cls-170, .cls-171 {
        fill: none;
      }

      .cls-59 {
        fill: #e3271a;
      }

      .cls-60 {
        fill: #e63a19;
      }

      .cls-61 {
        fill: #e42d1a;
      }

      .cls-62 {
        fill: #ef7015;
      }

      .cls-63 {
        fill: #e94d19;
      }

      .cls-64 {
        fill: #f9af0d;
      }

      .cls-65 {
        fill: #6bc7cc;
      }

      .cls-66 {
        fill: #ec6117;
      }

      .cls-67 {
        fill: #171722;
      }

      .cls-68 {
        fill: url(#linear-gradient-2);
      }

      .cls-69 {
        fill: #f28513;
      }

      .cls-70 {
        fill: #281236;
      }

      .cls-71 {
        fill: #f7a90e;
      }

      .cls-72 {
        fill: #ec5e17;
      }

      .cls-73 {
        fill: #faa637;
      }

      .cls-74 {
        fill: #e00d1a;
      }

      .cls-75 {
        fill: #e5351a;
      }

      .cls-76 {
        fill: #df011a;
      }

      .cls-77 {
        fill: #ea5418;
      }

      .cls-78 {
        fill: #df081a;
      }

      .cls-79 {
        fill: #f9b10c;
      }

      .cls-80 {
        fill: #f9b70a;
      }

      .cls-81 {
        fill: #f48f12;
      }

      .cls-82 {
        fill: #e63719;
      }

      .cls-83, .cls-134 {
        fill: #fff;
      }

      .cls-172 {
        opacity: .3;
      }

      .cls-84 {
        fill: #fbbd08;
      }

      .cls-85 {
        fill: #ea5818;
      }

      .cls-86 {
        fill: #e4331a;
      }

      .cls-87 {
        fill: #fbba09;
      }

      .cls-88 {
        fill: #d34a31;
      }

      .cls-169 {
        stroke: #f09466;
        stroke-width: .66px;
      }

      .cls-169, .cls-171 {
        stroke-miterlimit: 10;
      }

      .cls-89 {
        fill: #e74319;
      }

      .cls-90 {
        fill: #e4341a;
      }

      .cls-91 {
        fill: #e63c19;
      }

      .cls-92 {
        fill: #ed6b16;
      }

      .cls-93 {
        fill: #f7a40f;
      }

      .cls-94 {
        fill: #e3251a;
      }

      .cls-95 {
        fill: #f09466;
      }

      .cls-96 {
        fill: #e95218;
      }

      .cls-97 {
        fill: #e99936;
      }

      .cls-98 {
        fill: #f48e12;
      }

      .cls-99 {
        fill: #f49311;
      }

      .cls-100 {
        fill: #e32b1a;
      }

      .cls-101 {
        fill: #ec5c17;
      }

      .cls-102 {
        fill: #df001a;
      }

      .cls-103 {
        fill: #e0131a;
      }

      .cls-104 {
        fill: #e63e19;
      }

      .cls-173 {
        clip-path: url(#clippath);
      }

      .cls-105 {
        fill: #df0c1a;
      }

      .cls-106 {
        fill: #e94b19;
      }

      .cls-107 {
        fill: #f17e15;
      }

      .cls-108 {
        fill: #e74019;
      }

      .cls-109 {
        fill: #f69c10;
      }

      .cls-110 {
        fill: #ea5a18;
      }

      .cls-111 {
        fill: #e2211a;
      }

      .cls-112 {
        fill: #6ccace;
      }

      .cls-113 {
        fill: #f59810;
      }

      .cls-114 {
        fill: #ec5f17;
      }

      .cls-115 {
        fill: #de001b;
      }

      .cls-116 {
        fill: #ed6616;
      }

      .cls-117 {
        fill: #e0121a;
      }

      .cls-118 {
        fill: #e2181b;
      }

      .cls-119 {
        fill: #f69e0f;
      }

      .cls-120 {
        fill: #e74519;
      }

      .cls-121 {
        fill: #ed6716;
      }

      .cls-122 {
        fill: #e21f1b;
      }

      .cls-123 {
        fill: #ea5318;
      }

      .cls-124 {
        fill: #fbbb09;
      }

      .cls-170 {
        stroke: #afcccd;
        stroke-dasharray: 0 0 25 40;
        stroke-linecap: round;
        stroke-width: 4px;
      }

      .cls-125 {
        fill: #f9ae0d;
      }

      .cls-126 {
        fill: #f49710;
      }

      .cls-171 {
        stroke: #e6804f;
        stroke-width: 1.96px;
      }

      .cls-127 {
        fill: #1e1e2d;
      }

      .cls-128 {
        fill: #e21c1b;
      }

      .cls-129 {
        fill: #ea5918;
      }

      .cls-130 {
        fill: #ea5518;
      }

      .cls-131 {
        fill: #ef7215;
      }

      .cls-132 {
        fill: #e73f19;
      }

      .cls-133 {
        fill: #e4301a;
      }

      .cls-134 {
        mix-blend-mode: screen;
        opacity: .05;
      }

      .cls-135 {
        fill: #ed6d16;
      }

      .cls-136 {
        fill: #c03f46;
      }

      .cls-137 {
        fill: url(#linear-gradient);
      }

      .cls-138 {
        fill: #e0101a;
      }

      .cls-139 {
        fill: #f6a20e;
      }

      .cls-140 {
        fill: #f28c12;
      }

      .cls-141 {
        fill: #e2221a;
      }

      .cls-142 {
        fill: #e2201a;
      }

      .cls-143 {
        fill: #e94919;
      }

      .cls-144 {
        fill: #e63d19;
      }

      .cls-145 {
        fill: #377e81;
      }

      .cls-146 {
        fill: #ed6816;
      }

      .cls-147 {
        fill: #e0151a;
      }

      .cls-148 {
        fill: #e21a1b;
      }

      .cls-149 {
        fill: #ef7316;
      }

      .cls-150 {
        fill: #25add5;
      }

      .cls-151 {
        fill: #e3291a;
      }

      .cls-152 {
        fill: #ec6317;
      }

      .cls-153 {
        fill: #f7a80e;
      }

      .cls-154 {
        fill: #ea5718;
      }

      .cls-155 {
        fill: #f8ab0e;
      }

      .cls-156 {
        fill: url(#linear-gradient-4);
      }

      .cls-157 {
        fill: #e42e1a;
      }

      .cls-158 {
        fill: #e74619;
      }

      .cls-159 {
        fill: #e3281a;
      }

      .cls-160 {
        fill: #ef7715;
      }

      .cls-161 {
        fill: #f28713;
      }

      .cls-162 {
        fill: #d64a31;
      }

      .cls-163 {
        fill: #e3231a;
      }
    </style>
    <clipPath id="clippath">
      <path class="cls-58" d="m468.48,288.49c-16.03-13.48-25.8-2.52-35.97-11.06-10.16-8.55-3.05-21.16-3.05-21.16,0,0,11.32-9.08,21.48-.53,10.16,8.55,1.51,19.28,17.54,32.76Z"/>
    </clipPath>
    <linearGradient id="linear-gradient" x1="-892.72" y1="540.19" x2="-864.31" y2="540.19" gradientTransform="translate(810.83 -920.51) rotate(-37.81)" gradientUnits="userSpaceOnUse">
      <stop offset="0" stop-color="#847fff"/>
      <stop offset=".99" stop-color="#f65cff"/>
    </linearGradient>
    <linearGradient id="linear-gradient-2" x1="-607.69" y1="423.48" x2="-598.73" y2="423.48" gradientTransform="translate(513.17 -541.01) rotate(-26.37)" xlink:href="#linear-gradient"/>
    <linearGradient id="linear-gradient-3" x1="-348.22" y1="720.8" x2="-344.59" y2="720.8" gradientTransform="translate(513.17 -541.01) rotate(-26.37)" xlink:href="#linear-gradient"/>
    <linearGradient id="linear-gradient-4" x1="-562.72" y1="613.69" x2="-549.68" y2="613.69" gradientTransform="translate(513.17 -541.01) rotate(-26.37)" xlink:href="#linear-gradient"/>
  </defs>
  <g class="cls-166">
    <g id="Villes">
      <g id="Fusée">
        <g>
          <g id="Groupe_67" data-name="Groupe 67">
            <path id="Tracé_15" data-name="Tracé 15" class="cls-170" d="m561.6,354.93s-34.06-17.78-97.11-70.05c-63.05-52.27-180.07-144.59-287.77-202.08C139.22,62.77,78.28,32.1,2,2"/>
            <g>
              <g>
                <g class="cls-173">
                  <polygon class="cls-115" points="468.48 288.49 464.51 292.48 467.04 293.24 468.48 288.49"/>
                  <polygon class="cls-115" points="468.66 287.9 464.19 292.39 464.51 292.48 468.48 288.49 468.66 287.9"/>
                  <polygon class="cls-115" points="468.84 287.31 463.88 292.29 464.19 292.39 468.66 287.9 468.84 287.31"/>
                  <polygon class="cls-115" points="469.02 286.72 463.56 292.2 463.88 292.29 468.84 287.31 469.02 286.72"/>
                  <polygon class="cls-115" points="469.2 286.13 463.25 292.11 463.56 292.2 469.02 286.72 469.2 286.13"/>
                  <polygon class="cls-115" points="469.38 285.54 462.93 292.01 463.25 292.11 469.2 286.13 469.38 285.54"/>
                  <polygon class="cls-115" points="469.56 284.95 462.62 291.92 462.93 292.01 469.38 285.54 469.56 284.95"/>
                  <polygon class="cls-115" points="469.74 284.36 462.3 291.82 462.62 291.92 469.56 284.95 469.74 284.36"/>
                  <polygon class="cls-115" points="469.92 283.77 461.99 291.73 462.3 291.82 469.74 284.36 469.92 283.77"/>
                  <polygon class="cls-115" points="470.1 283.17 461.67 291.64 461.99 291.73 469.92 283.77 470.1 283.17"/>
                  <polygon class="cls-115" points="470.27 282.58 461.36 291.54 461.67 291.64 470.1 283.17 470.27 282.58"/>
                  <polygon class="cls-115" points="470.45 281.99 461.04 291.45 461.36 291.54 470.27 282.58 470.45 281.99"/>
                  <polygon class="cls-115" points="470.63 281.4 460.73 291.35 461.04 291.45 470.45 281.99 470.63 281.4"/>
                  <polygon class="cls-115" points="470.81 280.81 460.41 291.26 460.73 291.35 470.63 281.4 470.81 280.81"/>
                  <polygon class="cls-115" points="470.99 280.22 460.1 291.17 460.41 291.26 470.81 280.81 470.99 280.22"/>
                  <polygon class="cls-115" points="471.17 279.63 459.78 291.07 460.1 291.17 470.99 280.22 471.17 279.63"/>
                  <polygon class="cls-115" points="471.35 279.04 459.46 290.98 459.78 291.07 471.17 279.63 471.35 279.04"/>
                  <polygon class="cls-115" points="471.53 278.45 459.15 290.88 459.46 290.98 471.35 279.04 471.53 278.45"/>
                  <polygon class="cls-115" points="471.71 277.86 458.83 290.79 459.15 290.88 471.53 278.45 471.71 277.86"/>
                  <polygon class="cls-115" points="471.89 277.27 458.52 290.7 458.83 290.79 471.71 277.86 471.89 277.27"/>
                  <polygon class="cls-115" points="472.07 276.68 458.2 290.6 458.52 290.7 471.89 277.27 472.07 276.68"/>
                  <polygon class="cls-102" points="472.25 276.09 457.89 290.51 458.2 290.6 472.07 276.68 472.25 276.09"/>
                  <polygon class="cls-102" points="472.43 275.5 457.57 290.41 457.89 290.51 472.25 276.09 472.43 275.5"/>
                  <polygon class="cls-102" points="472.61 274.91 457.26 290.32 457.57 290.41 472.43 275.5 472.61 274.91"/>
                  <polygon class="cls-102" points="472.64 274.78 472.48 274.62 456.94 290.23 457.26 290.32 472.61 274.91 472.64 274.78"/>
                  <polygon class="cls-102" points="472.48 274.62 472.28 274.42 456.63 290.13 456.94 290.23 472.48 274.62"/>
                  <polygon class="cls-102" points="472.28 274.42 472.07 274.21 456.31 290.04 456.63 290.13 472.28 274.42"/>
                  <polygon class="cls-102" points="472.07 274.21 471.86 274.01 456 289.94 456.31 290.04 472.07 274.21"/>
                  <polygon class="cls-102" points="471.86 274.01 471.66 273.81 455.68 289.85 456 289.94 471.86 274.01"/>
                  <polygon class="cls-102" points="471.66 273.81 471.45 273.6 455.37 289.76 455.68 289.85 471.66 273.81"/>
                  <polygon class="cls-102" points="471.45 273.6 471.25 273.4 455.05 289.66 455.37 289.76 471.45 273.6"/>
                  <polygon class="cls-102" points="471.25 273.4 471.04 273.2 454.74 289.57 455.05 289.66 471.25 273.4"/>
                  <polygon class="cls-76" points="471.04 273.2 470.83 272.99 454.42 289.47 454.74 289.57 471.04 273.2"/>
                  <polygon class="cls-76" points="470.83 272.99 470.63 272.79 454.11 289.38 454.42 289.47 470.83 272.99"/>
                  <polygon class="cls-21" points="470.63 272.79 470.42 272.59 453.79 289.29 454.11 289.38 470.63 272.79"/>
                  <polygon class="cls-21" points="470.42 272.59 470.22 272.38 453.48 289.19 453.79 289.29 470.42 272.59"/>
                  <polygon class="cls-78" points="470.22 272.38 470.01 272.18 453.16 289.1 453.48 289.19 470.22 272.38"/>
                  <polygon class="cls-78" points="470.01 272.18 469.8 271.98 452.85 289 453.16 289.1 470.01 272.18"/>
                  <polygon class="cls-12" points="469.8 271.98 469.6 271.77 452.53 288.91 452.85 289 469.8 271.98"/>
                  <polygon class="cls-105" points="469.6 271.77 469.39 271.57 452.22 288.82 452.53 288.91 469.6 271.77"/>
                  <polygon class="cls-40" points="469.39 271.57 469.19 271.37 451.9 288.72 452.22 288.82 469.39 271.57"/>
                  <polygon class="cls-74" points="469.19 271.37 468.98 271.16 451.59 288.63 451.9 288.72 469.19 271.37"/>
                  <polygon class="cls-74" points="468.98 271.16 468.77 270.96 451.27 288.54 451.59 288.63 468.98 271.16"/>
                  <polygon class="cls-24" points="468.77 270.96 468.57 270.76 450.96 288.44 451.27 288.54 468.77 270.96"/>
                  <polygon class="cls-138" points="468.57 270.76 468.36 270.55 450.64 288.35 450.96 288.44 468.57 270.76"/>
                  <polygon class="cls-138" points="468.36 270.55 468.15 270.35 450.33 288.25 450.64 288.35 468.36 270.55"/>
                  <polygon class="cls-117" points="468.15 270.35 467.95 270.14 450.01 288.16 450.33 288.25 468.15 270.35"/>
                  <polygon class="cls-103" points="467.95 270.14 467.74 269.94 449.7 288.07 450.01 288.16 467.95 270.14"/>
                  <polygon class="cls-103" points="467.74 269.94 467.54 269.74 449.38 287.97 449.7 288.07 467.74 269.94"/>
                  <polygon class="cls-37" points="467.54 269.74 467.33 269.53 449.07 287.88 449.38 287.97 467.54 269.74"/>
                  <polygon class="cls-147" points="467.33 269.53 467.12 269.33 448.75 287.78 449.07 287.88 467.33 269.53"/>
                  <polygon class="cls-33" points="467.12 269.33 466.92 269.13 448.44 287.69 448.75 287.78 467.12 269.33"/>
                  <polygon class="cls-51" points="466.92 269.13 466.71 268.92 448.12 287.6 448.44 287.69 466.92 269.13"/>
                  <polygon class="cls-118" points="466.71 268.92 466.51 268.72 447.81 287.5 448.12 287.6 466.71 268.92"/>
                  <polygon class="cls-57" points="466.51 268.72 466.3 268.52 447.49 287.41 447.81 287.5 466.51 268.72"/>
                  <polygon class="cls-148" points="466.3 268.52 466.09 268.31 447.18 287.31 447.49 287.41 466.3 268.52"/>
                  <polygon class="cls-148" points="466.09 268.31 465.89 268.11 446.86 287.22 447.18 287.31 466.09 268.31"/>
                  <polygon class="cls-5" points="465.89 268.11 465.68 267.91 446.55 287.13 446.86 287.22 465.89 268.11"/>
                  <polygon class="cls-128" points="465.68 267.91 465.47 267.7 446.23 287.03 446.55 287.13 465.68 267.91"/>
                  <polygon class="cls-31" points="465.47 267.7 465.27 267.5 445.91 286.94 446.23 287.03 465.47 267.7"/>
                  <polygon class="cls-122" points="465.27 267.5 465.06 267.3 445.6 286.84 445.91 286.94 465.27 267.5"/>
                  <polygon class="cls-122" points="465.06 267.3 464.86 267.09 445.28 286.75 445.6 286.84 465.06 267.3"/>
                  <polygon class="cls-142" points="464.86 267.09 464.65 266.89 444.97 286.66 445.28 286.75 464.86 267.09"/>
                  <polygon class="cls-111" points="464.65 266.89 464.44 266.69 444.65 286.56 444.97 286.66 464.65 266.89"/>
                  <polygon class="cls-141" points="464.44 266.69 464.24 266.48 444.34 286.47 444.65 286.56 464.44 266.69"/>
                  <polygon class="cls-163" points="464.24 266.48 464.03 266.28 444.02 286.37 444.34 286.47 464.24 266.48"/>
                  <polygon class="cls-28" points="464.03 266.28 463.83 266.08 443.71 286.28 444.02 286.37 464.03 266.28"/>
                  <polygon class="cls-28" points="463.83 266.08 463.62 265.87 443.39 286.19 443.71 286.28 463.83 266.08"/>
                  <polygon class="cls-94" points="463.62 265.87 463.41 265.67 443.08 286.09 443.39 286.19 463.62 265.87"/>
                  <polygon class="cls-29" points="463.41 265.67 463.21 265.47 442.76 286 443.08 286.09 463.41 265.67"/>
                  <polygon class="cls-59" points="463.21 265.47 463 265.26 442.45 285.9 442.76 286 463.21 265.47"/>
                  <polygon class="cls-159" points="463 265.26 462.8 265.06 442.13 285.81 442.45 285.9 463 265.26"/>
                  <polygon class="cls-151" points="462.8 265.06 462.59 264.86 441.82 285.72 442.13 285.81 462.8 265.06"/>
                  <polygon class="cls-7" points="462.59 264.86 462.38 264.65 441.5 285.62 441.82 285.72 462.59 264.86"/>
                  <polygon class="cls-100" points="462.38 264.65 462.18 264.45 441.19 285.53 441.5 285.62 462.38 264.65"/>
                  <polygon class="cls-17" points="462.18 264.45 461.97 264.25 440.87 285.43 441.19 285.53 462.18 264.45"/>
                  <polygon class="cls-61" points="461.97 264.25 461.76 264.04 440.56 285.34 440.87 285.43 461.97 264.25"/>
                  <polygon class="cls-157" points="461.76 264.04 461.56 263.84 440.24 285.25 440.56 285.34 461.76 264.04"/>
                  <polygon class="cls-30" points="461.56 263.84 461.35 263.64 439.93 285.15 440.24 285.25 461.56 263.84"/>
                  <polygon class="cls-133" points="461.35 263.64 461.15 263.43 439.61 285.06 439.93 285.15 461.35 263.64"/>
                  <polygon class="cls-9" points="461.15 263.43 460.94 263.23 439.3 284.96 439.61 285.06 461.15 263.43"/>
                  <polygon class="cls-86" points="460.94 263.23 460.73 263.03 438.98 284.87 439.3 284.96 460.94 263.23"/>
                  <polygon class="cls-90" points="460.73 263.03 460.53 262.82 438.67 284.78 438.98 284.87 460.73 263.03"/>
                  <polygon class="cls-75" points="460.53 262.82 460.32 262.62 438.35 284.68 438.67 284.78 460.53 262.82"/>
                  <polygon class="cls-15" points="460.32 262.62 460.12 262.42 438.04 284.59 438.35 284.68 460.32 262.62"/>
                  <polygon class="cls-82" points="460.12 262.42 459.91 262.21 437.72 284.5 438.04 284.59 460.12 262.42"/>
                  <polygon class="cls-41" points="459.91 262.21 459.7 262.01 437.41 284.4 437.72 284.5 459.91 262.21"/>
                  <polygon class="cls-45" points="459.7 262.01 459.5 261.81 437.09 284.31 437.41 284.4 459.7 262.01"/>
                  <polygon class="cls-60" points="459.5 261.81 459.29 261.6 436.88 284.11 437.08 284.3 437.09 284.31 459.5 261.81"/>
                  <polygon class="cls-19" points="459.29 261.6 459.08 261.4 436.68 283.9 436.88 284.11 459.29 261.6"/>
                  <polygon class="cls-91" points="459.08 261.4 458.88 261.19 436.47 283.7 436.68 283.9 459.08 261.4"/>
                  <polygon class="cls-144" points="458.88 261.19 458.67 260.99 436.26 283.5 436.47 283.7 458.88 261.19"/>
                  <polygon class="cls-104" points="458.67 260.99 458.47 260.79 436.06 283.29 436.26 283.5 458.67 260.99"/>
                  <polygon class="cls-132" points="458.47 260.79 458.26 260.58 435.85 283.09 436.06 283.29 458.47 260.79"/>
                  <polygon class="cls-108" points="458.26 260.58 458.05 260.38 435.65 282.89 435.85 283.09 458.26 260.58"/>
                  <polygon class="cls-26" points="458.05 260.38 457.85 260.18 435.44 282.68 435.65 282.89 458.05 260.38"/>
                  <polygon class="cls-89" points="457.85 260.18 457.64 259.97 435.23 282.48 435.44 282.68 457.85 260.18"/>
                  <polygon class="cls-38" points="457.64 259.97 457.44 259.77 435.03 282.28 435.23 282.48 457.64 259.97"/>
                  <polygon class="cls-120" points="457.44 259.77 457.23 259.57 434.82 282.07 435.03 282.28 457.44 259.77"/>
                  <polygon class="cls-158" points="457.23 259.57 457.02 259.36 434.62 281.87 434.82 282.07 457.23 259.57"/>
                  <polygon class="cls-53" points="457.02 259.36 456.82 259.16 434.41 281.67 434.62 281.87 457.02 259.36"/>
                  <polygon class="cls-35" points="456.82 259.16 456.61 258.96 434.2 281.46 434.41 281.67 456.82 259.16"/>
                  <polygon class="cls-143" points="456.61 258.96 456.41 258.75 434 281.26 434.2 281.46 456.61 258.96"/>
                  <polygon class="cls-106" points="456.41 258.75 456.2 258.55 433.79 281.06 434 281.26 456.41 258.75"/>
                  <polygon class="cls-55" points="456.2 258.55 455.99 258.35 433.58 280.85 433.79 281.06 456.2 258.55"/>
                  <polygon class="cls-63" points="455.99 258.35 455.79 258.14 433.38 280.65 433.58 280.85 455.99 258.35"/>
                  <polygon class="cls-39" points="455.79 258.14 455.58 257.94 433.17 280.44 433.38 280.65 455.79 258.14"/>
                  <polygon class="cls-14" points="455.58 257.94 455.37 257.74 432.97 280.24 433.17 280.44 455.58 257.94"/>
                  <polygon class="cls-96" points="455.37 257.74 455.17 257.53 432.76 280.04 432.97 280.24 455.37 257.74"/>
                  <polygon class="cls-123" points="455.17 257.53 454.96 257.33 432.55 279.83 432.76 280.04 455.17 257.53"/>
                  <polygon class="cls-77" points="454.96 257.33 454.76 257.13 432.35 279.63 432.55 279.83 454.96 257.33"/>
                  <polygon class="cls-130" points="454.76 257.13 454.55 256.92 432.14 279.43 432.35 279.63 454.76 257.13"/>
                  <polygon class="cls-154" points="454.55 256.92 454.34 256.72 431.94 279.22 432.14 279.43 454.55 256.92"/>
                  <polygon class="cls-85" points="454.34 256.72 454.14 256.52 431.73 279.02 431.94 279.22 454.34 256.72"/>
                  <polygon class="cls-129" points="454.14 256.52 453.93 256.31 431.52 278.82 431.73 279.02 454.14 256.52"/>
                  <polygon class="cls-110" points="453.93 256.31 453.73 256.11 431.32 278.61 431.52 278.82 453.93 256.31"/>
                  <polygon class="cls-101" points="453.73 256.11 453.52 255.91 431.11 278.41 431.32 278.61 453.73 256.11"/>
                  <polygon class="cls-25" points="453.52 255.91 453.31 255.7 430.91 278.21 431.11 278.41 453.52 255.91"/>
                  <polygon class="cls-72" points="453.31 255.7 453.11 255.5 430.7 278 430.91 278.21 453.31 255.7"/>
                  <polygon class="cls-114" points="453.11 255.5 452.9 255.3 430.49 277.8 430.7 278 453.11 255.5"/>
                  <polygon class="cls-66" points="452.9 255.3 452.69 255.09 430.29 277.6 430.49 277.8 452.9 255.3"/>
                  <polygon class="cls-152" points="452.69 255.09 452.49 254.89 430.08 277.39 430.29 277.6 452.69 255.09"/>
                  <polygon class="cls-22" points="452.49 254.89 452.28 254.69 429.87 277.19 430.08 277.39 452.49 254.89"/>
                  <polygon class="cls-116" points="452.28 254.69 452.08 254.48 429.67 276.99 429.87 277.19 452.28 254.69"/>
                  <polygon class="cls-121" points="452.08 254.48 451.87 254.28 429.46 276.78 429.67 276.99 452.08 254.48"/>
                  <polygon class="cls-146" points="451.87 254.28 451.66 254.08 429.26 276.58 429.46 276.78 451.87 254.28"/>
                  <polygon class="cls-42" points="451.66 254.08 451.46 253.87 429.05 276.38 429.26 276.58 451.66 254.08"/>
                  <polygon class="cls-92" points="451.46 253.87 451.25 253.67 428.84 276.17 429.05 276.38 451.46 253.87"/>
                  <polygon class="cls-135" points="451.25 253.67 451.05 253.47 428.64 275.97 428.84 276.17 451.25 253.67"/>
                  <polygon class="cls-44" points="451.05 253.47 450.84 253.26 428.43 275.77 428.64 275.97 451.05 253.47"/>
                  <polygon class="cls-62" points="450.84 253.26 450.63 253.06 428.23 275.56 428.43 275.77 450.84 253.26"/>
                  <polygon class="cls-131" points="450.63 253.06 450.43 252.86 428.02 275.36 428.23 275.56 450.63 253.06"/>
                  <polygon class="cls-149" points="450.43 252.86 450.22 252.65 427.81 275.16 428.02 275.36 450.43 252.86"/>
                  <polygon class="cls-23" points="450.22 252.65 450.02 252.45 427.61 274.95 427.81 275.16 450.22 252.65"/>
                  <polygon class="cls-49" points="450.02 252.45 449.81 252.24 427.4 274.75 427.61 274.95 450.02 252.45"/>
                  <polygon class="cls-160" points="449.81 252.24 449.6 252.04 427.19 274.55 427.4 274.75 449.81 252.24"/>
                  <polygon class="cls-8" points="449.6 252.04 449.4 251.84 426.99 274.34 427.19 274.55 449.6 252.04"/>
                  <polygon class="cls-20" points="449.4 251.84 449.19 251.63 426.78 274.14 426.99 274.34 449.4 251.84"/>
                  <polygon class="cls-11" points="449.19 251.63 448.98 251.43 426.58 273.94 426.78 274.14 449.19 251.63"/>
                  <polygon class="cls-107" points="448.98 251.43 448.78 251.23 426.37 273.73 426.58 273.94 448.98 251.43"/>
                  <polygon class="cls-16" points="448.78 251.23 448.57 251.02 426.16 273.53 426.37 273.73 448.78 251.23"/>
                  <polygon class="cls-46" points="448.57 251.02 448.37 250.82 425.96 273.33 426.16 273.53 448.57 251.02"/>
                  <polygon class="cls-13" points="448.37 250.82 448.16 250.62 425.75 273.12 425.96 273.33 448.37 250.82"/>
                  <polygon class="cls-56" points="448.16 250.62 447.95 250.41 425.55 272.92 425.75 273.12 448.16 250.62"/>
                  <polygon class="cls-69" points="447.95 250.41 447.75 250.21 425.34 272.72 425.55 272.92 447.95 250.41"/>
                  <polygon class="cls-161" points="447.75 250.21 447.54 250.01 425.13 272.51 425.34 272.72 447.75 250.21"/>
                  <polygon class="cls-43" points="447.54 250.01 447.34 249.8 424.93 272.31 425.13 272.51 447.54 250.01"/>
                  <polygon class="cls-2" points="447.34 249.8 447.13 249.6 424.72 272.1 424.93 272.31 447.34 249.8"/>
                  <polygon class="cls-140" points="447.13 249.6 446.92 249.4 424.52 271.9 424.72 272.1 447.13 249.6"/>
                  <polygon class="cls-98" points="446.92 249.4 446.72 249.19 424.31 271.7 424.52 271.9 446.92 249.4"/>
                  <polygon class="cls-81" points="446.72 249.19 446.51 248.99 424.1 271.49 424.31 271.7 446.72 249.19"/>
                  <polygon class="cls-3" points="446.51 248.99 446.37 248.85 446.27 248.82 423.9 271.29 424.1 271.49 446.51 248.99"/>
                  <polygon class="cls-99" points="445.95 248.73 423.69 271.09 423.9 271.29 446.27 248.82 445.95 248.73"/>
                  <polygon class="cls-1" points="445.64 248.63 423.48 270.88 423.69 271.09 445.95 248.73 445.64 248.63"/>
                  <polygon class="cls-126" points="445.32 248.54 423.28 270.68 423.48 270.88 445.64 248.63 445.32 248.54"/>
                  <polygon class="cls-113" points="445.01 248.45 423.07 270.48 423.28 270.68 445.32 248.54 445.01 248.45"/>
                  <polygon class="cls-4" points="444.69 248.35 422.87 270.27 423.07 270.48 445.01 248.45 444.69 248.35"/>
                  <polygon class="cls-109" points="444.38 248.26 422.66 270.07 422.87 270.27 444.69 248.35 444.38 248.26"/>
                  <polygon class="cls-119" points="444.06 248.17 422.45 269.87 422.66 270.07 444.38 248.26 444.06 248.17"/>
                  <polygon class="cls-32" points="443.75 248.07 422.25 269.66 422.45 269.87 444.06 248.17 443.75 248.07"/>
                  <polygon class="cls-139" points="443.43 247.98 422.23 269.27 422.14 269.56 422.25 269.66 443.75 248.07 443.43 247.98"/>
                  <polygon class="cls-93" points="443.12 247.88 422.41 268.68 422.23 269.27 443.43 247.98 443.12 247.88"/>
                  <polygon class="cls-36" points="442.8 247.79 422.59 268.09 422.41 268.68 443.12 247.88 442.8 247.79"/>
                  <polygon class="cls-153" points="442.49 247.7 422.77 267.5 422.59 268.09 442.8 247.79 442.49 247.7"/>
                  <polygon class="cls-71" points="442.17 247.6 422.95 266.91 422.77 267.5 442.49 247.7 442.17 247.6"/>
                  <polygon class="cls-155" points="441.86 247.51 423.13 266.32 422.95 266.91 442.17 247.6 441.86 247.51"/>
                  <polygon class="cls-125" points="441.54 247.41 423.31 265.72 423.13 266.32 441.86 247.51 441.54 247.41"/>
                  <polygon class="cls-64" points="441.23 247.32 423.49 265.13 423.31 265.72 441.54 247.41 441.23 247.32"/>
                  <polygon class="cls-79" points="440.91 247.23 423.67 264.54 423.49 265.13 441.23 247.32 440.91 247.23"/>
                  <polygon class="cls-18" points="440.6 247.13 423.85 263.95 423.67 264.54 440.91 247.23 440.6 247.13"/>
                  <polygon class="cls-48" points="440.28 247.04 424.03 263.36 423.85 263.95 440.6 247.13 440.28 247.04"/>
                  <polygon class="cls-80" points="439.97 246.94 424.21 262.77 424.03 263.36 440.28 247.04 439.97 246.94"/>
                  <polygon class="cls-87" points="439.65 246.85 424.39 262.18 424.21 262.77 439.97 246.94 439.65 246.85"/>
                  <polygon class="cls-124" points="439.34 246.76 424.56 261.59 424.39 262.18 439.65 246.85 439.34 246.76"/>
                  <polygon class="cls-84" points="439.02 246.66 424.74 261 424.56 261.59 439.34 246.76 439.02 246.66"/>
                  <polygon class="cls-84" points="424.74 261 439.02 246.66 429.92 243.95 424.74 261"/>
                </g>
                <g class="cls-164">
                  <path class="cls-83" d="m460.71,283.47c-6.29-9.91-2.4-18.13-10.52-24.96-10.16-8.55-21.48.53-21.48.53,0,0-.65,1.15-1.27,2.99.69-3.39,2.02-5.77,2.02-5.77,0,0,11.32-9.08,21.48-.53,10.16,8.55,1.51,19.28,17.54,32.76-2.77-2.33-5.35-3.92-7.77-5.02Z"/>
                </g>
                <g class="cls-172">
                  <path class="cls-162" d="m427.07,264.93c.71,2.57,2.19,5.16,4.93,7.46,8.41,7.07,16.55.79,28.18,6.04,1.59,3.17,4.1,6.52,8.31,10.06-16.03-13.48-25.8-2.52-35.97-11.06-4.58-3.85-5.65-8.52-5.45-12.5Z"/>
                </g>
                <path class="cls-54" d="m455.71,278.1c-9.33-7.85-18.85-2.61-24.76-7.59-5.92-4.98-.57-13.74-.57-13.74,0,0,7.8-6.7,13.71-1.73,5.92,4.98,2.29,15.21,11.62,23.05Z"/>
                <path class="cls-127" d="m431.84,278.22c-4.43-3.73-6.4-8.81-5.7-14.7.53-4.38,2.33-7.62,2.41-7.76.07-.12.15-.22.26-.3.12-.1,3.04-2.41,7.29-3.66,5.72-1.67,11.08-.59,15.51,3.14,4.78,4.02,5.73,8.61,6.75,13.47,1.22,5.84,2.6,12.46,11.24,19.73.33.27.44.71.32,1.09-.04.13-.11.26-.2.37-.37.44-1.03.49-1.47.12-8.64-7.26-15.58-7.33-21.7-7.39-3.03-.03-5.95-.06-8.84-.91-1.97-.59-3.93-1.57-5.88-3.21Zm30.14,4.91c-3.76-5.16-4.75-9.93-5.66-14.29-.98-4.7-1.82-8.75-6.05-12.31-8.85-7.45-18.57-.66-19.99.42-.77,1.5-5.86,12.31,2.91,19.69,4.22,3.55,8.47,3.59,13.39,3.64,3.49.03,7.23.07,11.38,1.3,1.3.39,2.64.89,4.03,1.55Z"/>
              </g>
              <path class="cls-145" d="m411.71,264.2l4.69,2.23c2.12,1.01,4.63.77,6.53-.61h0c5.67-4.12,10.1-9.7,12.81-16.14h0c.91-2.16.56-4.64-.92-6.46l-3.26-4.02"/>
              <g class="cls-165">
                <path class="cls-112" d="m429.83,241.75l3.23,3.98c.81,1,1.32,2.19,1.5,3.43.17,1.24.02,2.52-.48,3.72-.39.92-.81,1.83-1.26,2.72,1.05-1.69,1.97-3.46,2.74-5.31.46-1.08.6-2.24.44-3.36-.16-1.12-.62-2.19-1.35-3.1l-3.27-4.02-1.54,1.95Z"/>
              </g>
              <g class="cls-168">
                <path class="cls-112" d="m423.45,259.28l-4.69-2.23,13.49-16.98-.7-.86-18.19,22.91,4.37,2.08c2.12,1.01,4.63.78,6.53-.61,1.9-1.38,3.67-2.94,5.28-4.63t0,0c-1.84,1.12-4.13,1.25-6.09.32Zm-3.35-4.47l11.92-15.02.22.27-11.83,14.9-.32-.15Z"/>
              </g>
              <path class="cls-54" d="m421.73,228.06c4.07-4.23,14.84-8.22,28.76,7.81.18.21,0,.54-.27.51-3.02-.35-17.21-2.08-21.8,4.18"/>
              <g class="cls-165">
                <path class="cls-83" d="m447.36,235.78c1.32.11,2.36.23,2.96.3.28.03.45-.29.27-.51-13.92-16.03-24.69-12.04-28.76-7.81l.73,1.35c4.6-3.27,13.54-4.83,24.81,6.67Z"/>
              </g>
              <path class="cls-127" d="m428.08,241.7c.47.14,1.01-.02,1.32-.44,1.53-2.09,6.25-5.35,20.55-3.71l.14.02c.62.07,1.21-.24,1.51-.79.29-.55.22-1.21-.19-1.68-6.77-7.79-13.51-11.83-20.03-11.98-5.76-.14-9.26,2.84-10.5,4.13-.46.48-.44,1.23.03,1.69.48.46,1.24.44,1.7-.04,1.02-1.06,3.9-3.5,8.71-3.39,5.27.13,11.03,3.39,16.75,9.46-13.14-1.14-18.45,1.98-20.59,4.9-.39.53-.28,1.28.26,1.67.11.08.23.14.36.18Z"/>
              <path class="cls-136" d="m398.92,256.8c-3.19,4.92-4.81,16.52,14.1,26.28.25.13.53-.12.43-.38-1.04-2.84-5.8-16.44-.75-22.34"/>
              <path class="cls-54" d="m413.02,283.08c.25.13.53-.12.43-.38-.53-1.46-2.04-5.74-2.71-10.36-.63-4.37-.51-9.04,1.9-11.92.02-.02.04-.04.05-.06l-.08-.02-13.7-3.55c-.9,1.38-1.67,3.29-1.89,5.53-.59,5.75,2.39,13.72,15.99,20.75Z"/>
              <g class="cls-168">
                <path class="cls-70" d="m410.75,272.34c-.63-4.37-.51-9.04,1.9-11.92-.01-.03-.02-.06-.03-.09l-13.7-3.55c-.9,1.38-1.67,3.29-1.89,5.53,2.4,3.7,6.65,7.3,13.72,10.01Z"/>
              </g>
              <path class="cls-127" d="m412.47,284.14c-9.07-4.69-14.52-10.26-16.19-16.56-1.51-5.7.65-9.89,1.64-11.42.36-.55,1.1-.72,1.66-.36.56.36.72,1.1.36,1.65-.64.99-2.64,4.61-1.34,9.52,1.35,5.09,5.82,9.89,12.99,13.97-1.9-5.87-4.26-16.13.22-21.34.43-.5,1.19-.56,1.69-.14.5.43.56,1.18.13,1.68-4.39,5.13-.37,17.49.97,21.15.21.58.05,1.23-.42,1.64-.4.35-.93.46-1.42.31-.09-.03-.18-.06-.27-.11Zm1.11-2.12s0,0,0,0c0,0,0,0,0,0Z"/>
              <path class="cls-83" d="m333.26,182.1s-4.17,29.91,27.6,58.62c27.07,24.46,51.18,23.58,51.18,23.58,5.94-3.61,10.94-8.49,14.68-14.23,2.17-3.33,3.91-6.95,5.17-10.77,0,0-2.11-10.51-12.51-23.6-.36-.45-.73-.91-1.1-1.36-4.11-4.96-9.4-10.25-16.22-15.44-1.61-1.23-3.3-2.45-5.08-3.66-.07-.05-.14-.09-.21-.14-7.19-4.87-14.08-8.29-20.49-10.65-.21-.08-.41-.15-.61-.22-24.82-8.93-42.41-2.11-42.41-2.11Z"/>
              <path class="cls-54" d="m342.67,219.1c6.93-13.96,16.74-26.32,28.79-36.27-22.75-6.95-38.54-.83-38.54-.83,0,0-2.33,16.69,9.74,37.1Z"/>
              <g class="cls-165">
                <path class="cls-83" d="m332.86,183.92c.05-1.43.16-2.22.16-2.22,0,0,15.78-6.12,38.54.83-.78.64-1.55,1.29-2.31,1.96-19.41-5.5-33.44-1.55-36.39-.57Z"/>
              </g>
              <path class="cls-127" d="m341.63,219.71c-9.56-16.17-10.23-30.14-10.07-35.39.06-1.98,1.39-3.65,3.31-4.17,5.1-1.37,18.91-3.97,36.94,1.54l2.12.65-1.71,1.41c-12,9.9-21.58,21.97-28.48,35.88l-.98,1.98-1.12-1.9Zm-6.14-37.25c-.89.24-1.5,1.01-1.53,1.93-.15,4.84.44,17.38,8.64,32.2,6.62-12.71,15.48-23.87,26.38-33.22-16.39-4.51-28.79-2.17-33.49-.9Z"/>
              <path class="cls-127" d="m395.92,262.73c-8.71-2.62-22.05-8.43-36.19-21.22-7.42-6.7-13.5-14.04-18.09-21.8l-.4-.69.42-.55c7.05-14.17,16.82-26.47,29.06-36.56l.5-.41.62.19c8.65,2.64,17.24,6.83,25.51,12.46,15.78,10.73,24.55,22.3,29.13,30.11,5,8.52,6.22,14.46,6.27,14.7l.06.31-.1.3c-1.74,5.32-4.39,10.24-7.88,14.63-3.49,4.39-7.69,8.1-12.49,11.02l-.27.16h-.31c-.25.02-6.25.2-15.62-2.59-.07-.02-.14-.04-.21-.06Zm27.02-10c3.24-4.08,5.72-8.65,7.37-13.58-.67-2.74-6.7-24.23-34.34-43.03-7.87-5.35-16.03-9.37-24.24-11.96-11.6,9.68-20.91,21.42-27.69,34.88,4.43,7.35,10.25,14.31,17.31,20.69,13.77,12.44,26.72,18.1,35.16,20.66,7.98,2.43,13.55,2.6,14.87,2.6,4.44-2.74,8.33-6.2,11.57-10.28Z"/>
              <path class="cls-127" d="m416.97,267.93c2.25.67,4.72.27,6.66-1.14,5.84-4.25,10.41-10,13.21-16.64,1.08-2.57.67-5.51-1.09-7.67l-3.26-4.02c-.42-.51-1.17-.59-1.69-.17-.52.42-.6,1.17-.18,1.68l3.26,4.02c1.2,1.48,1.49,3.49.75,5.25-2.63,6.24-6.92,11.64-12.41,15.63-1.55,1.13-3.58,1.31-5.31.49l-4.69-2.23c-.6-.28-1.31-.03-1.6.56-.29.6-.04,1.31.56,1.59l4.69,2.23c.36.17.72.31,1.1.42Z"/>
              <g class="cls-168">
                <ellipse class="cls-70" cx="373.37" cy="216.02" rx="16.51" ry="16.42" transform="translate(-47.45 121.24) rotate(-17.36)"/>
              </g>
              <ellipse class="cls-54" cx="373.61" cy="213.97" rx="14.84" ry="14.76" transform="translate(-46.83 121.23) rotate(-17.36)"/>
              <g class="cls-165">
                <path class="cls-83" d="m360.33,207.54c.19-.28.39-.55.6-.82,5.09-6.41,14.42-7.51,20.84-2.47,5.66,4.45,7.17,12.19,3.97,18.35,4.4-6.36,3.15-15.1-3.01-19.94-6.42-5.05-15.76-3.94-20.85,2.47-.61.76-1.13,1.57-1.56,2.4Z"/>
              </g>
              <g class="cls-168">
                <path class="cls-54" d="m364.4,225.58c6.42,5.04,15.75,3.94,20.84-2.47,1.6-2.02,2.59-4.32,2.99-6.68-.47.99-1.06,1.94-1.77,2.83-5.09,6.41-14.42,7.52-20.84,2.47-4.4-3.46-6.29-8.92-5.41-14.07-2.92,6.09-1.34,13.57,4.18,17.92Z"/>
              </g>
              <path class="cls-127" d="m363.65,226.51h0c-3.36-2.64-5.48-6.42-5.97-10.66-.49-4.23.7-8.41,3.36-11.76,2.66-3.35,6.47-5.47,10.72-5.98,4.26-.5,8.45.67,11.8,3.31,3.36,2.64,5.48,6.42,5.97,10.66.49,4.23-.7,8.41-3.36,11.76-2.66,3.35-6.47,5.47-10.72,5.98-2.22.26-4.42.07-6.49-.55-1.91-.57-3.71-1.5-5.32-2.76Zm8.39-26.03c-3.62.43-6.86,2.23-9.12,5.08-2.26,2.85-3.28,6.4-2.86,10,.42,3.6,2.22,6.82,5.08,9.06h0c2.85,2.24,6.42,3.24,10.04,2.81,3.62-.43,6.86-2.23,9.12-5.08,2.26-2.85,3.28-6.4,2.86-10s-2.22-6.82-5.08-9.06c-1.37-1.07-2.9-1.86-4.52-2.35-1.76-.53-3.63-.69-5.52-.47Z"/>
              <ellipse class="cls-112" cx="373.58" cy="213.72" rx="9.44" ry="9.39" transform="translate(-46.76 121.22) rotate(-17.36)"/>
              <g class="cls-172">
                <path class="cls-83" d="m367.72,221.11c4.09,3.21,10.02,2.51,13.26-1.57.7-.88,1.22-1.85,1.56-2.86-.06.08-.13.17-.19.25-3.24,4.08-9.17,4.78-13.26,1.57-3.2-2.51-4.32-6.69-3.09-10.33-3.02,4.07-2.27,9.8,1.73,12.94Z"/>
              </g>
              <g class="cls-168">
                <path class="cls-70" d="m364.31,211.46c.1-.13.19-.26.29-.39,3.24-4.08,9.17-4.78,13.26-1.57,3.08,2.42,4.23,6.36,3.23,9.9,2.9-4.06,2.13-9.7-1.83-12.81-4.08-3.21-10.02-2.51-13.26,1.57-.8,1.01-1.36,2.13-1.69,3.3Z"/>
              </g>
              <path class="cls-6" d="m370.26,218.54l.75-.7-1.38-1.15c-1.34-1.45-1.43-3.7-.13-5.26,2.27-2.72,6.34-3.08,9.06-.8.53.44.98.96,1.34,1.54.46.73.7,1.65.71,2.64,0,.66.13,1.79.37,3.16-.22.36-.47.7-.74,1.03-.43.51-.9.96-1.41,1.35-.54-1.07-1.27-2.04-2.15-2.84-.42-.36-2.12.09-2.12.09.28.24.32.66.08.94-2.3,2.75-4.04,4.29-4.94,5-.22.18-.51-1.52-.79-1.58.79-1.72,1.19-2.27,1.35-3.41Z"/>
              <path class="cls-67" d="m372.69,212.73c.35-.42.98-.48,1.4-.12s.48.98.12,1.4-.98.48-1.4.12-.48-.98-.12-1.4Z"/>
              <path class="cls-67" d="m372.09,224c3.52.45,7.19-.84,9.64-3.75,3.81-4.55,2.44-11.04-2.11-14.85-2.42-2.03-12.39-.18-13.72,1.41-.72.86-1.53,1.85-1.93,2.84l-.18,1.28c-1.04,3.91-.52,7.9,2.79,10.66.3.25.61.48.93.69-.02.07,4.13,2.13,4.59,1.72Zm10.16-11.28c-.17-.57-.4-1.11-.7-1.59-.47-.76-1.06-1.43-1.74-2-3.54-2.97-8.84-2.5-11.81,1.05-1.98,2.37-1.8,5.84.34,7.99-.06.43-.15,1.22-.31,2.09-.07-.05-.13-.1-.2-.16-3.72-3.11-4.22-8.68-1.1-12.4s8.68-4.22,12.4-1.1c1.91,1.59,2.96,3.83,3.12,6.13Zm-8.22,9.39c.65-.68,1.36-1.45,2.1-2.34,0,0,0,0,0-.01.39.48.72,1.01.99,1.58-.98.45-2.03.71-3.1.77Zm-4.73.78c.79-1.72.79-3.22.95-4.36l.75-.7-1.38-1.15c-1.34-1.45-1.43-3.7-.13-5.26,2.27-2.72,6.34-3.08,9.06-.8.53.44.98.96,1.34,1.54.46.73.7,1.65.71,2.64,0,.66.13,1.79.37,3.16-.22.36-.47.7-.74,1.03-.43.51-.9.96-1.41,1.35-.54-1.07-1.27-2.04-2.15-2.84-.42-.36-2.12.09-2.12.09.28.24.32.66.08.94-2.3,2.75-3.7,4-4.59,4.72-.22.18-.45-.28-.73-.34Z"/>
              <path class="cls-127" d="m366.97,222.04c-4.6-3.61-5.37-10.28-1.73-14.87,3.64-4.59,10.35-5.38,14.95-1.77,4.6,3.61,5.37,10.29,1.73,14.87-1.76,2.22-4.29,3.63-7.11,3.97-1.47.17-2.93.05-4.3-.36-1.26-.38-2.46-.99-3.53-1.83Zm.15-13.4c-2.82,3.55-2.22,8.72,1.34,11.52h0c1.72,1.36,3.88,1.96,6.07,1.7,2.19-.26,4.14-1.35,5.51-3.07,2.82-3.55,2.22-8.72-1.34-11.52-.83-.66-1.76-1.12-2.72-1.41-3.14-.94-6.69.06-8.85,2.78Z"/>
              <g class="cls-167">
                <path class="cls-83" d="m349.96,185.63c.72-2.13,5.71-2.48,8.24-1.7,2.62.8,4.06,1.73,3.69,3-.52,1.77-2.76,1.79-5.21,1.15-1.74-.45-7.61.18-6.72-2.45Z"/>
              </g>
              <g class="cls-167">
                <path class="cls-83" d="m342.55,186.38c.71-1.82,3.49-2.88,4.77-2.66,1.32.23,1.97.75,1.58,1.83-.54,1.5-1.77,1.87-3.03,1.74-.89-.09-4.2,1.34-3.32-.91Z"/>
              </g>
              <g class="cls-168">
                <path class="cls-70" d="m412.96,262.27s-24.12.89-51.18-23.57c-27.48-24.84-28.07-50.57-27.73-57.06-.18.06-.34.11-.48.15.56-.18,1.49-.46,2.75-.77,1.36,11.18,6.92,30.16,27.38,48.65,12.78,11.55,24.9,17.45,34.14,20.46,11.8,3.84,24.79-.57,31.61-10.93.04-.06.08-.11.11-.17.27-.41.53-.83.78-1.25.12-.17.24-.34.35-.51.04-.06.08-.11.11-.17.04-.06.08-.12.12-.19,0-.03-.02-.05-.02-.07h0c.48,1.52.66,2.37.66,2.37-1.11,3.38-2.6,6.6-4.42,9.59-3.68,5.41-8.49,10.02-14.17,13.47Z"/>
              </g>
              <path class="cls-54" d="m416.87,254.96c5.73,4.5,14.97,4.41,14.97,4.41,0,0,0-.03-.02-.1-.24-.98-2.37-9.14-7.75-13.37-5.16-4.06-12.28-3.59-13.55-3.47-.13.01-.2.02-.2.02,0,0,.86,8.04,6.56,12.51Z"/>
              <g class="cls-165">
                <path class="cls-83" d="m409.91,242.66s.05.49.22,1.29c2.41-.1,8.23.06,12.64,3.53,4.33,3.4,6.56,9.35,7.39,12.05.81.05,1.29.04,1.29.04,0,0,0-.03-.02-.1-.24-.98-2.37-9.14-7.76-13.37-5.16-4.06-12.27-3.59-13.55-3.47-.13.01-.2.02-.2.02Z"/>
              </g>
              <g class="cls-168">
                <path class="cls-70" d="m416.87,254.96c5.73,4.5,14.97,4.41,14.97,4.41,0,0,0-.03-.02-.1l-21.31-16.84c-.13.01-.2.02-.2.02,0,0,.86,8.04,6.56,12.51Z"/>
              </g>
              <path class="cls-127" d="m416.12,255.9c-6.02-4.73-6.97-12.97-7.01-13.32l-.13-1.17,1.17-.15c.35-.04,8.63-1.04,14.65,3.69,5.99,4.71,8.12,13.76,8.2,14.14l.33,1.45-1.49.02c-.26,0-4.44.02-8.97-1.33-2.32-.69-4.73-1.74-6.76-3.33Zm7.19-9.06c-3.94-3.1-9.22-3.35-11.6-3.28.48,2.32,1.94,7.36,5.9,10.47,3.95,3.11,9.83,3.89,12.63,4.09-.84-2.66-2.96-8.16-6.92-11.27Zm8.52,12.53h0s0,0,0,0Z"/>
            </g>
          </g>
          <g>
            <path class="cls-134" d="m299.24,31.65c-2.05,7.13-9.52,11.26-16.65,9.21-7.13-2.05-11.26-9.52-9.21-16.65,2.05-7.13,9.52-11.26,16.65-9.21,7.13,2.05,11.26,9.52,9.21,16.65Z"/>
            <g>
              <path class="cls-27" d="m277.63,30.24c-.07-.34-.13-.69-.16-1.05-.45-4.91,3.16-9.26,8.07-9.71,4.91-.45,9.26,3.16,9.71,8.07.45,4.91-3.16,9.26-8.07,9.71-4.55.42-8.62-2.65-9.55-7.02"/>
              <path class="cls-27" d="m285.54,19.48c-4.91.45-8.52,4.8-8.07,9.71.03.36.09.71.16,1.05.14.68.37,1.32.66,1.93.12-.06,15.85-7.35,16.23-7.41-1.51-3.41-5.06-5.65-8.98-5.29Z"/>
              <path class="cls-52" d="m281.52,20.87c-2.7,1.75-4.36,4.89-4.05,8.32.03.36.09.71.16,1.05.93,4.36,5,7.44,9.55,7.02.53-.05,1.04-.16,1.54-.3-10.09-3.09-8.87-11.36-7.21-16.09Z"/>
              <path class="cls-34" d="m281.52,20.87c-2.7,1.75-4.36,4.89-4.05,8.32.03.36.09.71.16,1.05.93,4.36,5,7.44,9.55,7.02.53-.05,1.04-.16,1.54-.3-10.09-3.09-8.87-11.36-7.21-16.09Z"/>
              <g>
                <path class="cls-169" d="m277.62,30.23c-5.22,2.74-8.58,5.03-8.24,5.77.48,1.08,8.48-1.47,17.85-5.68"/>
                <line class="cls-169" x1="278.85" y1="33.78" x2="282.52" y2="32.35"/>
                <path class="cls-169" d="m287.23,30.32c9.38-4.21,16.59-8.5,16.1-9.58-.33-.74-4.25.24-9.72,2.3"/>
              </g>
            </g>
          </g>
          <g>
            <ellipse class="cls-134" cx="430.96" cy="55.45" rx="42.54" ry="44.02" transform="translate(33.71 231.5) rotate(-31.23)"/>
            <g>
              <g>
                <circle class="cls-88" cx="431.32" cy="56.37" r="34.43" transform="translate(323.3 477.73) rotate(-83.07)"/>
                <path class="cls-88" d="m399.33,69.12c.8,2.01,1.8,3.97,3.01,5.84l61.46-29.99c-1.2-3.41-2.95-6.7-5.29-9.71-11.66-15.02-33.29-17.75-48.31-6.09-12.41,9.63-16.42,26.06-10.88,39.95"/>
                <path class="cls-137" d="m422.69,23.04c11.65,3.67,44.24,17.62,34.16,56.39,11-12.15,12.07-30.78,1.67-44.17-8.69-11.2-22.92-15.55-35.83-12.22Z"/>
              </g>
              <g>
                <g>
                  <path class="cls-171" d="m459.71,36.01c13.04-5.05,28.03-9.78,29.22-7.49,2.19,4.19-22.11,21.24-54.28,38.08-32.17,16.84-60.03,27.09-62.23,22.9-1.16-2.21,12.88-13.69,26.09-21.32"/>
                  <path class="cls-50" d="m390.5,84.49c1.54,1.98,1.18,4.84-.8,6.38-1.98,1.54-4.84,1.18-6.38-.8-1.54-1.98-1.18-4.84.8-6.38,1.98-1.54,4.84-1.18,6.38.8Z"/>
                </g>
                <path class="cls-171" d="m488.94,28.53c2.19,4.19-22.11,21.24-54.28,38.08"/>
              </g>
            </g>
          </g>
          <g>
            <g>
              <path class="cls-134" d="m162.46,120.19c-6.17,4.12-14.55,2.24-18.7-4.18-4.15-6.42-2.5-14.99,3.66-19.11,6.17-4.12,14.55-2.24,18.7,4.18,4.15,6.42,2.5,14.99-3.66,19.11Z"/>
              <g>
                <circle class="cls-95" cx="154.99" cy="108.85" r="10.86" transform="translate(-12.23 197.77) rotate(-63.08)"/>
                <path class="cls-95" d="m144.31,110.79c.12.67.31,1.34.57,2l20.88-5.43c-.16-1.13-.49-2.25-1.03-3.33-2.66-5.37-9.18-7.57-14.56-4.91-4.44,2.2-6.71,7.03-5.86,11.67"/>
                <path class="cls-68" d="m154.41,98.01c3.37,1.86,12.58,8.22,7.03,19.57,4.16-3.07,5.66-8.76,3.28-13.55-1.99-4.01-6.11-6.24-10.31-6.02Z"/>
              </g>
            </g>
            <g>
              <g>
                <path class="cls-97" d="m149.89,107.78c0,1.03-.7,1.86-1.56,1.86s-1.56-.83-1.56-1.86.7-1.86,1.56-1.86,1.56.83,1.56,1.86Z"/>
                <path class="cls-73" d="m149.41,107.78c0,.71-.48,1.28-1.08,1.28s-1.08-.57-1.08-1.28.48-1.28,1.08-1.28,1.08.57,1.08,1.28Z"/>
              </g>
              <g>
                <path class="cls-97" d="m160.86,112.35c0,.61-.42,1.11-.93,1.11s-.93-.5-.93-1.11.42-1.11.93-1.11.93.5.93,1.11Z"/>
                <path class="cls-73" d="m160.57,112.35c0,.42-.29.76-.64.76s-.64-.34-.64-.76.29-.76.64-.76.64.34.64.76Z"/>
              </g>
              <g>
                <path class="cls-97" d="m156.54,103.74c0,.43-.29.78-.65.78s-.65-.35-.65-.78.29-.78.65-.78.65.35.65.78Z"/>
                <path class="cls-73" d="m156.34,103.74c0,.3-.2.54-.45.54s-.45-.24-.45-.54c0-.3.2-.54.45-.54s.45.24.45.54Z"/>
              </g>
            </g>
          </g>
          <g>
            <path class="cls-134" d="m523.65,264.24c-2.5,1.67-5.89.91-7.57-1.69-1.68-2.6-1.01-6.07,1.48-7.74,2.5-1.67,5.89-.91,7.57,1.69,1.68,2.6,1.01,6.07-1.48,7.74Z"/>
            <g>
              <circle class="cls-95" cx="520.63" cy="259.65" r="4.4"/>
              <path class="cls-95" d="m516.3,260.43c.05.27.13.54.23.81l8.45-2.2c-.06-.46-.2-.91-.42-1.35-1.08-2.18-3.72-3.07-5.89-1.99-1.8.89-2.72,2.85-2.37,4.72"/>
              <path class="cls-10" d="m520.39,255.26c1.37.75,5.09,3.33,2.85,7.92,1.68-1.24,2.29-3.55,1.33-5.49-.8-1.62-2.48-2.53-4.18-2.44Z"/>
            </g>
          </g>
          <g>
            <g>
              <path class="cls-97" d="m518.56,259.21c0,.42-.28.75-.63.75s-.63-.34-.63-.75.28-.75.63-.75.63.34.63.75Z"/>
              <path class="cls-73" d="m518.37,259.21c0,.29-.19.52-.44.52s-.44-.23-.44-.52c0-.29.19-.52.44-.52s.44.23.44.52Z"/>
            </g>
            <g>
              <path class="cls-97" d="m523,261.07c0,.25-.17.45-.38.45s-.38-.2-.38-.45.17-.45.38-.45.38.2.38.45Z"/>
              <path class="cls-73" d="m522.88,261.07c0,.17-.12.31-.26.31s-.26-.14-.26-.31c0-.17.12-.31.26-.31s.26.14.26.31Z"/>
            </g>
            <g>
              <path class="cls-97" d="m521.25,257.58c0,.17-.12.32-.26.32s-.26-.14-.26-.32.12-.32.26-.32.26.14.26.32Z"/>
              <path class="cls-73" d="m521.17,257.58c0,.12-.08.22-.18.22s-.18-.1-.18-.22c0-.12.08-.22.18-.22s.18.1.18.22Z"/>
            </g>
          </g>
          <g>
            <g>
              <ellipse class="cls-134" cx="278.85" cy="259.08" rx="19.52" ry="20.2" transform="translate(-71.25 109.71) rotate(-19.79)"/>
              <g>
                <circle class="cls-65" cx="278.93" cy="259.53" r="15.8" transform="translate(-87.98 156.91) rotate(-27.31)"/>
                <path class="cls-65" d="m263.38,262.35c.18.98.45,1.95.82,2.9l30.38-7.89c-.23-1.64-.72-3.28-1.49-4.85-3.88-7.82-13.36-11.02-21.18-7.14-6.46,3.2-9.76,10.23-8.53,16.98"/>
                <path class="cls-156" d="m278.08,243.75c4.91,2.71,18.3,11.95,10.23,28.48,6.05-4.46,8.23-12.75,4.77-19.72-2.89-5.83-8.9-9.09-15.01-8.76Z"/>
              </g>
            </g>
            <g>
              <g>
                <path class="cls-47" d="m282.71,264.2c.69-1.33,2.15-1.94,3.27-1.36,1.11.58,1.46,2.12.77,3.45-.69,1.33-2.15,1.94-3.27,1.36-1.11-.58-1.46-2.12-.77-3.45Z"/>
                <path class="cls-150" d="m283.34,264.52c.47-.92,1.48-1.33,2.25-.94.77.4,1,1.46.53,2.38-.47.92-1.48,1.33-2.25.94-.77-.4-1-1.46-.53-2.38Z"/>
              </g>
              <g>
                <path class="cls-47" d="m271.61,250.94c.41-.79,1.28-1.15,1.94-.81.66.34.87,1.26.46,2.05-.41.79-1.28,1.15-1.94.81-.66-.34-.87-1.26-.46-2.05Z"/>
                <path class="cls-150" d="m271.99,251.14c.28-.54.88-.79,1.34-.56s.6.87.31,1.41c-.28.54-.88.79-1.34.56s-.6-.87-.31-1.41Z"/>
              </g>
              <g>
                <path class="cls-47" d="m271.42,264.95c.29-.56.9-.81,1.37-.57.47.24.61.89.32,1.45-.29.56-.9.81-1.37.57-.47-.24-.61-.89-.32-1.45Z"/>
                <path class="cls-150" d="m271.68,265.09c.2-.38.62-.56.94-.39.32.17.42.61.22,1s-.62.56-.94.39c-.32-.17-.42-.61-.22-1Z"/>
              </g>
            </g>
          </g>
        </g>
      </g>
    </g>
  </g>
</svg>