<?xml version="1.0" encoding="UTF-8"?><svg id="a" xmlns="http://www.w3.org/2000/svg" xmlns:xlink="http://www.w3.org/1999/xlink" viewBox="0 0 369.6 581.93"><defs><style>.k{fill:#f49511;}.k,.l,.m,.n,.o,.p,.q,.r,.s,.t,.u,.v,.w,.x,.y,.z,.aa,.ab,.ac,.ad,.ae,.af,.ag,.ah,.ai,.aj,.ak,.al,.am,.an,.ao,.ap,.aq,.ar,.as,.at,.au,.av,.aw,.ax,.ay,.az,.ba,.bb,.bc,.bd,.be,.bf,.bg,.bh,.bi,.bj,.bk,.bl,.bm,.bn,.bo,.bp,.bq,.br,.bs,.bt,.bu,.bv,.bw,.bx,.by,.bz,.ca,.cb,.cc,.cd,.ce,.cf,.cg,.ch,.ci,.cj,.ck,.cl,.cm,.cn,.co,.cp,.cq,.cr,.cs,.ct,.cu,.cv,.cw,.cx,.cy,.cz,.da,.db,.dc,.dd,.de,.df,.dg,.dh,.di,.dj,.dk,.dl,.dm,.dn,.do,.dp,.dq,.dr,.ds,.dt,.du,.dv,.dw,.dx,.dy,.dz,.ea,.eb,.ec,.ed,.ee,.ef,.eg,.eh,.ei,.ej,.ek,.el,.em,.en,.eo,.ep,.eq,.er,.es,.et,.eu,.ev,.ew,.ex,.ey,.ez,.fa,.fb,.fc,.fd,.fe,.ff,.fg,.fh,.fi,.fj,.fk,.fl,.fm,.fn,.fo,.fp,.fq{stroke-width:0px;}.fr{stroke:#f09466;stroke-width:.66px;}.fr,.fs,.ft,.br{fill:none;}.fr,.ft{stroke-miterlimit:10;}.l{fill:#f28b13;}.m{fill:#f49111;}.n{fill:#f69b10;}.o{fill:#e21b1b;}.p{fill:#62bfc2;}.fs{stroke:#afcccd;stroke-dasharray:0 0 0 0 0 0 25 40;stroke-linecap:round;stroke-width:4px;}.q{fill:#e32a1a;}.r{fill:#f07a15;}.s{fill:#e4321a;}.t{fill:#f07d15;}.u{fill:#df0a1a;}.v{fill:#f18214;}.w{fill:#e94f19;}.x{fill:#e63619;}.y{fill:#f17f14;}.z{fill:#e42c1a;}.fu{opacity:.5;}.aa{fill:#f9b40b;}.ab{fill:#e63b19;}.ac{fill:#f07b15;}.ad{fill:#df051a;}.ae{opacity:.05;}.ae,.af,.be,.bt,.cr{isolation:isolate;}.ae,.cq{fill:#fff;}.af{fill:url(#j);}.af,.be,.bt,.cr{opacity:.24;}.ag{fill:#ec6417;}.ah{fill:#ef7416;}.ai{fill:#e00f1a;}.aj{fill:#ec5d17;}.ak{fill:#e74119;}.al{fill:#5f9599;}.am{fill:#e3241a;}.an{fill:#e3261a;}.ao{fill:#e42f1a;}.ap{fill:#e21e1b;}.aq{fill:#f69f0f;}.ar{fill:#e0171a;}.as{fill:#588c8c;}.at{fill:#e94819;}.au{fill:#f7a50f;}.ft{stroke:#e6804f;stroke-width:1.96px;}.av{fill:#e0141a;}.aw{fill:#e74419;}.ax{fill:#e94e19;}.ay{fill:#e00b1a;}.az{fill:#e63819;}.ba{fill:#ed6a16;}.bb{fill:#f28813;}.bc{fill:#ee6f15;}.bd{fill:#e63919;}.be{fill:url(#g);}.bf{fill:#f18014;}.bg{fill:#23a2bd;}.bh{fill:#f9b50b;}.bi{fill:#ef7616;}.bj{fill:#f99d96;}.bk{fill:#e0171b;}.bl{fill:#4354dc;}.bm{fill:#e74719;}.bn{fill:#f39766;}.bo{fill:#e94c19;}.bp{fill:#f28414;}.bq{fill:#e2191b;}.bs{fill:#e3271a;}.bt{fill:url(#i);}.bu{fill:#e63a19;}.bv{fill:#e42d1a;}.bw{fill:#ef7015;}.bx{fill:#e94d19;}.by{fill:#f9af0d;}.bz{fill:#6bc7cc;}.ca{fill:#ec6117;}.cb{fill:#171722;}.cc{fill:#f28513;}.cd{fill:#281236;}.ce{fill:#f7a90e;}.cf{fill:#ec5e17;}.cg{fill:#faa637;}.fv{opacity:.3;}.fw{clip-path:url(#f);}.ch{fill:#e00d1a;}.ci{fill:#e5351a;}.cj{fill:#df011a;}.fx{opacity:.35;}.ck{fill:#ea5418;}.cl{fill:#df081a;}.cm{fill:#f9b10c;}.cn{fill:#f9b70a;}.co{fill:#f48f12;}.cp{fill:#e63719;}.cr{fill:url(#h);}.cs{fill:#fbbd08;}.fy{opacity:.6;}.ct{fill:#ea5818;}.cu{fill:#e4331a;}.cv{fill:#fbba09;}.cw{fill:#d34a31;}.cx{fill:#e74319;}.cy{fill:#e4341a;}.cz{fill:#e63c19;}.da{fill:#ed6b16;}.db{fill:#f7a40f;}.dc{fill:#e3251a;}.dd{fill:#f09466;}.de{fill:#e95218;}.df{fill:#e99936;}.dg{fill:#f48e12;}.dh{fill:#f49311;}.di{fill:#e32b1a;}.dj{fill:#ec5c17;}.dk{fill:#df001a;}.dl{fill:#e0131a;}.dm{fill:#e63e19;}.dn{fill:#df0c1a;}.do{fill:#e94b19;}.dp{fill:#f17e15;}.dq{fill:#e74019;}.dr{fill:#f69c10;}.ds{fill:#ea5a18;}.dt{fill:#e2211a;}.du{fill:#6ccace;}.dv{fill:#f59810;}.dw{fill:#ec5f17;}.dx{fill:#de001b;}.dy{fill:#ed6616;}.dz{fill:#e0121a;}.ea{fill:#e2181b;}.eb{fill:#f69e0f;}.ec{fill:#e74519;}.ed{fill:#ed6716;}.ee{fill:#e21f1b;}.ef{fill:#ea5318;}.eg{fill:#fbbb09;}.eh{fill:#f9ae0d;}.ei{fill:#f49710;}.ej{fill:#1e1e2d;}.ek{fill:#e21c1b;}.el{fill:#ea5918;}.em{fill:#ea5518;}.en{fill:#ef7215;}.eo{fill:#e73f19;}.ep{fill:#e4301a;}.fz{opacity:.2;}.eq{fill:#ed6d16;}.er{fill:#c03f46;}.es{fill:#e0101a;}.et{fill:#f6a20e;}.eu{fill:#f28c12;}.ev{fill:#e2221a;}.ew{fill:#e2201a;}.ex{fill:#e94919;}.ey{fill:#e63d19;}.ez{fill:#377e81;}.fa{fill:#ed6816;}.fb{fill:#e0151a;}.fc{fill:#e21a1b;}.fd{fill:#ef7316;}.fe{fill:#25add5;}.ff{fill:#e3291a;}.fg{fill:#ec6317;}.fh{fill:#f7a80e;}.fi{fill:#ea5718;}.fj{fill:#f8ab0e;}.fk{fill:#e42e1a;}.fl{fill:#e74619;}.fm{fill:#e3281a;}.fn{fill:#ef7715;}.fo{fill:#f28713;}.fp{fill:#d64a31;}.fq{fill:#e3231a;}</style><clipPath id="f"><path class="br" d="M83.41,489.31c13.48-16.03,2.52-25.8,11.06-35.97,8.55-10.16,21.16-3.05,21.16-3.05,0,0,9.08,11.32.53,21.48-8.55,10.16-19.28,1.51-32.76,17.54h.01Z"/></clipPath><linearGradient id="g" x1="-962.93" y1="307.02" x2="-934.53" y2="307.02" gradientTransform="translate(666.07 1406.54) rotate(52.19) scale(1 -1)" gradientUnits="userSpaceOnUse"><stop offset="0" stop-color="#847fff"/><stop offset=".99" stop-color="#f65cff"/></linearGradient><linearGradient id="h" x1="-756.45" y1="391.41" x2="-747.49" y2="391.41" gradientTransform="translate(248.86 1029.23) rotate(63.63) scale(1 -1)" gradientUnits="userSpaceOnUse"><stop offset="0" stop-color="#847fff"/><stop offset=".99" stop-color="#f65cff"/></linearGradient><linearGradient id="i" x1="-496.98" y1="94.12" x2="-493.34" y2="94.12" gradientTransform="translate(248.86 1029.23) rotate(63.63) scale(1 -1)" gradientUnits="userSpaceOnUse"><stop offset="0" stop-color="#847fff"/><stop offset=".99" stop-color="#f65cff"/></linearGradient><linearGradient id="j" x1="-711.48" y1="201.21" x2="-698.44" y2="201.21" gradientTransform="translate(248.86 1029.23) rotate(63.63) scale(1 -1)" gradientUnits="userSpaceOnUse"><stop offset="0" stop-color="#847fff"/><stop offset=".99" stop-color="#f65cff"/></linearGradient></defs><g id="b"><g id="c"><g id="d"><path id="e" class="fs" d="M16.97,582.43s17.78-34.06,70.05-97.11c52.27-63.05,144.59-180.07,202.08-287.77,20.03-37.5,50.7-98.44,80.8-174.72"/><g class="fw"><polygon class="dx" points="83.41 489.31 79.42 485.34 78.66 487.87 83.41 489.31"/><polygon class="dx" points="84 489.49 79.51 485.02 79.42 485.34 83.41 489.31 84 489.49"/><polygon class="dx" points="84.59 489.67 79.61 484.71 79.51 485.02 84 489.49 84.59 489.67"/><polygon class="dx" points="85.18 489.85 79.7 484.39 79.61 484.71 84.59 489.67 85.18 489.85"/><polygon class="dx" points="85.77 490.03 79.79 484.08 79.7 484.39 85.18 489.85 85.77 490.03"/><polygon class="dx" points="86.36 490.21 79.89 483.76 79.79 484.08 85.77 490.03 86.36 490.21"/><polygon class="dx" points="86.95 490.39 79.98 483.45 79.89 483.76 86.36 490.21 86.95 490.39"/><polygon class="dx" points="87.54 490.57 80.08 483.13 79.98 483.45 86.95 490.39 87.54 490.57"/><polygon class="dx" points="88.13 490.75 80.17 482.82 80.08 483.13 87.54 490.57 88.13 490.75"/><polygon class="dx" points="88.73 490.93 80.26 482.5 80.17 482.82 88.13 490.75 88.73 490.93"/><polygon class="dx" points="89.32 491.1 80.36 482.19 80.26 482.5 88.73 490.93 89.32 491.1"/><polygon class="dx" points="89.91 491.28 80.45 481.87 80.36 482.19 89.32 491.1 89.91 491.28"/><polygon class="dx" points="90.5 491.46 80.55 481.56 80.45 481.87 89.91 491.28 90.5 491.46"/><polygon class="dx" points="91.09 491.64 80.64 481.24 80.55 481.56 90.5 491.46 91.09 491.64"/><polygon class="dx" points="91.68 491.82 80.73 480.93 80.64 481.24 91.09 491.64 91.68 491.82"/><polygon class="dx" points="92.27 492 80.83 480.61 80.73 480.93 91.68 491.82 92.27 492"/><polygon class="dx" points="92.86 492.18 80.92 480.29 80.83 480.61 92.27 492 92.86 492.18"/><polygon class="dx" points="93.45 492.36 81.02 479.98 80.92 480.29 92.86 492.18 93.45 492.36"/><polygon class="dx" points="94.04 492.54 81.11 479.66 81.02 479.98 93.45 492.36 94.04 492.54"/><polygon class="dx" points="94.63 492.72 81.2 479.35 81.11 479.66 94.04 492.54 94.63 492.72"/><polygon class="dx" points="95.22 492.9 81.3 479.03 81.2 479.35 94.63 492.72 95.22 492.9"/><polygon class="dk" points="95.81 493.08 81.39 478.72 81.3 479.03 95.22 492.9 95.81 493.08"/><polygon class="dk" points="96.4 493.26 81.49 478.4 81.39 478.72 95.81 493.08 96.4 493.26"/><polygon class="dk" points="96.99 493.44 81.58 478.09 81.49 478.4 96.4 493.26 96.99 493.44"/><polygon class="dk" points="97.12 493.47 97.28 493.31 81.67 477.77 81.58 478.09 96.99 493.44 97.12 493.47"/><polygon class="dk" points="97.28 493.31 97.48 493.11 81.77 477.46 81.67 477.77 97.28 493.31"/><polygon class="dk" points="97.48 493.11 97.69 492.9 81.86 477.14 81.77 477.46 97.48 493.11"/><polygon class="dk" points="97.69 492.9 97.89 492.69 81.96 476.83 81.86 477.14 97.69 492.9"/><polygon class="dk" points="97.89 492.69 98.09 492.49 82.05 476.51 81.96 476.83 97.89 492.69"/><polygon class="dk" points="98.09 492.49 98.3 492.28 82.14 476.2 82.05 476.51 98.09 492.49"/><polygon class="dk" points="98.3 492.28 98.5 492.08 82.24 475.88 82.14 476.2 98.3 492.28"/><polygon class="dk" points="98.5 492.08 98.7 491.87 82.33 475.57 82.24 475.88 98.5 492.08"/><polygon class="cj" points="98.7 491.87 98.91 491.66 82.43 475.25 82.33 475.57 98.7 491.87"/><polygon class="cj" points="98.91 491.66 99.11 491.46 82.52 474.94 82.43 475.25 98.91 491.66"/><polygon class="ad" points="99.11 491.46 99.31 491.25 82.61 474.62 82.52 474.94 99.11 491.46"/><polygon class="ad" points="99.31 491.25 99.52 491.05 82.71 474.31 82.61 474.62 99.31 491.25"/><polygon class="cl" points="99.52 491.05 99.72 490.84 82.8 473.99 82.71 474.31 99.52 491.05"/><polygon class="cl" points="99.72 490.84 99.92 490.63 82.9 473.68 82.8 473.99 99.72 490.84"/><polygon class="u" points="99.92 490.63 100.13 490.43 82.99 473.36 82.9 473.68 99.92 490.63"/><polygon class="dn" points="100.13 490.43 100.33 490.22 83.08 473.05 82.99 473.36 100.13 490.43"/><polygon class="ay" points="100.33 490.22 100.53 490.02 83.18 472.73 83.08 473.05 100.33 490.22"/><polygon class="ch" points="100.53 490.02 100.74 489.81 83.27 472.42 83.18 472.73 100.53 490.02"/><polygon class="ch" points="100.74 489.81 100.94 489.6 83.36 472.1 83.27 472.42 100.74 489.81"/><polygon class="ai" points="100.94 489.6 101.14 489.4 83.46 471.79 83.36 472.1 100.94 489.6"/><polygon class="es" points="101.14 489.4 101.35 489.19 83.55 471.47 83.46 471.79 101.14 489.4"/><polygon class="es" points="101.35 489.19 101.55 488.98 83.65 471.16 83.55 471.47 101.35 489.19"/><polygon class="dz" points="101.55 488.98 101.76 488.78 83.74 470.84 83.65 471.16 101.55 488.98"/><polygon class="dl" points="101.76 488.78 101.96 488.57 83.83 470.53 83.74 470.84 101.76 488.78"/><polygon class="dl" points="101.96 488.57 102.16 488.37 83.93 470.21 83.83 470.53 101.96 488.57"/><polygon class="av" points="102.16 488.37 102.37 488.16 84.02 469.9 83.93 470.21 102.16 488.37"/><polygon class="fb" points="102.37 488.16 102.57 487.95 84.12 469.58 84.02 469.9 102.37 488.16"/><polygon class="ar" points="102.57 487.95 102.77 487.75 84.21 469.27 84.12 469.58 102.57 487.95"/><polygon class="bk" points="102.77 487.75 102.98 487.54 84.3 468.95 84.21 469.27 102.77 487.75"/><polygon class="ea" points="102.98 487.54 103.18 487.34 84.4 468.64 84.3 468.95 102.98 487.54"/><polygon class="bq" points="103.18 487.34 103.38 487.13 84.49 468.32 84.4 468.64 103.18 487.34"/><polygon class="fc" points="103.38 487.13 103.59 486.92 84.59 468.01 84.49 468.32 103.38 487.13"/><polygon class="fc" points="103.59 486.92 103.79 486.72 84.68 467.69 84.59 468.01 103.59 486.92"/><polygon class="o" points="103.79 486.72 103.99 486.51 84.77 467.38 84.68 467.69 103.79 486.72"/><polygon class="ek" points="103.99 486.51 104.2 486.3 84.87 467.06 84.77 467.38 103.99 486.51"/><polygon class="ap" points="104.2 486.3 104.4 486.1 84.96 466.74 84.87 467.06 104.2 486.3"/><polygon class="ee" points="104.4 486.1 104.6 485.89 85.06 466.43 84.96 466.74 104.4 486.1"/><polygon class="ee" points="104.6 485.89 104.81 485.69 85.15 466.11 85.06 466.43 104.6 485.89"/><polygon class="ew" points="104.81 485.69 105.01 485.48 85.24 465.8 85.15 466.11 104.81 485.69"/><polygon class="dt" points="105.01 485.48 105.21 485.27 85.34 465.48 85.24 465.8 105.01 485.48"/><polygon class="ev" points="105.21 485.27 105.42 485.07 85.43 465.17 85.34 465.48 105.21 485.27"/><polygon class="fq" points="105.42 485.07 105.62 484.86 85.53 464.85 85.43 465.17 105.42 485.07"/><polygon class="am" points="105.62 484.86 105.82 484.66 85.62 464.54 85.53 464.85 105.62 484.86"/><polygon class="am" points="105.82 484.66 106.03 484.45 85.71 464.22 85.62 464.54 105.82 484.66"/><polygon class="dc" points="106.03 484.45 106.23 484.24 85.81 463.91 85.71 464.22 106.03 484.45"/><polygon class="an" points="106.23 484.24 106.43 484.04 85.9 463.59 85.81 463.91 106.23 484.24"/><polygon class="bs" points="106.43 484.04 106.64 483.83 86 463.28 85.9 463.59 106.43 484.04"/><polygon class="fm" points="106.64 483.83 106.84 483.63 86.09 462.96 86 463.28 106.64 483.83"/><polygon class="ff" points="106.84 483.63 107.04 483.42 86.18 462.65 86.09 462.96 106.84 483.63"/><polygon class="q" points="107.04 483.42 107.25 483.21 86.28 462.33 86.18 462.65 107.04 483.42"/><polygon class="di" points="107.25 483.21 107.45 483.01 86.37 462.02 86.28 462.33 107.25 483.21"/><polygon class="z" points="107.45 483.01 107.65 482.8 86.47 461.7 86.37 462.02 107.45 483.01"/><polygon class="bv" points="107.65 482.8 107.86 482.59 86.56 461.39 86.47 461.7 107.65 482.8"/><polygon class="fk" points="107.86 482.59 108.06 482.39 86.65 461.07 86.56 461.39 107.86 482.59"/><polygon class="ao" points="108.06 482.39 108.26 482.18 86.75 460.76 86.65 461.07 108.06 482.39"/><polygon class="ep" points="108.26 482.18 108.47 481.98 86.84 460.44 86.75 460.76 108.26 482.18"/><polygon class="s" points="108.47 481.98 108.67 481.77 86.94 460.13 86.84 460.44 108.47 481.98"/><polygon class="cu" points="108.67 481.77 108.87 481.56 87.03 459.81 86.94 460.13 108.67 481.77"/><polygon class="cy" points="108.87 481.56 109.08 481.36 87.12 459.5 87.03 459.81 108.87 481.56"/><polygon class="ci" points="109.08 481.36 109.28 481.15 87.22 459.18 87.12 459.5 109.08 481.36"/><polygon class="x" points="109.28 481.15 109.48 480.95 87.31 458.87 87.22 459.18 109.28 481.15"/><polygon class="cp" points="109.48 480.95 109.69 480.74 87.4 458.55 87.31 458.87 109.48 480.95"/><polygon class="az" points="109.69 480.74 109.89 480.53 87.5 458.24 87.4 458.55 109.69 480.74"/><polygon class="bd" points="109.89 480.53 110.09 480.33 87.59 457.92 87.5 458.24 109.89 480.53"/><polygon class="bu" points="110.09 480.33 110.3 480.12 87.79 457.71 87.6 457.91 87.59 457.92 110.09 480.33"/><polygon class="ab" points="110.3 480.12 110.5 479.91 88 457.51 87.79 457.71 110.3 480.12"/><polygon class="cz" points="110.5 479.91 110.71 479.71 88.2 457.3 88 457.51 110.5 479.91"/><polygon class="ey" points="110.71 479.71 110.91 479.5 88.4 457.09 88.2 457.3 110.71 479.71"/><polygon class="dm" points="110.91 479.5 111.11 479.3 88.61 456.89 88.4 457.09 110.91 479.5"/><polygon class="eo" points="111.11 479.3 111.32 479.09 88.81 456.68 88.61 456.89 111.11 479.3"/><polygon class="dq" points="111.32 479.09 111.52 478.88 89.01 456.48 88.81 456.68 111.32 479.09"/><polygon class="ak" points="111.52 478.88 111.72 478.68 89.22 456.27 89.01 456.48 111.52 478.88"/><polygon class="cx" points="111.72 478.68 111.93 478.47 89.42 456.06 89.22 456.27 111.72 478.68"/><polygon class="aw" points="111.93 478.47 112.13 478.27 89.62 455.86 89.42 456.06 111.93 478.47"/><polygon class="ec" points="112.13 478.27 112.33 478.06 89.83 455.65 89.62 455.86 112.13 478.27"/><polygon class="fl" points="112.33 478.06 112.54 477.85 90.03 455.45 89.83 455.65 112.33 478.06"/><polygon class="bm" points="112.54 477.85 112.74 477.65 90.23 455.24 90.03 455.45 112.54 477.85"/><polygon class="at" points="112.74 477.65 112.94 477.44 90.44 455.03 90.23 455.24 112.74 477.65"/><polygon class="ex" points="112.94 477.44 113.15 477.24 90.64 454.83 90.44 455.03 112.94 477.44"/><polygon class="do" points="113.15 477.24 113.35 477.03 90.84 454.62 90.64 454.83 113.15 477.24"/><polygon class="bo" points="113.35 477.03 113.55 476.82 91.05 454.41 90.84 454.62 113.35 477.03"/><polygon class="bx" points="113.55 476.82 113.76 476.62 91.25 454.21 91.05 454.41 113.55 476.82"/><polygon class="ax" points="113.76 476.62 113.96 476.41 91.46 454 91.25 454.21 113.76 476.62"/><polygon class="w" points="113.96 476.41 114.16 476.2 91.66 453.8 91.46 454 113.96 476.41"/><polygon class="de" points="114.16 476.2 114.37 476 91.86 453.59 91.66 453.8 114.16 476.2"/><polygon class="ef" points="114.37 476 114.57 475.79 92.07 453.38 91.86 453.59 114.37 476"/><polygon class="ck" points="114.57 475.79 114.77 475.59 92.27 453.18 92.07 453.38 114.57 475.79"/><polygon class="em" points="114.77 475.59 114.98 475.38 92.47 452.97 92.27 453.18 114.77 475.59"/><polygon class="fi" points="114.98 475.38 115.18 475.17 92.68 452.77 92.47 452.97 114.98 475.38"/><polygon class="ct" points="115.18 475.17 115.38 474.97 92.88 452.56 92.68 452.77 115.18 475.17"/><polygon class="el" points="115.38 474.97 115.59 474.76 93.08 452.35 92.88 452.56 115.38 474.97"/><polygon class="ds" points="115.59 474.76 115.79 474.56 93.29 452.15 93.08 452.35 115.59 474.76"/><polygon class="dj" points="115.79 474.56 115.99 474.35 93.49 451.94 93.29 452.15 115.79 474.56"/><polygon class="aj" points="115.99 474.35 116.2 474.14 93.69 451.74 93.49 451.94 115.99 474.35"/><polygon class="cf" points="116.2 474.14 116.4 473.94 93.9 451.53 93.69 451.74 116.2 474.14"/><polygon class="dw" points="116.4 473.94 116.6 473.73 94.1 451.32 93.9 451.53 116.4 473.94"/><polygon class="ca" points="116.6 473.73 116.81 473.52 94.3 451.12 94.1 451.32 116.6 473.73"/><polygon class="fg" points="116.81 473.52 117.01 473.32 94.51 450.91 94.3 451.12 116.81 473.52"/><polygon class="ag" points="117.01 473.32 117.21 473.11 94.71 450.7 94.51 450.91 117.01 473.32"/><polygon class="dy" points="117.21 473.11 117.42 472.91 94.91 450.5 94.71 450.7 117.21 473.11"/><polygon class="ed" points="117.42 472.91 117.62 472.7 95.12 450.29 94.91 450.5 117.42 472.91"/><polygon class="fa" points="117.62 472.7 117.82 472.49 95.32 450.09 95.12 450.29 117.62 472.7"/><polygon class="ba" points="117.82 472.49 118.03 472.29 95.52 449.88 95.32 450.09 117.82 472.49"/><polygon class="da" points="118.03 472.29 118.23 472.08 95.73 449.67 95.52 449.88 118.03 472.29"/><polygon class="eq" points="118.23 472.08 118.43 471.88 95.93 449.47 95.73 449.67 118.23 472.08"/><polygon class="bc" points="118.43 471.88 118.64 471.67 96.13 449.26 95.93 449.47 118.43 471.88"/><polygon class="bw" points="118.64 471.67 118.84 471.46 96.34 449.06 96.13 449.26 118.64 471.67"/><polygon class="en" points="118.84 471.46 119.04 471.26 96.54 448.85 96.34 449.06 118.84 471.46"/><polygon class="fd" points="119.04 471.26 119.25 471.05 96.74 448.64 96.54 448.85 119.04 471.26"/><polygon class="ah" points="119.25 471.05 119.45 470.85 96.95 448.44 96.74 448.64 119.25 471.05"/><polygon class="bi" points="119.45 470.85 119.66 470.64 97.15 448.23 96.95 448.44 119.45 470.85"/><polygon class="fn" points="119.66 470.64 119.86 470.43 97.35 448.02 97.15 448.23 119.66 470.64"/><polygon class="r" points="119.86 470.43 120.06 470.23 97.56 447.82 97.35 448.02 119.86 470.43"/><polygon class="ac" points="120.06 470.23 120.27 470.02 97.76 447.61 97.56 447.82 120.06 470.23"/><polygon class="t" points="120.27 470.02 120.47 469.81 97.96 447.41 97.76 447.61 120.27 470.02"/><polygon class="dp" points="120.47 469.81 120.67 469.61 98.17 447.2 97.96 447.41 120.47 469.81"/><polygon class="y" points="120.67 469.61 120.88 469.4 98.37 446.99 98.17 447.2 120.67 469.61"/><polygon class="bf" points="120.88 469.4 121.08 469.2 98.57 446.79 98.37 446.99 120.88 469.4"/><polygon class="v" points="121.08 469.2 121.28 468.99 98.78 446.58 98.57 446.79 121.08 469.2"/><polygon class="bp" points="121.28 468.99 121.49 468.78 98.98 446.38 98.78 446.58 121.28 468.99"/><polygon class="cc" points="121.49 468.78 121.69 468.58 99.18 446.17 98.98 446.38 121.49 468.78"/><polygon class="fo" points="121.69 468.58 121.89 468.37 99.39 445.96 99.18 446.17 121.69 468.58"/><polygon class="bb" points="121.89 468.37 122.1 468.17 99.59 445.76 99.39 445.96 121.89 468.37"/><polygon class="l" points="122.1 468.17 122.3 467.96 99.8 445.55 99.59 445.76 122.1 468.17"/><polygon class="eu" points="122.3 467.96 122.5 467.75 100 445.35 99.8 445.55 122.3 467.96"/><polygon class="dg" points="122.5 467.75 122.71 467.55 100.2 445.14 100 445.35 122.5 467.75"/><polygon class="co" points="122.71 467.55 122.91 467.34 100.41 444.93 100.2 445.14 122.71 467.55"/><polygon class="m" points="122.91 467.34 123.05 467.2 123.08 467.1 100.61 444.73 100.41 444.93 122.91 467.34"/><polygon class="dh" points="123.17 466.78 100.81 444.52 100.61 444.73 123.08 467.1 123.17 466.78"/><polygon class="k" points="123.27 466.47 101.02 444.31 100.81 444.52 123.17 466.78 123.27 466.47"/><polygon class="ei" points="123.36 466.15 101.22 444.11 101.02 444.31 123.27 466.47 123.36 466.15"/><polygon class="dv" points="123.45 465.84 101.42 443.9 101.22 444.11 123.36 466.15 123.45 465.84"/><polygon class="n" points="123.55 465.52 101.63 443.7 101.42 443.9 123.45 465.84 123.55 465.52"/><polygon class="dr" points="123.64 465.21 101.83 443.49 101.63 443.7 123.55 465.52 123.64 465.21"/><polygon class="eb" points="123.73 464.89 102.03 443.28 101.83 443.49 123.64 465.21 123.73 464.89"/><polygon class="aq" points="123.83 464.58 102.24 443.08 102.03 443.28 123.73 464.89 123.83 464.58"/><polygon class="et" points="123.92 464.26 102.63 443.06 102.34 442.97 102.24 443.08 123.83 464.58 123.92 464.26"/><polygon class="db" points="124.02 463.95 103.22 443.24 102.63 443.06 123.92 464.26 124.02 463.95"/><polygon class="au" points="124.11 463.63 103.81 443.42 103.22 443.24 124.02 463.95 124.11 463.63"/><polygon class="fh" points="124.2 463.32 104.4 443.6 103.81 443.42 124.11 463.63 124.2 463.32"/><polygon class="ce" points="124.3 463 104.99 443.78 104.4 443.6 124.2 463.32 124.3 463"/><polygon class="fj" points="124.39 462.69 105.58 443.96 104.99 443.78 124.3 463 124.39 462.69"/><polygon class="eh" points="124.49 462.37 106.18 444.14 105.58 443.96 124.39 462.69 124.49 462.37"/><polygon class="by" points="124.58 462.06 106.77 444.32 106.18 444.14 124.49 462.37 124.58 462.06"/><polygon class="cm" points="124.67 461.74 107.36 444.5 106.77 444.32 124.58 462.06 124.67 461.74"/><polygon class="aa" points="124.77 461.43 107.95 444.68 107.36 444.5 124.67 461.74 124.77 461.43"/><polygon class="bh" points="124.86 461.11 108.54 444.86 107.95 444.68 124.77 461.43 124.86 461.11"/><polygon class="cn" points="124.96 460.8 109.13 445.04 108.54 444.86 124.86 461.11 124.96 460.8"/><polygon class="cv" points="125.05 460.48 109.72 445.22 109.13 445.04 124.96 460.8 125.05 460.48"/><polygon class="eg" points="125.14 460.17 110.31 445.39 109.72 445.22 125.05 460.48 125.14 460.17"/><polygon class="cs" points="125.24 459.85 110.9 445.57 110.31 445.39 125.14 460.17 125.24 459.85"/><polygon class="cs" points="110.9 445.57 125.24 459.85 127.95 450.75 110.9 445.57"/></g><g class="fu"><path class="cq" d="M88.43,481.54c9.91-6.29,18.13-2.4,24.96-10.52,8.55-10.16-.53-21.48-.53-21.48,0,0-1.15-.65-2.99-1.27,3.39.69,5.77,2.02,5.77,2.02,0,0,9.08,11.32.53,21.48-8.55,10.16-19.28,1.51-32.76,17.54,2.33-2.77,3.92-5.35,5.02-7.77h0Z"/></g><g class="fv"><path class="fp" d="M106.97,447.9c-2.57.71-5.16,2.19-7.46,4.93-7.07,8.41-.79,16.55-6.04,28.18-3.17,1.59-6.52,4.1-10.06,8.31,13.48-16.03,2.52-25.8,11.06-35.97,3.85-4.58,8.52-5.65,12.5-5.45h0Z"/></g><path class="bn" d="M93.8,476.54c7.85-9.33,2.61-18.85,7.59-24.76,4.98-5.92,13.74-.57,13.74-.57,0,0,6.7,7.8,1.73,13.71-4.98,5.92-15.21,2.29-23.05,11.62h0Z"/><path class="ej" d="M93.68,452.67c3.73-4.43,8.81-6.4,14.7-5.7,4.38.53,7.62,2.33,7.76,2.41.12.07.22.15.3.26.1.12,2.41,3.04,3.66,7.29,1.67,5.72.59,11.08-3.14,15.51-4.02,4.78-8.61,5.73-13.47,6.75-5.84,1.22-12.46,2.6-19.73,11.24-.27.33-.71.44-1.09.32-.13-.04-.26-.11-.37-.2-.44-.37-.49-1.03-.12-1.47,7.26-8.64,7.33-15.58,7.39-21.7.03-3.03.06-5.95.91-8.84.59-1.97,1.57-3.93,3.21-5.88h-.01ZM88.77,482.81c5.16-3.76,9.93-4.75,14.29-5.66,4.7-.98,8.75-1.82,12.31-6.05,7.45-8.85.66-18.57-.42-19.99-1.5-.77-12.31-5.86-19.69,2.91-3.55,4.22-3.59,8.47-3.64,13.39-.03,3.49-.07,7.23-1.3,11.38-.39,1.3-.89,2.64-1.55,4.03h0Z"/><path class="ez" d="M107.7,432.54l-2.23,4.69c-1.01,2.12-.77,4.63.61,6.53h0c4.12,5.67,9.7,10.1,16.14,12.81h0c2.16.91,4.64.56,6.46-.92l4.02-3.26"/><g class="fy"><path class="du" d="M130.15,450.66l-3.98,3.23c-1,.81-2.19,1.32-3.43,1.5-1.24.17-2.52.02-3.72-.48-.92-.39-1.83-.81-2.72-1.26,1.69,1.05,3.46,1.97,5.31,2.74,1.08.46,2.24.6,3.36.44s2.19-.62,3.1-1.35l4.02-3.27-1.95-1.54h0Z"/></g><g class="fx"><path class="du" d="M112.62,444.28l2.23-4.69,16.98,13.49.86-.7-22.91-18.19-2.08,4.37c-1.01,2.12-.78,4.63.61,6.53,1.38,1.9,2.94,3.67,4.63,5.28q1.13,1.07,0,0c-1.12-1.84-1.25-4.13-.32-6.09h0ZM117.09,440.93l15.02,11.92-.27.22-14.9-11.83.15-.32h0Z"/></g><path class="bn" d="M143.84,442.56c4.23,4.07,8.22,14.84-7.81,28.76-.21.18-.54,0-.51-.27.35-3.02,2.08-17.21-4.18-21.8"/><g class="fy"><path class="cq" d="M136.12,468.19c-.11,1.32-.23,2.36-.3,2.96-.03.28.29.45.51.27,16.03-13.92,12.04-24.69,7.81-28.76l-1.35.73c3.27,4.6,4.83,13.54-6.67,24.81h0Z"/></g><path class="ej" d="M130.2,448.91c-.14.47.02,1.01.44,1.32,2.09,1.53,5.35,6.25,3.71,20.55l-.02.14c-.07.62.24,1.21.79,1.51.55.29,1.21.22,1.68-.19,7.79-6.77,11.83-13.51,11.98-20.03.14-5.76-2.84-9.26-4.13-10.5-.48-.46-1.23-.44-1.69.03-.46.48-.44,1.24.04,1.7,1.06,1.02,3.5,3.9,3.39,8.71-.13,5.27-3.39,11.03-9.46,16.75,1.14-13.14-1.98-18.45-4.9-20.59-.53-.39-1.28-.28-1.67.26-.08.11-.14.23-.18.36l.02-.02Z"/><path class="er" d="M115.1,419.75c-4.92-3.19-16.52-4.81-26.28,14.1-.13.25.12.53.38.43,2.84-1.04,16.44-5.8,22.34-.75"/><path class="bn" d="M88.82,433.85c-.13.25.12.53.38.43,1.46-.53,5.74-2.04,10.36-2.71,4.37-.63,9.04-.51,11.92,1.9.02.02.04.04.06.05l.02-.08,3.55-13.7c-1.38-.9-3.29-1.67-5.53-1.89-5.75-.59-13.72,2.39-20.75,15.99h0Z"/><g class="fx"><path class="cd" d="M99.56,431.58c4.37-.63,9.04-.51,11.92,1.9.03-.01.06-.02.09-.03l3.55-13.7c-1.38-.9-3.29-1.67-5.53-1.89-3.7,2.4-7.3,6.65-10.01,13.72h-.02Z"/></g><path class="ej" d="M87.76,433.3c4.69-9.07,10.26-14.52,16.56-16.19,5.7-1.51,9.89.65,11.42,1.64.55.36.72,1.1.36,1.66s-1.1.72-1.65.36c-.99-.64-4.61-2.64-9.52-1.34-5.09,1.35-9.89,5.82-13.97,12.99,5.87-1.9,16.13-4.26,21.34.22.5.43.56,1.19.14,1.69-.43.5-1.18.56-1.68.13-5.13-4.39-17.49-.37-21.15.97-.58.21-1.23.05-1.64-.42-.35-.4-.46-.93-.31-1.42.03-.09.06-.18.11-.27v-.02ZM89.88,434.41h0Z"/><path class="cq" d="M189.8,354.09s-29.91-4.17-58.62,27.6c-24.46,27.07-23.58,51.18-23.58,51.18,3.61,5.94,8.49,10.94,14.23,14.68,3.33,2.17,6.95,3.91,10.77,5.17,0,0,10.51-2.11,23.6-12.51.45-.36.91-.73,1.36-1.1,4.96-4.11,10.25-9.4,15.44-16.22,1.23-1.61,2.45-3.3,3.66-5.08.05-.07.09-.14.14-.21,4.87-7.19,8.29-14.08,10.65-20.49.08-.21.15-.41.22-.61,8.93-24.82,2.11-42.41,2.11-42.41h.02Z"/><path class="bn" d="M152.8,363.5c13.96,6.93,26.32,16.74,36.27,28.79,6.95-22.75.83-38.54.83-38.54,0,0-16.69-2.33-37.1,9.74h0Z"/><g class="fy"><path class="cq" d="M187.98,353.69c1.43.05,2.22.16,2.22.16,0,0,6.12,15.78-.83,38.54-.64-.78-1.29-1.55-1.96-2.31,5.5-19.41,1.55-33.44.57-36.39Z"/></g><path class="ej" d="M152.19,362.46c16.17-9.56,30.14-10.23,35.39-10.07,1.98.06,3.65,1.39,4.17,3.31,1.37,5.1,3.97,18.91-1.54,36.94l-.65,2.12-1.41-1.71c-9.9-12-21.97-21.58-35.88-28.48l-1.98-.98,1.9-1.12h0ZM189.44,356.32c-.24-.89-1.01-1.5-1.93-1.53-4.84-.15-17.38.44-32.2,8.64,12.71,6.62,23.87,15.48,33.22,26.38,4.51-16.39,2.17-28.79.9-33.49h0Z"/><path class="ej" d="M109.17,416.75c2.62-8.71,8.43-22.05,21.22-36.19,6.7-7.42,14.04-13.5,21.8-18.09l.69-.4.55.42c14.17,7.05,26.47,16.82,36.56,29.06l.41.5-.19.62c-2.64,8.65-6.83,17.24-12.46,25.51-10.73,15.78-22.3,24.55-30.11,29.13-8.52,5-14.46,6.22-14.7,6.27l-.31.06-.3-.1c-5.32-1.74-10.24-4.39-14.63-7.88-4.39-3.49-8.1-7.69-11.02-12.49l-.16-.27v-.31c-.02-.25-.2-6.25,2.59-15.62.02-.07.04-.14.06-.21h0ZM119.17,443.77c4.08,3.24,8.65,5.72,13.58,7.37,2.74-.67,24.23-6.7,43.03-34.34,5.35-7.87,9.37-16.03,11.96-24.24-9.68-11.6-21.42-20.91-34.88-27.69-7.35,4.43-14.31,10.25-20.69,17.31-12.44,13.77-18.1,26.72-20.66,35.16-2.43,7.98-2.6,13.55-2.6,14.87,2.74,4.44,6.2,8.33,10.28,11.57h-.02Z"/><path class="ej" d="M103.97,437.8c-.67,2.25-.27,4.72,1.14,6.66,4.25,5.84,10,10.41,16.64,13.21,2.57,1.08,5.51.67,7.67-1.09l4.02-3.26c.51-.42.59-1.17.17-1.69s-1.17-.6-1.68-.18l-4.02,3.26c-1.48,1.2-3.49,1.49-5.25.75-6.24-2.63-11.64-6.92-15.63-12.41-1.13-1.55-1.31-3.58-.49-5.31l2.23-4.69c.28-.6.03-1.31-.56-1.6-.6-.29-1.31-.04-1.59.56l-2.23,4.69c-.17.36-.31.72-.42,1.1h0Z"/><g class="fx"><ellipse class="cd" cx="155.88" cy="394.2" rx="16.42" ry="16.51" transform="translate(-110.52 64.47) rotate(-17.36)"/></g><ellipse class="bn" cx="157.92" cy="394.43" rx="14.76" ry="14.84" transform="translate(-110.5 65.09) rotate(-17.36)"/><g class="fy"><path class="cq" d="M164.36,381.16c.28.19.55.39.82.6,6.41,5.09,7.51,14.42,2.47,20.84-4.45,5.66-12.19,7.17-18.35,3.97,6.36,4.4,15.1,3.15,19.94-3.01,5.05-6.42,3.94-15.76-2.47-20.85-.76-.61-1.57-1.13-2.4-1.56h-.01Z"/></g><g class="fx"><path class="bn" d="M146.32,385.23c-5.04,6.42-3.94,15.75,2.47,20.84,2.02,1.6,4.32,2.59,6.68,2.99-.99-.47-1.94-1.06-2.83-1.77-6.41-5.09-7.52-14.42-2.47-20.84,3.46-4.4,8.92-6.29,14.07-5.41-6.09-2.92-13.57-1.34-17.92,4.18h0Z"/></g><path class="ej" d="M145.39,384.48h0c2.64-3.36,6.42-5.48,10.66-5.97,4.23-.49,8.41.7,11.76,3.36,3.35,2.66,5.47,6.47,5.98,10.72.5,4.26-.67,8.45-3.31,11.8-2.64,3.36-6.42,5.48-10.66,5.97-4.23.49-8.41-.7-11.76-3.36-3.35-2.66-5.47-6.47-5.98-10.72-.26-2.22-.07-4.42.55-6.49.57-1.91,1.5-3.71,2.76-5.32h0ZM171.42,392.87c-.43-3.62-2.23-6.86-5.08-9.12s-6.4-3.28-10-2.86-6.82,2.22-9.06,5.08h0c-2.24,2.85-3.24,6.42-2.81,10.04.43,3.62,2.23,6.86,5.08,9.12s6.4,3.28,10,2.86c3.6-.42,6.82-2.22,9.06-5.08,1.07-1.37,1.86-2.9,2.35-4.52.53-1.76.69-3.63.47-5.52h-.01Z"/><ellipse class="du" cx="158.16" cy="394.4" rx="9.39" ry="9.44" transform="translate(-110.47 65.16) rotate(-17.36)"/><g class="fv"><path class="cq" d="M150.79,388.55c-3.21,4.09-2.51,10.02,1.57,13.26.88.7,1.85,1.22,2.86,1.56-.08-.06-.17-.13-.25-.19-4.08-3.24-4.78-9.17-1.57-13.26,2.51-3.2,6.69-4.32,10.33-3.09-4.07-3.02-9.8-2.27-12.94,1.73h0Z"/></g><g class="fx"><path class="cd" d="M160.44,385.14c.13.1.26.19.39.29,4.08,3.24,4.78,9.17,1.57,13.26-2.42,3.08-6.36,4.23-9.9,3.23,4.06,2.9,9.7,2.13,12.81-1.83,3.21-4.08,2.51-10.02-1.57-13.26-1.01-.8-2.13-1.36-3.3-1.69h0Z"/></g><path class="p" d="M153.36,391.09l.7.75,1.15-1.38c1.45-1.34,3.7-1.43,5.26-.13,2.72,2.27,3.08,6.34.8,9.06-.44.53-.96.98-1.54,1.34-.73.46-1.65.7-2.64.71-.66,0-1.79.13-3.16.37-.36-.22-.7-.47-1.03-.74-.51-.43-.96-.9-1.35-1.41,1.07-.54,2.04-1.27,2.84-2.15.36-.42-.09-2.12-.09-2.12-.24.28-.66.32-.94.08-2.75-2.3-4.29-4.04-5-4.94-.18-.22,1.52-.51,1.58-.79,1.72.79,2.27,1.19,3.41,1.35h.01Z"/><path class="cb" d="M159.17,393.52c.42.35.48.98.12,1.4s-.98.48-1.4.12-.48-.98-.12-1.4.98-.48,1.4-.12Z"/><path class="cb" d="M147.9,392.92c-.45,3.52.84,7.19,3.75,9.64,4.55,3.81,11.04,2.44,14.85-2.11,2.03-2.42.18-12.39-1.41-13.72-.86-.72-1.85-1.53-2.84-1.93l-1.28-.18c-3.91-1.04-7.9-.52-10.66,2.79-.25.3-.48.61-.69.93-.07-.02-2.13,4.13-1.72,4.59h0ZM159.18,403.08c.57-.17,1.11-.4,1.59-.7.76-.47,1.43-1.06,2-1.74,2.97-3.54,2.5-8.84-1.05-11.81-2.37-1.98-5.84-1.8-7.99.34-.43-.06-1.22-.15-2.09-.31.05-.07.1-.13.16-.2,3.11-3.72,8.68-4.22,12.4-1.1s4.22,8.68,1.1,12.4c-1.59,1.91-3.83,2.96-6.13,3.12h.01ZM149.79,394.86c.68.65,1.45,1.36,2.34,2.1h0c-.48.39-1.01.72-1.58.99-.45-.98-.71-2.03-.77-3.1h0ZM149.01,390.13c1.72.79,3.22.79,4.36.95l.7.75,1.15-1.38c1.45-1.34,3.7-1.43,5.26-.13,2.72,2.27,3.08,6.34.8,9.06-.44.53-.96.98-1.54,1.34-.73.46-1.65.7-2.64.71-.66,0-1.79.13-3.16.37-.36-.22-.7-.47-1.03-.74-.51-.43-.96-.9-1.35-1.41,1.07-.54,2.04-1.27,2.84-2.15.36-.42-.09-2.12-.09-2.12-.24.28-.66.32-.94.08-2.75-2.3-4-3.7-4.72-4.59-.18-.22.28-.45.34-.73h.02Z"/><path class="ej" d="M149.86,387.8c3.61-4.6,10.28-5.37,14.87-1.73,4.59,3.64,5.38,10.35,1.77,14.95s-10.29,5.37-14.87,1.73c-2.22-1.76-3.63-4.29-3.97-7.11-.17-1.47-.05-2.93.36-4.3.38-1.26.99-2.46,1.83-3.53h0ZM163.26,387.95c-3.55-2.82-8.72-2.22-11.52,1.34h0c-1.36,1.72-1.96,3.88-1.7,6.07.26,2.19,1.35,4.14,3.07,5.51,3.55,2.82,8.72,2.22,11.52-1.34.66-.83,1.12-1.76,1.41-2.72.94-3.14-.06-6.69-2.78-8.85h0Z"/><g class="fz"><path class="cq" d="M186.27,370.79c2.13.72,2.48,5.71,1.7,8.24-.8,2.62-1.73,4.06-3,3.69-1.77-.52-1.79-2.76-1.15-5.21.45-1.74-.18-7.61,2.45-6.72Z"/></g><g class="fz"><path class="cq" d="M185.52,363.38c1.82.71,2.88,3.49,2.66,4.77-.23,1.32-.75,1.97-1.83,1.58-1.5-.54-1.87-1.77-1.74-3.03.09-.89-1.34-4.2.91-3.32h0Z"/></g><g class="fx"><path class="cd" d="M109.63,433.79s-.89-24.12,23.57-51.18c24.84-27.48,50.57-28.07,57.06-27.73-.06-.18-.11-.34-.15-.48.18.56.46,1.49.77,2.75-11.18,1.36-30.16,6.92-48.65,27.38-11.55,12.78-17.45,24.9-20.46,34.14-3.84,11.8.57,24.79,10.93,31.61.06.04.11.08.17.11.41.27.83.53,1.25.78.17.12.34.24.51.35.06.04.11.08.17.11.06.04.12.08.19.12.03,0,.05-.02.07-.02h0c-1.52.48-2.37.66-2.37.66-3.38-1.11-6.6-2.6-9.59-4.42-5.41-3.68-10.02-8.49-13.47-14.17h0Z"/></g><path class="bn" d="M116.94,437.7c-4.5,5.73-4.41,14.97-4.41,14.97,0,0,.03,0,.1-.02.98-.24,9.14-2.37,13.37-7.75,4.06-5.16,3.59-12.28,3.47-13.55,0-.13-.02-.2-.02-.2,0,0-8.04.86-12.51,6.56h0Z"/><g class="fy"><path class="cq" d="M129.24,430.74s-.49.05-1.29.22c.1,2.41-.06,8.23-3.53,12.64-3.4,4.33-9.35,6.56-12.05,7.39-.05.81-.04,1.29-.04,1.29,0,0,.03,0,.1-.02.98-.24,9.14-2.37,13.37-7.76,4.06-5.16,3.59-12.27,3.47-13.55,0-.13-.02-.2-.02-.2h0Z"/></g><g class="fx"><path class="cd" d="M116.94,437.7c-4.5,5.73-4.41,14.97-4.41,14.97,0,0,.03,0,.1-.02l16.84-21.31c0-.13-.02-.2-.02-.2,0,0-8.04.86-12.51,6.56h0Z"/></g><path class="ej" d="M116,436.95c4.73-6.02,12.97-6.97,13.32-7.01l1.17-.13.15,1.17c.04.35,1.04,8.63-3.69,14.65-4.71,5.99-13.76,8.12-14.14,8.2l-1.45.33-.02-1.49c0-.26-.02-4.44,1.33-8.97.69-2.32,1.74-4.73,3.33-6.76h0ZM125.06,444.14c3.1-3.94,3.35-9.22,3.28-11.6-2.32.48-7.36,1.94-10.47,5.9-3.11,3.95-3.89,9.83-4.09,12.63,2.66-.84,8.16-2.96,11.27-6.92h0ZM112.53,452.66h0Z"/></g><path class="ae" d="M340.25,320.07c-7.13-2.05-11.26-9.52-9.21-16.65s9.52-11.26,16.65-9.21c7.13,2.05,11.26,9.52,9.21,16.65-2.05,7.13-9.52,11.26-16.65,9.21Z"/><path class="al" d="M341.66,298.46c.34-.07.69-.13,1.05-.16,4.91-.45,9.26,3.16,9.71,8.07.45,4.91-3.16,9.26-8.07,9.71-4.91.45-9.26-3.16-9.71-8.07-.42-4.55,2.65-8.62,7.02-9.55"/><path class="al" d="M352.42,306.37c-.45-4.91-4.8-8.52-9.71-8.07-.36.03-.71.09-1.05.16-.68.14-1.32.37-1.93.66.06.12,7.35,15.85,7.41,16.23,3.41-1.51,5.65-5.06,5.29-8.98h-.01Z"/><path class="bl" d="M351.03,302.35c-1.75-2.7-4.89-4.36-8.32-4.05-.36.03-.71.09-1.05.16-4.36.93-7.44,5-7.02,9.55.05.53.16,1.04.3,1.54,3.09-10.09,11.36-8.87,16.09-7.21h0Z"/><path class="as" d="M351.03,302.35c-1.75-2.7-4.89-4.36-8.32-4.05-.36.03-.71.09-1.05.16-4.36.93-7.44,5-7.02,9.55.05.53.16,1.04.3,1.54,3.09-10.09,11.36-8.87,16.09-7.21h0Z"/><path class="fr" d="M341.67,298.45c-2.74-5.22-5.03-8.58-5.77-8.24-1.08.48,1.47,8.48,5.68,17.85"/><line class="fr" x1="338.12" y1="299.68" x2="339.55" y2="303.35"/><path class="fr" d="M341.58,308.06c4.21,9.38,8.5,16.59,9.58,16.1.74-.33-.24-4.25-2.3-9.72"/><ellipse class="ae" cx="316.43" cy="451.8" rx="44.02" ry="42.54" transform="translate(-188.39 229.53) rotate(-31.23)"/><circle class="cw" cx="315.54" cy="452.13" r="34.43" transform="translate(-171.36 710.81) rotate(-83.07)"/><path class="cw" d="M302.78,420.16c-2.01.8-3.97,1.8-5.84,3.01l29.99,61.46c3.41-1.2,6.7-2.95,9.71-5.29,15.02-11.66,17.75-33.29,6.09-48.31-9.63-12.41-26.06-16.42-39.95-10.88"/><path class="be" d="M348.86,443.52c-3.67,11.65-17.62,44.24-56.39,34.16,12.15,11,30.78,12.07,44.17,1.67,11.2-8.69,15.55-22.92,12.22-35.83Z"/><path class="ft" d="M335.89,480.54c5.05,13.04,9.78,28.03,7.49,29.22-4.19,2.19-21.24-22.11-38.08-54.28-16.84-32.17-27.09-60.03-22.9-62.23,2.21-1.16,13.69,12.88,21.32,26.09"/><path class="bj" d="M287.41,411.33c-1.98,1.54-4.84,1.18-6.38-.8-1.54-1.98-1.18-4.84.8-6.38s4.84-1.18,6.38.8c1.54,1.98,1.18,4.84-.8,6.38Z"/><path class="ft" d="M343.37,509.77c-4.19,2.19-21.24-22.11-38.08-54.28"/><path class="ae" d="M251.71,183.29c-4.12-6.17-2.24-14.55,4.18-18.7s14.99-2.5,19.11,3.66c4.12,6.17,2.24,14.55-4.18,18.7s-14.99,2.5-19.11-3.66Z"/><circle class="dd" cx="263.04" cy="175.82" r="10.86"/><path class="dd" d="M261.11,165.14c-.67.12-1.34.31-2,.57l5.43,20.88c1.13-.16,2.25-.49,3.33-1.03,5.37-2.66,7.57-9.18,4.91-14.56-2.2-4.44-7.03-6.71-11.67-5.86"/><path class="cr" d="M273.89,175.24c-1.86,3.37-8.22,12.58-19.57,7.03,3.07,4.16,8.76,5.66,13.55,3.28,4.01-1.99,6.24-6.11,6.02-10.31Z"/><path class="df" d="M264.12,170.72c-1.03,0-1.86-.7-1.86-1.56s.83-1.56,1.86-1.56,1.86.7,1.86,1.56-.83,1.56-1.86,1.56Z"/><path class="cg" d="M264.12,170.24c-.71,0-1.28-.48-1.28-1.08s.57-1.08,1.28-1.08,1.28.48,1.28,1.08-.57,1.08-1.28,1.08Z"/><path class="df" d="M259.55,181.69c-.61,0-1.11-.42-1.11-.93s.5-.93,1.11-.93,1.11.42,1.11.93-.5.93-1.11.93Z"/><path class="cg" d="M259.55,181.4c-.42,0-.76-.29-.76-.64s.34-.64.76-.64.76.29.76.64-.34.64-.76.64Z"/><path class="df" d="M268.16,177.37c-.43,0-.78-.29-.78-.65s.35-.65.78-.65.78.29.78.65-.35.65-.78.65Z"/><path class="cg" d="M268.16,177.17c-.3,0-.54-.2-.54-.45s.24-.45.54-.45.54.2.54.45-.24.45-.54.45Z"/><path class="ae" d="M107.66,544.48c-1.67-2.5-.91-5.89,1.69-7.57s6.07-1.01,7.74,1.48c1.67,2.5.91,5.89-1.69,7.57-2.6,1.68-6.07,1.01-7.74-1.48h0Z"/><circle class="dd" cx="112.25" cy="541.46" r="4.4"/><path class="dd" d="M111.47,537.13c-.27.05-.54.13-.81.23l2.2,8.45c.46-.06.91-.2,1.35-.42,2.18-1.08,3.07-3.72,1.99-5.89-.89-1.8-2.85-2.72-4.72-2.37"/><path class="bt" d="M116.64,541.22c-.75,1.37-3.33,5.09-7.92,2.85,1.24,1.68,3.55,2.29,5.49,1.33,1.62-.8,2.53-2.48,2.44-4.18h0Z"/><path class="df" d="M112.69,539.39c-.42,0-.75-.28-.75-.63s.34-.63.75-.63.75.28.75.63-.34.63-.75.63Z"/><path class="cg" d="M112.69,539.2c-.29,0-.52-.19-.52-.44s.23-.44.52-.44.52.19.52.44-.23.44-.52.44Z"/><path class="df" d="M110.83,543.83c-.25,0-.45-.17-.45-.38s.2-.38.45-.38.45.17.45.38-.2.38-.45.38Z"/><path class="cg" d="M110.83,543.71c-.17,0-.31-.12-.31-.26s.14-.26.31-.26.31.12.31.26-.14.26-.31.26Z"/><path class="df" d="M114.32,542.08c-.17,0-.32-.12-.32-.26s.14-.26.32-.26.32.12.32.26-.14.26-.32.26Z"/><path class="cg" d="M114.32,542c-.12,0-.22-.08-.22-.18s.1-.18.22-.18.22.08.22.18-.1.18-.22.18Z"/><ellipse class="ae" cx="112.82" cy="299.68" rx="20.2" ry="19.52" transform="translate(-94.8 55.9) rotate(-19.79)"/><circle class="bz" cx="112.36" cy="299.76" r="15.8"/><path class="bz" d="M109.55,284.21c-.98.18-1.95.45-2.9.82l7.89,30.38c1.64-.23,3.28-.72,4.85-1.49,7.82-3.88,11.02-13.36,7.14-21.18-3.2-6.46-10.23-9.76-16.98-8.53"/><path class="af" d="M128.15,298.91c-2.71,4.91-11.95,18.3-28.48,10.23,4.46,6.05,12.75,8.23,19.72,4.77,5.83-2.89,9.09-8.9,8.76-15.01h0Z"/><path class="bg" d="M107.7,303.54c1.33.69,1.94,2.15,1.36,3.27-.58,1.11-2.12,1.46-3.45.77-1.33-.69-1.94-2.15-1.36-3.27.58-1.11,2.12-1.46,3.45-.77Z"/><path class="fe" d="M107.38,304.17c.92.47,1.33,1.48.94,2.25-.4.77-1.46,1-2.38.53s-1.33-1.48-.94-2.25c.4-.77,1.46-1,2.38-.53Z"/><path class="bg" d="M120.96,292.44c.79.41,1.15,1.28.81,1.94s-1.26.87-2.05.46c-.79-.41-1.15-1.28-.81-1.94s1.26-.87,2.05-.46Z"/><path class="fe" d="M120.76,292.82c.54.28.79.88.56,1.34s-.87.6-1.41.31c-.54-.28-.79-.88-.56-1.34s.87-.6,1.41-.31Z"/><path class="bg" d="M106.95,292.25c.56.29.81.9.57,1.37s-.89.61-1.45.32c-.56-.29-.81-.9-.57-1.37s.89-.61,1.45-.32Z"/><path class="fe" d="M106.81,292.51c.38.2.56.62.39.94-.17.32-.61.42-1,.22s-.56-.62-.39-.94c.17-.32.61-.42,1-.22Z"/></g></g></svg>