<?xml version="1.0" encoding="UTF-8"?>
<svg id="Layer_1" data-name="Layer 1" xmlns="http://www.w3.org/2000/svg" viewBox="0 0 311.81 129">
  <defs>
    <style>
      .cls-1 {
        fill: none;
        stroke: #231f20;
        stroke-linecap: round;
        stroke-linejoin: round;
        stroke-width: 2px;
      }
    </style>
  </defs>
  <line class="cls-1" x1="14.48" y1="4.78" x2="41.64" y2="4.78"/>
  <line class="cls-1" x1="54.81" y1="4.78" x2="86.76" y2="4.78"/>
  <line class="cls-1" x1="93.42" y1="4.78" x2="99.69" y2="4.78"/>
  <line class="cls-1" x1="132.66" y1="4.78" x2="152.94" y2="4.78"/>
  <line class="cls-1" x1="165.53" y1="4.78" x2="191.44" y2="4.78"/>
  <line class="cls-1" x1="215.1" y1="4.78" x2="242.84" y2="4.78"/>
  <line class="cls-1" x1="262.8" y1="4.78" x2="266.47" y2="4.78"/>
  <line class="cls-1" x1="299.03" y1="4.78" x2="332.36" y2="4.78"/>
  <line class="cls-1" x1="7.73" y1="10" x2="34.84" y2="10"/>
  <line class="cls-1" x1="61.02" y1="10" x2="69.07" y2="10"/>
  <line class="cls-1" x1="95.27" y1="10" x2="119.23" y2="10"/>
  <line class="cls-1" x1="117.97" y1="10" x2="147.06" y2="10"/>
  <line class="cls-1" x1="168.58" y1="10" x2="174.73" y2="10"/>
  <line class="cls-1" x1="217.09" y1="10" x2="237.47" y2="10"/>
  <line class="cls-1" x1="247.07" y1="10" x2="273.08" y2="10"/>
  <line class="cls-1" x1="285.06" y1="10" x2="314.36" y2="10"/>
  <line class="cls-1" x1="1.09" y1="15.22" x2="21.21" y2="15.22"/>
  <line class="cls-1" x1="38.9" y1="15.22" x2="74.41" y2="15.22"/>
  <line class="cls-1" x1="82.11" y1="15.22" x2="103.49" y2="15.22"/>
  <line class="cls-1" x1="144.78" y1="15.22" x2="160.33" y2="15.22"/>
  <line class="cls-1" x1="180.89" y1="15.22" x2="211.28" y2="15.22"/>
  <line class="cls-1" x1="215.83" y1="15.22" x2="248.79" y2="15.22"/>
  <line class="cls-1" x1="250.38" y1="15.22" x2="279.08" y2="15.22"/>
  <line class="cls-1" x1="281.33" y1="15.22" x2="311.7" y2="15.22"/>
  <line class="cls-1" x1="9.89" y1="20.45" x2="17.41" y2="20.45"/>
  <line class="cls-1" x1="53.23" y1="20.45" x2="88.37" y2="20.45"/>
  <line class="cls-1" x1="83.63" y1="20.45" x2="111.19" y2="20.45"/>
  <line class="cls-1" x1="144.16" y1="20.45" x2="155.8" y2="20.45"/>
  <line class="cls-1" x1="165.74" y1="20.45" x2="201.98" y2="20.45"/>
  <line class="cls-1" x1="207.72" y1="20.45" x2="237.89" y2="20.45"/>
  <line class="cls-1" x1="259.56" y1="20.45" x2="281.46" y2="20.45"/>
  <line class="cls-1" x1="299.46" y1="20.45" x2="306.24" y2="20.45"/>
  <line class="cls-1" x1="17.46" y1="25.67" x2="33.63" y2="25.67"/>
  <line class="cls-1" x1="47.5" y1="25.67" x2="67.2" y2="25.67"/>
  <line class="cls-1" x1="78.67" y1="25.67" x2="105.47" y2="25.67"/>
  <line class="cls-1" x1="118.81" y1="25.67" x2="153.77" y2="25.67"/>
  <line class="cls-1" x1="161.7" y1="25.67" x2="197.86" y2="25.67"/>
  <line class="cls-1" x1="208.26" y1="25.67" x2="235.65" y2="25.67"/>
  <line class="cls-1" x1="265.1" y1="25.67" x2="283.8" y2="25.67"/>
  <line class="cls-1" x1="288.6" y1="25.67" x2="323.56" y2="25.67"/>
  <line class="cls-1" x1="32.54" y1="30.89" x2="39" y2="30.89"/>
  <line class="cls-1" x1="53.02" y1="30.89" x2="78.44" y2="30.89"/>
  <line class="cls-1" x1="92.72" y1="30.89" x2="104.35" y2="30.89"/>
  <line class="cls-1" x1="136.2" y1="30.89" x2="140.05" y2="30.89"/>
  <line class="cls-1" x1="168.66" y1="30.89" x2="178.97" y2="30.89"/>
  <line class="cls-1" x1="198.87" y1="30.89" x2="231.85" y2="30.89"/>
  <line class="cls-1" x1="255.92" y1="30.89" x2="276.58" y2="30.89"/>
  <line class="cls-1" x1="288.17" y1="30.89" x2="319.78" y2="30.89"/>
  <line class="cls-1" x1="4.68" y1="36.11" x2="33.59" y2="36.11"/>
  <line class="cls-1" x1="60.85" y1="36.11" x2="91.22" y2="36.11"/>
  <line class="cls-1" x1="94.35" y1="36.11" x2="99.67" y2="36.11"/>
  <line class="cls-1" x1="132.9" y1="36.11" x2="155.97" y2="36.11"/>
  <line class="cls-1" x1="192.83" y1="36.11" x2="205.79" y2="36.11"/>
  <line class="cls-1" x1="229.28" y1="36.11" x2="241.73" y2="36.11"/>
  <line class="cls-1" x1="250.95" y1="36.11" x2="258.49" y2="36.11"/>
  <line class="cls-1" x1="304.59" y1="36.11" x2="337.5" y2="36.11"/>
  <line class="cls-1" x1="7.56" y1="41.33" x2="43.77" y2="41.33"/>
  <line class="cls-1" x1="36.34" y1="41.33" x2="70.5" y2="41.33"/>
  <line class="cls-1" x1="105.2" y1="41.33" x2="124.15" y2="41.33"/>
  <line class="cls-1" x1="120.85" y1="41.33" x2="149.49" y2="41.33"/>
  <line class="cls-1" x1="184.66" y1="41.33" x2="188.83" y2="41.33"/>
  <line class="cls-1" x1="208.93" y1="41.33" x2="222.93" y2="41.33"/>
  <line class="cls-1" x1="258.48" y1="41.33" x2="294.57" y2="41.33"/>
  <line class="cls-1" x1="304.24" y1="41.33" x2="311.42" y2="41.33"/>
  <line class="cls-1" x1="18.61" y1="46.55" x2="32.31" y2="46.55"/>
  <line class="cls-1" x1="45.62" y1="46.55" x2="65.58" y2="46.55"/>
  <line class="cls-1" x1="91.59" y1="46.55" x2="104.43" y2="46.55"/>
  <line class="cls-1" x1="128.52" y1="46.55" x2="141.03" y2="46.55"/>
  <line class="cls-1" x1="179.2" y1="46.55" x2="213.92" y2="46.55"/>
  <line class="cls-1" x1="220.38" y1="46.55" x2="257.08" y2="46.55"/>
  <line class="cls-1" x1="259.22" y1="46.55" x2="288.45" y2="46.55"/>
  <line class="cls-1" x1="14.67" y1="51.77" x2="24.07" y2="51.77"/>
  <line class="cls-1" x1="49.35" y1="51.77" x2="57.35" y2="51.77"/>
  <line class="cls-1" x1="106.59" y1="51.77" x2="108.48" y2="51.77"/>
  <line class="cls-1" x1="136.3" y1="51.77" x2="161.12" y2="51.77"/>
  <line class="cls-1" x1="172.39" y1="51.77" x2="189.2" y2="51.77"/>
  <line class="cls-1" x1="227.26" y1="51.77" x2="252.51" y2="51.77"/>
  <line class="cls-1" x1="254.49" y1="51.77" x2="277.63" y2="51.77"/>
  <line class="cls-1" x1="294.94" y1="51.77" x2="301.68" y2="51.77"/>
  <line class="cls-1" x1="3.94" y1="57" x2="32.93" y2="57"/>
  <line class="cls-1" x1="46.19" y1="57" x2="72.48" y2="57"/>
  <line class="cls-1" x1="85.17" y1="57" x2="110.92" y2="57"/>
  <line class="cls-1" x1="141.33" y1="57" x2="165.05" y2="57"/>
  <line class="cls-1" x1="169.34" y1="57" x2="191.63" y2="57"/>
  <line class="cls-1" x1="208.34" y1="57" x2="234.26" y2="57"/>
  <line class="cls-1" x1="259.64" y1="57" x2="294.58" y2="57"/>
  <line class="cls-1" x1="281.58" y1="57" x2="308.89" y2="57"/>
  <line class="cls-1" x1="31.61" y1="62.22" x2="36.54" y2="62.22"/>
  <line class="cls-1" x1="38.13" y1="62.22" x2="71.53" y2="62.22"/>
  <line class="cls-1" x1="96.96" y1="62.22" x2="115.61" y2="62.22"/>
  <line class="cls-1" x1="125.1" y1="62.22" x2="150.92" y2="62.22"/>
  <line class="cls-1" x1="179.97" y1="62.22" x2="207.15" y2="62.22"/>
  <line class="cls-1" x1="224.77" y1="62.22" x2="240.34" y2="62.22"/>
  <line class="cls-1" x1="271.03" y1="62.22" x2="275.5" y2="62.22"/>
  <line class="cls-1" x1="288.97" y1="62.22" x2="322.5" y2="62.22"/>
  <line class="cls-1" x1="15.2" y1="67.44" x2="29.14" y2="67.44"/>
  <line class="cls-1" x1="53.57" y1="67.44" x2="56.05" y2="67.44"/>
  <line class="cls-1" x1="92.86" y1="67.44" x2="125.36" y2="67.44"/>
  <line class="cls-1" x1="128.63" y1="67.44" x2="163.08" y2="67.44"/>
  <line class="cls-1" x1="190.46" y1="67.44" x2="199.86" y2="67.44"/>
  <line class="cls-1" x1="219.92" y1="67.44" x2="251.46" y2="67.44"/>
  <line class="cls-1" x1="243.66" y1="67.44" x2="263.21" y2="67.44"/>
  <line class="cls-1" x1="310.83" y1="67.44" x2="324.77" y2="67.44"/>
  <line class="cls-1" x1="30.8" y1="72.66" x2="41.56" y2="72.66"/>
  <line class="cls-1" x1="42.37" y1="72.66" x2="69.54" y2="72.66"/>
  <line class="cls-1" x1="85.26" y1="72.66" x2="96.09" y2="72.66"/>
  <line class="cls-1" x1="125.75" y1="72.66" x2="150.26" y2="72.66"/>
  <line class="cls-1" x1="188.86" y1="72.66" x2="204.75" y2="72.66"/>
  <line class="cls-1" x1="216.93" y1="72.66" x2="226.26" y2="72.66"/>
  <line class="cls-1" x1="253.79" y1="72.66" x2="276.17" y2="72.66"/>
  <line class="cls-1" x1="291.54" y1="72.66" x2="316.76" y2="72.66"/>
  <line class="cls-1" x1="12.68" y1="77.88" x2="32.17" y2="77.88"/>
  <line class="cls-1" x1="50.93" y1="77.88" x2="81.56" y2="77.88"/>
  <line class="cls-1" x1="81.71" y1="77.88" x2="102.23" y2="77.88"/>
  <line class="cls-1" x1="130.45" y1="77.88" x2="149.4" y2="77.88"/>
  <line class="cls-1" x1="162.12" y1="77.88" x2="187.03" y2="77.88"/>
  <line class="cls-1" x1="224.88" y1="77.88" x2="250.69" y2="77.88"/>
  <line class="cls-1" x1="255.81" y1="77.88" x2="264.35" y2="77.88"/>
  <line class="cls-1" x1="286.31" y1="77.88" x2="304.18" y2="77.88"/>
  <line class="cls-1" x1="15.08" y1="83.1" x2="30.57" y2="83.1"/>
  <line class="cls-1" x1="64.38" y1="83.1" x2="84.15" y2="83.1"/>
  <line class="cls-1" x1="83.57" y1="83.1" x2="118.12" y2="83.1"/>
  <line class="cls-1" x1="150.31" y1="83.1" x2="162.82" y2="83.1"/>
  <line class="cls-1" x1="166.99" y1="83.1" x2="188.92" y2="83.1"/>
  <line class="cls-1" x1="211.15" y1="83.1" x2="217.32" y2="83.1"/>
  <line class="cls-1" x1="264.03" y1="83.1" x2="285.2" y2="83.1"/>
  <line class="cls-1" x1="290.63" y1="83.1" x2="323.25" y2="83.1"/>
  <line class="cls-1" x1="9.31" y1="88.33" x2="30.2" y2="88.33"/>
  <line class="cls-1" x1="65.61" y1="88.33" x2="77.84" y2="88.33"/>
  <line class="cls-1" x1="77.96" y1="88.33" x2="110.85" y2="88.33"/>
  <line class="cls-1" x1="129.76" y1="88.33" x2="151.87" y2="88.33"/>
  <line class="cls-1" x1="189.13" y1="88.33" x2="199.2" y2="88.33"/>
  <line class="cls-1" x1="233.85" y1="88.33" x2="244.57" y2="88.33"/>
  <line class="cls-1" x1="272.43" y1="88.33" x2="282.4" y2="88.33"/>
  <line class="cls-1" x1="303.95" y1="88.33" x2="338.73" y2="88.33"/>
  <line class="cls-1" x1="3.28" y1="93.55" x2="33.37" y2="93.55"/>
  <line class="cls-1" x1="62.21" y1="93.55" x2="82.46" y2="93.55"/>
  <line class="cls-1" x1="90.45" y1="93.55" x2="93.68" y2="93.55"/>
  <line class="cls-1" x1="147.12" y1="93.55" x2="166.46" y2="93.55"/>
  <line class="cls-1" x1="180.76" y1="93.55" x2="205.76" y2="93.55"/>
  <line class="cls-1" x1="226.13" y1="93.55" x2="246.38" y2="93.55"/>
  <line class="cls-1" x1="252.75" y1="93.55" x2="261.16" y2="93.55"/>
  <line class="cls-1" x1="21.27" y1="98.77" x2="30.55" y2="98.77"/>
  <line class="cls-1" x1="59.88" y1="98.77" x2="81.22" y2="98.77"/>
  <line class="cls-1" x1="97.98" y1="98.77" x2="113.73" y2="98.77"/>
  <line class="cls-1" x1="130.63" y1="98.77" x2="154.98" y2="98.77"/>
  <line class="cls-1" x1="176.51" y1="98.77" x2="191.11" y2="98.77"/>
  <line class="cls-1" x1="221.75" y1="98.77" x2="244.12" y2="98.77"/>
  <line class="cls-1" x1="243.86" y1="98.77" x2="280.22" y2="98.77"/>
  <line class="cls-1" x1="11.38" y1="103.99" x2="16.5" y2="103.99"/>
  <line class="cls-1" x1="43.14" y1="103.99" x2="63.67" y2="103.99"/>
  <line class="cls-1" x1="89.64" y1="103.99" x2="112.92" y2="103.99"/>
  <line class="cls-1" x1="146.51" y1="103.99" x2="158.74" y2="103.99"/>
  <line class="cls-1" x1="193.13" y1="103.99" x2="195.22" y2="103.99"/>
  <line class="cls-1" x1="221.79" y1="103.99" x2="236.62" y2="103.99"/>
  <line class="cls-1" x1="251.11" y1="103.99" x2="258.11" y2="103.99"/>
  <line class="cls-1" x1="290.8" y1="103.99" x2="308.54" y2="103.99"/>
  <line class="cls-1" x1="25.31" y1="109.21" x2="38.78" y2="109.21"/>
  <line class="cls-1" x1="50.57" y1="109.21" x2="80.44" y2="109.21"/>
  <line class="cls-1" x1="103.38" y1="109.21" x2="117.91" y2="109.21"/>
  <line class="cls-1" x1="131.84" y1="109.21" x2="147.49" y2="109.21"/>
  <line class="cls-1" x1="174.76" y1="109.21" x2="184.05" y2="109.21"/>
  <line class="cls-1" x1="216.88" y1="109.21" x2="247.63" y2="109.21"/>
  <line class="cls-1" x1="245.77" y1="109.21" x2="267.59" y2="109.21"/>
  <line class="cls-1" x1="287.77" y1="109.21" x2="318.07" y2="109.21"/>
  <line class="cls-1" x1="7.58" y1="114.43" x2="34.51" y2="114.43"/>
  <line class="cls-1" x1="54.71" y1="114.43" x2="89.41" y2="114.43"/>
  <line class="cls-1" x1="85.69" y1="114.43" x2="117.92" y2="114.43"/>
  <line class="cls-1" x1="131.98" y1="114.43" x2="137.02" y2="114.43"/>
  <line class="cls-1" x1="184.29" y1="114.43" x2="203.43" y2="114.43"/>
  <line class="cls-1" x1="225.52" y1="114.43" x2="236.8" y2="114.43"/>
  <line class="cls-1" x1="249.18" y1="114.43" x2="256.4" y2="114.43"/>
  <line class="cls-1" x1="294.82" y1="114.43" x2="299.33" y2="114.43"/>
  <line class="cls-1" x1="24.88" y1="119.66" x2="41.96" y2="119.66"/>
  <line class="cls-1" x1="65.16" y1="119.66" x2="81.83" y2="119.66"/>
  <line class="cls-1" x1="102.1" y1="119.66" x2="123.35" y2="119.66"/>
  <line class="cls-1" x1="117.9" y1="119.66" x2="152.74" y2="119.66"/>
  <line class="cls-1" x1="171.41" y1="119.66" x2="183.8" y2="119.66"/>
  <line class="cls-1" x1="217.8" y1="119.66" x2="231.62" y2="119.66"/>
  <line class="cls-1" x1="264.06" y1="119.66" x2="282.3" y2="119.66"/>
  <line class="cls-1" x1="299.84" y1="119.66" x2="323.04" y2="119.66"/>
  <line class="cls-1" x1="-1.91" y1="124.88" x2="23.61" y2="124.88"/>
  <line class="cls-1" x1="57.99" y1="124.88" x2="91.52" y2="124.88"/>
  <line class="cls-1" x1="98.29" y1="124.88" x2="128.08" y2="124.88"/>
  <line class="cls-1" x1="122.76" y1="124.88" x2="150.54" y2="124.88"/>
  <line class="cls-1" x1="174.36" y1="124.88" x2="182.94" y2="124.88"/>
  <line class="cls-1" x1="205.4" y1="124.88" x2="229.08" y2="124.88"/>
  <line class="cls-1" x1="249.1" y1="124.88" x2="272.49" y2="124.88"/>
  <line class="cls-1" x1="289.81" y1="124.88" x2="323.6" y2="124.88"/>
  <line class="cls-1" x1="-1.73" y1="4.78" x2="13.55" y2="4.78"/>
  <line class="cls-1" x1="27.78" y1="4.78" x2="34.43" y2="4.78"/>
  <line class="cls-1" x1="68.16" y1="4.78" x2="99.49" y2="4.78"/>
  <line class="cls-1" x1="117.2" y1="4.78" x2="151.65" y2="4.78"/>
  <line class="cls-1" x1="165.54" y1="4.78" x2="172.35" y2="4.78"/>
  <line class="cls-1" x1="203.61" y1="4.78" x2="235.2" y2="4.78"/>
  <line class="cls-1" x1="236.78" y1="4.78" x2="244.59" y2="4.78"/>
  <line class="cls-1" x1="261.73" y1="4.78" x2="293.23" y2="4.78"/>
  <line class="cls-1" x1="1.48" y1="10" x2="7.07" y2="10"/>
  <line class="cls-1" x1="22.79" y1="10" x2="41.51" y2="10"/>
  <line class="cls-1" x1="77.63" y1="10" x2="107.57" y2="10"/>
  <line class="cls-1" x1="101.14" y1="10" x2="127.48" y2="10"/>
  <line class="cls-1" x1="151.8" y1="10" x2="187.19" y2="10"/>
  <line class="cls-1" x1="189.44" y1="10" x2="217.78" y2="10"/>
  <line class="cls-1" x1="254.57" y1="10" x2="265.6" y2="10"/>
  <line class="cls-1" x1="271.23" y1="10" x2="291.47" y2="10"/>
  <line class="cls-1" x1="-7.4" y1="15.22" x2="29.12" y2="15.22"/>
  <line class="cls-1" x1="52.67" y1="15.22" x2="58.14" y2="15.22"/>
  <line class="cls-1" x1="81.39" y1="15.22" x2="111.82" y2="15.22"/>
  <line class="cls-1" x1="107.4" y1="15.22" x2="131.99" y2="15.22"/>
  <line class="cls-1" x1="141.82" y1="15.22" x2="173.48" y2="15.22"/>
  <line class="cls-1" x1="185.34" y1="15.22" x2="206.63" y2="15.22"/>
  <line class="cls-1" x1="237.42" y1="15.22" x2="266.92" y2="15.22"/>
  <line class="cls-1" x1="277.38" y1="15.22" x2="307.6" y2="15.22"/>
  <line class="cls-1" x1="-10.06" y1="20.45" x2="23.46" y2="20.45"/>
  <line class="cls-1" x1="16.27" y1="20.45" x2="43.42" y2="20.45"/>
  <line class="cls-1" x1="89.97" y1="20.45" x2="102.88" y2="20.45"/>
  <line class="cls-1" x1="116.31" y1="20.45" x2="122.68" y2="20.45"/>
  <line class="cls-1" x1="154.3" y1="20.45" x2="159.23" y2="20.45"/>
  <line class="cls-1" x1="194.98" y1="20.45" x2="197.91" y2="20.45"/>
  <line class="cls-1" x1="238.39" y1="20.45" x2="266.59" y2="20.45"/>
  <line class="cls-1" x1="271.42" y1="20.45" x2="289.2" y2="20.45"/>
  <line class="cls-1" x1="2.28" y1="25.67" x2="27.16" y2="25.67"/>
  <line class="cls-1" x1="49.06" y1="25.67" x2="52.92" y2="25.67"/>
  <line class="cls-1" x1="79.56" y1="25.67" x2="95.81" y2="25.67"/>
  <line class="cls-1" x1="108.75" y1="25.67" x2="116.25" y2="25.67"/>
  <line class="cls-1" x1="164.95" y1="25.67" x2="194.6" y2="25.67"/>
  <line class="cls-1" x1="188.1" y1="25.67" x2="199.02" y2="25.67"/>
  <line class="cls-1" x1="229.21" y1="25.67" x2="255.58" y2="25.67"/>
  <line class="cls-1" x1="282.24" y1="25.67" x2="313.48" y2="25.67"/>
  <line class="cls-1" x1="-9.75" y1="30.89" x2="5.24" y2="30.89"/>
  <line class="cls-1" x1="30.15" y1="30.89" x2="60.8" y2="30.89"/>
  <line class="cls-1" x1="63.16" y1="30.89" x2="79.93" y2="30.89"/>
  <line class="cls-1" x1="133.43" y1="30.89" x2="136.13" y2="30.89"/>
  <line class="cls-1" x1="158.29" y1="30.89" x2="191.78" y2="30.89"/>
  <line class="cls-1" x1="178.06" y1="30.89" x2="213.66" y2="30.89"/>
  <line class="cls-1" x1="243.36" y1="30.89" x2="256.5" y2="30.89"/>
  <line class="cls-1" x1="267.48" y1="30.89" x2="282.25" y2="30.89"/>
  <line class="cls-1" x1="-24.15" y1="36.11" x2="12.04" y2="36.11"/>
  <line class="cls-1" x1="47.34" y1="36.11" x2="64.23" y2="36.11"/>
  <line class="cls-1" x1="65.67" y1="36.11" x2="86.06" y2="36.11"/>
  <line class="cls-1" x1="113.42" y1="36.11" x2="130.28" y2="36.11"/>
  <line class="cls-1" x1="148.69" y1="36.11" x2="157.1" y2="36.11"/>
  <line class="cls-1" x1="193.47" y1="36.11" x2="212.51" y2="36.11"/>
  <line class="cls-1" x1="231.02" y1="36.11" x2="238.05" y2="36.11"/>
  <line class="cls-1" x1="280.15" y1="36.11" x2="298.05" y2="36.11"/>
  <line class="cls-1" x1="-7.58" y1="41.33" x2="23.09" y2="41.33"/>
  <line class="cls-1" x1="34.4" y1="41.33" x2="44.51" y2="41.33"/>
  <line class="cls-1" x1="63.73" y1="41.33" x2="83.47" y2="41.33"/>
  <line class="cls-1" x1="128.71" y1="41.33" x2="142.74" y2="41.33"/>
  <line class="cls-1" x1="144.43" y1="41.33" x2="161.21" y2="41.33"/>
  <line class="cls-1" x1="193.87" y1="41.33" x2="209.24" y2="41.33"/>
  <line class="cls-1" x1="229.91" y1="41.33" x2="245.2" y2="41.33"/>
  <line class="cls-1" x1="291.66" y1="41.33" x2="299.73" y2="41.33"/>
  <line class="cls-1" x1="-11.4" y1="46.55" x2="4.33" y2="46.55"/>
  <line class="cls-1" x1="24.03" y1="46.55" x2="42.55" y2="46.55"/>
  <line class="cls-1" x1="69.18" y1="46.55" x2="94.59" y2="46.55"/>
  <line class="cls-1" x1="126.28" y1="46.55" x2="143.71" y2="46.55"/>
  <line class="cls-1" x1="150.69" y1="46.55" x2="178.13" y2="46.55"/>
  <line class="cls-1" x1="202.11" y1="46.55" x2="226.31" y2="46.55"/>
  <line class="cls-1" x1="243.69" y1="46.55" x2="276.07" y2="46.55"/>
  <line class="cls-1" x1="268.47" y1="46.55" x2="287.57" y2="46.55"/>
  <line class="cls-1" x1="4.59" y1="51.77" x2="13.86" y2="51.77"/>
  <line class="cls-1" x1="15.78" y1="51.77" x2="45.4" y2="51.77"/>
  <line class="cls-1" x1="57.53" y1="51.77" x2="89.21" y2="51.77"/>
  <line class="cls-1" x1="134.5" y1="51.77" x2="141.71" y2="51.77"/>
  <line class="cls-1" x1="154.87" y1="51.77" x2="190.14" y2="51.77"/>
  <line class="cls-1" x1="193.35" y1="51.77" x2="213.5" y2="51.77"/>
  <line class="cls-1" x1="231.29" y1="51.77" x2="239.2" y2="51.77"/>
  <line class="cls-1" x1="278.01" y1="51.77" x2="285.41" y2="51.77"/>
  <line class="cls-1" x1="-18.24" y1="57" x2="11.08" y2="57"/>
  <line class="cls-1" x1="45.31" y1="57" x2="61.11" y2="57"/>
  <line class="cls-1" x1="85.73" y1="57" x2="107.34" y2="57"/>
  <line class="cls-1" x1="120.97" y1="57" x2="135.13" y2="57"/>
  <line class="cls-1" x1="150.87" y1="57" x2="161.44" y2="57"/>
  <line class="cls-1" x1="196.38" y1="57" x2="200.59" y2="57"/>
  <line class="cls-1" x1="226.79" y1="57" x2="255.11" y2="57"/>
  <line class="cls-1" x1="270.51" y1="57" x2="279.57" y2="57"/>
  <line class="cls-1" x1="-15.87" y1="62.22" x2="12.46" y2="62.22"/>
  <line class="cls-1" x1="34.29" y1="62.22" x2="65.78" y2="62.22"/>
  <line class="cls-1" x1="89.29" y1="62.22" x2="100.59" y2="62.22"/>
  <line class="cls-1" x1="110.41" y1="62.22" x2="136.7" y2="62.22"/>
  <line class="cls-1" x1="141.33" y1="62.22" x2="168.62" y2="62.22"/>
  <line class="cls-1" x1="216.94" y1="62.22" x2="224.15" y2="62.22"/>
  <line class="cls-1" x1="230.1" y1="62.22" x2="244.57" y2="62.22"/>
  <line class="cls-1" x1="286.75" y1="62.22" x2="291.61" y2="62.22"/>
  <line class="cls-1" x1=".96" y1="67.44" x2="6.98" y2="67.44"/>
  <line class="cls-1" x1="37.9" y1="67.44" x2="56.14" y2="67.44"/>
  <line class="cls-1" x1="62.72" y1="67.44" x2="91.5" y2="67.44"/>
  <line class="cls-1" x1="122.56" y1="67.44" x2="144.11" y2="67.44"/>
  <line class="cls-1" x1="170.02" y1="67.44" x2="181.98" y2="67.44"/>
  <line class="cls-1" x1="198.97" y1="67.44" x2="209.23" y2="67.44"/>
  <line class="cls-1" x1="234.7" y1="67.44" x2="251.38" y2="67.44"/>
  <line class="cls-1" x1="291.71" y1="67.44" x2="307.99" y2="67.44"/>
  <line class="cls-1" x1="-19.86" y1="72.66" x2="2.26" y2="72.66"/>
  <line class="cls-1" x1="31" y1="72.66" x2="46.1" y2="72.66"/>
  <line class="cls-1" x1="56.7" y1="72.66" x2="84.17" y2="72.66"/>
  <line class="cls-1" x1="123.96" y1="72.66" x2="146.45" y2="72.66"/>
  <line class="cls-1" x1="157.86" y1="72.66" x2="177.92" y2="72.66"/>
  <line class="cls-1" x1="185.02" y1="72.66" x2="211.81" y2="72.66"/>
  <line class="cls-1" x1="224.58" y1="72.66" x2="250.33" y2="72.66"/>
  <line class="cls-1" x1="268.44" y1="72.66" x2="282.57" y2="72.66"/>
  <line class="cls-1" x1="3.04" y1="77.88" x2="7.16" y2="77.88"/>
  <line class="cls-1" x1="41.67" y1="77.88" x2="49.05" y2="77.88"/>
  <line class="cls-1" x1="78.91" y1="77.88" x2="92.27" y2="77.88"/>
  <line class="cls-1" x1="120" y1="77.88" x2="153.2" y2="77.88"/>
  <line class="cls-1" x1="161.55" y1="77.88" x2="190.15" y2="77.88"/>
  <line class="cls-1" x1="181.02" y1="77.88" x2="212.76" y2="77.88"/>
  <line class="cls-1" x1="227.68" y1="77.88" x2="260.13" y2="77.88"/>
  <line class="cls-1" x1="266.97" y1="77.88" x2="290.25" y2="77.88"/>
  <line class="cls-1" x1="52.38" y1="83.1" x2="58.66" y2="83.1"/>
  <line class="cls-1" x1="90.61" y1="83.1" x2="92.61" y2="83.1"/>
  <line class="cls-1" x1="101.81" y1="83.1" x2="134.71" y2="83.1"/>
  <line class="cls-1" x1="161.01" y1="83.1" x2="172.99" y2="83.1"/>
  <line class="cls-1" x1="209.37" y1="83.1" x2="226.64" y2="83.1"/>
  <line class="cls-1" x1="242.44" y1="83.1" x2="264.18" y2="83.1"/>
  <line class="cls-1" x1="277.45" y1="83.1" x2="282.54" y2="83.1"/>
  <line class="cls-1" x1="2.9" y1="88.33" x2="26.59" y2="88.33"/>
  <line class="cls-1" x1="41.47" y1="88.33" x2="52.35" y2="88.33"/>
  <line class="cls-1" x1="79.23" y1="88.33" x2="94.14" y2="88.33"/>
  <line class="cls-1" x1="102.93" y1="88.33" x2="129.11" y2="88.33"/>
  <line class="cls-1" x1="167.12" y1="88.33" x2="189.3" y2="88.33"/>
  <line class="cls-1" x1="194.89" y1="88.33" x2="230.37" y2="88.33"/>
  <line class="cls-1" x1="240.58" y1="88.33" x2="246.66" y2="88.33"/>
  <line class="cls-1" x1="278.48" y1="88.33" x2="284.3" y2="88.33"/>
  <line class="cls-1" x1="-22.7" y1="93.55" x2="4.6" y2="93.55"/>
  <line class="cls-1" x1="21.07" y1="93.55" x2="47.93" y2="93.55"/>
  <line class="cls-1" x1="89.25" y1="93.55" x2="99.68" y2="93.55"/>
  <line class="cls-1" x1="123.79" y1="93.55" x2="134.28" y2="93.55"/>
  <line class="cls-1" x1="148.07" y1="93.55" x2="177.39" y2="93.55"/>
  <line class="cls-1" x1="185.26" y1="93.55" x2="203.9" y2="93.55"/>
  <line class="cls-1" x1="223.97" y1="93.55" x2="252.26" y2="93.55"/>
  <line class="cls-1" x1="286.32" y1="93.55" x2="299.16" y2="93.55"/>
  <line class="cls-1" x1="2.38" y1="98.77" x2="30.72" y2="98.77"/>
  <line class="cls-1" x1="56.27" y1="98.77" x2="58.53" y2="98.77"/>
  <line class="cls-1" x1="71.86" y1="98.77" x2="100.19" y2="98.77"/>
  <line class="cls-1" x1="120.29" y1="98.77" x2="155.38" y2="98.77"/>
  <line class="cls-1" x1="153.99" y1="98.77" x2="164.52" y2="98.77"/>
  <line class="cls-1" x1="195.05" y1="98.77" x2="200.06" y2="98.77"/>
  <line class="cls-1" x1="218.02" y1="98.77" x2="247.36" y2="98.77"/>
  <line class="cls-1" x1="274.1" y1="98.77" x2="281.17" y2="98.77"/>
  <line class="cls-1" x1="6.35" y1="103.99" x2="21.3" y2="103.99"/>
  <line class="cls-1" x1="34.31" y1="103.99" x2="63.6" y2="103.99"/>
  <line class="cls-1" x1="70.1" y1="103.99" x2="94.9" y2="103.99"/>
  <line class="cls-1" x1="117.4" y1="103.99" x2="120.24" y2="103.99"/>
  <line class="cls-1" x1="155.63" y1="103.99" x2="164.12" y2="103.99"/>
  <line class="cls-1" x1="198.83" y1="103.99" x2="201.48" y2="103.99"/>
  <line class="cls-1" x1="229.99" y1="103.99" x2="264.23" y2="103.99"/>
  <line class="cls-1" x1="292.35" y1="103.99" x2="294.81" y2="103.99"/>
  <line class="cls-1" x1="15.09" y1="109.21" x2="17" y2="109.21"/>
  <line class="cls-1" x1="38.58" y1="109.21" x2="48.43" y2="109.21"/>
  <line class="cls-1" x1="57.05" y1="109.21" x2="82.78" y2="109.21"/>
  <line class="cls-1" x1="103.43" y1="109.21" x2="120.39" y2="109.21"/>
  <line class="cls-1" x1="148.77" y1="109.21" x2="168.52" y2="109.21"/>
  <line class="cls-1" x1="210.11" y1="109.21" x2="224.79" y2="109.21"/>
  <line class="cls-1" x1="230.94" y1="109.21" x2="259.42" y2="109.21"/>
  <line class="cls-1" x1="287.4" y1="109.21" x2="289.78" y2="109.21"/>
  <line class="cls-1" x1="4.62" y1="114.43" x2="12.98" y2="114.43"/>
  <line class="cls-1" x1="36.63" y1="114.43" x2="42.17" y2="114.43"/>
  <line class="cls-1" x1="92.15" y1="114.43" x2="97.43" y2="114.43"/>
  <line class="cls-1" x1="106.06" y1="114.43" x2="123.11" y2="114.43"/>
  <line class="cls-1" x1="140.57" y1="114.43" x2="167.7" y2="114.43"/>
  <line class="cls-1" x1="210.7" y1="114.43" x2="227.24" y2="114.43"/>
  <line class="cls-1" x1="228.99" y1="114.43" x2="242.22" y2="114.43"/>
  <line class="cls-1" x1="284.6" y1="114.43" x2="297.59" y2="114.43"/>
  <line class="cls-1" x1="6.16" y1="119.66" x2="11.3" y2="119.66"/>
  <line class="cls-1" x1="48.63" y1="119.66" x2="65.17" y2="119.66"/>
  <line class="cls-1" x1="80.3" y1="119.66" x2="93.36" y2="119.66"/>
  <line class="cls-1" x1="99.12" y1="119.66" x2="129.1" y2="119.66"/>
  <line class="cls-1" x1="144.5" y1="119.66" x2="180.74" y2="119.66"/>
  <line class="cls-1" x1="200.77" y1="119.66" x2="225.5" y2="119.66"/>
  <line class="cls-1" x1="226.79" y1="119.66" x2="256.8" y2="119.66"/>
  <line class="cls-1" x1="280.31" y1="119.66" x2="288.66" y2="119.66"/>
  <line class="cls-1" x1="8.16" y1="124.88" x2="14.08" y2="124.88"/>
  <line class="cls-1" x1="37.62" y1="124.88" x2="64.05" y2="124.88"/>
  <line class="cls-1" x1="75.86" y1="124.88" x2="102.38" y2="124.88"/>
  <line class="cls-1" x1="104.24" y1="124.88" x2="128.21" y2="124.88"/>
  <line class="cls-1" x1="150.86" y1="124.88" x2="162.83" y2="124.88"/>
  <line class="cls-1" x1="208.31" y1="124.88" x2="221.39" y2="124.88"/>
  <line class="cls-1" x1="246.24" y1="124.88" x2="261.52" y2="124.88"/>
  <line class="cls-1" x1="265.42" y1="124.88" x2="287.64" y2="124.88"/>
</svg>