<svg xmlns="http://www.w3.org/2000/svg" viewBox="0 0 394.48 394.48"><circle cx="197.24" cy="197.24" r="197.24" fill="#fff"/><path d="M330.65,129.78A35,35,0,0,0,306,105c-21.71-5.86-108.79-5.86-108.79-5.86s-87.07,0-108.79,5.86a35,35,0,0,0-24.62,24.77C58,151.64,58,197.24,58,197.24s0,45.6,5.81,67.46a35,35,0,0,0,24.62,24.78c21.72,5.85,108.79,5.85,108.79,5.85s87.08,0,108.79-5.85a35,35,0,0,0,24.62-24.78c5.82-21.86,5.82-67.46,5.82-67.46S336.47,151.64,330.65,129.78ZM168.76,238.64v-82.8l72.78,41.4Z" fill="#212121"/></svg>