<svg width="278" height="28" fill="none" xmlns="http://www.w3.org/2000/svg"><g clip-path="url(#clip0)" fill="#F6F6F6"><path d="M1.173 27.718L0 26.308l.75-4.087.376-1.832c.54-3.1.54-2.443 2.065-3.829 0 0 .47.54 1.08 1.316L2.72 26.45l-1.548 1.268zM5.584 7.493l.517.611-1.174 6.225-1.572 1.315c-1.36-1.574-.962-1.879-.657-3.735l.517-2.865c.258-1.386.469-1.55 1.525-2.49l.844.94zM4.81 17.43l-.633-.752-.47-.564.798-.681.821-.681h6.711l.657.751.47.564-.752.658-.844.705H4.81zm8.588-9.772H6.499L5.232 6.154C6.64 4.933 6.36 4.98 8.846 4.98h3.473c2.252 0 1.736-.118 2.862 1.221-.516.423-1.783 1.457-1.783 1.457zm.117 8.95c.892.986 1.15 1.197 1.033 1.926-.141.68-.329 1.761-.329 1.761l-1.15 6.178-1.525 1.245-1.22-1.41 1.643-8.385 1.548-1.316zm-.821-2.655l1.103-5.849 1.783-1.456c.915 1.08.704.822.845 1.41.023.14-.282 1.596-.376 2.043l-.281 1.667c-.47 2.678-.4 2.514-2.065 3.853L12.6 14.352l.094-.399zm7.063 12.497l-1.502 1.268-1.173-1.41 1.642-8.62 1.69-1.292 1.032 1.268-1.69 8.786zm2.299-11.957l-1.525 1.269-1.173-1.41 1.525-8.057 1.69-1.41 1.032 1.293-1.549 8.315zm-.774 7.423l7.039-5.684h1.807v1.832l-9.55 7.657.704-3.805zm10.98-7.423l-1.524 1.269-1.174-1.41 1.526-8.057 1.689-1.41 1.08 1.293-1.596 8.315zm3.685 13.225l-1.174-1.41.751-4.087.376-1.832c.54-3.1.54-2.443 2.065-3.829 0 0 .469.54 1.079 1.316l-1.549 8.574-1.548 1.268zm4.387-20.225l.517.611-1.174 6.225-1.548 1.292c-1.361-1.574-.962-1.88-.657-3.735l.516-2.866c.258-1.386.47-1.55 1.525-2.49l.821.963zm-.75 9.937l-.634-.752-.47-.564.799-.681.82-.681h6.712l.656.751.47.564-.751.658-.845.704h-6.757zm8.587-9.772h-6.898L40.006 6.13c1.408-1.222 1.126-1.175 3.613-1.175h3.473c2.252 0 1.736-.117 2.863 1.222-.517.446-1.784 1.48-1.784 1.48zm.118 8.95c.891.986 1.15 1.22 1.032 1.949-.14.681-.328 1.738-.328 1.738l-1.15 6.178-1.525 1.269-1.22-1.41 1.642-8.386 1.549-1.339zm-.822-2.655l1.103-5.849 1.783-1.456c.939 1.104.728.845.869 1.433.023.14-.282 1.597-.376 2.043l-.305 1.668c-.47 2.678-.399 2.513-2.065 3.852l-1.102-1.292.093-.399zM54.53 26.45l-1.502 1.268-1.173-1.41 1.643-8.62 1.713-1.292 1.032 1.268-1.713 8.786zm2.276-11.957l-1.525 1.269-1.173-1.41 1.525-8.057 1.69-1.41 1.032 1.293-1.549 8.315zm3.73-8.033l3.685 6.506-.517 2.209h-1.43l-3.685-6.719.376-1.996h1.572zm4.365 19.99l-1.525 1.268-1.173-1.41 1.642-8.503 1.666-1.41 1.08 1.27-1.69 8.785zm2.276-11.957l-1.572 1.269-1.126-1.292 1.525-8.175 1.666-1.41 1.08 1.293-1.573 8.315zm4.81-9.537h10.535l.892 1.175s-1.736 1.527-1.807 1.527h-9.925l-1.267-1.574 1.572-1.128zm2.51 21.494l-1.524 1.268-1.22-1.41 1.665-8.62 1.69-1.292 1.032 1.268-1.642 8.786zm2.277-11.957l-1.525 1.269-1.22-1.41 1.22-6.201h2.698l-1.173 6.342zm6.241 13.225l-1.173-1.41.75-4.087.376-1.832c.54-3.1.54-2.443 2.065-3.829 0 0 .47.54 1.08 1.316l-1.55 8.574-1.548 1.268zm4.388-20.225l.516.611-1.173 6.225-1.572 1.315c-1.361-1.574-.962-1.879-.657-3.735l.516-2.865c.258-1.386.47-1.55 1.525-2.49l.845.94zm-.774 9.937l-.634-.752-.446-.564.798-.681.821-.681h6.711l.657.751.47.564-.752.658-.844.705h-6.781zm8.587-9.772h-6.898l-1.267-1.504c1.408-1.221 1.126-1.174 3.613-1.174h3.473c2.253 0 1.736-.118 2.863 1.221-.516.423-1.784 1.457-1.784 1.457zm.118 8.95c.891.986 1.15 1.22 1.032 1.95-.14.68-.328 1.737-.328 1.737l-1.15 6.178-1.525 1.269-1.22-1.41 1.642-8.386 1.549-1.339zm-.822-2.655l1.103-5.849L97.4 6.648c.938 1.104.727.845.868 1.433.023.14-.282 1.597-.376 2.043l-.305 1.668c-.469 2.678-.399 2.513-2.064 3.852l-1.103-1.292.094-.399zm8.424 3.947l-1.244 6.506-1.642 1.386s-.54-.658-.727-.87c-.047-.164-.165-.305-.141-.868 0-.376.164-1.433.234-1.81l.376-1.831c.563-3.1.563-2.443 2.088-3.83 0-.023.446.518 1.056 1.316zm6.523 7.446l.704.845c-1.455 1.222-1.502 1.128-3.778 1.128h-3.613c-1.69 0-1.291.117-2.37-1.151 0 0 1.783-1.527 1.83-1.527h6.664l.563.705zm-5.232-17.853l.539.611-1.22 6.225-1.549 1.292c-1.314-1.574-.938-1.88-.61-3.735l.517-2.866c.258-1.386.445-1.55 1.525-2.49l.798.963zm7.836.165h-6.851l-1.291-1.527c1.408-1.222 1.127-1.175 3.637-1.175h3.426c2.253 0 1.783-.117 2.91 1.222a236.21 236.21 0 00-1.831 1.48zm-3.543 9.772l-1.29-1.527c1.408-1.222 1.126-1.151 3.637-1.151h2.628l-3.262 2.678h-1.713zm2.112 8.409l-1.173-1.433.751-4.134.422-2.35 3.121-2.513-1.267 7.047c-.493 2.937-.235 1.974-1.854 3.383zm5.467-5.449c.563-3.125.54-2.444 2.065-3.83 0 0 .446.54 1.079 1.316l-1.22 6.342-3.144 2.514s.798-4.135.868-4.51l.352-1.833zm8.705 6.905s-1.102.024-2.135.024h-7.438l3.262-2.678h6.663l1.267 1.55-1.619 1.104zm-4.153-20.013l.47.54-1.268 6.53-1.548 1.292c-1.361-1.574-1.009-1.855-.657-3.735l.54-2.865.703-3.688 1.76 1.926zm-.915 10.148l-.61-.752-.469-.564.821-.681.821-.681h6.734l.611.751.516.564-.751.658-.868.705h-6.805zm8.588-9.772h-6.5l-2.369-2.702h9.69l.986 1.222-1.807 1.48zm12.154 18.792l-1.525 1.268-1.173-1.41 1.642-8.62 1.713-1.292 1.033 1.268-1.69 8.786zm2.276-11.957l-1.525 1.269-1.173-1.41 1.525-8.057 1.689-1.41 1.033 1.293-1.549 8.315zm3.707-8.033l3.684 6.506-.516 2.209h-1.431l-3.684-6.719.375-1.996h1.572zm4.365 19.99l-1.525 1.268-1.174-1.41 1.643-8.503 1.666-1.409 1.079 1.268-1.689 8.786zm2.276-11.957l-1.572 1.269-1.127-1.316 1.526-8.174 1.665-1.41 1.08 1.292-1.572 8.34zm6.147 3.407l-1.22 6.506-1.595 1.362s-.517-.61-.704-.845c-.047-.165-.258-.306-.188-.87 0-.375.164-1.432.235-1.808l.375-1.832c.563-3.101.563-2.443 2.088-3.83-.023-.023.423.518 1.009 1.316zm6.57 7.446l.704.845c-1.455 1.222-1.502 1.128-3.778 1.128h-3.589c-1.69 0-1.291.117-2.37-1.151 0 0 1.783-1.527 1.83-1.527h6.593l.61.705zm-5.866-10.853l-1.525 1.269-1.173-1.41 1.525-8.057 1.689-1.41 1.033 1.293-1.549 8.315zm8.87 7.963c-.446 2.49-.258 1.974-1.854 3.383l-1.173-1.433.751-4.134.422-2.35 1.549-1.315c.938.987 1.149 1.222 1.032 1.95-.117.681-.328 1.738-.328 1.738l-.399 2.161zm1.478-7.963l-1.572 1.269-1.127-1.292 1.526-8.175 1.666-1.41 1.079 1.293-1.572 8.315zm3.426 13.225l-1.174-1.41.751-4.087.376-1.832c.563-3.1.563-2.443 2.088-3.829 0 0 .446.54 1.079 1.316l-1.572 8.574-1.548 1.268zm4.387-20.225l.516.611-1.173 6.225-1.548 1.292c-1.314-1.574-.939-1.88-.657-3.735l.539-2.866c.258-1.386.446-1.55 1.526-2.49l.797.963zm7.814.165h-6.875l-1.291-1.527c1.408-1.222 1.127-1.175 3.637-1.175h3.426c2.252 0 1.783-.117 2.909 1.222-.539.446-1.806 1.48-1.806 1.48zm-3.144 5.896l-1.549 1.292-1.173-1.41 1.009-5.144h2.698l-.985 5.262zm3.261 3.053c.939.987 1.15 1.222 1.032 1.95-.117.681-.328 1.738-.328 1.738l-1.15 6.178-1.525 1.269-1.173-1.41 1.595-8.386 1.549-1.339zm-.821-2.654l1.103-5.849 1.806-1.456c.892 1.104.728.845.845 1.433.024.14-.282 1.597-.375 2.043l-.305 1.668c-.47 2.678-.399 2.513-2.018 3.852l-1.103-1.292.047-.399zm5.936 6.437c.563-3.125.54-2.444 2.065-3.83 0 0 .446.54 1.079 1.316l-1.22 6.342-3.144 2.514s.798-4.135.868-4.51l.352-1.833zm8.729 6.905s-1.103.024-2.135.024h-7.439l3.262-2.678h6.664l1.267 1.55-1.619 1.104zm-4.177-20.013l.469.54-1.267 6.53-1.548 1.292c-1.361-1.574-1.009-1.855-.657-3.735l.539-2.865.704-3.688 1.76 1.926zm-.891 10.148l-.634-.752-.469-.564.821-.681.821-.681h6.734l.61.751.517.564-.751.658-.868.704h-6.781zm8.564-9.772h-6.5l-2.369-2.702h9.69l.986 1.222-1.807 1.48zm-2.628-7.54c.328-.141.704-.118 1.009-.118h1.947l-2.51 2.302c-.305.329-.587.681-1.009.846-.329.117-.704.094-1.009.094h-1.948L199.725.94c.328-.353.61-.682 1.032-.823zm6.734 16.442s.446.54 1.079 1.316l-1.595 8.574-1.525 1.268-1.174-1.41 1.15-5.919c.634-3.43.54-2.443 2.065-3.829zm2.464-9.278l.516.54-1.291 6.53-1.548 1.292c-1.314-1.574-1.009-1.855-.657-3.735l.563-2.865.704-3.688 1.713 1.926zm-.868 10.148l-.657-.752-.446-.564.798-.681.821-.681h6.71l.657.751.47.564-.751.658-.845.704h-6.757zm8.587-9.772h-6.499l-2.393-2.702h7.79c2.252 0 1.783-.117 2.909 1.222-.54.446-1.807 1.48-1.807 1.48zm-2.205 19.66l-6.664-7.657.329-1.527h1.665l6.547 7.447-.376 1.738h-1.501zm1.501-13.365l1.103-5.849 1.807-1.456c.892 1.104.727.845.845 1.433.023.14-.282 1.597-.376 2.043l-.305 1.668c-.469 2.678-.399 2.513-2.018 3.852l-1.102-1.292.046-.399zm7.063 12.497l-1.549 1.268-1.173-1.41 1.643-8.667 1.736-1.292 1.032 1.268-1.689 8.833zm2.276-12.027l-1.525 1.268-1.173-1.41 1.525-8.103 1.689-1.41 1.033 1.269-1.549 8.386zm6.241 3.477l-1.22 6.506-1.595 1.362s-.516-.61-.704-.845c-.047-.165-.258-.306-.188-.87 0-.375.164-1.432.235-1.808l.375-1.832c.563-3.1.563-2.443 2.089-3.83-.047-.023.398.518 1.008 1.316zm1.197 9.419h-1.29c-1.69 0-1.291.117-2.37-1.151 0 0 1.783-1.527 1.83-1.527h4.411l1.314 1.503c-1.431 1.222-1.619 1.175-3.895 1.175zm.117-19.826l.517.611-1.174 6.225-1.548 1.292c-1.361-1.574-.939-1.88-.657-3.735l.54-2.866c.234-1.386.445-1.55 1.525-2.49l.797.963zm7.814.165h-6.898l-1.268-1.527c1.408-1.222 1.127-1.175 3.637-1.175h3.426c2.253 0 1.783-.117 2.91 1.222-.54.446-1.807 1.48-1.807 1.48zm-2.487 15.41l2.839 3.264-.422 1.668h-1.596l-2.956-3.477.375-1.456h1.76zm3.308-2.679c-.446 2.443-.258 1.973-1.854 3.383l-1.173-1.363.376-2.16.422-2.35 1.549-1.315c.938.986 1.149 1.221 1.032 1.95-.117.68-.305 1.644-.305 1.644l-.047.211zm-1.525-6.436l1.103-5.849 1.807-1.456c.891 1.104.727.845.844 1.433.024.14-.281 1.597-.375 2.043l-.305 1.668c-.47 2.678-.399 2.513-2.018 3.852l-1.103-1.292.047-.399zm8.423 3.947l-1.22 6.506-1.595 1.362s-.516-.61-.704-.845c-.047-.165-.258-.306-.188-.87 0-.375.164-1.432.235-1.808l.375-1.832c.563-3.101.563-2.443 2.089-3.83-.024-.023.422.518 1.008 1.316zm6.57 7.446l.704.845c-1.454 1.222-1.501 1.128-3.777 1.128h-3.59c-1.69 0-1.291.117-2.37-1.151 0 0 1.783-1.527 1.83-1.527h6.593l.61.705zm-5.866-10.853l-1.525 1.269-1.173-1.41 1.525-8.057 1.69-1.41 1.032 1.293-1.549 8.315zm8.87 7.963c-.446 2.49-.258 1.974-1.854 3.383l-1.173-1.433.751-4.134.422-2.35 1.549-1.315c.938.987 1.149 1.222 1.032 1.95-.117.681-.328 1.738-.328 1.738l-.399 2.161zm1.501-7.963l-1.572 1.269-1.126-1.292 1.525-8.175 1.666-1.41 1.08 1.293-1.573 8.315zm3.497 5.897c.563-3.125.539-2.444 2.064-3.83 0 0 .446.54 1.08 1.316l-1.22 6.342-3.145 2.514s.798-4.135.869-4.51l.352-1.833zm8.728 6.905s-1.103.024-2.135.024h-7.438l3.261-2.678h6.664l1.267 1.55-1.619 1.104zm-4.176-20.013l.469.54-1.267 6.53-1.549 1.292c-1.361-1.574-1.009-1.855-.657-3.735l.54-2.865.704-3.688 1.76 1.926zm-.892 10.148l-.61-.752-.469-.564.821-.681.821-.681h6.734l.61.751.516.564-.75.658-.869.705h-6.804zm8.588-9.772h-6.5l-2.37-2.702h9.691l.985 1.222-1.806 1.48z"/></g><defs><clipPath id="clip0"><path fill="#fff" d="M0 0h278v28H0z"/></clipPath></defs></svg>