<svg xmlns="http://www.w3.org/2000/svg" viewBox="0 0 394.48 394.48"><path d="M394.48,197.24A197.05,197.05,0,0,1,205.09,394.33q-3.9.15-7.85.15C88.3,394.48,0,306.17,0,197.24S88.3,0,197.24,0,394.48,88.31,394.48,197.24Z" fill="#fff"/><path class="facebook" d="M256.55,162v35.28h54.72l-7.13,55.26H256.55V385.4a196.49,196.49,0,0,1-51.46,8.93h-5.6V252.54H151.78V197.28h47.71V156.53c0-47.29,28.88-73,71.07-73a392.06,392.06,0,0,1,42.64,2.18v49.42H283.94C261,135.1,256.55,146,256.55,162Z" fill="#212121"/></svg>