<svg xmlns="http://www.w3.org/2000/svg" viewBox="0 0 394.48 394.48"><circle cx="197.24" cy="197.24" r="197.24" fill="#fff"/><path d="M267.24,83.5h-140A43.56,43.56,0,0,0,83.5,127.25v140A43.57,43.57,0,0,0,127.24,311h140A43.58,43.58,0,0,0,311,267.24v-140A43.57,43.57,0,0,0,267.24,83.5Zm12.64,26.25h4.86v38.88H245.85V109.75ZM165.16,173.91c6.8-9.72,19.44-16.53,32.08-16.53s25.28,6.81,32.08,16.53a39.5,39.5,0,0,1,7.78,23.33,39.86,39.86,0,1,1-79.72,0A39.57,39.57,0,0,1,165.16,173.91Zm123.47,93.33a21.58,21.58,0,0,1-21.39,21.39h-140a21.57,21.57,0,0,1-21.38-21.39V173.91h34A62.7,62.7,0,0,0,135,197.24c0,34,28.2,62.22,62.22,62.22s62.22-28.19,62.22-62.22a62.46,62.46,0,0,0-4.86-23.33h34v93.33Z" fill="#212121"/></svg>