<svg xmlns="http://www.w3.org/2000/svg" viewBox="0 0 530.92 171.43"><polygon points="277.5 3.31 277.5 22.16 309.63 22.16 309.63 95.98 328.51 95.98 328.51 22.16 360.69 22.16 360.69 3.31 277.5 3.31" fill="#fff"/><polygon points="226.65 3.31 186.1 95.98 205.54 95.98 238.02 21.78 270.59 95.98 290.01 95.98 249.55 3.31 226.65 3.31" fill="#fff"/><path d="M66.47,66.79c0,4.15,0,24.3-20.78,24.3S25,70.91,25,66.79V10H5.77V67c0,41.84,39.92,39.11,39.92,39.11S85.6,108.8,85.6,67V10H66.47Z" transform="translate(-5.77 -6.33)" fill="#fff"/><path d="M144.71,6.37S104.8,3.63,104.8,45.47V66.84c0,30.26,20.85,37.21,32.41,38.73l7.46-17,17,38.54h19.42l-11.93-27.4c8.29-5.31,15.5-15,15.5-32.83V45.47C184.62,3.63,144.71,6.37,144.71,6.37Zm20.78,60.31c0,2.35,0,9.87-3.81,15.93L156.2,70.05H133.3l-5.5,12.58C124,76.56,124,69,124,66.68V45c0-5.07,0-23.65,20.73-23.65S165.49,39.92,165.49,45Z" transform="translate(-5.77 -6.33)" fill="#fff"/><path d="M199.32,147.22a9.3,9.3,0,0,1-3.19-.49,6.11,6.11,0,0,1-2.26-1.35,5.35,5.35,0,0,1-1.33-2.06,7.11,7.11,0,0,1-.44-2.57V127.63h3v13.09a4.3,4.3,0,0,0,.43,2.05,3.56,3.56,0,0,0,1.07,1.25,3.9,3.9,0,0,0,1.39.64,5.13,5.13,0,0,0,2.25.1,4.59,4.59,0,0,0,.95-.25,4,4,0,0,0,.91-.49,3.3,3.3,0,0,0,.78-.76,3.42,3.42,0,0,0,.54-1.08,4.86,4.86,0,0,0,.2-1.46V127.63h3v13.12a7.34,7.34,0,0,1-.44,2.57,5.37,5.37,0,0,1-1.34,2.06,6,6,0,0,1-2.25,1.35A9.42,9.42,0,0,1,199.32,147.22Z" transform="translate(-5.77 -6.33)" fill="#fff"/><path d="M224.71,146.79h-3.06c-.91-1.52-1.8-3-2.69-4.55s-1.77-3-2.65-4.59c-.27-.44-.54-.91-.82-1.39s-.57-1-.85-1.52-.56-1.07-.82-1.65a17.09,17.09,0,0,1-.69-1.79c.1.8.2,1.69.28,2.66s.12,2,.12,3.08v9.75h-2.91V127.63h3l.53.87c.74,1.21,1.48,2.43,2.21,3.67s1.44,2.48,2.12,3.71,1.32,2.44,1.92,3.64,1.14,2.34,1.6,3.45q-.11-1.12-.18-2.31c-.05-.79-.08-1.51-.08-2.15V127.63h3Z" transform="translate(-5.77 -6.33)" fill="#fff"/><path d="M229.46,146.79V127.63h2.95v19.16Z" transform="translate(-5.77 -6.33)" fill="#fff"/><path d="M245.26,146.82h-3.69l-6.51-19.19h3.31l3.76,12q.18.57.36,1.23c.11.44.23.88.35,1.33s.22.88.32,1.32.2.85.28,1.23c.09-.41.18-.84.28-1.31s.2-.92.31-1.38.21-.89.32-1.31.22-.79.33-1.11l3.74-12h3Z" transform="translate(-5.77 -6.33)" fill="#fff"/><path d="M254.09,146.79V127.63h12.07v2.49H257v5.39h7.14V138H257v6.3h9.81v2.49Z" transform="translate(-5.77 -6.33)" fill="#fff"/><path d="M284.16,146.79h-3.55l-4.29-6.33c-.2-.31-.4-.6-.58-.89l-.54-.85h-2.27v8.07H270V127.86c.52-.08,1.08-.15,1.68-.22l1.78-.16c.66,0,1.35-.07,2.09-.07a8.78,8.78,0,0,1,3,.46,6.05,6.05,0,0,1,2.07,1.21,4.61,4.61,0,0,1,1.19,1.71,5.26,5.26,0,0,1,.37,1.94,7.4,7.4,0,0,1-.2,1.75,5.53,5.53,0,0,1-.68,1.65,5.05,5.05,0,0,1-1.24,1.38,5.47,5.47,0,0,1-1.91.91l1.15,1.6c.14.21.3.43.45.64l.44.61.37.52c.11.15.19.27.26.35Zm-8.48-10.56a5.39,5.39,0,0,0,1.68-.22,2.59,2.59,0,0,0,1.09-.63,2.43,2.43,0,0,0,.58-1,4.91,4.91,0,0,0,.18-1.4,3.6,3.6,0,0,0-.2-1.14,3,3,0,0,0-.65-1.05,3.44,3.44,0,0,0-1.15-.76,4.37,4.37,0,0,0-1.71-.29c-.4,0-.83,0-1.26,0l-1.31.12v6.35Z" transform="translate(-5.77 -6.33)" fill="#fff"/><path d="M290.86,147.22A8.1,8.1,0,0,1,289,147a10.92,10.92,0,0,1-1.7-.56,12.58,12.58,0,0,1-1.47-.73,10.36,10.36,0,0,1-1.12-.74L286,143a9.79,9.79,0,0,0,.92.61,10.45,10.45,0,0,0,1.16.58,9,9,0,0,0,1.3.44,5.69,5.69,0,0,0,1.36.17,5.15,5.15,0,0,0,1.43-.19,3.48,3.48,0,0,0,1.18-.56,2.77,2.77,0,0,0,.81-1,3.13,3.13,0,0,0,.3-1.42,1.9,1.9,0,0,0-.39-1.18,4.47,4.47,0,0,0-1-.95,10.72,10.72,0,0,0-1.44-.84l-1.66-.82c-.56-.29-1.11-.6-1.65-.94a7.28,7.28,0,0,1-1.45-1.17,5.24,5.24,0,0,1-1-1.5,4.78,4.78,0,0,1-.39-1.95,5.25,5.25,0,0,1,.38-2,4.33,4.33,0,0,1,1.12-1.64,5.44,5.44,0,0,1,1.9-1.12,7.87,7.87,0,0,1,2.71-.42,7.56,7.56,0,0,1,2.41.39,11.26,11.26,0,0,1,2.26,1.05l-1.2,2a9.07,9.07,0,0,0-1.23-.56,10.12,10.12,0,0,0-1-.32,5.73,5.73,0,0,0-.78-.13l-.56,0a4.05,4.05,0,0,0-1.31.2,2.85,2.85,0,0,0-1,.57,2.35,2.35,0,0,0-.6.85,2.91,2.91,0,0,0-.2,1.07,2.1,2.1,0,0,0,.39,1.27,4.19,4.19,0,0,0,1,1,10.14,10.14,0,0,0,1.44.85l1.65.82c.56.28,1.12.59,1.66.91A7.65,7.65,0,0,1,296,138.2a5.28,5.28,0,0,1,1,1.45,4.39,4.39,0,0,1,.39,1.9,5.28,5.28,0,0,1-1.66,4.21A7.16,7.16,0,0,1,290.86,147.22Z" transform="translate(-5.77 -6.33)" fill="#fff"/><path d="M300.19,146.79V127.63h2.94v19.16Z" transform="translate(-5.77 -6.33)" fill="#fff"/><path d="M305.94,127.63h13.95v2.49h-5.55v16.67H311.4V130.12h-5.46Z" transform="translate(-5.77 -6.33)" fill="#fff"/><path d="M322.68,146.79V127.63h12.08v2.49h-9.17v5.39h7.14V138h-7.14v6.3h9.81v2.49Zm10.16-24.66-3.8,3.93h-2.3l3.05-3.93Z" transform="translate(-5.77 -6.33)" fill="#fff"/><path d="M351,147.22c-.73,0-1.43,0-2.11-.07L347,147c-.64-.07-1.24-.14-1.82-.23V127.86c.53-.08,1.11-.15,1.74-.22l1.86-.16c.7,0,1.45-.07,2.26-.07a11.79,11.79,0,0,1,4.31.71,7.56,7.56,0,0,1,2.94,2,8.07,8.07,0,0,1,1.68,3.06,13.65,13.65,0,0,1,.53,4,13.88,13.88,0,0,1-.55,4,8.6,8.6,0,0,1-1.72,3.2,8,8,0,0,1-3,2.12A10.94,10.94,0,0,1,351,147.22Zm-.22-17.48c-.5,0-1,0-1.41,0s-.85.06-1.23.11v14.86l1.37.11c.49,0,1,0,1.62,0a6.78,6.78,0,0,0,2.66-.49,5.24,5.24,0,0,0,2-1.47,6.85,6.85,0,0,0,1.28-2.43,11.79,11.79,0,0,0,.44-3.38q0-3.69-1.68-5.54A6.48,6.48,0,0,0,350.75,129.74Z" transform="translate(-5.77 -6.33)" fill="#fff"/><path d="M370.54,147.22a9.3,9.3,0,0,1-3.19-.49,6.11,6.11,0,0,1-2.26-1.35,5.49,5.49,0,0,1-1.34-2.06,7.33,7.33,0,0,1-.43-2.57V127.63h3v13.09a4.3,4.3,0,0,0,.43,2.05,3.56,3.56,0,0,0,1.07,1.25,3.9,3.9,0,0,0,1.39.64,5.13,5.13,0,0,0,2.25.1,4.76,4.76,0,0,0,.95-.25,4,4,0,0,0,.91-.49,3.3,3.3,0,0,0,.78-.76,3.42,3.42,0,0,0,.54-1.08,4.86,4.86,0,0,0,.2-1.46V127.63h3v13.12a7.33,7.33,0,0,1-.43,2.57,5.49,5.49,0,0,1-1.34,2.06,6.15,6.15,0,0,1-2.25,1.35A9.42,9.42,0,0,1,370.54,147.22Z" transform="translate(-5.77 -6.33)" fill="#fff"/><path d="M395.87,127.18a9.23,9.23,0,0,1,3.88.75,7.35,7.35,0,0,1,2.72,2.09,8.62,8.62,0,0,1,1.59,3.14,14.09,14.09,0,0,1,.52,3.93,15.09,15.09,0,0,1-.36,3.35,10.31,10.31,0,0,1-1.1,2.86,7.83,7.83,0,0,1-1.87,2.21,7.33,7.33,0,0,1-2.66,1.34c.17.23.34.44.52.65a2.92,2.92,0,0,0,.59.53,6.83,6.83,0,0,0,1.68.8,6.23,6.23,0,0,0,2,.29l-.08,2.51c-.38,0-.8-.07-1.23-.13a13.33,13.33,0,0,1-1.34-.28,11.52,11.52,0,0,1-1.36-.47,7.88,7.88,0,0,1-1.28-.7,9.57,9.57,0,0,1-1.55-1.34,8,8,0,0,1-1.12-1.52,8.54,8.54,0,0,1-3.69-.89,7.54,7.54,0,0,1-2.58-2.16,9.43,9.43,0,0,1-1.5-3.16,14.65,14.65,0,0,1-.49-3.89,14.09,14.09,0,0,1,.52-3.93,8.78,8.78,0,0,1,1.59-3.14,7.32,7.32,0,0,1,2.71-2.09A9.31,9.31,0,0,1,395.87,127.18Zm0,17.66a5.25,5.25,0,0,0,2.46-.56,5,5,0,0,0,1.77-1.57,7.46,7.46,0,0,0,1.07-2.44,13,13,0,0,0,.36-3.18,12.75,12.75,0,0,0-.35-3.07,7.11,7.11,0,0,0-1.07-2.38,4.82,4.82,0,0,0-1.77-1.53,5.82,5.82,0,0,0-4.94,0,4.82,4.82,0,0,0-1.77,1.53,6.91,6.91,0,0,0-1.06,2.38,12.26,12.26,0,0,0-.36,3.07,13,13,0,0,0,.36,3.18,7.46,7.46,0,0,0,1.07,2.44,5,5,0,0,0,1.77,1.57A5.25,5.25,0,0,0,395.87,144.84Z" transform="translate(-5.77 -6.33)" fill="#fff"/><path d="M414.61,147.22a9.3,9.3,0,0,1-3.19-.49,6.11,6.11,0,0,1-2.26-1.35,5.35,5.35,0,0,1-1.33-2.06,7.11,7.11,0,0,1-.44-2.57V127.63h3v13.09a4.3,4.3,0,0,0,.43,2.05,3.56,3.56,0,0,0,1.07,1.25,3.9,3.9,0,0,0,1.39.64,5.13,5.13,0,0,0,2.25.1,4.76,4.76,0,0,0,.95-.25,4,4,0,0,0,.91-.49,3.3,3.3,0,0,0,.78-.76,3.42,3.42,0,0,0,.54-1.08,4.86,4.86,0,0,0,.2-1.46V127.63h3v13.12a7.33,7.33,0,0,1-.43,2.57,5.49,5.49,0,0,1-1.34,2.06,6.06,6.06,0,0,1-2.25,1.35A9.42,9.42,0,0,1,414.61,147.22Z" transform="translate(-5.77 -6.33)" fill="#fff"/><path d="M425.91,146.79V127.63H438v2.49h-9.16v5.39H436V138h-7.14v6.3h9.81v2.49Zm10.16-24.66-3.8,3.93H430l3-3.93Z" transform="translate(-5.77 -6.33)" fill="#fff"/><path d="M441.84,127.86c.56-.08,1.15-.15,1.78-.22l1.84-.16c.69,0,1.4-.07,2.15-.07a9.4,9.4,0,0,1,2.75.36,5.87,5.87,0,0,1,2,1,4,4,0,0,1,1.17,1.52,4.77,4.77,0,0,1,.39,1.94,6.44,6.44,0,0,1-.13,1.24,5.2,5.2,0,0,1-.45,1.19,4.46,4.46,0,0,1-.8,1.07,5,5,0,0,1-1.2.88,5.79,5.79,0,0,1,1.62.76,4.61,4.61,0,0,1,1.11,1.09,4.44,4.44,0,0,1,.65,1.33,5.47,5.47,0,0,1,.2,1.46,6.08,6.08,0,0,1-.42,2.25,5.26,5.26,0,0,1-1.32,1.91,6.17,6.17,0,0,1-2.26,1.32,9.71,9.71,0,0,1-3.28.5c-.75,0-1.46,0-2.15-.07l-1.84-.15c-.63-.07-1.22-.14-1.78-.23Zm5.56,7.73a5.5,5.5,0,0,0,1.64-.21,2.94,2.94,0,0,0,1.08-.59,2.26,2.26,0,0,0,.58-.93,4.21,4.21,0,0,0,.17-1.21,3.78,3.78,0,0,0-.17-1.11,2.43,2.43,0,0,0-.58-.94,3,3,0,0,0-1.08-.66,4.58,4.58,0,0,0-1.64-.26c-.42,0-.84,0-1.29.06s-.9.08-1.36.14v5.71Zm.08,9.38a5.66,5.66,0,0,0,1.94-.29,3.87,3.87,0,0,0,1.36-.81,3.2,3.2,0,0,0,.8-1.22,4.24,4.24,0,0,0,.26-1.49,3.44,3.44,0,0,0-.25-1.36,2.65,2.65,0,0,0-.73-1,3.22,3.22,0,0,0-1.13-.65,4.41,4.41,0,0,0-1.45-.22h-3.53v6.89c.43.05.88.09,1.34.12S447,145,447.48,145Z" transform="translate(-5.77 -6.33)" fill="#fff"/><path d="M458.39,146.79V127.63h12.08v2.49H461.3v5.39h7.14V138H461.3v6.3h9.81v2.49Z" transform="translate(-5.77 -6.33)" fill="#fff"/><path d="M481.78,144.84a6.94,6.94,0,0,0,1.38-.14,7.73,7.73,0,0,0,1.26-.38,9.17,9.17,0,0,0,1.09-.5,8.23,8.23,0,0,0,.87-.56l1.31,1.79c-.32.24-.68.49-1.08.74a10.3,10.3,0,0,1-1.33.7,9.37,9.37,0,0,1-1.6.52,8.19,8.19,0,0,1-1.9.21,8.81,8.81,0,0,1-3.88-.79,7.61,7.61,0,0,1-2.72-2.15,9.16,9.16,0,0,1-1.59-3.22,14.44,14.44,0,0,1-.52-4,14.09,14.09,0,0,1,.52-3.93,8.78,8.78,0,0,1,1.59-3.14,7.35,7.35,0,0,1,2.72-2.09,9.26,9.26,0,0,1,3.88-.75,8.19,8.19,0,0,1,1.9.21,10.35,10.35,0,0,1,1.6.53,8.3,8.3,0,0,1,1.33.7q.6.38,1.08.72l-1.31,1.79a8.25,8.25,0,0,0-.87-.55,7.84,7.84,0,0,0-1.09-.51,8.87,8.87,0,0,0-1.26-.37,6.94,6.94,0,0,0-1.38-.14,5.26,5.26,0,0,0-2.47.55,4.82,4.82,0,0,0-1.77,1.53,7.32,7.32,0,0,0-1.07,2.38,12.27,12.27,0,0,0-.35,3.07,13,13,0,0,0,.36,3.18,7.46,7.46,0,0,0,1.07,2.44,5,5,0,0,0,1.77,1.57A5.25,5.25,0,0,0,481.78,144.84Z" transform="translate(-5.77 -6.33)" fill="#fff"/><path d="M192.8,177.33V158.17h12.07v2.49h-9.16V166h7.14v2.5h-7.14v6.3h9.81v2.49Z" transform="translate(-5.77 -6.33)" fill="#fff"/><path d="M222.82,177.33h-3q-1.36-2.28-2.7-4.55c-.88-1.52-1.77-3-2.65-4.59-.27-.44-.54-.91-.82-1.39s-.57-1-.85-1.52-.55-1.08-.81-1.65a16.6,16.6,0,0,1-.69-1.79c.1.8.19,1.68.27,2.66s.12,2,.12,3.08v9.75h-2.91V158.17h3l.53.88c.74,1.2,1.48,2.42,2.21,3.66s1.45,2.47,2.12,3.71,1.32,2.44,1.93,3.63,1.13,2.35,1.6,3.46c-.08-.75-.14-1.52-.19-2.31s-.07-1.51-.07-2.16V158.17h2.94Z" transform="translate(-5.77 -6.33)" fill="#fff"/><path d="M248.81,177.33h-3L244.26,173h-7.94l-1.49,4.36h-3.05l7-19.19h3.37Zm-8.48-17.19c-.15.54-.33,1.18-.54,1.91s-.45,1.53-.71,2.41-.55,1.81-.87,2.8-.65,2-1,3.1h6.19c-.83-2.47-1.48-4.54-2-6.23S240.58,161.11,240.33,160.14Z" transform="translate(-5.77 -6.33)" fill="#fff"/><path d="M251.19,158.4c.55-.08,1.15-.15,1.77-.22l1.84-.16c.69,0,1.41-.07,2.16-.07a9.45,9.45,0,0,1,2.75.36,5.73,5.73,0,0,1,2,1,4,4,0,0,1,1.18,1.52,4.7,4.7,0,0,1,.39,1.94,5.66,5.66,0,0,1-.14,1.23,4.61,4.61,0,0,1-.44,1.19,4.84,4.84,0,0,1-.81,1.08,4.66,4.66,0,0,1-1.2.88,5.52,5.52,0,0,1,1.62.76,4.38,4.38,0,0,1,1.76,2.41,5.21,5.21,0,0,1,.2,1.47,6.15,6.15,0,0,1-.42,2.25,5.23,5.23,0,0,1-1.31,1.91,6.44,6.44,0,0,1-2.27,1.32,9.66,9.66,0,0,1-3.27.49q-1.12,0-2.16-.06l-1.84-.15c-.62-.07-1.22-.14-1.77-.24Zm5.55,7.73a5.52,5.52,0,0,0,1.65-.21,2.7,2.7,0,0,0,1.07-.6,2,2,0,0,0,.58-.93,3.78,3.78,0,0,0,.17-1.2,3.44,3.44,0,0,0-.17-1.11,2.25,2.25,0,0,0-.58-1,3.2,3.2,0,0,0-1.07-.66,4.86,4.86,0,0,0-1.65-.25c-.41,0-.84,0-1.29.05l-1.35.14v5.72Zm.08,9.38a5.91,5.91,0,0,0,1.94-.29,3.87,3.87,0,0,0,1.36-.81,3.28,3.28,0,0,0,.8-1.22,4.06,4.06,0,0,0,.26-1.49,3.44,3.44,0,0,0-.25-1.36,2.86,2.86,0,0,0-.72-1,3.29,3.29,0,0,0-1.13-.64,4.45,4.45,0,0,0-1.45-.23H254.1v6.9c.43.05.87.09,1.33.12S256.35,175.51,256.82,175.51Z" transform="translate(-5.77 -6.33)" fill="#fff"/><path d="M267.74,177.33V158.17h2.94v19.16Z" transform="translate(-5.77 -6.33)" fill="#fff"/><path d="M273.48,158.17h13.95v2.49h-5.55v16.67h-2.94V160.66h-5.46Z" transform="translate(-5.77 -6.33)" fill="#fff"/><path d="M290.22,177.33V158.17h2.94v19.16Z" transform="translate(-5.77 -6.33)" fill="#fff"/><path d="M297.92,158.4c.56-.08,1.15-.15,1.78-.22s1.15-.11,1.84-.16,1.41-.07,2.15-.07a9.4,9.4,0,0,1,2.75.36,5.7,5.7,0,0,1,2,1,4,4,0,0,1,1.17,1.52,4.7,4.7,0,0,1,.39,1.94,5.65,5.65,0,0,1-.13,1.23,4.29,4.29,0,0,1-.45,1.19,4.51,4.51,0,0,1-.8,1.08,5,5,0,0,1-1.2.88,5.52,5.52,0,0,1,1.62.76,4.43,4.43,0,0,1,1.11,1.09,4.28,4.28,0,0,1,.65,1.32,5.6,5.6,0,0,1,.2,1.47,6.15,6.15,0,0,1-.42,2.25,5.26,5.26,0,0,1-1.32,1.91,6.31,6.31,0,0,1-2.26,1.32,9.72,9.72,0,0,1-3.28.49c-.74,0-1.46,0-2.15-.06l-1.84-.15c-.63-.07-1.22-.14-1.78-.24Zm5.56,7.73a5.5,5.5,0,0,0,1.64-.21,2.67,2.67,0,0,0,1.08-.6,2,2,0,0,0,.58-.93,4.09,4.09,0,0,0,.17-1.2,3.73,3.73,0,0,0-.17-1.11,2.35,2.35,0,0,0-.58-1,3.15,3.15,0,0,0-1.08-.66,4.84,4.84,0,0,0-1.64-.25c-.41,0-.84,0-1.29.05l-1.35.14v5.72Zm.08,9.38a5.91,5.91,0,0,0,1.94-.29,3.87,3.87,0,0,0,1.36-.81,3.28,3.28,0,0,0,.8-1.22,4.28,4.28,0,0,0,.26-1.49,3.44,3.44,0,0,0-.25-1.36,2.77,2.77,0,0,0-.73-1,3.25,3.25,0,0,0-1.12-.64,4.5,4.5,0,0,0-1.45-.23h-3.53v6.9c.42.05.87.09,1.33.12S303.09,175.51,303.56,175.51Z" transform="translate(-5.77 -6.33)" fill="#fff"/><path d="M314.47,177.33V158.17h2.94v19.16Z" transform="translate(-5.77 -6.33)" fill="#fff"/><path d="M320.19,168.38h6.24v2.17h-6.24Z" transform="translate(-5.77 -6.33)" fill="#fff"/><path d="M327.25,158.17H341.2v2.49h-5.55v16.67h-2.94V160.66h-5.46Z" transform="translate(-5.77 -6.33)" fill="#fff"/><path d="M344,177.33V158.17h12.08v2.49H346.9V166H354v2.5H346.9v6.3h9.81v2.49Zm10.16-24.66-3.8,3.93h-2.3l3.05-3.93Z" transform="translate(-5.77 -6.33)" fill="#fff"/><path d="M377.86,158.17l.8,19.16h-2.83l-.24-6.63q-.07-1.45-.09-3c0-1,0-2,0-3,0-.48,0-1,0-1.41s0-.9,0-1.32c-.14.58-.31,1.22-.51,1.89s-.41,1.4-.65,2.15-.5,1.53-.79,2.33-.6,1.62-.93,2.45l-2.7,6.58h-2.68l-2.19-5.71c-.28-.74-.56-1.51-.82-2.33s-.52-1.65-.76-2.48-.46-1.66-.67-2.47-.4-1.56-.58-2.28c0,.66.06,1.35.09,2.06s.05,1.45.05,2.23c0,.22,0,.45,0,.68s0,.44,0,.66l-.27,9.64h-2.83l.86-19.16h3.09l3.08,8.58c.66,1.85,1.2,3.43,1.6,4.73s.7,2.38.89,3.25c.23-1,.57-2.19,1-3.58s1-2.9,1.64-4.52l3.39-8.46Z" transform="translate(-5.77 -6.33)" fill="#fff"/><path d="M382.73,177.33V158.17h2.94v19.16Z" transform="translate(-5.77 -6.33)" fill="#fff"/><path d="M394.6,177.75a8.18,8.18,0,0,1-1.84-.21,12,12,0,0,1-3.17-1.29,11.46,11.46,0,0,1-1.12-.74l1.26-1.93a8.46,8.46,0,0,0,.91.6,9.69,9.69,0,0,0,1.16.59,9.46,9.46,0,0,0,1.3.44,5.74,5.74,0,0,0,1.36.16,5.55,5.55,0,0,0,1.43-.18,3.48,3.48,0,0,0,1.18-.56,2.81,2.81,0,0,0,.81-1,3.06,3.06,0,0,0,.3-1.41,1.88,1.88,0,0,0-.39-1.18,4.47,4.47,0,0,0-1-1,10.72,10.72,0,0,0-1.44-.84l-1.65-.82c-.57-.29-1.12-.6-1.66-.94a7.51,7.51,0,0,1-1.44-1.17,5.38,5.38,0,0,1-1-1.5,4.66,4.66,0,0,1-.39-2,5.23,5.23,0,0,1,.37-2,4.29,4.29,0,0,1,1.12-1.64,5.45,5.45,0,0,1,1.9-1.13,8.17,8.17,0,0,1,2.71-.41,7.56,7.56,0,0,1,2.41.39,11.88,11.88,0,0,1,2.27,1l-1.21,2a9.55,9.55,0,0,0-1.22-.55,8.08,8.08,0,0,0-1-.32,4.41,4.41,0,0,0-.77-.13l-.56,0a4.11,4.11,0,0,0-1.32.2,2.85,2.85,0,0,0-1,.57,2.26,2.26,0,0,0-.6.85,2.91,2.91,0,0,0-.2,1.07,2.07,2.07,0,0,0,.39,1.26,4.22,4.22,0,0,0,1,1,10.73,10.73,0,0,0,1.44.85l1.65.82c.57.28,1.12.58,1.66.91a7.25,7.25,0,0,1,1.44,1.11,5.13,5.13,0,0,1,1,1.45,4.39,4.39,0,0,1,.39,1.9,5.31,5.31,0,0,1-1.65,4.21A7.19,7.19,0,0,1,394.6,177.75Z" transform="translate(-5.77 -6.33)" fill="#fff"/><path d="M411.65,175.37a6.21,6.21,0,0,0,1.38-.14,6.85,6.85,0,0,0,1.26-.37,8.49,8.49,0,0,0,1.09-.5,8.23,8.23,0,0,0,.87-.56l1.31,1.8c-.32.23-.67.47-1.07.73a9.31,9.31,0,0,1-1.34.69,9.1,9.1,0,0,1-1.6.53,8.09,8.09,0,0,1-1.9.2,9,9,0,0,1-3.88-.78,7.49,7.49,0,0,1-2.71-2.16,9.13,9.13,0,0,1-1.6-3.21,14.88,14.88,0,0,1-.52-4,14.48,14.48,0,0,1,.52-3.93,8.8,8.8,0,0,1,1.6-3.14,7.22,7.22,0,0,1,2.71-2.09,9.26,9.26,0,0,1,3.88-.75,8.07,8.07,0,0,1,1.9.21,10,10,0,0,1,1.6.53,8.4,8.4,0,0,1,1.34.69c.4.26.75.5,1.07.73l-1.31,1.79a8.25,8.25,0,0,0-.87-.55,7.33,7.33,0,0,0-1.09-.51,8.87,8.87,0,0,0-1.26-.37,6.21,6.21,0,0,0-1.38-.14,5.19,5.19,0,0,0-2.46.55,4.87,4.87,0,0,0-1.78,1.54,7,7,0,0,0-1.06,2.37,12.26,12.26,0,0,0-.36,3.07,13,13,0,0,0,.36,3.18,7.47,7.47,0,0,0,1.08,2.44,4.84,4.84,0,0,0,1.77,1.57A5.18,5.18,0,0,0,411.65,175.37Z" transform="translate(-5.77 -6.33)" fill="#fff"/><path d="M435.58,177.33h-3L431,173h-8l-1.49,4.36h-3.05l7-19.19h3.36Zm-8.48-17.19c-.15.54-.33,1.18-.54,1.91s-.44,1.53-.71,2.41-.55,1.81-.87,2.8-.65,2-1,3.1h6.19c-.83-2.47-1.48-4.54-2-6.23S427.35,161.11,427.1,160.14Z" transform="translate(-5.77 -6.33)" fill="#fff"/><path d="M455.89,158.17l.81,19.16h-2.84l-.24-6.63q-.08-1.45-.09-3c0-1,0-2,0-3,0-.48,0-1,0-1.41s0-.9,0-1.32c-.15.58-.32,1.22-.52,1.89s-.41,1.4-.65,2.15-.49,1.53-.78,2.33-.6,1.62-.94,2.45L448,177.33h-2.69l-2.18-5.71c-.29-.74-.56-1.51-.83-2.33s-.53-1.65-.76-2.48-.46-1.66-.67-2.47-.4-1.56-.58-2.28c0,.66.06,1.35.09,2.06s.05,1.45.05,2.23c0,.22,0,.45,0,.68s0,.44,0,.66l-.27,9.64h-2.83l.86-19.16h3.09l3.08,8.58q1,2.77,1.6,4.73c.4,1.29.7,2.38.89,3.25.24-1,.57-2.19,1-3.58s1-2.9,1.63-4.52l3.39-8.46Z" transform="translate(-5.77 -6.33)" fill="#fff"/><path d="M460.76,177.33V158.17h2.94v19.16Z" transform="translate(-5.77 -6.33)" fill="#fff"/><path d="M482.55,177.33h-3.06c-.91-1.52-1.8-3-2.69-4.55s-1.77-3-2.65-4.59c-.27-.44-.54-.91-.82-1.39s-.57-1-.85-1.52-.56-1.08-.81-1.65a16.6,16.6,0,0,1-.69-1.79c.1.8.19,1.68.27,2.66s.12,2,.12,3.08v9.75h-2.91V158.17h3l.54.88c.73,1.2,1.47,2.42,2.2,3.66s1.44,2.47,2.12,3.71,1.32,2.44,1.93,3.63,1.13,2.35,1.59,3.46q-.11-1.12-.18-2.31c-.05-.79-.07-1.51-.07-2.16V158.17h2.94Z" transform="translate(-5.77 -6.33)" fill="#fff"/><path d="M494.84,175.37a10.77,10.77,0,0,0,1.58-.1,7.32,7.32,0,0,0,1.26-.28,5.67,5.67,0,0,0,1-.41,8,8,0,0,0,.86-.5v-4h-3.74v-2.27H502v7.39a9.67,9.67,0,0,1-1.34,1,11.39,11.39,0,0,1-1.68.82,12.65,12.65,0,0,1-1.95.55,10.82,10.82,0,0,1-2.15.2,9.2,9.2,0,0,1-3.94-.78,7.56,7.56,0,0,1-2.73-2.16,9,9,0,0,1-1.6-3.21,15.41,15.41,0,0,1,0-7.9,8.62,8.62,0,0,1,1.59-3.14,7.28,7.28,0,0,1,2.75-2.09,9.49,9.49,0,0,1,3.94-.75,9.19,9.19,0,0,1,1.84.18,11,11,0,0,1,1.65.47,11.67,11.67,0,0,1,1.42.65q.64.36,1.17.69l-1.37,1.85c-.27-.17-.57-.33-.91-.51a8,8,0,0,0-1.11-.46,8.15,8.15,0,0,0-1.27-.36,7.21,7.21,0,0,0-1.42-.13,5.48,5.48,0,0,0-2.53.55,4.74,4.74,0,0,0-1.79,1.54,7.17,7.17,0,0,0-1.07,2.37,12.75,12.75,0,0,0-.35,3.07,13.52,13.52,0,0,0,.35,3.18,7.27,7.27,0,0,0,1.08,2.44,4.93,4.93,0,0,0,1.8,1.57A5.43,5.43,0,0,0,494.84,175.37Z" transform="translate(-5.77 -6.33)" fill="#fff"/><path d="M512.68,177.75a9.66,9.66,0,0,1-3.2-.48,6.2,6.2,0,0,1-2.25-1.35,5.42,5.42,0,0,1-1.33-2.06,7.15,7.15,0,0,1-.44-2.57V158.17h3v13.09a4.22,4.22,0,0,0,.44,2,3.52,3.52,0,0,0,1.07,1.26,3.9,3.9,0,0,0,1.39.64,5.59,5.59,0,0,0,2.25.1,5.55,5.55,0,0,0,.95-.25,4,4,0,0,0,.91-.49,3.5,3.5,0,0,0,.78-.76,3.42,3.42,0,0,0,.54-1.08,4.91,4.91,0,0,0,.2-1.46V158.17h3v13.12a7.37,7.37,0,0,1-.43,2.57,5.57,5.57,0,0,1-1.34,2.06,6.2,6.2,0,0,1-2.25,1.35A9.68,9.68,0,0,1,512.68,177.75Z" transform="translate(-5.77 -6.33)" fill="#fff"/><path d="M524,177.33V158.17h12.08v2.49h-9.17V166H534v2.5h-7.14v6.3h9.81v2.49Z" transform="translate(-5.77 -6.33)" fill="#fff"/></svg>