<?xml version="1.0" encoding="UTF-8"?>
<svg width="116px" height="68px" viewBox="0 0 116 68" version="1.1" xmlns="http://www.w3.org/2000/svg" xmlns:xlink="http://www.w3.org/1999/xlink">
    <!-- Generator: Sketch 55.2 (78181) - https://sketchapp.com -->
    <title>Conseil de la culture de l'Abitibi-Témiscamingue</title>
    <desc>Created with Sketch.</desc>
    <g id="Conseil-de-la-culture-de-l'Abitibi-Témiscamingue" stroke="none" stroke-width="1" fill="none" fill-rule="evenodd">
        <g id="Group-11" fill="#F3F3F3">
            <path d="M45.3781,8.5287 C45.3781,7.4457 45.0461,7.0877 44.3111,7.0877 C43.5441,7.0877 43.0651,7.5337 43.0651,8.5287 L43.0651,20.4267 C43.0651,21.3247 43.3581,21.7447 44.2041,21.7447 C45.0461,21.7447 45.3781,21.2307 45.3781,20.4267 L45.3781,17.6037 L47.6581,17.6037 L47.6581,20.3947 C47.6581,22.2877 46.4411,23.3477 44.2391,23.3477 C42.4081,23.3477 40.7921,22.5457 40.7921,20.7167 L40.7921,8.8507 C40.7921,6.1897 42.6231,5.4837 44.5741,5.4837 C46.5591,5.4837 47.6581,6.4147 47.6581,8.3067 L47.6581,11.2247 L45.3781,11.2247 L45.3781,8.5287 Z" id="Fill-234"></path>
            <path d="M55.5876,8.8491 C55.5876,7.5681 54.9926,7.0861 54.0816,7.0861 C53.1606,7.0861 52.5756,7.5681 52.5756,8.8491 L52.5756,19.9801 C52.5756,21.2651 53.1606,21.7441 54.0816,21.7441 C54.9926,21.7441 55.5876,21.2651 55.5876,19.9801 L55.5876,8.8491 Z M50.2956,8.8491 C50.2956,6.1921 52.1326,5.4861 54.0816,5.4861 C56.0296,5.4861 57.8586,6.1921 57.8586,8.8491 L57.8586,19.9801 C57.8586,22.6381 56.0296,23.3471 54.0816,23.3471 C52.1326,23.3471 50.2956,22.6381 50.2956,19.9801 L50.2956,8.8491 Z" id="Fill-235"></path>
            <path d="M60.5016,5.6762 L62.6286,5.6762 L62.6286,6.8602 L62.7036,6.8602 C63.2206,6.1282 64.1776,5.4842 65.3516,5.4842 C67.2186,5.4842 68.0676,6.7002 68.0676,8.1152 L68.0676,23.1562 L65.7906,23.1562 L65.7906,8.8862 C65.7906,7.9522 65.3876,7.2802 64.3596,7.2802 C63.2926,7.2802 62.7786,8.1742 62.7786,8.8862 L62.7786,23.1562 L60.5016,23.1562 L60.5016,5.6762 Z" id="Fill-236"></path>
            <path d="M75.3713,8.2778 C75.3713,7.4708 74.9293,7.0878 74.1973,7.0878 C73.2733,7.0878 73.0193,7.6658 73.0193,8.3418 L73.0193,10.2908 C73.0193,10.8108 73.2733,11.2898 73.8653,12.0278 L76.7273,15.5248 C77.2803,16.1978 77.5373,16.6468 77.5373,17.4438 L77.5373,20.3968 C77.5373,22.2908 76.3243,23.3478 74.1223,23.3478 C72.2483,23.3478 70.7463,22.5768 70.7463,20.6258 L70.7463,17.5738 L73.0193,17.5738 L73.0193,20.2708 C73.0193,21.0738 73.1653,21.7438 74.1583,21.7438 C75.0753,21.7438 75.2643,21.0418 75.2643,20.2378 L75.2643,18.1208 C75.2643,17.4758 74.9683,16.8388 74.4183,16.1978 L71.8123,13.0858 C71.1493,12.3178 70.7463,11.7058 70.7463,10.7468 L70.7463,8.4988 C70.7463,6.5768 72.2483,5.4868 74.3073,5.4868 C76.7273,5.4868 77.4983,6.9238 77.4983,7.9848 L77.4983,10.8768 L75.3713,10.8768 L75.3713,8.2778 Z" id="Fill-237"></path>
            <path d="M85.5041,8.8491 C85.5041,7.5681 84.9121,7.0861 83.9951,7.0861 C83.0811,7.0861 82.4951,7.5681 82.4951,8.8491 L82.4951,13.1201 L85.5041,13.1201 L85.5041,8.8491 Z M85.5041,17.5111 L87.7751,17.5111 L87.7751,19.9801 C87.7751,22.6381 85.9461,23.3471 83.9951,23.3471 C82.0501,23.3471 80.2151,22.6381 80.2151,19.9801 L80.2151,8.8491 C80.2151,6.1921 82.0501,5.4861 83.9951,5.4861 C85.9461,5.4861 87.7751,6.1921 87.7751,8.8491 L87.7751,14.9101 L82.4951,14.9101 L82.4951,19.9801 C82.4951,21.2651 83.0811,21.7441 83.9951,21.7441 C84.9121,21.7441 85.5041,21.2651 85.5041,19.9801 L85.5041,17.5111 Z" id="Fill-238"></path>
            <path d="M90.6802,23.156 L92.9502,23.156 L92.9502,5.676 L90.6802,5.676 L90.6802,23.156 Z M90.6052,2.437 L93.0322,2.437 L93.0322,-2.13162821e-14 L90.6052,-2.13162821e-14 L90.6052,2.437 Z" id="Fill-239"></path>
            <polygon id="Fill-240" points="96.1152 23.156 98.3892 23.156 98.3892 -2.48689958e-14 96.1152 -2.48689958e-14"></polygon>
            <path d="M46.2931,30.7172 C46.2931,29.6562 45.8601,29.1432 44.8351,29.1432 C43.8081,29.1432 43.3781,29.6562 43.3781,30.7172 L43.3781,48.9582 C43.3781,50.0312 43.8081,50.5462 44.8351,50.5462 C45.8601,50.5462 46.2931,50.0312 46.2931,48.9582 L46.2931,45.4852 L48.8951,45.4852 L48.8951,49.0332 C48.8951,51.1312 47.5581,52.4712 44.8351,52.4712 C42.1161,52.4712 40.7791,51.1312 40.7791,49.0332 L40.7791,30.6552 C40.7791,28.5502 42.1161,27.2102 44.8351,27.2102 C47.5581,27.2102 48.8951,28.5502 48.8951,30.6552 L48.8951,33.9242 L46.2931,33.9242 L46.2931,30.7172 Z" id="Fill-241"></path>
            <path d="M58.2687,27.4164 L60.8707,27.4164 L60.8707,48.9274 C60.8707,51.6854 58.5097,52.4724 56.2617,52.4724 C54.0957,52.4724 51.7307,51.6854 51.7307,48.9274 L51.7307,27.4164 L54.3297,27.4164 L54.3297,48.2044 C54.3297,49.9974 54.9967,50.5434 56.3007,50.5434 C57.6407,50.5434 58.2687,49.9974 58.2687,48.2044 L58.2687,27.4164 Z" id="Fill-242"></path>
            <polygon id="Fill-243" points="64.8889 27.4164 67.4909 27.4164 67.4909 50.3354 71.7819 50.3354 71.7819 52.2684 64.8889 52.2684"></polygon>
            <polygon id="Fill-244" points="73.9894 29.3442 71.0744 29.3442 71.0744 27.4152 79.5034 27.4152 79.5034 29.3442 76.5914 29.3442 76.5914 52.2672 73.9894 52.2672"></polygon>
            <path d="M88.9606,27.4164 L91.5566,27.4164 L91.5566,48.9274 C91.5566,51.6854 89.1976,52.4724 86.9466,52.4724 C84.7806,52.4724 82.4216,51.6854 82.4216,48.9274 L82.4216,27.4164 L85.0176,27.4164 L85.0176,48.2044 C85.0176,49.9974 85.6886,50.5434 86.9896,50.5434 C88.3296,50.5434 88.9606,49.9974 88.9606,48.2044 L88.9606,27.4164 Z" id="Fill-245"></path>
            <path d="M99.9133,38.394 C101.1333,38.394 101.8393,38.088 101.8393,36.609 L101.8393,31.03 C101.8393,29.586 100.9743,29.345 99.6333,29.345 L98.1793,29.345 L98.1793,38.394 L99.9133,38.394 Z M101.9593,41.836 C101.9593,40.632 101.1333,40.324 99.9133,40.324 L98.1793,40.324 L98.1793,52.268 L95.5803,52.268 L95.5803,27.416 L100.4243,27.416 C102.9053,27.416 104.4413,27.793 104.4413,30.276 L104.4413,36.57 C104.4413,38.501 103.6143,39.153 101.6073,39.256 L101.6073,39.325 C103.4553,39.432 104.5613,39.914 104.5613,41.631 L104.5613,52.268 L101.9593,52.268 L101.9593,41.836 Z" id="Fill-246"></path>
            <polygon id="Fill-247" points="108.6935 27.4164 115.5925 27.4164 115.5925 29.3454 111.2965 29.3454 111.2965 38.3944 115.3945 38.3944 115.3945 40.3234 111.2965 40.3234 111.2965 50.3354 115.5925 50.3354 115.5925 52.2684 108.6935 52.2684"></polygon>
            <path d="M2.7834,64.9858 C3.8044,64.9858 4.0494,64.0288 4.0494,63.1928 C4.0494,62.3828 3.7404,61.4138 2.7834,61.4138 C1.7624,61.4138 1.5124,62.3568 1.5124,63.1928 C1.5124,64.0288 1.8274,64.9858 2.7834,64.9858 L2.7834,64.9858 Z M4.0424,59.0008 L4.8854,59.0008 L4.8854,64.6468 C4.8854,64.9178 4.9144,65.1838 4.9304,65.4438 L4.0654,65.4438 L4.0424,64.7738 L4.0424,64.7248 L4.0234,64.7248 C3.7144,65.3498 3.1254,65.5748 2.4774,65.5748 C1.1444,65.5748 0.6234,64.3538 0.6234,63.2028 C0.6234,61.9898 1.2354,60.8288 2.6274,60.8288 C3.2004,60.8288 3.7594,61.0338 4.0234,61.5668 L4.0424,61.5668 L4.0424,59.0008 Z" id="Fill-248"></path>
            <path d="M9.2033,62.7748 C9.2193,62.0238 8.8813,61.4448 8.0583,61.4448 C7.3523,61.4448 6.9393,62.0398 6.9393,62.7748 L9.2033,62.7748 Z M6.9393,63.3638 C6.8713,64.1478 7.1963,64.9608 8.0583,64.9608 C8.7253,64.9608 9.0503,64.7008 9.1483,64.0528 L10.0423,64.0528 C9.9093,65.0648 9.1253,65.5728 8.0523,65.5728 C6.6173,65.5728 6.0413,64.5568 6.0413,63.2368 C6.0413,61.9258 6.7053,60.8268 8.1233,60.8268 C9.4633,60.8558 10.0943,61.7018 10.0943,62.9438 L10.0943,63.3638 L6.9393,63.3638 Z" id="Fill-249"></path>
            <polygon id="Fill-250" points="13.8552 65.439 14.7042 65.439 14.7042 58.999 13.8552 58.999"></polygon>
            <polygon id="Fill-251" points="16.5158 59.0014 17.5538 59.0014 16.5548 61.1844 15.9498 61.1844"></polygon>
            <path d="M19.9846,62.9975 L22.3916,62.9975 L21.2206,59.8845 L19.9846,62.9975 Z M18.0716,65.4425 L20.7846,58.9995 L21.7346,58.9995 L24.3436,65.4425 L23.3706,65.4425 L22.6716,63.7615 L19.6826,63.7615 L18.9896,65.4425 L18.0716,65.4425 Z" id="Fill-252"></path>
            <path d="M27.3161,61.4438 C26.3501,61.4438 26.0451,62.3898 26.0451,63.2038 C26.0451,64.0428 26.2881,64.9608 27.3161,64.9608 C28.2731,64.9608 28.5821,64.0428 28.5821,63.2038 C28.5821,62.3648 28.3341,61.4438 27.3161,61.4438 L27.3161,61.4438 Z M26.0281,65.4418 L25.1531,65.4418 C25.1721,65.1718 25.1991,64.9078 25.1991,64.7258 L25.1991,59.0018 L26.0451,59.0018 L26.0451,61.5678 L26.0611,61.5678 C26.3241,61.0338 26.8871,60.8288 27.4561,60.8288 C28.8481,60.8288 29.4691,61.9908 29.4691,63.2038 C29.4691,64.3548 28.9391,65.5748 27.6091,65.5748 C26.9591,65.5748 26.3701,65.3498 26.0611,64.7258 L26.0451,64.7258 L26.0611,64.7718 L26.0281,65.4418 Z" id="Fill-253"></path>
            <path d="M30.7052,65.443 L31.5542,65.443 L31.5542,60.957 L30.7052,60.957 L30.7052,65.443 Z M30.6272,59.917 L31.6322,59.917 L31.6322,58.999 L30.6272,58.999 L30.6272,59.917 Z" id="Fill-254"></path>
            <path d="M33.2087,60.9575 L33.2087,60.0045 L34.0577,59.7415 L34.0577,60.9575 L35.0957,60.9355 L35.0957,61.5695 L34.0577,61.5625 L34.0577,64.4475 C34.0577,64.7735 34.3087,64.9235 34.6107,64.9235 C34.7507,64.9235 34.9227,64.9095 35.0527,64.8705 L35.0527,65.5215 C34.8647,65.5275 34.6757,65.5735 34.4807,65.5735 C34.2757,65.5735 34.1097,65.5665 33.9077,65.5275 C33.7747,65.5025 33.5467,65.4345 33.4107,65.2315 C33.2577,65.0205 33.2087,65.0045 33.2087,64.4055 L33.2087,61.5625 L32.4447,61.5695 L32.4447,60.9355 L33.2087,60.9575 Z" id="Fill-255"></path>
            <path d="M36.1532,65.443 L37.0022,65.443 L37.0022,60.957 L36.1532,60.957 L36.1532,65.443 Z M36.0752,59.917 L37.0832,59.917 L37.0832,58.999 L36.0752,58.999 L36.0752,59.917 Z" id="Fill-256"></path>
            <path d="M40.696,61.4438 C39.733,61.4438 39.431,62.3898 39.431,63.2038 C39.431,64.0428 39.672,64.9608 40.696,64.9608 C41.655,64.9608 41.965,64.0428 41.965,63.2038 C41.965,62.3648 41.714,61.4438 40.696,61.4438 L40.696,61.4438 Z M39.411,65.4418 L38.539,65.4418 C38.559,65.1718 38.585,64.9078 38.585,64.7258 L38.585,59.0018 L39.431,59.0018 L39.431,61.5678 L39.447,61.5678 C39.704,61.0338 40.27,60.8288 40.839,60.8288 C42.228,60.8288 42.853,61.9908 42.853,63.2038 C42.853,64.3548 42.326,65.5748 40.989,65.5748 C40.342,65.5748 39.753,65.3498 39.447,64.7258 L39.431,64.7258 L39.447,64.7718 L39.411,65.4418 Z" id="Fill-257"></path>
            <path d="M44.0872,65.443 L44.9332,65.443 L44.9332,60.957 L44.0872,60.957 L44.0872,65.443 Z M44.0052,59.917 L45.0172,59.917 L45.0172,58.999 L44.0052,58.999 L44.0052,59.917 Z" id="Fill-258"></path>
            <polygon id="Fill-259" points="46.1102 63.372 48.3512 63.372 48.3512 62.747 46.1102 62.747"></polygon>
            <polygon id="Fill-260" points="50.9973 59.7631 48.8403 59.7631 48.8403 59.0021 54.0513 59.0021 54.0513 59.7631 51.8923 59.7631 51.8923 65.4431 50.9973 65.4431"></polygon>
            <path d="M57.9606,59.0014 L56.8836,60.2894 L56.2946,60.2894 L57.0336,59.0014 L57.9606,59.0014 Z M57.7786,62.7734 C57.7976,62.0224 57.4596,61.4434 56.6436,61.4434 C55.9346,61.4434 55.5116,62.0424 55.5116,62.7734 L57.7786,62.7734 Z M55.5116,63.3624 C55.4526,64.1474 55.7716,64.9604 56.6436,64.9604 C57.3006,64.9604 57.6286,64.6994 57.7296,64.0524 L58.6206,64.0524 C58.4876,65.0634 57.7006,65.5744 56.6296,65.5744 C55.1956,65.5744 54.6236,64.5574 54.6236,63.2354 C54.6236,61.9254 55.2836,60.8284 56.6986,60.8284 C58.0386,60.8554 58.6726,61.7004 58.6726,62.9434 L58.6726,63.3624 L55.5116,63.3624 Z" id="Fill-261"></path>
            <path d="M60.7429,61.6059 L60.7629,61.6059 C61.0289,61.0399 61.5859,60.8289 62.0379,60.8289 C62.8869,60.8289 63.3849,61.1149 63.6179,61.6709 C63.9339,61.1149 64.4449,60.8289 65.1119,60.8289 C66.1389,60.8289 66.7739,61.4789 66.7739,62.2759 L66.7739,65.4439 L65.9279,65.4439 L65.9279,62.7899 C65.9279,62.1749 65.8399,61.4789 64.8449,61.4789 C64.5909,61.4789 64.0189,61.6259 63.8559,62.1749 C63.7419,62.5819 63.7679,63.0309 63.7679,63.1379 L63.7679,65.4439 L62.9189,65.4439 L62.9189,62.7899 C62.9189,62.0159 62.7409,61.4789 61.9299,61.4789 C61.5859,61.4789 61.0809,61.6159 60.8209,62.2139 C60.7269,62.4449 60.7629,63.0309 60.7629,63.1379 L60.7629,65.4439 L59.9099,65.4439 L59.9099,60.9589 L60.7429,60.9589 L60.7429,61.6059 Z" id="Fill-262"></path>
            <path d="M68.3692,65.443 L69.2182,65.443 L69.2182,60.957 L68.3692,60.957 L68.3692,65.443 Z M68.2942,59.917 L69.2992,59.917 L69.2992,58.999 L68.2942,58.999 L68.2942,59.917 Z" id="Fill-263"></path>
            <path d="M72.2614,60.8276 C73.1104,60.8276 74.0664,61.1816 74.0014,62.1996 L73.1104,62.1996 C73.1424,61.6276 72.7074,61.4416 72.2164,61.4416 C71.7634,61.4416 71.3964,61.6566 71.3964,62.1546 C71.3964,62.6556 72.1634,62.6906 72.4794,62.7926 C73.2434,63.0396 74.1154,63.1306 74.1154,64.1416 C74.1154,65.2316 73.0484,65.5736 72.1314,65.5736 C71.1914,65.5736 70.4104,65.1436 70.4174,64.1096 L71.3084,64.1096 C71.3244,64.6696 71.6994,64.9616 72.2164,64.9616 C72.7174,64.9616 73.2274,64.7606 73.2274,64.1816 C73.2274,63.1816 70.5084,63.9306 70.5084,62.1836 C70.5084,61.2476 71.4514,60.8276 72.2614,60.8276" id="Fill-264"></path>
            <path d="M77.7761,62.3998 C77.7311,61.8338 77.4611,61.4438 76.8561,61.4438 C76.0481,61.4438 75.7301,62.1488 75.7301,63.2038 C75.7301,64.2508 76.0481,64.9598 76.8561,64.9598 C77.4221,64.9598 77.7661,64.5948 77.8121,63.9518 L78.6571,63.9518 C78.5891,64.9598 77.8411,65.5748 76.8491,65.5748 C75.4081,65.5748 74.8421,64.5558 74.8421,63.2358 C74.8421,61.9248 75.5021,60.8288 76.9211,60.8288 C77.8601,60.8288 78.5791,61.4238 78.6221,62.3998 L77.7761,62.3998 Z" id="Fill-265"></path>
            <path d="M81.5241,63.2641 C81.0071,63.2931 80.3201,63.4751 80.3201,64.1321 C80.3201,64.6851 80.7041,64.9581 81.1991,64.9581 C82.2011,64.9581 82.3931,64.0931 82.3731,63.2641 L81.5241,63.2641 Z M82.3731,62.6711 C82.3731,61.8981 82.3211,61.4421 81.4231,61.4421 C80.9941,61.4421 80.5941,61.6961 80.5841,62.1551 L79.6931,62.1551 C79.7381,61.1751 80.5061,60.8271 81.3871,60.8271 C82.3081,60.8271 83.2191,61.1041 83.2191,62.3601 L83.2191,64.4931 C83.2191,64.6921 83.2251,65.0661 83.2511,65.4431 L82.6791,65.4431 C82.6011,65.4431 82.4511,65.4891 82.4411,65.3781 C82.4251,65.1731 82.4051,64.9781 82.3991,64.7731 L82.3791,64.7731 C82.1061,65.3351 81.6021,65.5741 80.9871,65.5741 C80.2101,65.5741 79.4261,65.1731 79.4261,64.2981 C79.4261,63.0391 80.5421,62.6711 81.6021,62.6711 L82.3731,62.6711 Z" id="Fill-266"></path>
            <path d="M85.5265,61.6059 L85.5435,61.6059 C85.8165,61.0399 86.3695,60.8289 86.8215,60.8289 C87.6705,60.8289 88.1715,61.1149 88.4015,61.6709 C88.7245,61.1149 89.2345,60.8289 89.8915,60.8289 C90.9225,60.8289 91.5575,61.4789 91.5575,62.2759 L91.5575,65.4439 L90.7115,65.4439 L90.7115,62.7899 C90.7115,62.1749 90.6205,61.4789 89.6315,61.4789 C89.3745,61.4789 88.8055,61.6259 88.6395,62.1749 C88.5255,62.5819 88.5515,63.0309 88.5515,63.1379 L88.5515,65.4439 L87.7065,65.4439 L87.7065,62.7899 C87.7065,62.0159 87.5265,61.4789 86.7135,61.4789 C86.3695,61.4789 85.8645,61.6159 85.6085,62.2139 C85.5105,62.4449 85.5435,63.0309 85.5435,63.1379 L85.5435,65.4439 L84.6975,65.4439 L84.6975,60.9589 L85.5265,60.9589 L85.5265,61.6059 Z" id="Fill-267"></path>
            <path d="M93.1552,65.443 L94.0012,65.443 L94.0012,60.957 L93.1552,60.957 L93.1552,65.443 Z M93.0772,59.917 L94.0852,59.917 L94.0852,58.999 L93.0772,58.999 L93.0772,59.917 Z" id="Fill-268"></path>
            <path d="M96.4479,61.6245 L96.4669,61.6245 C96.7499,61.0625 97.3779,60.8275 97.8229,60.8275 C98.1359,60.8275 99.5149,60.9085 99.5149,62.3475 L99.5149,65.4435 L98.6729,65.4435 L98.6729,62.6235 C98.6729,61.8785 98.3569,61.4785 97.6409,61.4785 C97.6409,61.4785 97.1769,61.4485 96.8219,61.8105 C96.6949,61.9365 96.4669,62.1325 96.4669,63.0075 L96.4669,65.4435 L95.6179,65.4435 L95.6179,60.9575 L96.4479,60.9575 L96.4479,61.6245 Z" id="Fill-269"></path>
            <path d="M102.8703,64.7446 C103.7883,64.7446 104.1293,63.9606 104.1293,63.0916 C104.1293,62.2296 103.7883,61.4426 102.8703,61.4426 C101.8823,61.4426 101.6113,62.3896 101.6113,63.0916 C101.6113,63.7976 101.8823,64.7446 102.8703,64.7446 L102.8703,64.7446 Z M104.1583,60.9576 L105.0333,60.9576 C105.0043,61.2306 104.9783,61.4976 104.9783,61.7646 L104.9783,64.9196 C104.9783,66.5566 104.2633,67.2256 102.6203,67.2256 C101.6603,67.2256 100.9743,66.8126 100.9613,65.7786 L101.8523,65.7786 C101.8883,66.3806 102.2983,66.6076 102.9033,66.6076 C104.1033,66.6076 104.1033,65.6096 104.1293,64.6036 L104.1033,64.6036 C103.8373,65.1386 103.1823,65.3616 102.6303,65.3616 C101.2663,65.3616 100.7243,64.3956 100.7243,63.1376 C100.7243,61.8426 101.4423,60.8276 102.7993,60.8276 C103.2383,60.8276 103.7203,61.0066 103.9963,61.4166 C104.0133,61.4356 104.1293,61.6926 104.1293,61.6286 L104.1583,60.9576 Z" id="Fill-270"></path>
            <path d="M109.5256,60.9575 L110.3786,60.9575 L110.3786,65.4435 L109.5456,65.4435 L109.5456,64.7795 L109.5256,64.7795 C109.1876,65.3465 108.6186,65.5735 107.9936,65.5735 C107.0536,65.5735 106.5166,64.8575 106.5166,63.9605 L106.5166,60.9575 L107.3696,60.9575 L107.3696,63.6155 C107.3696,64.3895 107.5476,64.9585 108.3646,64.9585 C108.7066,64.9585 109.1806,64.7795 109.3596,64.3145 C109.5186,63.8985 109.5256,63.3715 109.5256,63.2645 L109.5256,60.9575 Z" id="Fill-271"></path>
            <path d="M114.7824,62.7748 C114.8024,62.0238 114.4574,61.4448 113.6374,61.4448 C112.9344,61.4448 112.5154,62.0398 112.5154,62.7748 L114.7824,62.7748 Z M112.5154,63.3638 C112.4534,64.1478 112.7754,64.9608 113.6374,64.9608 C114.2984,64.9608 114.6304,64.7008 114.7234,64.0528 L115.6224,64.0528 C115.4854,65.0648 114.7084,65.5728 113.6314,65.5728 C112.1934,65.5728 111.6214,64.5568 111.6214,63.2368 C111.6214,61.9258 112.2884,60.8268 113.7034,60.8268 C115.0404,60.8558 115.6744,61.7018 115.6744,62.9438 L115.6744,63.3638 L112.5154,63.3638 Z" id="Fill-272"></path>
            <path d="M104.2365,18.4907 C104.2365,18.1227 104.0115,17.8367 103.6765,17.8367 C103.3615,17.8367 103.2125,18.0877 103.2125,18.5257 L103.2125,22.1267 C103.2125,22.5407 103.3545,22.7617 103.6645,22.7617 C103.9765,22.7617 104.2365,22.5857 104.2365,22.1037 L104.2365,18.4907 Z M104.2885,22.8687 L104.2625,22.8687 C104.0775,23.0957 103.9015,23.3037 103.4395,23.3037 C102.9385,23.3037 102.4375,23.0407 102.4375,22.1497 L102.4375,18.1517 C102.4375,17.6157 102.7855,17.2217 103.3295,17.2217 C103.7155,17.2217 104.0115,17.3447 104.2145,17.6507 L104.2365,17.6507 L104.2365,15.3547 L105.0135,15.3547 L105.0135,23.2427 L104.2885,23.2427 L104.2885,22.8687 Z" id="Fill-273"></path>
            <path d="M107.7121,18.3696 C107.7121,17.9306 107.5141,17.7676 107.2011,17.7676 C106.8821,17.7676 106.6911,17.9306 106.6911,18.3696 L106.6911,19.8236 L107.7121,19.8236 L107.7121,18.3696 Z M107.7121,21.3126 L108.4851,21.3126 L108.4851,22.1586 C108.4851,23.0626 107.8581,23.3066 107.2011,23.3066 C106.5371,23.3066 105.9131,23.0626 105.9131,22.1586 L105.9131,18.3696 C105.9131,17.4656 106.5371,17.2216 107.2011,17.2216 C107.8581,17.2216 108.4851,17.4656 108.4851,18.3696 L108.4851,20.4346 L106.6911,20.4346 L106.6911,22.1586 C106.6911,22.5956 106.8821,22.7616 107.2011,22.7616 C107.5141,22.7616 107.7121,22.5956 107.7121,22.1586 L107.7121,21.3126 Z" id="Fill-274"></path>
            <polygon id="Fill-275" points="111.1982 23.242 111.9722 23.242 111.9722 15.354 111.1982 15.354"></polygon>
            <path d="M114.7639,20.1039 C114.3609,20.1039 113.7329,20.2479 113.7329,20.7509 L113.7329,22.1049 C113.7329,22.5309 113.8079,22.7579 114.2239,22.7579 C114.5589,22.7579 114.7639,22.5409 114.7639,22.1499 L114.7639,20.1039 Z M114.7639,18.2729 C114.7639,17.9089 114.6199,17.7679 114.3119,17.7679 C113.8719,17.7679 113.8079,17.9999 113.8079,18.3469 L113.8079,18.9069 L113.0359,18.9069 L113.0359,18.2079 C113.0359,17.5959 113.6219,17.2219 114.3379,17.2219 C115.0859,17.2219 115.5349,17.4989 115.5349,18.2629 L115.5349,23.2429 L114.8129,23.2429 L114.8129,22.9209 L114.7859,22.9209 C114.5689,23.1549 114.3479,23.3049 113.8889,23.3049 C113.2849,23.3049 112.9549,22.9209 112.9549,22.3229 L112.9549,20.7089 C112.9549,19.9639 113.5369,19.5569 114.7639,19.5569 L114.7639,18.2729 Z" id="Fill-276"></path>
            <path d="M31.822,15.4487 L31.822,15.4487 C31.822,16.3887 31.822,17.1947 31.553,17.8657 C31.419,18.2687 31.151,18.4027 30.479,18.4027 C29.674,18.4027 28.868,18.2687 28.734,18.2687 C28.599,18.2687 28.062,18.0007 28.062,17.0597 L28.062,15.1797 C28.062,15.1797 28.062,14.5097 28.868,14.5097 L31.285,14.6427 C31.151,14.5097 31.822,14.5097 31.822,15.4487 L31.822,15.4487 Z M21.483,38.0067 C21.617,42.5717 21.349,48.2107 21.349,48.2107 C21.349,48.2107 21.349,49.0157 20.946,49.6877 C20.275,44.5857 19.872,38.8117 19.603,33.0387 C20.543,33.9777 21.349,35.5897 21.483,38.0067 L21.483,38.0067 Z M4.834,51.1647 C4.834,51.1647 3.76,51.1647 2.82,50.3587 C2.148,49.6877 1.746,48.4787 1.746,46.8677 C1.746,42.1687 1.746,36.6637 2.685,34.2467 C2.82,33.8447 3.088,33.4407 3.222,33.1727 C3.222,33.8447 3.222,34.5147 3.357,34.9187 C3.625,36.2607 5.102,36.3947 5.102,36.3947 L6.311,36.3947 C6.579,36.3947 6.579,36.9317 6.579,36.9317 C6.579,36.9317 6.579,37.8727 6.714,40.1547 C6.848,42.4367 7.251,42.7057 7.654,42.9737 C7.788,42.9737 7.788,42.9737 7.922,43.1087 C8.459,43.2427 10.473,43.5107 15.173,43.5107 L15.71,43.5107 L16.113,43.5107 C16.918,43.5107 17.724,43.3777 18.529,43.3777 C18.663,46.1967 18.932,48.6137 19.2,51.1647 C18.663,51.2997 18.126,51.2997 17.59,51.2997 L4.834,51.1647 Z M5.237,30.7557 C5.237,30.7557 5.237,30.2187 5.774,30.2187 L6.042,30.2187 L8.459,30.2187 C8.459,30.2187 8.996,30.2187 8.996,30.8897 C8.996,31.4277 8.862,33.1727 8.862,33.3067 C8.862,33.4407 8.862,34.1127 8.056,34.1127 L6.042,34.1127 C5.774,34.1127 5.371,34.1127 5.371,33.4407 C5.102,32.5017 5.237,30.7557 5.237,30.7557 L5.237,30.7557 Z M17.992,32.3667 C17.992,35.5897 18.126,38.6777 18.26,41.8997 C14.098,42.3027 10.339,42.1687 8.862,41.7657 C8.593,41.7657 8.325,41.4977 8.325,41.4977 C8.056,41.2287 7.922,40.8257 7.922,40.5567 C7.788,39.2147 7.788,36.9317 7.788,36.5297 C7.788,36.1267 8.056,36.2607 9.265,36.1267 C10.473,35.9927 10.473,35.0527 10.473,35.0527 L10.741,31.8297 C12.89,31.8297 15.307,32.0977 17.992,32.3667 L17.992,32.3667 Z M8.325,16.1207 C7.788,16.1207 7.922,15.7177 7.922,15.7177 L8.056,14.3747 C8.056,13.9717 8.325,13.9717 8.325,13.9717 C8.325,13.9717 8.996,13.9717 9.399,14.1067 C9.533,14.1067 9.936,14.1067 9.936,14.5097 L9.936,15.8517 C9.936,16.2547 9.533,16.2547 9.533,16.2547 C9.533,16.2547 8.862,16.1207 8.325,16.1207 L8.325,16.1207 Z M33.568,14.3747 C33.568,14.1067 33.433,12.7637 31.956,12.7637 C30.614,12.7637 30.479,12.6297 30.479,12.6297 C30.479,12.6297 30.076,12.3607 30.076,11.9587 C30.076,11.9587 30.076,9.4067 29.942,7.5267 C29.942,6.9897 29.808,6.5877 29.539,6.3187 C29.539,6.3187 29.405,6.0507 29.002,5.9167 C29.002,5.9167 28.868,5.9167 28.868,5.7817 C28.197,5.5127 26.988,5.2447 24.303,5.2447 L24.034,5.2447 C21.752,5.2447 20.543,5.3797 20.006,5.5127 C19.469,5.5127 19.2,5.7817 18.932,6.0507 C18.798,6.1847 18.798,6.4527 18.663,6.5877 C18.663,6.5877 18.126,14.1067 18.126,23.7737 C15.307,24.1767 11.279,23.5057 10.204,23.3707 L10.07,23.3707 C9.533,23.2367 9.265,22.9687 9.265,22.2967 C9.131,21.7607 9.265,18.8057 9.265,18.4027 C9.265,17.8657 9.802,17.8657 9.802,17.8657 L10.339,17.8657 L10.473,17.8657 L10.607,17.8657 C11.144,17.8657 11.279,17.4637 11.413,17.0597 C11.681,16.5227 11.547,13.8387 11.547,13.8387 C11.547,13.4347 11.279,13.0327 10.741,12.8977 L7.922,12.8977 C6.982,12.8977 7.116,13.7037 7.116,13.7037 C6.579,14.7777 6.579,16.7917 6.579,16.7917 C6.579,17.5967 7.385,17.5967 7.385,17.5967 L7.922,17.5967 C8.325,17.5967 8.191,18.1347 8.191,18.1347 L8.191,22.8337 C8.191,23.6387 8.862,23.9077 9.265,24.0427 C9.265,24.0427 12.89,24.7137 17.858,24.7137 L17.858,30.6217 C15.173,30.3527 12.89,30.0847 10.607,29.9507 L10.607,29.8157 C10.607,28.7417 10.07,28.2047 9.533,28.0707 C9.131,28.0707 5.774,27.9357 5.102,27.8027 C4.565,27.8027 3.491,27.9357 3.222,29.0107 C3.088,29.4137 3.088,29.9507 3.088,30.6217 C2.148,31.1587 1.612,31.9647 1.074,33.4407 C0.135,36.1267 0,41.7657 0,46.5987 C0,48.4787 0.537,50.0907 1.612,51.1647 C2.954,52.5077 4.699,52.5077 4.834,52.5077 L17.59,52.6417 L17.992,52.6417 C18.932,52.6417 19.603,52.3737 20.409,52.1047 C20.677,51.9697 21.08,51.8367 21.349,51.5677 C21.483,51.5677 21.483,51.4327 21.617,51.4327 C23.094,50.0907 23.094,48.0767 23.094,48.0767 C23.094,48.0767 23.229,42.4367 23.229,37.7377 C23.229,33.8447 21.349,31.8297 19.603,30.8897 C19.2,18.2687 19.738,6.8557 19.738,6.8557 C19.738,6.4527 20.006,6.3187 20.14,6.3187 C20.14,6.3187 20.946,6.0507 24.437,6.0507 C27.391,6.0507 28.197,6.3187 28.331,6.4527 C28.868,6.5877 28.868,7.1247 28.868,7.5267 C28.868,8.0637 29.002,11.8237 29.002,11.8237 C29.002,11.8237 29.002,12.2267 28.734,12.2267 L27.659,12.2267 C27.659,12.2267 26.182,12.0927 26.048,13.4347 C25.914,14.3747 25.914,17.3287 25.914,17.3287 C25.914,17.3287 25.914,19.6117 27.525,19.7457 C29.002,19.8807 31.419,20.0137 31.419,20.0137 C31.419,20.0137 32.896,20.1487 33.433,18.0007 C33.836,16.1207 33.568,14.6427 33.568,14.3747 L33.568,14.3747 Z" id="Fill-277"></path>
            <path d="M23.7658,9.1381 C23.8998,9.1381 24.1688,9.2731 24.1688,9.8101 L24.1688,10.8841 C24.1688,10.8841 24.1688,11.2861 23.7658,11.2861 L22.5578,11.2861 C22.5578,11.2861 22.1548,11.2861 22.1548,10.7491 C22.1548,10.2121 22.0198,9.6751 22.1548,9.5411 C22.2888,9.2731 22.5578,9.2731 22.9598,9.2731 C23.2288,9.0041 23.6318,9.1381 23.7658,9.1381 M24.5718,7.6611 C24.4368,7.6611 23.2288,7.3931 22.1548,7.3931 C21.2148,7.3931 20.8118,7.6611 20.6778,8.1991 C20.5428,8.7361 20.5428,9.8101 20.5428,11.1531 C20.5428,12.3611 21.3488,12.3611 21.3488,12.3611 L24.3028,12.4951 C25.3768,12.7641 25.3768,11.5551 25.3768,11.5551 L25.3768,9.0041 C25.3768,7.7951 24.8398,7.6611 24.5718,7.6611" id="Fill-278"></path>
            <path d="M11.9499,22.0287 C12.0839,22.0287 12.8899,22.1627 13.5609,22.1627 C14.2329,22.1627 14.3669,22.0287 14.5009,21.6257 C14.6359,21.2227 14.6359,20.4177 14.6359,19.6117 C14.6359,18.8057 14.0979,18.8057 14.0979,18.8057 L12.0839,18.8057 C11.4129,18.8057 11.2789,19.3427 11.2789,19.3427 L11.2789,20.9547 C11.2789,21.7597 11.8159,22.0287 11.9499,22.0287" id="Fill-279"></path>
        </g>
    </g>
</svg>