<?xml version="1.0" encoding="UTF-8"?>
<svg width="88px" height="68px" viewBox="0 0 88 68" version="1.1" xmlns="http://www.w3.org/2000/svg" xmlns:xlink="http://www.w3.org/1999/xlink">
    <!-- Generator: Sketch 55.2 (78181) - https://sketchapp.com -->
    <title>Le Petit Théâtre</title>
    <desc>Created with Sketch.</desc>
    <defs>
        <polygon id="path-1" points="0.80165053 0.695689699 28.9332179 0.695689699 28.9332179 20.3188448 0.80165053 20.3188448"></polygon>
    </defs>
    <g id="Le-Petit-Théâtre" stroke="none" stroke-width="1" fill="none" fill-rule="evenodd">
        <g id="Group-34">
            <g id="Group-3" transform="translate(22.143969, 0.226883)">
                <mask id="mask-2" fill="white">
                    <use xlink:href="#path-1"></use>
                </mask>
                <g id="Clip-2"></g>
                <path d="M4.33219077,0.695597432 L4.39031869,0.695597432 C3.99449524,2.18570203 3.58114115,3.28736449 3.57099183,4.62061597 C3.55530652,6.51946133 4.38662803,7.7595236 5.73741015,8.66189035 C7.06973896,9.55041711 9.21216798,10.4657012 11.3610557,10.3023894 C14.1447371,10.091099 16.1506117,7.9754273 17.7459001,6.31924294 C18.8992318,5.12070061 20.211262,3.44421761 21.143154,1.92551039 C21.5657348,1.23812468 22.2346672,0.195512795 23.0170874,1.04713294 C22.9478875,5.1529939 22.5077761,10.0920217 22.3140164,14.2855359 C21.4227217,15.385353 20.5692562,16.5220767 19.6788841,17.6246619 C20.6892027,17.053532 21.7225879,15.9896988 23.1933165,15.8079337 C25.2914576,15.5495874 27.0251459,16.9880228 28.9332179,17.0968973 C28.1830909,18.1229012 27.9081366,19.4478487 26.1218565,19.1470598 C24.8808715,18.9376147 23.4369002,18.2326984 22.0796594,18.2096317 C20.0719395,18.1754931 18.9813491,19.2227183 17.9802571,20.3188448 C19.1778768,16.1733092 18.6704108,10.860602 18.9758131,6.43642144 C16.2299609,8.67296233 12.5088514,12.2224561 7.78757263,12.5869089 C5.49474915,12.763138 3.7130823,12.1384935 2.39920679,11.0635883 C1.49684005,10.3263787 0.679358521,9.08447109 0.816835663,7.2557483 C1.03273936,4.41947492 3.01370194,2.50033092 4.33219077,0.695597432" id="Fill-1" fill="#F3F3F3" mask="url(#mask-2)"></path>
            </g>
            <path d="M53.5380279,17.3826467 C54.1792803,17.2147216 55.1859083,15.8261102 56.0559817,15.9765047 C58.4945863,16.3981628 61.5098568,16.8290475 63.6707391,15.6830971 C63.7113364,15.6627985 63.8303603,15.4533534 63.9050961,15.6249692 C63.059012,17.8642781 61.4757182,19.3608413 58.2242454,19.1984522 C57.2517561,19.149551 56.3069467,18.9401059 55.4119613,18.9640952 C54.0307312,18.9991565 53.0360979,19.4780198 51.9565794,20.1349576 C52.2167711,17.8319848 52.1992404,14.9375835 52.1328085,11.9933582 C51.7231451,11.9176997 50.7534238,11.9804409 50.4923095,12.4039443 C50.6417813,11.5772362 51.3716096,10.8243412 52.1328085,10.4119098 C52.1023606,8.70313349 53.025026,6.27929153 51.3706869,5.78474288 C52.5018747,4.94419472 53.6238358,4.09349724 54.7098129,3.20773847 L62.7342338,3.20773847 C62.7822124,3.45501279 62.4113009,3.58510861 62.2073918,3.7345804 C61.9674988,3.90896416 61.7054619,4.07504393 61.4452702,4.26142234 C61.0319161,4.55852059 60.442333,5.20438636 59.9810003,5.31602887 C58.6634341,5.63527109 56.9980231,5.12688247 55.7634968,5.25697829 C55.6287877,6.33188346 55.7431982,7.65775361 55.7053689,8.82953865 C57.1659482,8.86921326 59.6543767,8.75941608 61.3280917,8.3617473 C60.660082,9.6571695 59.6636034,10.9802717 57.9308378,11.1740314 C56.8319433,11.2958232 55.834542,11.1749541 54.7098129,11.4074657 C54.7374929,12.1409847 54.7827035,12.7886958 54.8260688,13.4576282 C54.8685114,14.1081073 55.0650391,14.8794556 54.9432473,15.4487401 C54.8463674,15.9045368 53.8443528,16.9028607 53.5380279,17.3826467" id="Fill-4" fill="#F3F3F3"></path>
            <path d="M60.3327203,25.2316689 C60.2349178,25.0591305 60.5938346,24.8284641 60.8014343,24.5876485 C61.4832841,23.7904656 62.1863551,22.5393313 62.0894752,21.0722933 C62.9180287,20.3581503 63.9089713,19.8063964 64.9017593,19.2564879 C65.4719665,22.9203921 62.5074426,23.9371694 60.3327203,25.2316689" id="Fill-6" fill="#F3F3F3"></path>
            <path d="M76.2649371,20.1353266 C75.9918281,20.7525898 75.62553,21.4842634 75.2103305,22.243617 C74.911387,22.7916803 74.4362143,23.8610495 73.8632391,24.1184731 C72.8787551,24.5604298 71.76233,24.220889 70.4659852,24.4700086 C70.5776277,27.3164313 70.604385,31.13073 70.5241131,34.486464 C70.4982784,35.6084251 69.9603645,37.9390779 71.2281068,38.059947 C70.1873402,38.8829646 68.9315926,40.0842749 67.0687312,39.6995234 C66.8371422,35.2107563 66.9497074,29.4607057 67.0106033,24.6462377 C66.2632443,24.5751925 65.1920298,24.4727766 64.4335989,24.2356516 C64.4049963,24.0584999 64.6661106,23.7983082 64.8432623,23.5916312 C65.2529257,23.1136905 65.7779223,22.5370246 65.9559968,21.774903 C70.0351004,21.5027167 74.5552381,22.6578938 76.2649371,20.1353266" id="Fill-8" fill="#F3F3F3"></path>
            <path d="M60.7427528,21.0724779 C60.0212285,22.7332756 59.1945203,24.7963554 56.4080708,24.587833 C56.1820178,28.5792834 56.0925193,31.6840524 55.9974847,35.9504572 C56.2982737,36.2235661 56.7725237,36.6129309 57.3454989,36.4200939 C57.3860962,36.5889416 57.1849551,36.7937733 57.0520913,36.9460131 C56.6276652,37.4350258 56.08237,37.974785 55.5878213,38.4693337 C54.9502595,39.1078181 54.2351939,40.0295608 53.0108169,39.7582972 C53.151062,34.6670296 52.9489983,29.4724235 52.8936384,24.6459609 C51.4838057,24.2621321 49.1845236,24.5149424 47.914936,24.9974964 C47.8383548,24.8544833 48.1022371,24.6736409 48.2074209,24.587833 C49.2814034,23.6993062 50.5971243,22.7009823 51.5456243,21.6583704 C54.4907722,21.6648291 58.2570923,22.3522148 60.7427528,21.0724779" id="Fill-10" fill="#F3F3F3"></path>
            <path d="M63.8467837,36.8884388 C63.2525872,38.1275784 61.1018542,40.8780439 59.2786674,39.4654432 L59.2786674,30.5626449 C59.2786674,29.5255691 59.6468109,27.2410496 58.3993673,27.6913103 C59.6320482,26.8535301 61.0547982,26.2067417 62.4415643,25.524892 C62.5236815,28.5678424 62.1435434,33.0649135 62.6168707,36.4778527 C62.8678357,36.8155482 63.639184,37.0129986 63.8467837,36.8884388" id="Fill-12" fill="#F3F3F3"></path>
            <path d="M49.5545124,36.8289269 C49.7593441,39.867264 52.2477726,41.1257796 53.7720158,43.0375422 C53.4813763,43.5367042 53.0744808,43.9269917 52.5421029,44.3274285 C52.1278261,44.637444 51.3583232,45.2261045 50.9016038,45.2058059 C50.3286286,45.1799713 49.0608864,43.7157013 48.6761349,43.3309498 C47.8826427,42.5374576 47.170345,41.8897465 46.508794,41.3979659 C44.5139914,42.8400919 42.5238022,44.2859085 40.006771,45.2058059 C40.9026791,44.0118769 41.9046937,42.9249771 42.9353109,41.8666799 C46.0031733,41.5123764 47.6907283,38.7766735 49.5545124,36.8289269" id="Fill-14" fill="#F3F3F3"></path>
            <path d="M21.4384992,37.0641143 C20.2021276,39.9363716 20.5324418,44.5801465 20.5010712,48.8954525 C21.2179822,48.8105673 21.8620026,48.1480935 22.3759273,47.6655395 C23.1463529,47.7864087 24.2387887,47.6895288 25.0710328,47.6655395 C25.230654,46.1772803 25.2546433,44.5690745 25.3635178,43.0383726 C26.9486569,41.9487048 28.4747454,40.7999864 30.3412975,39.9926542 C30.0460446,40.5933094 29.5173573,40.886717 29.2285631,41.5150521 C28.4858174,43.1370978 29.2774643,45.4815906 28.9942061,47.4902331 C29.4204775,47.5123771 29.9279434,47.4690118 30.4003481,47.3730546 C30.1982844,47.9718645 29.4583067,48.5402263 29.0532566,49.1298095 C28.9932834,50.5940795 28.7533904,52.583346 28.6435932,54.2266131 C28.6039186,54.8245002 28.4765908,55.5303393 28.5845426,55.9243174 C28.7164838,56.4031807 29.3429736,56.6735217 29.6972771,56.9789239 C28.3861696,58.0704371 27.2789711,59.3640139 25.3044672,59.791208 C25.2703286,56.4954473 25.2712512,53.2218305 25.2463393,49.8919311 C23.7709973,49.715702 22.0253144,49.6963261 20.7944788,50.0681602 C20.625631,50.8644204 20.7178976,51.654222 20.6773003,52.4689355 C20.6376257,53.2661184 20.7400415,54.2755143 20.5010712,54.9287614 C20.2205809,55.6982644 18.5607059,56.7215003 17.9240668,57.2132809 C16.9423508,57.9735572 16.0224534,58.6913909 15.0536548,59.2053155 C15.1985133,58.2660421 16.1248693,58.1645489 16.2835677,57.0961024 C16.3638396,56.5581885 16.2697278,55.988904 16.2835677,55.3974755 C16.3444637,52.8795216 16.4542608,49.1722521 16.2835677,46.3774987 C16.1590079,44.3190322 15.8056271,41.347127 16.8694603,40.1098327 C17.0909,39.8524091 17.6260459,39.6014441 17.9831174,39.3486338 C19.0589452,38.5828215 20.2962395,37.7385827 21.4384992,37.0641143" id="Fill-16" fill="#F3F3F3"></path>
            <path d="M44.0482299,38.9383245 C43.3783748,39.1496149 42.6743812,39.8877472 41.822761,40.0510589 C40.3308111,40.3370852 38.6663227,39.8406912 37.019365,40.0510589 C38.0868889,38.3321333 41.7184998,38.3773439 44.0482299,38.9383245" id="Fill-18" fill="#F3F3F3"></path>
            <path d="M36.9606835,25.7587876 C36.8333557,22.9990955 33.3143099,21.9804729 31.0445531,21.1897486 C30.9771985,21.199898 30.9818118,21.2820152 30.9864252,21.3650551 C30.890468,24.3941655 30.7668308,26.896434 30.7520681,30.2097254 C33.7258187,30.3656559 37.0953927,28.6688742 36.9606835,25.7587876 M38.3086976,36.1258559 C38.4157268,34.1891812 38.4387934,32.0273762 38.3668255,29.9172405 C38.3280736,29.7133315 37.9894554,29.9347711 37.7228051,29.8581899 C37.9340955,29.1763402 38.5485906,28.6356583 38.3668255,27.7498995 C37.6600639,28.148491 37.1812005,28.8534073 36.5510201,29.3903986 C34.66786,30.991223 32.3833405,32.4047464 29.872768,33.4316729 C29.8441654,35.3332863 30.0960531,36.3888155 30.107125,38.2941195 C27.6482218,38.9390626 26.4690554,40.8637426 24.3681464,41.8666799 C24.2851065,41.6489308 24.7159912,41.3213846 24.8949883,40.9883024 C25.328641,40.1791249 25.8730136,38.7840548 26.0077227,37.8254055 C26.1784158,36.6019512 26.0077227,35.1183053 26.0077227,33.7250805 L26.0077227,21.4822336 C26.5963833,20.937861 27.4784514,20.6887413 28.0578852,20.1351421 C24.8442417,20.0714782 20.6451915,19.5760069 18.5101438,21.1306981 C17.6557557,21.7525745 17.8153768,22.4122803 18.2757868,23.4152176 C18.4898452,23.8830089 18.6900636,24.2917497 18.9198073,24.5870026 C20.0712937,26.0641899 22.2921492,26.5891865 24.3681464,27.0468285 C24.4982422,27.1510897 24.1688506,27.3162468 24.0156882,27.4574146 C22.9555457,28.4317492 21.5540169,29.4835878 20.3840772,30.3859545 C18.1779843,29.6671982 16.5467119,28.6245863 15.8740888,26.1684511 C15.6618758,25.3934121 15.3989162,24.4301495 15.5225533,23.5323961 C15.6129745,22.8717676 16.1296672,22.1668513 16.5181093,21.7165906 C17.8854994,20.1342195 19.6727022,19.007645 21.3215053,17.8515453 C23.2498759,16.4998405 25.345249,16.6760696 28.2331916,17.0312958 C33.2220434,17.6430229 37.7255731,18.9495171 39.6557891,22.8883756 C40.2878149,22.4113576 40.8746301,22.1059554 41.5887731,21.5412842 C41.7059516,21.448095 42.0215031,21.0153649 42.115615,21.0135196 C42.330596,21.0098289 42.6461476,21.4914602 42.8768139,21.5412842 C43.4018105,21.6538493 44.1344069,21.5708095 44.8107206,21.5994121 C46.6385207,21.679684 48.5585874,21.8476091 50.1990864,21.5412842 C50.2848943,21.7156679 49.8604682,22.0210702 49.6131939,22.2434325 C48.8879789,22.8948343 47.9929935,23.6855585 47.2705465,24.3535682 L42.8768139,24.3535682 C42.5372731,25.2033431 42.2005002,26.5513572 42.4671505,27.632721 C44.3567692,27.7379049 47.1469093,28.1623309 48.6757659,27.2230576 C48.1110947,28.2592108 47.0048189,29.2612254 46.0987615,30.1515975 C44.6594035,30.2235654 43.4553251,30.4071758 42.0565644,30.503133 C41.853578,31.6684594 41.6072264,33.2535985 42.115615,34.3109731 C43.4682425,34.5416394 45.0884429,34.6929565 46.392169,35.1302999 C46.8581151,35.287153 47.2751598,35.6137766 47.622082,35.5990139 C48.2494945,35.574102 48.5936487,34.6698899 49.086352,34.7206365 C48.849227,35.6848218 48.2642571,36.2448797 47.5630314,36.9461054 C47.2982265,37.211833 46.6034594,37.9776453 46.2749905,38.0597625 C45.7453806,38.190781 44.732294,37.8272508 44.1076496,37.708227 C40.949366,37.1048038 37.6416106,37.7257576 35.7888985,39.5821604 C36.1939486,38.2295329 37.075094,36.8455349 38.3086976,36.1258559" id="Fill-20" fill="#F3F3F3"></path>
            <path d="M0,40.1682374 C0.75935361,39.0730336 1.56576315,37.836662 2.45982591,36.7119329 C3.18135024,35.8058755 4.61609491,34.1063259 6.03330894,33.9596221 C8.95354488,33.6569878 12.4024681,33.8424436 15.9907138,33.8424436 C17.1274375,33.8424436 18.3130625,34.0694193 19.3888904,33.9596221 C20.2395878,33.8719689 20.9629575,33.2011911 21.9068442,33.080322 C21.9852707,33.264855 21.783207,33.5093614 21.6724872,33.6662145 C21.2785091,34.2262724 20.7461311,34.8093969 20.2672678,35.3648415 C19.7487299,35.9636513 18.8952644,37.1215963 18.0417989,37.2987481 C16.3893052,37.6392116 14.616865,37.0459378 12.7106383,37.2987481 L12.7106383,49.0129078 C12.7106383,50.2529701 12.9689846,51.8104292 12.7106383,52.8788758 C12.5676252,53.4730723 11.3617015,54.3496044 10.8957555,54.7537318 C10.2323591,55.3276297 9.56250403,55.8923009 8.72749186,56.2180018 C9.17313924,52.8087532 9.01997678,47.9859812 9.01997678,43.6835926 C9.01997678,42.2709918 8.74317717,40.4764077 9.07902737,39.4651664 C9.31615237,38.7547141 10.282183,38.3155254 10.6023479,37.7084115 C9.1740619,37.8689553 5.54614162,37.2295482 3.63253361,37.591233 C1.94590129,37.9086299 1.05737453,39.3359933 0,40.1682374" id="Fill-22" fill="#F3F3F3"></path>
            <path d="M80.4241281,45.6159307 C80.4296641,46.9325742 80.3973708,49.0168753 80.482256,49.5400265 C80.2239097,49.7891462 79.790257,49.8638821 79.4867001,50.0677911 C80.1943844,50.3169108 81.0792205,50.167439 82.0055766,50.1259191 C84.0049924,50.0373432 86.1972454,50.4682279 87.218636,49.3637974 C86.4592824,50.4792999 85.2478227,51.6492396 84.348224,52.8210246 C81.3495615,52.9234405 78.0962433,52.5193131 75.8550891,53.288816 C77.0361008,51.615101 76.6753386,48.479884 76.6753386,45.3815737 C76.6753386,43.3923071 76.630128,41.3725926 76.7334666,39.8751066 C74.8392345,39.5706271 72.5021231,39.650899 71.5204072,40.8706626 C72.4015526,39.9147813 73.2088848,38.2466022 74.5079977,37.6496377 C74.5827336,37.6145765 74.708216,37.5564485 74.8004826,37.5324592 C76.870021,37.0028493 79.7201344,37.8729228 82.180883,37.7086883 C84.3556053,37.5619845 86.030243,37.2418196 87.68735,36.4778527 C86.9519857,37.5979685 85.9250591,38.4255993 85.1103456,39.4654432 C83.36374,39.5447924 82.2454696,39.5567871 80.482256,39.7579281 C80.487792,41.0967156 80.5929759,42.8710011 80.716613,44.4441456 C81.177023,44.3574151 81.5230226,43.6497307 81.8883981,43.2723606 C83.6728329,43.0158596 85.8161846,43.2954272 87.0433296,42.3939831 C86.7231647,43.4218324 85.8088033,44.3620284 85.051295,45.1472166 C83.4772278,45.2219525 82.0821578,45.4941388 80.4241281,45.6159307" id="Fill-24" fill="#F3F3F3"></path>
            <path d="M41.29555,46.6700759 C40.7437961,48.0909806 39.0479371,48.8752461 38.2498316,50.2426362 C37.5698272,50.4216333 36.7846389,50.4963692 35.9062615,50.4769932 C35.7060431,52.7264514 35.6248486,55.5147462 35.8481336,57.9754948 C36.6250178,58.5060274 37.457262,58.9821227 38.8357241,58.9129228 C38.4592766,60.0782492 37.8309415,60.9926106 37.3133262,62.0167692 C34.9236229,61.3017035 31.4239531,60.6373844 29.5214171,62.1339477 C29.593385,61.1116344 30.7218047,60.6401524 31.5725022,60.2009637 C32.2349759,54.7507793 31.4442517,49.6595117 31.3962731,43.9758929 C31.0308976,43.8725544 30.6396875,43.7941279 30.2254107,43.7415359 C30.1709735,43.5200962 30.6996608,43.2663633 30.9866097,43.0375422 C31.8493018,42.3520019 32.8319404,41.4634751 33.6807926,40.7539454 C36.3574449,41.1147076 39.5590938,41.4459445 42.232978,40.8711239 C41.4846964,42.2117567 40.2870767,43.1039742 39.3044381,44.21025 C38.4731166,44.3578764 37.3031769,44.0580102 36.1996691,43.8577918 C35.8610509,44.7592359 35.9773067,45.8747383 35.8481336,46.8453823 C37.3040996,47.2033765 40.1468316,47.5586026 41.29555,46.6700759" id="Fill-26" fill="#F3F3F3"></path>
            <path d="M70.5243899,48.895637 C71.3584794,48.3060539 73.1512182,47.5125616 73.1023169,46.3776832 C73.071869,45.6875295 72.2866808,45.2686394 71.5789964,45.1477702 C70.5954351,44.9770772 68.7796296,45.3230767 67.6549005,45.0887197 C67.6023086,45.1062503 67.3974769,45.2474181 67.537722,45.2640261 C67.5063514,47.0945942 67.6041539,49.5904041 67.4786714,50.9467222 C68.4105635,50.3986589 69.5029993,49.618084 70.5243899,48.895637 M64.0814175,45.6746122 C65.6471807,44.4280912 66.9379895,42.9075387 68.3570489,41.5152366 C69.5426739,42.9278373 73.2969993,42.0660679 75.1524794,43.0376345 C75.5086283,43.2249356 76.1138968,43.6281404 76.2061633,44.0931637 C76.4838856,45.4762391 74.6487041,47.1619488 73.9806944,47.7829026 C72.8864133,48.8015252 71.9166919,49.6393053 70.6415684,50.3017791 C72.2008729,51.9874887 73.7657134,53.9675286 76.4405203,54.3430535 C75.8186438,55.1365457 74.7298987,55.6873769 73.7463374,56.2760374 C73.4538525,56.4504212 72.9694531,56.7779674 72.7507814,56.8028794 C72.0006545,56.8923779 70.45519,55.8433074 69.9384974,55.5148385 C69.0379759,54.9418633 68.3136836,54.3771921 67.6549005,53.7580836 C67.6936525,55.1319324 67.2821437,57.1701002 67.772079,58.6196075 C66.139884,59.467537 64.427417,60.2342719 63.0849389,61.3719183 C65.14156,58.770002 64.1967507,52.53832 64.3739024,47.958209 C64.4061957,47.1222742 64.5741208,46.1848461 64.0814175,45.6746122" id="Fill-28" fill="#F3F3F3"></path>
            <path d="M66.2490353,42.4522956 C65.3798845,43.5687207 64.6380615,45.1593958 63.0852157,45.7332937 C61.906972,46.1678691 60.3670435,45.6973097 58.8686349,46.1429571 C58.6665712,48.2051143 58.57615,50.814412 58.57615,53.5233575 C58.57615,56.6004466 58.4239102,59.9930872 59.2782983,62.1927215 C58.4414408,63.2104214 57.3194797,63.9430177 56.0563508,64.5353689 C54.6668167,60.7330648 55.0783255,54.5512068 55.2361013,50.0080024 C55.2610132,49.3076994 55.1632107,48.4819139 55.2951519,47.9587626 C55.5322769,47.0130306 56.8295444,46.6790257 57.1109573,45.9676507 C55.212112,45.3762222 52.8666966,45.9408934 51.4882345,46.7288496 C52.4902491,45.6225739 54.0430949,44.5596633 54.9436163,43.1553666 C58.7837497,43.2088812 63.0769117,43.4607689 66.2490353,42.4522956" id="Fill-30" fill="#F3F3F3"></path>
            <path d="M42.1155227,60.0838775 C42.9099376,58.6316022 44.9720948,58.973911 46.9779693,59.0292709 C46.5332446,56.1542456 46.1005145,53.2672256 45.5718273,50.4770855 C44.4332582,53.6528997 43.143372,56.9920258 42.1155227,60.0838775 M37.4883558,67.5814564 L35.8478568,67.5814564 C35.690081,67.4070726 35.9041394,67.1893236 35.9650353,67.0546144 C38.9194098,60.5461328 41.6717207,53.5495612 44.4009649,46.9045251 C44.075264,46.2715767 43.1203053,45.9578705 42.8767217,45.4402552 C44.7626497,45.2750981 46.948444,44.591403 48.3241381,43.9178573 C48.9284839,47.6288175 49.6324776,51.5722893 50.4333512,55.39766 C51.3163419,59.6123955 52.2251673,64.5864845 54.3583697,67.2889714 C52.5065803,67.3258781 50.5837456,67.3517127 48.9100306,67.4061499 C48.3121434,65.6023391 47.8923307,63.6204539 47.3876327,61.7234538 C46.6218205,61.5813634 46.3773141,62.3739329 45.6890058,62.4265249 C45.1215665,62.4698901 44.3409916,62.109128 43.6969712,61.9578109 C42.9671429,61.7871178 42.2880612,61.6782432 41.6468087,61.4890968 C40.953887,63.4331528 40.1853068,65.2987822 39.6556968,67.4061499 C38.7856234,67.4116859 38.2523228,67.4347526 37.4883558,67.5814564" id="Fill-32" fill="#F3F3F3"></path>
        </g>
    </g>
</svg>