<?xml version="1.0" encoding="UTF-8"?>
<svg id="Calque_1" xmlns="http://www.w3.org/2000/svg" version="1.1" viewBox="0 0 240 283.7">
  <!-- Generator: Adobe Illustrator 30.4.0, SVG Export Plug-In . SVG Version: 2.1.4 Build 226)  -->
  <path d="M75.1,3.4l-.2.4c10.2,1,15.7,8.1,16.5,18.1v1.3c.2.5.2.9.5,1.5v73.4c-.3,1.2-.4,2.2-.5,3.3l-.5,3.2-.5,2.2c-.8,3.2-2.2,6.1-4.5,8.4s-3.1,2.2-4.8,3.3c4.6,1.1,7.8,5.4,8.7,9.9l.6,2.9c.3,1.4.5,2.6.5,4.1v35.1c.1,0,.3,24.2.3,24.2l.2,11.4v11.9c.1,0,.4,2.3.4,2.3v2.3c.1,0,.2,5.1.2,5.1h-6.3c-.3-.3-.6-1.1-.6-1.5l-.2-6.9-.3-4.8-.2-6.9v-30.2c0,0-.2-1.7-.2-1.7v-37.6c0-1.1-.5-2.2-.4-3.4s-.1-2.4-.4-3.6l-.5-2.1c-.8-3.2-3.2-5.6-6.4-6.6l-3-.6h-13.5c0,0,0,105.9,0,105.9h-6.6s0-224.2,0-224.2h21.8ZM84.9,97V26.3s-.5-4-.5-4c-.1-.9-.2-1.7-.5-2.5l-.5-1.8c-1.1-3.6-3.8-6.5-7.5-7.6l-2.2-.6c-3.2-.9-9.8-.4-13.8-.5v105.8s14,0,14,0l2.3-.6c4-1.3,6.5-4.6,7.5-8.6l.6-2.5.4-4,.3-2.4Z"/>
  <path d="M.4,209v-122.5c.1.1.4,0,.4,0v-.6c.3-3.8,2-8.7,4.2-11.7s5.7-5.6,9.7-6.6,6.1-1,8.6-.6l3.2.5,1.9.6c4.9,1.6,8.4,6,9.8,10.8l.4,1.5.5,2.4.6,4.3c.3,3.5,0,6.9.1,10.5h-7s0-7.1,0-7.1l-.2-1.9-.4-4-.5-2.2c-1.1-4.6-3.9-8-8.7-8.9s-8.2,0-11,2.6-3.4,4.5-3.9,7.3l-.5,3c-.2.9-.4,1.7-.4,2.7v114.8s.5,4.8.5,4.8l.6,3c.9,4.8,4,10,9,11s4.7.4,6.8,0c4.1-.8,6.9-4.5,7.8-8.4l.6-2.4c.3-1.2.4-2.4.5-3.6l.2-3.1v-7.2c0-.3.4-1.1.7-1.1h6.6c0,0-.2,9.6-.2,9.6l-.6,5.2-.5,2.6-.6,2.3-.7,1.9c-1.9,5.3-6.2,9.1-11.6,10.3s-2.4.5-3.6.5l-6.3-.2-2.7-.6c-5-1.1-8.8-4.7-10.6-9.4l-1-2.6-.5-1.7-.5-2.2-.4-4-.4.2Z"/>
  <path d="M240.4,147.9v6.4s-17.3,0-17.3,0c-.2,0-.7.3-.7.5l.2.7v72.1s-6.7,0-6.7,0v-73.3s-18.5,0-18.5,0v-6.3s43,0,43,0Z"/>
  <path d="M183.2,188.5l-.5-2.9h-20.3s-.5,3.6-.5,3.6l-.6,3.7-.6,3.5-.6,3.7-.6,3.4-.6,3.7-.6,3.5-.6,3.7-.6,3.5-.6,3.6-.6,3.6-.4,2.4h-6.7c0-1.1.2-1.9.4-2.9l.3-2.1.6-3.6.6-3.5.6-3.6.5-3.4.4-1.5.5-3.5.6-3.4.6-3.6.6-3.6.6-3.5.6-3.5.6-3.4.6-3.6.6-3.4.6-3.6.6-3.4.6-3.6.6-3.3.6-3.5.6-3.7.6-3.4.6-3.4.6-3.3.6-3.5.6-3.7.5-3.3.6-3.7.6-3.4.6-3.4.3-2,.5-3.1.5-2.9h9.7s.4,2.7.4,2.7l.7,3.8.5,2.7.4,2,.6,3.4.6,3.4.6,3.3.6,3.4.6,3.3.6,3.4.6,3.1.6,3.6.6,3.1.6,3.3.6,3.4.6,3.3.6,3.4.6,3.1.6,3.4.6,3.4.6,3.3.6,3.4.6,3.3.6,3.4.5,3.1.6,3.4.6,3.6.5,3.1.6,3.4.4,1.4.6,3.7.5,3.1.5,3.1.7,3.9.3,2.6h-7.1s-.4-2.5-.4-2.5l-.4-2.5-.5-3.2-.6-3.5-.6-3.5-.6-3.4-.6-3.2-.6-3.6-.6-3.3-.6-3.4-.6-3.5-.6-3.4ZM181.5,178.5l-.6-3.6-.5-2.8-.6-3.7-.6-3.2-.6-3.4-.6-3.6-.5-3.3-.6-3.8-.6-3.4-.6-3.5-.6-4.2-.4-2.2-.4-3.1-.6-3.9-.6-4.3c-.2-1.4,0-2.8-.6-4.3l-.7,4.6-.6,4.6-.6,3.8-.6,3.9-.6,3.8-.6,3.6-.6,3.6-.6,3.6-.6,3.7-.6,3.8-.6,3.4-.6,3.8-.5,3.3-.6,3.9c-.2,1.3-.3,2.6-.8,3.9h17.4c.2,0,.7.1.7,0v-.8Z"/>
  <path d="M113,154.2v67s29,0,29,0l-.5,1.4-.2,2.5c-.3.8-.4,1.4-.5,2.4h-34.3s0-158.9,0-158.9h33.7s0,6.3,0,6.3h-27.2s0,72.8,0,72.8h25.6s.1,6.4.1,6.4h-25.7Z"/>
  <path d="M120.7,273.6c-.7.1-.8.6-.9,1.2,0,.9-.3,1.6-.4,2.5l-.3,1.9-.5,1.9h-2.1s-.4-1.5-.4-1.5l-.4-2.2-.5-3.7c0-.2-.3-.5-.3-.6s-.3.4-.3.5v7.6c.1,0-2.2,0-2.2,0v-14s3.4,0,3.4,0l.5,1.9.6,3.3c.2,1.2.3,2.2.8,3.4.5-.4.6-.7.6-1.2,0-.9.2-1.6.4-2.4l.6-3,.6-2h3.3c0,0,0,13.9,0,13.9h-2.4c0,.1,0-7.5,0-7.5Z"/>
  <path d="M170.8,247.9c-.7.1-.8.6-.9,1.2l-.4,2.7-.4,2.1-.4,1.7h-2.2s-.8-3.8-.8-3.8l-.5-3.6v-.5c0-.1-.4-.3-.4-.2l-.2.6.2,7.4h-2.4c0,0,0-13.9,0-13.9h3.3c0,0,.6,2.1.6,2.1l.5,2.8c.2,1.3.3,2.3.9,3.6.5-.2.5-1.5.9-3.6l.6-2.8.4-2.1h3.6c0,0,0,13.8,0,13.8-.8.2-1.7.2-2.5,0v-7.6Z"/>
  <path d="M103,281.2h-3.1c-.4-.7-.7-1-1.2-1.4-1.1,1.7-2.8,2-4.7,1.4s-2.1-2-2.2-3.1c-.1-1.7.5-2.8,1.8-4s-.2-1.2-.4-1.6l-.7-1.9.6-1.7c.2-.5,1-1.3,1.5-1.5.8-.1,2-.2,2.8,0,1.5.4,2.1,2,1.9,3.4s-1.3,2.4-2.4,3.2l1.7,2,1.1-2.2c.2-.4.7-.9,1-1.1s1.4-.1,1.8.4l-2.6,4.4,2.9,3.6ZM96.9,269.4c-.2-.4-1.3-.5-1.5-.2-.5,1.1-.3,2.6.7,3.3.9-.8,1.4-2,.8-3.1ZM97.3,277.8l-2.1-2.6c-1.2,1.1-1.4,3,0,4.1s1.1.1,1.5-.1,1-1.1.7-1.5Z"/>
  <path d="M145.9,255.4c-.8.3-1.8.3-2.8.1l-2.9-7.8v-.6c0-.1-.4-.2-.7-.2v8.6c0,0-2.2,0-2.2,0v-13.8s2.7,0,2.7,0l3,7.9v.7c0,.1.4.2.7.2v-8.9c.7,0,1.3,0,2.1.1v13.6Z"/>
  <path d="M85.9,246.9v8.6c0,0-2.2,0-2.2,0v-13.9s2.7,0,2.7,0l3.1,8.2v.5c0,.1.4.3.4.2s.2-.5.2-.7v-8.2s2.1.1,2.1.1v1.9c-.1,0-.1,10.8-.1,10.8v1.2c.1,0-2.6,0-2.6,0l-2.9-7.8c-.1-.4,0-1-.7-.8Z"/>
  <path d="M19.2,281.2c-.4,0-.5-1.1-.6-1.6l-.2-4-2.9-.3v6s-2.3-.1-2.3-.1v-13.9s5.2,0,5.2,0c1.8,0,2.8,1.8,2.9,3.4s-.6,2.6-1.5,3.6c1,1.3,1.5,2.6,1.1,4.2l.4,2.8h-2.2ZM19.2,271.1l-.8-1.5c-.9-.2-1.9-.3-2.8-.1v3.8s2.7-.1,2.7-.1l.8-2Z"/>
  <path d="M202.4,281.2l-.2-2.6-.3-3c-.8-.2-1.8-.3-2.8-.3v5.9s-2.3,0-2.3,0v-14s5.4,0,5.4,0l1.3.7c2.1,1.4,2,4.6,0,6.2,1.3,1.3,1.2,2.8,1.3,4.5l.2,2.5h-2.4ZM202.6,271.1c0-.4-.6-1.3-.8-1.6l-2.7-.3v3.9s2.7,0,2.7,0c.2-.5.7-1.3.8-2Z"/>
  <path d="M49.8,255.6l-.2-2.6-.3-3c-.9-.2-1.8-.3-2.8-.3v6s-2.3,0-2.3,0v-14s4.8,0,4.8,0c1.6,0,2.8,1.3,3.2,2.5.5,1.7,0,3.2-1.3,4.4,1,1.1,1.2,2.6,1.3,4.2l.2,2.8h-2.5ZM49.9,245.4c0-.4-.6-1.4-.9-1.5-.6-.2-1.7-.3-2.6-.3v3.9s2.7,0,2.7,0c.2-.5.6-1.3.8-2Z"/>
  <path d="M133.3,252c-.4,2.4-2.4,4.4-4.7,3.9s-2.9-1.3-3.3-2.9l-.5-1.5c-.6-3.5-.3-8.7,2.7-9.9,1.5-.6,2.2-.4,3.6,0s2,2,2.3,3.2l.3,1.8c.2,1.1.2,2.6,0,3.7l-.3,1.5ZM129.6,253.7c.5-.3,1.2-1.3,1.3-1.8.2-2.4.2-4.7,0-6.9s-1.2-1.7-1.9-1.8l-1.5,1.4c-.6,3.8-.4,10.5,2.2,9.1Z"/>
  <path d="M158.6,250.5l-.4,1.7c-.5,2.3-2.5,4.2-4.7,3.7s-3.2-2-3.6-4c-.8-3.6-.5-9.4,2.7-10.3l1.6-.5,1.8.5c1.2.4,2.1,2.1,2.3,3.3s.2,1.1.4,1.6v3.9ZM156,250.8v-5.5s-.9-1.4-.9-1.4c-.2-.3-.9-.7-1.2-.6-.7.3-1.5,1.2-1.5,2-.3,2.6-.5,5.1.3,7.5s1,1.2,1.4,1.1c1.1,0,1.9-1.6,1.9-3.1Z"/>
  <path d="M153.6,278.6c-.2.7-.8,2.1-1.4,2.4l-2.3.6,1.4.4h-3.3c0,0,.2-.2.2-.2h1.4c0-.1-2.6-.7-2.6-.7-.6-.4-1.5-1.8-1.5-2.6v-11.2s2.3,0,2.3,0v10.8c0,.8,1.1,1.4,1.6,1.4s1.9-.3,1.9-1.2v-11.1c0,0,2.7,0,2.7,0v9.6s-.4,1.7-.4,1.7Z"/>
  <path d="M21.4,255.5h-2.4c0,0,0-6.3,0-6.3h-3.5s0,6.4,0,6.4h-2.3s0-13.8,0-13.8l2.3-.2v5.6c1.3-.2,2.1-.2,3.5,0v-5.5c.7-.1,1.5-.2,2.4,0v13.9Z"/>
  <path d="M42.1,279.2l-.4-1.6h-3.2c0,0-.6,3.6-.6,3.6h-2.5s.5-1.9.5-1.9l.6-2.4.6-2.8.5-2.2.6-2.6.5-2h2.9s.6,2.2.6,2.2l.5,2.1.6,2.7.5,2.3.6,2.7.5,1.9h-2.6s-.4-2-.4-2ZM41.3,275.4l-.4-1.9-.5-2.8-.8,2.1-.5,2.5h2.3Z"/>
  <path d="M31.2,252h-2.5c-1.2,0-.6,1.7-1.4,3.6h-2.5s.5-1.8.5-1.8l.7-2.8.6-2.4.6-2.5.6-2.6.5-1.9h2.9c0,0,.6,2,.6,2l.6,2.4.6,2.5.6,2.6.5,2.3.7,2.2h-2.7c0,0-.2-1.5-.2-1.5l-.5-2ZM30.8,249.7l-.5-1.9-.5-2.7c-.8,1.1-.8,2.3-1.1,3.6l-.2,1h2.3Z"/>
  <polygon points="165.8 281.2 163 281.2 160.9 276.1 158.8 281.2 156.2 281.2 159.5 274.1 156.3 267.3 159.1 267.2 161 272 163 267.3 165.6 267.3 162.3 273.8 164.6 278.9 165.8 281.2"/>
  <path d="M72.5,269.4l-.7,2.7-.5,2-.6,2.2-.6,2.5-.5,2.4h-2.9s-.6-2-.6-2l-.6-2.4-.6-2.5-.6-2.4-.6-2.5-.5-2.3h2.7c0,0,.3,2,.3,2l.7,3.1.5,2.2.8,3c.5-.6.4-1.4.5-2.2l.6-2.7.6-2.8.5-2.5h2.6c0,0-.6,2-.6,2Z"/>
  <path d="M141.3,274.8h-4.6s0,4.3,0,4.3h4.8c.7.1.4,2.1-.3,2.1h-6.8s0-13.9,0-13.9h7s0,2.3,0,2.3h-4.6s0,3.5,0,3.5h4.5s0,1.8,0,1.8Z"/>
  <path d="M215.9,274.8h-4.7s0,4.3,0,4.3h4.8c.5.4.2,1.7-.3,2.1h-6.9s0-13.9,0-13.9h6.9s0,2.3,0,2.3h-4.7s0,3.5,0,3.5h4.6s0,1.8,0,1.8Z"/>
  <path d="M31.9,274.8h-4.7s0,4.3,0,4.3h4.8c.5.5.2,1.7-.3,2.1h-6.9s0-13.9,0-13.9h6.9s0,2.3,0,2.3h-4.7s0,3.5,0,3.5h4.6s0,1.8,0,1.8Z"/>
  <path d="M182.1,274.8h-4.6s0,4.3,0,4.3h4.8c.6.1.3,1.9-.2,2.1h-6.9s0-13.9,0-13.9h6.9c0,0,0,2.2,0,2.2h-4.7s0,3.5,0,3.5h4.5s0,1.7,0,1.7Z"/>
  <path d="M58.7,249.2v4.3s5,0,5,0c.2.7,0,1.5-.4,2h-7s0-14,0-14h6.9c0,0,0,2.2,0,2.2h-4.7s0,3.6,0,3.6h4.6s0,1.7,0,1.7h-4.6Z"/>
  <path d="M186.8,249.2v4.3s5,0,5,0c.2.7,0,1.5-.4,2.1h-6.9s0-14,0-14h6.9c0,0,0,2.2,0,2.2h-4.7s0,3.6,0,3.6h4.6s0,1.7,0,1.7h-4.6Z"/>
  <path d="M4.8,279.4c.3.3,1.3.2,1.6,0s.6-1.2.8-2c.5-.3,1.7-.3,2.6,0l-.4,1.4c-.3,1.2-1,2.3-2.2,2.6s-2.2.3-3.4,0c-2.9-.8-3.1-6.4-2.4-10s1.1-3.3,2.7-3.8l1.6-.5,1.7.5c1,.3,1.8,1.4,2.1,2.4l.4,1.6h-2.9c.3-1.3-.5-2.4-1.5-2.3-.5,0-1.4.9-1.5,1.4l-.3,1.8v4.1c0,1,.3,2.3,1.1,3Z"/>
  <path d="M74.9,249.2v4.4c1.9-.1,3.2-.3,4.8,0s.3,2-.3,2h-6.8s0-14,0-14h6.9c0,0,0,2.2,0,2.2h-4.7s0,3.6,0,3.6h4.6s0,1.7,0,1.7h-4.7Z"/>
  <path d="M116.4,253.6c.3.4,1.5.3,1.8,0s.6-1,.7-2h2.6s-.4,1.4-.4,1.4c-.4,1.5-1.3,2.4-2.8,2.8-2.4.7-4.7-.8-5.2-3.6s-.6-4.3,0-6.4l.5-1.8c.2-.8,1.3-2.1,2-2.3l1.9-.5,1.7.5c1.1.3,1.8,1.5,2,2.5l.3,1.5h-2.7c0,0-.3-1.7-.3-1.7,0-.4-1.1-.8-1.5-.6-1.2.8-1.5,1.7-1.5,3.2v4.3c0,.9.3,2.1.9,2.8Z"/>
  <path d="M83.1,274.8h-4.6s0,4.3,0,4.3h4.8c.4.6.2,1.7-.2,2.1h-7s0-13.9,0-13.9h7s0,2.2,0,2.2h-4.6s0,3.5,0,3.5h4.6c0,0,0,1.8,0,1.8Z"/>
  <path d="M3.7,250.5c0,1.8.5,3.5,1.9,3.4s1.2-.6,1.4-1.3l.2-1.1h2.6c0,0-.4,1.5-.4,1.5-.4,1.5-1.3,2.4-2.8,2.9-2.4.7-4.7-.8-5.2-3.6s-.6-4.3,0-6.4l.5-1.8c.2-.8,1.3-2,2.1-2.3,1.8-.7,2.1-.5,3.6,0s2.4,2.6,2.3,4h-2.6c0,0-.3-1.7-.3-1.7,0-.4-1.1-.8-1.4-.6-.4.3-1.1,1-1.3,1.4l-.2,2v3.8Z"/>
  <path d="M109.3,249.2h-4.6s0,4.2,0,4.2h4.6c.8.2.5,2.2-.2,2.2h-6.8s0-13.9,0-13.9h7s0,2.2,0,2.2h-4.6s0,3.6,0,3.6h4.5s0,1.8,0,1.8Z"/>
  <path d="M51.1,281.1h-2.3c0,0,0-11.6,0-11.6h-2.9s0-2.3,0-2.3h8.2c.6.3.5,2.1-.2,2.2s-1.7,0-2.7,0v11.7Z"/>
  <path d="M190.9,281.2h-2.3c0,0,0-11.7,0-11.7h-2.9s0-2.3,0-2.3h8.2c.5.6.4,2-.3,2.2h-2.7s0,11.7,0,11.7Z"/>
  <polygon points="59.8 281.2 57.5 281.2 57.5 267.3 59.8 267.2 59.8 281.2"/>
  <polygon points="129.7 281.2 127.4 281.2 127.4 267.3 129.7 267.2 129.7 281.2"/>
  <polygon points="179.8 255.6 177.5 255.6 177.5 241.7 179.8 241.6 179.8 255.6"/>
  <polygon points="39.5 255.5 37.1 255.6 37.1 241.7 39.4 241.6 39.5 255.5"/>
  <path d="M182,266.4c-2.6.7-2.6-.6-3.4-.9s-.7,1.8-3.2.9l2.1-2.6h2.1s2.3,2.6,2.3,2.6Z"/>
  <path d="M171.6,275.3h-4.3c-.2-.7-.3-1.5-.2-2.2h4.6s0,2.2,0,2.2Z"/>
  <path d="M106.8,240.7c-.4.4-1.7.2-2.3,0l2.3-2.6h2.8c0,0-2.8,2.6-2.8,2.6Z"/>
  <polygon points="29.3 266.5 27 266.5 29.4 263.7 32.1 263.8 29.3 266.5"/>
</svg>