<?xml version="1.0" encoding="utf-8"?>
<!-- Generator: Adobe Illustrator 25.4.1, SVG Export Plug-In . SVG Version: 6.00 Build 0)  -->
<svg version="1.1" id="Calque_1" xmlns="http://www.w3.org/2000/svg" xmlns:xlink="http://www.w3.org/1999/xlink" x="0px" y="0px"
	 viewBox="0 0 408.8 357.7" style="enable-background:new 0 0 408.8 357.7;" xml:space="preserve">
<style type="text/css">
	.st0{fill:#464646;}
</style>
<path class="st0" d="M408.8,92.6c-3.1,3.4-5.7,7.3-9.2,10c-31.7,24-63.5,47.8-95.4,71.6c-2.7,2-5.9,3.8-9.2,4.4
	c-7.5,1.3-13.8-5-13.9-13.4c-0.1-10.9,0-21.8,0-32.7c0-1.4,0-2.9,0-4.8c-1.7,0-3.1,0-4.6,0c-14,0-27.9-0.1-41.9,0
	c-48,0.6-83.2,22.2-105.7,64.6c-0.9,1.6-1.6,3.4-2.6,5c-3.1,5.4-8.8,8.1-14,6.8c-6.1-1.5-10.1-6.6-10.1-13.2
	c0.2-14.4,2.3-28.6,6.8-42.4c10-30.3,28.2-54.6,54.4-72.8C181.3,63.4,201,55,222.7,52.9c17-1.6,34.2-1.3,51.4-1.8c2.1-0.1,4.2,0,7,0
	c0-1.6,0-3,0-4.4c0-10.8,0-21.6,0-32.3c0-5.6,1.9-10.2,7-12.9c5.2-2.7,10-1.5,14.5,1.8c33.4,25.1,66.8,50.1,100.2,75.2
	c2.5,1.9,4.1,5,6.1,7.6C408.8,88.3,408.8,90.5,408.8,92.6z"/>
<path class="st0" d="M51.4,306.4c76.6,0,152.9,0,229.5,0c0-33.7,0-67.1,0-100.9c17.1,0,33.9,0,51.2,0c0,1.4,0,2.8,0,4.2
	c0,39.9,0,79.8,0,119.7c0,17.8-10.5,28.2-28.3,28.2c-91.8,0-183.6,0-275.4,0c-18,0-28.4-10.4-28.4-28.5c0-91.7,0-183.4,0-275
	c0-18.3,10.4-28.6,28.7-28.6c31.4,0,62.8,0,94.2,0c1.4,0,2.9,0,4.6,0c0,17.1,0,33.9,0,51c-25.4,0-50.6,0-76.1,0
	C51.4,153.2,51.4,229.7,51.4,306.4z"/>
</svg>
