<?xml version="1.0" standalone="no"?>
<!DOCTYPE svg PUBLIC "-//W3C//DTD SVG 20010904//EN"
 "http://www.w3.org/TR/2001/REC-SVG-20010904/DTD/svg10.dtd">
<svg version="1.0" xmlns="http://www.w3.org/2000/svg"
 width="700.000000pt" height="700.000000pt" viewBox="0 0 700.000000 700.000000"
 preserveAspectRatio="xMidYMid meet">
<metadata>
Created by potrace 1.14, written by Peter Selinger 2001-2017
</metadata>
<g transform="translate(0.000000,700.000000) scale(0.100000,-0.100000)"
fill="#000000" stroke="none">
<path d="M4685 6935 c-184 -44 -317 -200 -328 -384 -7 -101 30 -220 89 -290
l24 -29 -126 -323 c-69 -178 -130 -334 -135 -346 l-8 -21 -58 18 c-103 32
-297 72 -411 86 -26 2 -58 7 -72 10 -44 10 -493 13 -560 4 -36 -4 -87 -11
-115 -14 -27 -3 -63 -8 -80 -11 -82 -15 -132 -25 -150 -29 -86 -19 -123 -29
-213 -56 -186 -55 -425 -159 -585 -254 l-77 -45 -133 177 c-72 97 -135 179
-138 182 -22 19 -203 276 -200 285 2 5 5 45 7 87 14 324 -321 542 -609 396
-183 -92 -277 -313 -216 -506 47 -147 198 -273 346 -288 l58 -6 232 -308 c128
-170 234 -313 235 -318 2 -5 -49 -63 -112 -128 -302 -310 -511 -647 -652
-1054 -17 -47 -32 -92 -34 -100 -2 -8 -15 -58 -29 -110 -13 -52 -27 -110 -30
-130 -3 -19 -7 -42 -10 -50 -9 -30 -35 -220 -41 -301 -12 -158 -7 -405 12
-546 16 -125 23 -165 44 -263 117 -530 367 -992 745 -1374 111 -112 166 -162
285 -257 52 -42 237 -169 246 -169 3 0 24 -13 47 -28 138 -93 503 -247 707
-297 167 -41 325 -68 500 -84 84 -8 368 -6 465 3 653 58 1269 347 1735 815
116 117 213 231 309 365 l80 113 58 7 c171 20 408 72 479 105 228 107 367 308
381 552 9 145 -25 235 -125 336 -66 68 -144 117 -247 157 -39 15 -83 32 -98
38 l-28 11 7 86 c16 181 7 439 -21 626 -12 74 -14 90 -25 145 -22 116 -90 351
-129 445 -5 11 -24 56 -42 100 -18 44 -48 109 -67 145 -19 36 -46 88 -60 115
-23 44 -137 221 -198 309 -39 56 -154 190 -229 266 -250 258 -478 425 -791
583 l-52 26 14 38 c7 21 67 175 133 343 l119 305 68 18 c208 54 336 228 321
437 -12 173 -131 326 -295 377 -63 19 -156 23 -217 8z m-1045 -1791 c609 -77
1151 -387 1532 -876 213 -272 381 -635 434 -938 3 -14 7 -32 9 -40 2 -8 7 -37
11 -65 3 -27 8 -59 10 -70 13 -64 26 -355 16 -355 -6 0 -240 140 -352 211 -52
33 -100 63 -106 67 -7 4 -15 32 -18 63 -4 31 -9 67 -11 80 -3 13 -7 33 -9 45
-37 193 -142 421 -281 609 -165 223 -436 426 -695 520 -63 23 -252 72 -308 81
-77 11 -392 13 -462 4 -36 -6 -81 -12 -100 -15 -350 -51 -688 -193 -990 -419
-122 -91 -336 -304 -427 -426 -143 -192 -257 -410 -329 -629 -75 -225 -104
-398 -109 -646 -5 -252 16 -419 82 -649 44 -154 128 -343 195 -438 60 -86 -78
56 -178 182 -196 249 -327 507 -413 813 -16 57 -32 120 -35 138 -3 19 -10 57
-15 86 -6 28 -13 78 -16 110 -3 32 -8 75 -11 95 -11 86 -5 375 11 468 2 14 7
45 10 70 18 131 93 400 139 504 154 341 282 533 506 756 392 393 837 604 1415
673 74 9 400 3 495 -9z m1312 -3932 c-87 -85 -245 -211 -347 -277 -90 -58
-255 -149 -259 -144 -8 10 -67 164 -90 234 -28 88 -59 215 -53 221 2 2 91 6
198 8 240 6 533 17 538 22 1 1 21 2 42 2 l39 0 -68 -66z"/>
</g>
</svg>
