<?xml version="1.0" encoding="UTF-8"?>
<svg id="Layer_1" data-name="Layer 1" xmlns="http://www.w3.org/2000/svg" viewBox="0 0 80.48 70.55">
  <defs>
    <style>
      .cls-1 {
        fill: #1f1f2e;
      }

      .cls-1, .cls-2 {
        stroke-width: 0px;
      }

      .cls-2 {
        fill: #f09664;
      }
    </style>
  </defs>
  <path class="cls-2" d="m73.48,18.67h-5.4v-7.52h3.34c1.14,0,2.06.93,2.06,2.06v5.46ZM7,13.22c0-1.14.93-2.06,2.06-2.06h3.34v7.52h-5.4v-5.46Zm19.54-2.06h27.4v7.52h-27.4v-7.52Z"/>
  <path class="cls-1" d="m55.35,32.61l-19.52,19.52-8.5-8.5c-.98-.98-2.56-.98-3.54,0s-.98,2.56,0,3.54l8.86,8.87c.85.85,1.98,1.32,3.18,1.32s2.33-.47,3.18-1.32l19.88-19.88c.98-.98.98-2.56,0-3.54-.98-.98-2.56-.98-3.54,0"/>
  <path class="cls-1" d="m73.48,18.67h-5.4v-7.52h3.34c1.14,0,2.06.93,2.06,2.06v5.45Zm0,43.67c0,1.14-.92,2.06-2.06,2.06H9.06c-1.14,0-2.06-.93-2.06-2.06V23.68h6.48c1.25,2,3.47,3.34,6,3.34s4.75-1.34,6-3.34h29.55c1.25,2,3.47,3.34,6,3.34s4.75-1.34,6-3.34h6.48v38.66ZM7,13.22c0-1.14.93-2.06,2.06-2.06h3.34v7.52h-5.4v-5.45Zm10.41-5.01c0-1.14.93-2.06,2.06-2.06s2.06.93,2.06,2.06v11.75c0,1.14-.92,2.06-2.06,2.06s-2.06-.93-2.06-2.06v-11.75Zm9.13,2.95h27.4v7.52h-27.4v-7.52Zm32.41-2.95c0-1.14.92-2.06,2.06-2.06s2.06.93,2.06,2.06v11.75c0,1.14-.92,2.06-2.06,2.06s-2.06-.93-2.06-2.06v-11.75Zm12.47-2.06h-3.65c-.88-2.9-3.58-5.01-6.76-5.01s-5.88,2.11-6.76,5.01h-28.01c-.88-2.9-3.58-5.01-6.76-5.01s-5.88,2.11-6.76,5.01h-3.65c-3.9,0-7.07,3.17-7.07,7.07v49.12c0,3.9,3.17,7.07,7.07,7.07h62.36c3.9,0,7.07-3.17,7.07-7.07V13.22c0-3.9-3.17-7.07-7.07-7.07"/>
</svg>