<?xml version="1.0" encoding="UTF-8"?>
<svg id="Layer_1" data-name="Layer 1" xmlns="http://www.w3.org/2000/svg" viewBox="0 0 72.3 72.38">
  <defs>
    <style>
      .cls-1 {
        fill: #1f1f2e;
      }

      .cls-1, .cls-2 {
        stroke-width: 0px;
      }

      .cls-2 {
        fill: #f09664;
      }
    </style>
  </defs>
  <path class="cls-2" d="m28.82,42.68c-7.65,0-13.86-6.22-13.86-13.86s6.22-13.86,13.86-13.86,13.86,6.22,13.86,13.86-6.22,13.86-13.86,13.86m0-36.46c-12.46,0-22.59,10.14-22.59,22.59s10.13,22.59,22.59,22.59,22.59-10.14,22.59-22.59S41.28,6.23,28.82,6.23"/>
  <path class="cls-2" d="m65,59.87l-1.35-1.35-5.21,5.21,1.35,1.35c1.44,1.44,3.77,1.44,5.21,0,1.43-1.44,1.43-3.77,0-5.21"/>
  <path class="cls-1" d="m28.82,42.68c-7.65,0-13.86-6.22-13.86-13.86s6.22-13.86,13.86-13.86,13.86,6.22,13.86,13.86-6.22,13.86-13.86,13.86m0-32.74c-10.41,0-18.87,8.47-18.87,18.87s8.47,18.87,18.87,18.87,18.87-8.47,18.87-18.87-8.47-18.87-18.87-18.87"/>
  <path class="cls-1" d="m28.82,17.88c-1.38,0-2.5,1.12-2.5,2.5s1.12,2.5,2.5,2.5c3.27,0,5.93,2.66,5.93,5.93,0,1.38,1.12,2.5,2.5,2.5s2.5-1.12,2.5-2.5c0-6.03-4.91-10.94-10.94-10.94"/>
  <path class="cls-1" d="m65,65.08c-1.44,1.43-3.77,1.44-5.21,0l-1.35-1.35,5.21-5.21,1.35,1.35c1.44,1.44,1.44,3.77,0,5.21m-14.28-19.49l9.38,9.39-5.21,5.21-9.39-9.39c1.96-1.49,3.72-3.24,5.22-5.2M6.23,28.82c0-12.46,10.14-22.59,22.59-22.59s22.59,10.13,22.59,22.59-10.13,22.59-22.59,22.59S6.23,41.28,6.23,28.82m62.31,27.51l-15.09-15.09c1.89-3.74,2.97-7.96,2.97-12.42,0-15.22-12.38-27.6-27.6-27.6S1.22,13.6,1.22,28.82s12.38,27.6,27.6,27.6c4.43,0,8.61-1.05,12.32-2.91l15.11,15.11c1.69,1.69,3.92,2.54,6.15,2.54s4.45-.85,6.15-2.54c3.39-3.39,3.39-8.9,0-12.29"/>
</svg>