<?xml version="1.0" encoding="UTF-8"?>
<svg id="Layer_1" data-name="Layer 1" xmlns="http://www.w3.org/2000/svg" viewBox="0 0 79.93 79.71">
  <defs>
    <style>
      .cls-1 {
        fill: #1f1f2e;
      }

      .cls-1, .cls-2 {
        stroke-width: 0px;
      }

      .cls-2 {
        fill: #f09664;
      }
    </style>
  </defs>
  <path class="cls-2" d="m73.89,20.24c0,1.8-1.46,3.25-3.25,3.25h-10.95c-1.8,0-3.25-1.46-3.25-3.25v-10.95c0-1.8,1.46-3.25,3.25-3.25h10.95c1.8,0,3.25,1.46,3.25,3.25v10.95Zm-25.33,39.24v10.95c0,1.79-1.46,3.25-3.25,3.25h-10.95c-1.8,0-3.25-1.46-3.25-3.25v-10.95c0-1.8,1.46-3.25,3.25-3.25h10.95c1.8,0,3.25,1.46,3.25,3.25M6.03,20.24v-10.95c0-1.8,1.46-3.25,3.25-3.25h10.95c1.8,0,3.25,1.46,3.25,3.25v10.95c0,1.8-1.46,3.25-3.25,3.25h-10.95c-1.8,0-3.25-1.46-3.25-3.25"/>
  <path class="cls-1" d="m73.89,20.24c0,1.8-1.46,3.25-3.25,3.25h-10.95c-1.8,0-3.25-1.46-3.25-3.25v-10.95c0-1.8,1.46-3.25,3.25-3.25h10.95c1.8,0,3.25,1.46,3.25,3.25v10.95Zm-25.33,39.24v10.95c0,1.8-1.46,3.25-3.25,3.25h-10.95c-1.8,0-3.25-1.46-3.25-3.25v-10.95c0-1.8,1.46-3.25,3.25-3.25h10.95c1.8,0,3.25,1.46,3.25,3.25M6.03,20.24v-10.95c0-1.8,1.46-3.25,3.25-3.25h10.95c1.8,0,3.25,1.46,3.25,3.25v10.95c0,1.8-1.46,3.25-3.25,3.25h-10.95c-1.8,0-3.25-1.46-3.25-3.25M70.64,1.02h-10.95c-4.55,0-8.26,3.71-8.26,8.26v2.97h-22.93v-2.97c0-4.55-3.71-8.26-8.26-8.26h-10.95C4.73,1.02,1.02,4.73,1.02,9.28v10.95c0,4.56,3.7,8.26,8.26,8.26h9.54l11.8,23.62c-2.68,1.37-4.53,4.15-4.53,7.36v10.95c0,4.56,3.7,8.26,8.26,8.26h10.95c4.56,0,8.26-3.71,8.26-8.26v-10.95c0-4.56-3.71-8.26-8.26-8.26h-9.54l-11.8-23.62c2.68-1.37,4.53-4.15,4.53-7.36v-2.97h22.93v2.97c0,4.56,3.71,8.26,8.26,8.26h10.95c4.55,0,8.26-3.71,8.26-8.26v-10.95c0-4.55-3.71-8.26-8.26-8.26"/>
</svg>