<?xml version="1.0" encoding="UTF-8"?>
<svg id="Calque_4" data-name="Calque 4" xmlns="http://www.w3.org/2000/svg" viewBox="0 0 99.78 59.77">
  <defs>
    <style>
      .cls-1 {
        stroke: #1f1f2e;
        stroke-linecap: round;
        stroke-linejoin: round;
        stroke-width: 5px;
      }

      .cls-1, .cls-2 {
        fill: #f09664;
      }

      .cls-3 {
        fill: #1f1f2e;
      }

      .cls-3, .cls-2 {
        stroke-width: 0px;
      }
    </style>
  </defs>
  <g>
    <path class="cls-2" d="m72.75,32.15h0c-2.95,0-7.04.57-10.95,1.71,9.15,2.4,18.27,7.41,18.56,15.52h15.37v-5.74c0-7.64-15.31-11.49-22.98-11.49Z"/>
    <path class="cls-2" d="m67.26,16.99c0,2.49-.53,4.87-1.48,7.05,1.93,1.48,4.34,2.37,6.96,2.37h0c6.35,0,11.49-5.14,11.49-11.49s-5.14-11.49-11.49-11.49c-3.36,0-6.38,1.45-8.48,3.76,1.89,2.8,2.99,6.18,2.99,9.8Z"/>
  </g>
  <g>
    <path class="cls-2" d="m27.02,26.41h0c2.46,0,4.73-.78,6.6-2.09-1.04-2.27-1.6-4.75-1.6-7.32,0-3.76,1.19-7.24,3.21-10.1-2.09-2.13-4.99-3.46-8.21-3.46-6.35,0-11.49,5.14-11.49,11.49,0,6.34,5.14,11.49,11.48,11.49Z"/>
    <path class="cls-2" d="m37.75,33.8c-3.84-1.09-7.83-1.64-10.72-1.64h0c-7.67,0-22.98,3.85-22.98,11.49v5.74h14.88c.3-8.18,9.59-13.21,18.82-15.59Z"/>
  </g>
  <g>
    <path class="cls-3" d="m27.02,28.91h0c2.89,0,5.57-.88,7.8-2.38-.93-1.44-1.64-3.01-2.11-4.65-1.55,1.27-3.53,2.04-5.69,2.04v2.5-2.5c-2.41,0-4.66-.94-6.36-2.63-1.7-1.7-2.63-3.95-2.63-6.35,0-4.96,4.03-8.99,8.99-8.99,2.75,0,5.22,1.25,6.87,3.2.77-1.54,1.76-2.95,2.92-4.19-2.53-2.48-5.98-4.02-9.79-4.02-7.71,0-13.99,6.28-13.99,13.99,0,3.74,1.45,7.25,4.09,9.89,2.64,2.64,6.15,4.1,9.89,4.1Z"/>
    <path class="cls-3" d="m18.91,49.78c0-1.01.14-1.98.4-2.9H6.55v-3.24c0-4.96,12.39-8.99,20.48-8.99h0c1.85,0,3.92.21,6.02.6,2.93-1.08,6.03-1.86,8.96-2.37-.54-.26-1.06-.56-1.58-.87-4.68-1.6-9.78-2.36-13.41-2.36h0c-8.61,0-25.48,4.23-25.48,13.99v5.74c0,1.38,1.12,2.5,2.5,2.5h14.86v-2.1Z"/>
  </g>
  <g>
    <path class="cls-3" d="m72.75,29.65h0c-3.99,0-9.75.91-14.79,2.86-.23.13-.47.25-.71.37,3,.52,6.16,1.32,9.15,2.43,2.21-.42,4.4-.66,6.35-.66h0c8.09,0,20.48,4.03,20.48,8.99v3.24h-13.25c.26.92.4,1.88.4,2.9v2.1h15.35c1.38,0,2.5-1.12,2.5-2.5v-5.74c0-9.76-16.87-13.99-25.48-13.99Z"/>
    <path class="cls-3" d="m65.58,9.53c1.64-2.18,4.24-3.6,7.17-3.6,4.96,0,8.99,4.03,8.99,8.99s-4.03,8.99-8.99,8.99v2.5-2.5c-2.29,0-4.43-.85-6.09-2.39-.45,1.69-1.15,3.3-2.06,4.76,2.36,1.7,5.17,2.63,8.14,2.63h0c7.71,0,13.99-6.28,13.99-13.99S80.46.93,72.75.93c-3.94,0-7.5,1.65-10.05,4.28,1.16,1.28,2.13,2.73,2.87,4.32Z"/>
  </g>
  <path id="Icon_material-person" data-name="Icon material-person" class="cls-1" d="m49.64,30.11c7.24,0,13.12-5.87,13.12-13.12,0-7.24-5.87-13.12-13.12-13.12-7.24,0-13.12,5.87-13.12,13.12h0c0,7.24,5.86,13.11,13.11,13.12,0,0,0,0,.01,0Zm0,6.56c-8.75,0-26.23,4.4-26.23,13.12v6.56h52.47v-6.56c0-8.72-17.48-13.11-26.23-13.11h0Z"/>
</svg>