<?xml version="1.0" encoding="UTF-8"?>
<svg id="Layer_1" data-name="Layer 1" xmlns="http://www.w3.org/2000/svg" viewBox="0 0 458.29 132.05">
  <defs>
    <style>
      .cls-1 {
        fill: #6ccace;
      }

      .cls-1, .cls-2 {
        stroke-width: 0px;
      }

      .cls-2 {
        fill: #1e1e2d;
      }
    </style>
  </defs>
  <g>
    <path class="cls-2" d="m220.64,39.54h14.34l26.26,59.91,25.96-59.91h14.04l-33.5,76.51h-13.58l-33.5-76.51Z"/>
    <path class="cls-2" d="m305.41,75.31c0-25.66,11.92-37.73,35.77-37.73s35.77,12.07,35.77,37.73v40.9h-13.43v-40.75c0-18.11-7.09-26.86-22.33-26.86s-22.33,8.75-22.33,26.86v40.75l-13.43-.15v-40.75Z"/>
    <path class="cls-2" d="m400.19,39.54v40.75c0,18.11,7.24,26.86,22.33,26.86s22.33-8.75,22.33-26.86v-40.75l13.43.15v40.75c0,25.66-11.92,37.73-35.77,37.73s-35.77-12.07-35.77-37.73v-40.9h13.43Z"/>
  </g>
  <path class="cls-2" d="m215.16,57.1c-3.54-6.12-8.33-10.94-14.35-14.49-6.02-3.54-12.81-5.32-20.38-5.32s-14.39,1.77-20.45,5.32-10.88,8.37-14.42,14.49c-3.54,6.12-5.31,13.01-5.31,20.68s1.62,14.54,4.87,20.6c3.26,6.07,7.69,10.87,13.33,14.42,5.63,3.55,14.59,5.32,21.67,5.32s13.45-1.77,19.08-5.32c2.37-1.49,4.49-3.25,6.42-5.21v8.47h14.85v-38.28c0-7.67-1.77-14.56-5.31-20.68Zm-20.53,46.22c-4.15,2.55-8.89,3.82-14.2,3.82s-9.91-1.27-14.13-3.82c-4.22-2.55-7.55-6.04-9.99-10.46-2.45-4.42-3.67-9.4-3.67-14.91s1.22-10.64,3.67-15.07c2.44-4.42,5.77-7.91,9.99-10.46,4.22-2.55,8.92-3.83,14.13-3.83s10.05,1.28,14.2,3.83c4.17,2.55,7.45,6.04,9.83,10.46,2.4,4.43,3.6,9.45,3.6,15.07s-1.19,10.49-3.6,14.91c-2.39,4.42-5.67,7.91-9.83,10.46Z"/>
  <g>
    <path class="cls-1" d="m84.08,82.56l-5.09.64v-9c-1.25-9.79-9.62-17.39-19.74-17.39-17.73,0-32.16,14.43-32.16,32.16,0,3.44.54,6.83,1.61,10.07,1.35,4.11,4.06,7.98,7.83,11.18,2.5,2.13,6.44,6.27,10.93,11.59,2.07.3,4.19.46,6.35.46,3.33,0,6.57-.39,9.69-1.09-2.37-5.52-3.76-11.4-3.99-17.36-.05-2.77,7.14-7.85,7.14-7.85,0,1.84,1.5,3.34,3.34,3.34,17.94,0,29.42-1.75,35.03-2.9,1.39-.29,2.57-1.18,3.23-2.44-9.14-2.47-19.29-8.36-24.17-11.41Z"/>
    <g>
      <path class="cls-2" d="m54,73.25c-2.74,0-4.97,2.23-4.97,4.98s2.23,4.98,4.97,4.98,4.97-2.23,4.97-4.98-2.23-4.98-4.97-4.98Z"/>
      <path class="cls-2" d="m108.28,84.35c-.32-.1-.65-.22-.98-.34.21-1.9.33-3.82.33-5.77,0-21.57-12.76-40.2-31.12-48.78l5.15-13.25c4.2-.31,7.52-3.81,7.52-8.09s-3.63-8.12-8.12-8.12-8.12,3.63-8.12,8.12c0,2.15.84,4.11,2.21,5.56l-5.14,13.24c-5.11-1.62-10.55-2.49-16.19-2.49-10.37,0-20.06,2.96-28.29,8.06l-9.12-12.13c.98-3.4-.36-7.18-3.52-9.14-3.81-2.36-8.82-1.19-11.18,2.62-2.36,3.81-1.19,8.81,2.62,11.18,1.33.83,2.81,1.21,4.27,1.21l9.13,12.14C6.84,48.22,0,62.45,0,78.24c0,29.67,24.14,53.81,53.81,53.81,19.04,0,35.79-9.96,45.35-24.92,3.02-.43,5.6-.89,7.72-1.31,4.36-.87,7.93-3.99,9.38-8.2,2.31-6.65-1.29-11.11-7.99-13.27Zm-98.5-6.11c0-24.28,19.75-44.04,44.04-44.04s44.04,19.75,44.04,44.04c0,.42-.03.84-.04,1.26-3.84-2.17-7.17-4.38-9-5.52-1.4-15.09-14.11-26.95-29.56-26.95-23.12,0-41.94,18.81-41.94,41.94,0,4.48.71,8.9,2.1,13.12.9,2.72,2.21,5.35,3.86,7.82-8.31-8.01-13.49-19.25-13.49-31.68Zm63.01,39.71c-1.29-2.86-2.28-5.83-2.86-8.87.02,0,.05,0,.07,0,5.78,0,11.01-.21,15.71-.54-3.68,3.87-8.05,7.07-12.92,9.41Zm32.24-21.55c-5.61,1.15-17.09,2.9-35.03,2.9-1.84,0-3.34-1.5-3.34-3.34,0,0-7.19,5.09-7.14,7.85.23,5.96,1.62,11.84,3.99,17.36-3.12.7-6.36,1.09-9.69,1.09-2.16,0-4.28-.16-6.35-.46-4.49-5.32-8.43-9.46-10.93-11.59-3.77-3.2-6.48-7.07-7.83-11.18-1.07-3.24-1.61-6.63-1.61-10.07,0-17.73,14.43-32.16,32.16-32.16,10.13,0,18.49,7.6,19.74,17.39v9l5.09-.64c4.88,3.05,15.03,8.94,24.17,11.41-.65,1.26-1.83,2.16-3.23,2.44Z"/>
    </g>
  </g>
</svg>