<?xml version="1.0" encoding="UTF-8"?><svg id="a" xmlns="http://www.w3.org/2000/svg" viewBox="0 0 40.02 22.49"><path d="m10.01,10.01c-2.76,0-5-2.24-5-5S7.25,0,10.01,0c1.96,0,3.75,1.15,4.56,2.94-1.08,1.27-1.67,2.89-1.67,4.55,0,.5.05,1,.16,1.49-.88.68-1.93,1.03-3.05,1.03Zm20.01,0c-1.16,0-2.29-.4-3.18-1.14.09-.45.14-.92.14-1.38,0-1.61-.56-3.18-1.57-4.43.78-1.86,2.59-3.06,4.61-3.06,2.76,0,5,2.24,5,5s-2.24,5-5,5Zm-10.08,2.48c-2.76,0-5-2.24-5-5s2.24-5,5-5c2.76,0,5,2.24,5,5,0,1.34-.52,2.59-1.46,3.54-.94.94-2.2,1.46-3.54,1.46Zm-12.05,7.52H0v-2.5c0-1.86,2.04-3.06,3.75-3.75,2.16-.87,4.7-1.25,6.26-1.25,1.66,0,3.8.39,5.59,1.01-.96.23-1.86.51-2.68.84-1.36.54-2.46,1.2-3.28,1.96-1.45,1.33-1.75,2.74-1.75,3.68v.02h0Zm32.13,0h-8.04v-.02c0-.94-.3-2.35-1.75-3.68-.82-.75-1.92-1.41-3.28-1.96-.78-.31-1.65-.59-2.59-.82,1.78-.63,4-1.03,5.66-1.03,1.56,0,4.09.39,6.26,1.25,1.71.69,3.75,1.89,3.75,3.75v2.5h0Zm-10.08,2.48H9.93v-2.48s0-.02,0-.02c0-1.86,2.04-3.06,3.75-3.75,2.16-.87,4.7-1.25,6.26-1.25s4.09.39,6.26,1.25c1.71.69,3.75,1.89,3.75,3.75v2.5h0Z"/></svg>