<?xml version="1.0" encoding="UTF-8"?><svg id="a" xmlns="http://www.w3.org/2000/svg" viewBox="0 0 28.45 22.76"><path d="m27.03,0h-5.69c-.79,0-1.42.64-1.42,1.42v5.69c0,.79.64,1.42,1.42,1.42h5.69c.79,0,1.42-.64,1.42-1.42V1.42c0-.79-.64-1.42-1.42-1.42ZM8.54,1.42c0-.79-.64-1.42-1.42-1.42H1.42C.64,0,0,.64,0,1.42v5.69c0,.79.64,1.42,1.42,1.42h4.26l3.25,5.69c.49-.85,1.4-1.42,2.45-1.42h.01l-2.86-5v-2.11h9.96v-2.85h-9.96v-1.42Zm8.54,12.8h-5.69c-.79,0-1.42.64-1.42,1.42v5.69c0,.79.64,1.42,1.42,1.42h5.69c.79,0,1.42-.64,1.42-1.42v-5.69c0-.79-.64-1.42-1.42-1.42Z"/></svg>